<svg id="Layer_1" data-name="Layer 1" xmlns="http://www.w3.org/2000/svg" xmlns:xlink="http://www.w3.org/1999/xlink" viewBox="0 0 701.35 434"><defs><style>.cls-1{opacity:0.2;}.cls-2{fill:#cbe8f4;}.cls-2,.cls-3,.cls-4,.cls-5,.cls-6{stroke:#9ac8e2;stroke-miterlimit:10;stroke-width:0.75px;}.cls-3,.cls-7{fill:#fff;}.cls-4{fill:#fb635e;}.cls-5{fill:#eea126;}.cls-6{fill:#35ca4a;}.cls-8{fill:#9ac8e2;}.cls-9{fill:url(#linear-gradient);}</style><linearGradient id="linear-gradient" x1="70.87" y1="266.67" x2="437.49" y2="266.67" gradientUnits="userSpaceOnUse"><stop offset="0" stop-color="#073f69"/><stop offset="1" stop-color="#00133c"/></linearGradient></defs><title>Install</title><g class="cls-1"><path class="cls-2" d="M469.18,227.45a5.54,5.54,0,0,0-1.2-3.37L372.41,109.67a73.63,73.63,0,0,0-7.54-83.22C337.77-6,288.1-9.25,257,20.33c-28.42,27.06-30.13,73.23-3.92,102.44,20.4,22.72,51.61,29.55,79.37,20.26l72,86.18L356.2,290.43a73.63,73.63,0,0,0-80.35,22.94C249,346,255.09,395.44,290,420.46c31.89,22.88,77.57,15.94,101.37-15.26,18.52-24.28,19.4-56.22,5.1-81.76l71.71-90.92A5.64,5.64,0,0,0,469.18,227.45ZM332.39,103a37.92,37.92,0,1,1,4.79-53.41A37.76,37.76,0,0,1,332.39,103Zm30,281.37A37.92,37.92,0,1,1,357.09,331,37.76,37.76,0,0,1,362.35,384.36Z"/><path class="cls-2" d="M265.24,163.18a99.49,99.49,0,0,1-39.44-34L97,290.47a73.64,73.64,0,0,0-80.35,22.94C-10.12,346.08-4.06,395.49,30.8,420.5c31.89,22.88,77.57,15.94,101.37-15.26,18.52-24.28,19.4-56.22,5.1-81.76l127.92-160.2S265.21,163.21,265.24,163.18ZM103.2,384.4A37.92,37.92,0,1,1,97.94,331,37.76,37.76,0,0,1,103.2,384.4Z"/><path class="cls-2" d="M701.21,307.42l.14-.07L601.87,190a73.64,73.64,0,0,0-7.24-83.25c-27-32.53-76.63-36-107.82-6.51-28.52,27-30.4,73.12-4.3,102.42,20.31,22.8,51.5,29.74,79.3,20.55l98.57,116.31s.07,0,.09.07.16-.17.23-.27A99.65,99.65,0,0,0,701.21,307.42ZM561.88,183.18a37.92,37.92,0,1,1,5-53.39A37.76,37.76,0,0,1,561.88,183.18Z"/></g><path class="cls-3" d="M685.26,337.87H58.09a8.6,8.6,0,0,1-8.57-8.57V169.57A8.6,8.6,0,0,1,58.09,161H685.26a8.6,8.6,0,0,1,8.57,8.57V329.3A8.6,8.6,0,0,1,685.26,337.87Z"/><line class="cls-3" x1="693.84" y1="195" x2="49.51" y2="195"/><circle class="cls-4" cx="66.34" cy="178.27" r="4.53"/><circle class="cls-5" cx="80.99" cy="178.27" r="4.53"/><circle class="cls-6" cx="95.65" cy="178.27" r="4.53"/><rect class="cls-7" x="437.07" y="256.71" width="219.46" height="19.92"/><path class="cls-8" d="M656.15,257.08v19.17H437.44V257.08H656.15m.75-.75H436.69V277H656.9V256.33Z"/><rect class="cls-9" x="70.87" y="256.33" width="366.62" height="20.67"/></svg>