<svg id="Layer_1" xmlns="http://www.w3.org/2000/svg" xmlns:xlink="http://www.w3.org/1999/xlink" viewBox="0 0 305.8 53"><style>.st36{fill:#fff}</style><defs><path id="SVGID_34_" d="M-1361.2-507.6h1216v768h-1216z"/></defs><clipPath id="SVGID_2_"><use xlink:href="#SVGID_34_" overflow="visible"/></clipPath><image width="4663" height="2060" xlink:href="../../../Diseño/Portal Andino/Landing de Producto Portal Andino/Depositphotos_14422693_original.jpg" transform="translate(-1883.237 -579.554) scale(.4068)" overflow="visible"/><g clip-path="url(#SVGID_2_)"><linearGradient id="SVGID_3_" gradientUnits="userSpaceOnUse" x1="-678.237" y1="260.446" x2="-678.237" y2="-507.554"><stop offset="0" stop-color="#073f69"/><stop offset="1" stop-color="#00133c"/></linearGradient><path fill="url(#SVGID_3_)" d="M-1361.2-507.6H4.8v768h-1366z"/><path class="st36" d="M162.7-24.4c.1 0 .1-.1.2-.1L53.8-153.2c15.9-27.6 14.3-64.5-7.9-91.3-29.6-35.7-84-39.5-118.2-7.1-31.3 29.6-33.3 80.2-4.7 112.3 22.3 25 56.5 32.6 87 22.5L117.9 10.8s.1 0 .1.1c.1-.1.2-.2.2-.3 17.8-7.7 33.1-19.8 44.5-35zM9.9-160.7c-17.8 14.7-43.8 12.3-58.5-5.5-14.7-17.8-12.3-43.8 5.5-58.5 17.8-14.7 43.8-12.3 58.5 5.5 14.7 17.7 12.3 43.8-5.5 58.5zm108.5 171c11.5-15.2 26.6-27.2 44-34.7-17.3 7.5-32.5 19.5-44 34.7z" opacity=".1"/></g><path class="st36" d="M131.5 52.1c-.6-1.7-1.2-3.5-1.9-5.2-.6-1.7-1.3-3.4-1.9-5.2H109c-.6 1.8-1.2 3.5-1.8 5.3l-1.8 5.1H97c1.7-4.7 3.2-9.1 4.7-13.1s2.9-7.8 4.4-11.4c1.4-3.6 2.8-7 4.2-10.2 1.3-3 2.6-6 4-8.9.2-.4.6-.7 1.1-.7h6.2c.5 0 .9.3 1.1.7 1.4 2.9 2.7 5.9 4 8.9 1.4 3.2 2.8 6.6 4.2 10.2 1.4 3.6 2.9 7.4 4.4 11.4 1.5 4 3.1 8.4 4.8 13.1h-8.6zm-13-35.6c-1 2.3-2.1 5-3.3 8.2-1.3 3.2-2.6 6.7-3.9 10.5h14.5c-1.4-3.8-2.7-7.3-4-10.6-1.3-3.2-2.4-5.9-3.3-8.1zm26.9 4.3c0-.5.4-1 .9-1.1 1.3-.3 3-.7 4.9-1 2.4-.4 5-.6 7.9-.6 2.7 0 5 .4 6.8 1.1 1.8.7 3.3 1.8 4.4 3.1 1.1 1.3 1.8 3 2.3 4.8.4 1.9.7 4 .7 6.2v18.8h-7.7V34.6c0-1.8-.1-3.3-.4-4.6-.2-1.3-.6-2.3-1.1-3.1-.5-.8-1.3-1.4-2.2-1.7-.9-.4-2-.5-3.3-.5-1 0-2 .1-3.1.2s-1.9.2-2.4.3v26.9h-7.7V20.8zm65.5 30.3c-1.5.5-3.5.9-5.8 1.3s-4.8.6-7.3.6c-2.6 0-5-.4-7.1-1.2-2.1-.8-3.9-2-5.3-3.5-1.5-1.5-2.6-3.3-3.4-5.5-.8-2.1-1.2-4.6-1.2-7.2 0-2.6.3-5 1-7.2.7-2.1 1.6-4 2.9-5.5s2.8-2.7 4.7-3.5c1.8-.8 3.9-1.2 6.3-1.2 1.6 0 3 .2 4.3.6 1.2.4 2.3.8 3.2 1.3v-15c0-.6.4-1.1 1-1.2l5.4-.9c.7-.1 1.4.4 1.4 1.2v46.9zm-22.2-15.7c0 3.4.8 6.1 2.4 8 1.6 1.9 3.8 2.9 6.7 2.9 1.2 0 2.3-.1 3.2-.2.9-.1 1.6-.2 2.1-.4V26.6c-.7-.5-1.6-.9-2.7-1.3s-2.3-.6-3.6-.6c-2.8 0-4.9 1-6.2 2.9-1.2 1.9-1.9 4.5-1.9 7.8zM229.3 9c0 1.4-.5 2.6-1.4 3.4-.9.9-2 1.3-3.3 1.3-1.3 0-2.4-.4-3.4-1.3-.9-.8-1.4-2-1.4-3.4 0-1.5.5-2.7 1.4-3.5.9-.9 2.1-1.3 3.4-1.3 1.3 0 2.4.4 3.3 1.3.9.9 1.4 2 1.4 3.5zm-.8 43.1h-7.7V20c0-.6.5-1.2 1.2-1.2h5.4c.6 0 1.2.5 1.2 1.2v32.1zm9.8-31.3c0-.5.4-1 .9-1.1 1.3-.3 3-.7 4.9-1 2.4-.4 5-.6 7.9-.6 2.7 0 5 .4 6.8 1.1 1.8.7 3.3 1.8 4.4 3.1 1.1 1.3 1.8 3 2.3 4.8.4 1.9.7 4 .7 6.2v18.8h-7.7V34.6c0-1.8-.1-3.3-.4-4.6-.2-1.3-.6-2.3-1.1-3.1-.5-.8-1.3-1.4-2.2-1.7-.9-.4-2-.5-3.3-.5-1 0-2 .1-3.1.2s-1.9.2-2.4.3v26.9h-7.7V20.8zm67.5 14.6c0 2.6-.4 5-1.1 7.2-.8 2.2-1.8 4-3.3 5.5-1.4 1.5-3.1 2.7-5.1 3.6-2 .8-4.2 1.3-6.5 1.3-2.4 0-4.6-.4-6.5-1.3-2-.9-3.6-2-5-3.6-1.4-1.5-2.5-3.4-3.3-5.5-.8-2.2-1.2-4.6-1.2-7.2s.4-5 1.2-7.2c.8-2.1 1.9-4 3.3-5.5s3.1-2.7 5.1-3.5c2-.8 4.1-1.2 6.4-1.2 2.3 0 4.5.4 6.5 1.2 2 .8 3.7 2 5.1 3.5 1.4 1.5 2.5 3.4 3.3 5.5.7 2.2 1.1 4.6 1.1 7.2zm-7.9 0c0-3.3-.7-5.9-2.1-7.9-1.4-1.9-3.4-2.9-6-2.9s-4.5 1-6 2.9c-1.4 1.9-2.1 4.6-2.1 7.9 0 3.4.7 6 2.1 8 1.4 2 3.4 2.9 6 2.9s4.5-1 6-2.9c1.3-1.9 2.1-4.6 2.1-8zM56.7 27.5c0-.1 0-.3-.1-.4L45 13.2c1.7-3.1 1.5-7.1-.9-10.1-3.3-3.9-9.3-4.3-13-.7-3.4 3.3-3.6 8.8-.5 12.4 2.5 2.7 6.2 3.6 9.6 2.4l8.7 10.4-5.9 7.5c-3.3-1.1-7.3-.2-9.7 2.8-3.2 3.9-2.5 9.9 1.7 12.9 3.9 2.8 9.4 1.9 12.2-1.8 2.2-2.9 2.3-6.8.6-9.9l8.7-11c.2-.2.2-.4.2-.6zM40.1 12.4c-2 1.6-4.8 1.4-6.5-.6-1.6-2-1.4-4.8.6-6.5s4.9-1.3 6.5.7c1.7 1.9 1.4 4.8-.6 6.4zm3.7 34c-1.6 2-4.5 2.2-6.4.6-2-1.6-2.2-4.5-.6-6.4 1.6-2 4.5-2.2 6.4-.6 1.9 1.6 2.2 4.5.6 6.4z"/><path class="st36" d="M32 19.7c-1.9-.9-3.6-2.3-4.8-4.1L11.7 35.1C8.4 34 4.4 34.9 2 37.9c-3.2 3.9-2.5 9.9 1.7 12.9 3.9 2.8 9.4 1.9 12.2-1.8 2.2-2.9 2.3-6.8.6-9.9L32 19.7zM12.5 46.4c-1.6 2-4.5 2.2-6.4.6-2-1.6-2.2-4.5-.6-6.4 1.6-2 4.5-2.2 6.4-.6 1.9 1.6 2.2 4.5.6 6.4zm72.2-9.3l-12-14.2c1.7-3 1.6-7.1-.9-10.1-3.3-3.9-9.3-4.3-13-.8-3.4 3.3-3.7 8.8-.5 12.4 2.5 2.8 6.2 3.6 9.6 2.5l11.9 14c1.9-.8 3.6-2.1 4.9-3.8zm-16.8-15c-2 1.6-4.8 1.4-6.4-.6-1.6-2-1.4-4.8.6-6.4 2-1.6 4.8-1.4 6.4.6 1.6 1.9 1.3 4.8-.6 6.4zM79.8 41c1.3-1.7 2.9-3 4.8-3.8-1.9.8-3.5 2.1-4.8 3.8z"/></svg>