<svg xmlns="http://www.w3.org/2000/svg" viewBox="0 0 42.8 31.1"><path d="M27 18.2c-1.3 0-2.3 1.4-2.3 3.2 0 1.8 1 3.2 2.3 3.2s2.3-1.4 2.3-3.2-1-3.2-2.3-3.2zm8-8.3c.3-.6.3-4.3-1.1-7.8 0 0-3.2.4-8 3.7-1-.3-2.7-.4-4.4-.4-1.7 0-3.4.1-4.4.4-4.8-3.3-8-3.7-8-3.7-1.6 3.5-1.6 7.2-1.3 7.8-1.6 1.8-2.6 3.9-2.6 6.8 0 12.7 10.5 12.9 13.2 12.9h6.2c2.7 0 13.2-.2 13.2-12.9-.1-2.8-1.1-5-2.8-6.8zM21.5 28.1c-6.8 0-11.9-.8-11.9-7.3 0-1.6.5-3 1.8-4.2 2.2-2 5.8-.9 10-.9s7.8-1.1 10 .9c1.3 1.2 1.8 2.6 1.8 4.2.1 6.5-5.1 7.3-11.7 7.3zm-5.7-9.9c-1.3 0-2.3 1.4-2.3 3.2 0 1.8 1 3.2 2.3 3.2s2.3-1.4 2.3-3.2-1-3.2-2.3-3.2z" fill="#fff"/></svg>