<svg id="Layer_1" xmlns="http://www.w3.org/2000/svg" xmlns:xlink="http://www.w3.org/1999/xlink" viewBox="0 0 73.7 72"><style>.st36{fill:#fff}.st481{fill:#3f8ece}.st482{fill:#222220}.st484{fill:#5d9942}.st485{fill:#c5351a}.st486{fill:#eabf83}</style><defs><path id="SVGID_34_" d="M387.1-675.6h1216v768h-1216z"/></defs><clipPath id="SVGID_2_"><use xlink:href="#SVGID_34_" overflow="visible"/></clipPath><g clip-path="url(#SVGID_2_)"><image width="4663" height="2060" xlink:href="../../../Diseño/Portal Andino/Landing de Producto Portal Andino/Depositphotos_14422693_original.jpg" transform="translate(-134.85 -747.621) scale(.4068)" overflow="visible"/></g><path class="st481" d="M0 67.6h1.7c1 0 1.6.6 1.6 1.4 0 1-.8 1.5-1.7 1.5H.8v1.4H0v-4.3zm1.6 2.2c.6 0 .9-.3.9-.8s-.4-.8-.9-.8H.8v1.5h.8zM4 68.7h.7v.7c.2-.5.6-.8 1.1-.8v.8c-.7 0-1.1.4-1.1 1.3v1.2H4v-3.2zm2.3 1.6c0-.9.7-1.7 1.6-1.7 1 0 1.6.8 1.6 1.7v.2H7c.1.5.5.8.9.8s.6-.1.9-.4l.4.4c-.2.4-.7.7-1.3.7-.9 0-1.6-.7-1.6-1.7zm2.4-.2c0-.5-.3-.9-.8-.9s-.8.4-.8.9h1.6zm1.1 1.4l.3-.5c.4.3.7.4 1.1.4.3 0 .5-.1.5-.3 0-.3-.3-.3-.7-.5-.5-.1-1-.3-1-1 0-.6.5-1 1.2-1 .4 0 .8.1 1.2.4l-.3.5c-.3-.2-.6-.3-.9-.3-.3 0-.5.1-.5.3 0 .2.4.3.7.5.5.1 1 .4 1 .9 0 .7-.5 1-1.2 1-.4.1-1-.1-1.4-.4zm3.3-4h.8v.7h-.8v-.7zm.1 1.2h.7v3.2h-.7v-3.2zm1.5 1.6c0-1.1.7-1.7 1.5-1.7.5 0 .9.3 1.1.6v-1.7h.7V72h-.7v-.5c-.3.2-.6.5-1.1.5-.8 0-1.5-.6-1.5-1.7zm2.6 0c0-.6-.4-1.1-.9-1.1s-.9.4-.9 1 .4 1 .9 1c.4.1.9-.3.9-.9zm1.4 0c0-.9.7-1.7 1.6-1.7 1 0 1.6.8 1.6 1.7v.2h-2.4c.1.5.5.8.9.8s.6-.1.9-.4l.4.4c-.3.4-.7.7-1.3.7-1 0-1.7-.7-1.7-1.7zm2.4-.2c0-.5-.3-.9-.8-.9s-.8.4-.8.9h1.6zm1.4-1.4h.7v.5c.2-.3.5-.6 1-.6.7 0 1.2.5 1.2 1.2v2.1h-.7v-1.8c0-.5-.3-.8-.7-.8-.4 0-.7.3-.7.8v1.8h-.7v-3.2zm3.6 1.6c0-.9.7-1.7 1.7-1.7.6 0 1 .2 1.3.6l-.5.5c-.2-.2-.5-.4-.8-.4-.5 0-.9.5-.9 1 0 .6.4 1 1 1 .4 0 .6-.2.8-.4l.4.4c-.3.4-.7.6-1.3.6-1 .1-1.7-.7-1.7-1.6zm3.7-2.8h.8v.7h-.8v-.7zm0 1.2h.7v3.2h-.7v-3.2zm1.4 2.3c0-.7.5-1.1 1.3-1.1.4 0 .6.1.9.1 0-.5-.3-.7-.8-.7-.4 0-.6.1-.9.2l-.2-.6c.4-.2.7-.3 1.2-.3s.8.1 1.1.4c.2.2.4.6.4 1v1.9h-.7v-.4c-.2.3-.6.5-1.1.5-.6 0-1.2-.4-1.2-1zm2.3-.3v-.2c-.2-.1-.4-.1-.7-.1-.5 0-.8.2-.8.5s.3.5.6.5c.5 0 .9-.2.9-.7zm3.1-.4c0-1.1.7-1.7 1.5-1.7.5 0 .9.3 1.1.6v-1.7h.8V72h-.7v-.5c-.3.2-.6.5-1.2.5-.7 0-1.5-.6-1.5-1.7zm2.7 0c0-.6-.4-1.1-.9-1.1s-.9.4-.9 1 .4 1 .9 1c.4.1.9-.3.9-.9zm1.4 0c0-.9.7-1.7 1.6-1.7 1 0 1.6.8 1.6 1.7v.2h-2.4c.1.5.5.8.9.8s.6-.1.9-.4l.4.4c-.3.4-.7.6-1.3.6-1 .1-1.7-.6-1.7-1.6zm2.4-.2c0-.5-.3-.9-.8-.9s-.8.4-.8.9h1.6zm3.2-2.7h.7v4.5h-.7v-4.5zm1.5 3.6c0-.7.5-1.1 1.3-1.1.4 0 .6.1.9.1 0-.5-.3-.7-.8-.7-.4 0-.6.1-.9.2l-.2-.6c.4-.2.7-.3 1.2-.3s.8.1 1.1.4c.2.2.4.6.4 1v1.9H50v-.4c-.2.3-.6.5-1.1.5-.6 0-1.1-.4-1.1-1zm2.2-.3v-.2c-.2-.1-.4-.1-.7-.1-.5 0-.8.2-.8.5s.3.5.6.5c.5 0 .9-.2.9-.7zm3.4-3.1h.7l2.3 3v-3h.7v4.3h-.6l-2.4-3.1v3.1h-.7v-4.3zm4.5 3.4c0-.7.5-1.1 1.3-1.1.4 0 .6.1.9.1 0-.5-.3-.7-.8-.7-.4 0-.6.1-.9.2l-.2-.6c.4-.2.7-.3 1.2-.3s.8.1 1.1.4c.2.2.4.6.4 1v1.9h-.7v-.4c-.2.3-.6.5-1.1.5-.6 0-1.2-.4-1.2-1zm2.2-.3v-.2c-.2-.1-.4-.1-.7-.1-.5 0-.8.2-.8.5s.3.5.6.5c.6 0 .9-.2.9-.7zm1.4-.4c0-.9.7-1.7 1.7-1.7.6 0 1 .2 1.3.6l-.5.5c-.2-.2-.5-.4-.8-.4-.5 0-.9.5-.9 1 0 .6.4 1 1 1 .4 0 .6-.2.8-.4l.4.4c-.3.4-.7.6-1.3.6-1 .1-1.7-.7-1.7-1.6zm3.7-2.8h.8v.7h-.8v-.7zm0 1.2h.7v3.2h-.7v-3.2zm1.5 1.6c0-.9.7-1.7 1.7-1.7s1.7.8 1.7 1.7c0 .9-.7 1.7-1.7 1.7s-1.7-.8-1.7-1.7zm2.7 0c0-.6-.4-1.1-1-1.1s-1 .5-1 1c0 .6.4 1 1 1 .6.1 1-.3 1-.9zm-.7-3.1l.7.3-.8.7H68l.7-1zm2.1 1.5h.7v.5c.2-.3.5-.6 1-.6.7 0 1.2.5 1.2 1.2v2.1H73v-1.8c0-.5-.3-.8-.7-.8-.4 0-.7.3-.7.8v1.8h-.7v-3.2zM4.7 46.2h1.4l2.2 3.5 2.2-3.5H12v7.4h-1.3v-5.3l-2.3 3.5L6 48.3v5.3H4.7v-7.4zm8.8-.3h1.4v1.2h-1.4v-1.2zm.1 2.1h1.3v5.6h-1.3V48zm2.7 0h1.3v.9c.4-.5.9-1 1.7-1 1.3 0 2 .8 2 2.1v3.5H20v-3.2c0-.9-.4-1.4-1.2-1.4-.7 0-1.3.5-1.3 1.4v3.1h-1.3V48zm6.3-2.1H24v1.2h-1.4v-1.2zm.1 2.1H24v5.6h-1.3V48zm2.3 4.8l.6-.9c.6.5 1.3.7 1.8.7s.9-.2.9-.6c0-.4-.6-.6-1.2-.8-.8-.2-1.7-.6-1.7-1.6 0-1.1.9-1.7 2-1.7.7 0 1.5.2 2 .6l-.5.9c-.5-.3-1.1-.5-1.6-.5s-.8.2-.8.5c0 .4.6.6 1.3.8.8.3 1.7.6 1.7 1.6 0 1.2-.9 1.7-2.1 1.7-.9.1-1.7-.1-2.4-.7zm5.7-.8v-2.9H30V48h.7v-1.5H32V48h1.5v1.1H32v2.7c0 .5.3.7.7.7.3 0 .5-.1.8-.2v1c-.3.2-.7.3-1.1.3-1 0-1.7-.4-1.7-1.6zm3.6-1.2c0-1.6 1.1-2.9 2.7-2.9 1.8 0 2.7 1.4 2.7 3v.4h-4.1c.1.9.8 1.4 1.6 1.4.6 0 1.1-.2 1.5-.7l.7.7c-.5.6-1.3 1-2.3 1-1.6 0-2.8-1.2-2.8-2.9zm4.1-.4c-.1-.8-.6-1.5-1.4-1.5-.8 0-1.3.6-1.4 1.5h2.8zm2.3-2.4H42v1.3c.3-.8 1-1.4 2-1.4v1.3h-.1c-1.1 0-1.9.7-1.9 2.2v2.1h-1.3V48zm4.2-2.1h1.4v1.2h-1.4v-1.2zm0 2.1h1.3v5.6h-1.3V48zm2.5 2.8c0-1.6 1.3-2.9 3-2.9s3 1.3 3 2.9c0 1.6-1.3 2.9-3 2.9-1.8 0-3-1.3-3-2.9zm4.6 0c0-1-.7-1.8-1.7-1.8s-1.7.8-1.7 1.8.7 1.8 1.7 1.8c1.1-.1 1.7-.9 1.7-1.8zm5 0c0-1.9 1.3-2.9 2.6-2.9.9 0 1.5.5 1.9 1v-3h1.3v7.7h-1.3v-.9c-.4.6-1 1-1.9 1-1.3-.1-2.6-1.1-2.6-2.9zm4.5 0c0-1.1-.8-1.8-1.6-1.8-.9 0-1.6.7-1.6 1.8s.7 1.8 1.6 1.8c.9-.1 1.6-.8 1.6-1.8zm2.4 0c0-1.6 1.1-2.9 2.7-2.9 1.8 0 2.7 1.4 2.7 3v.4h-4.1c.1.9.8 1.4 1.6 1.4.6 0 1.1-.2 1.5-.7l.7.7c-.5.6-1.3 1-2.3 1-1.6 0-2.8-1.2-2.8-2.9zm4.1-.4c-.1-.8-.6-1.5-1.4-1.5-.8 0-1.3.6-1.4 1.5H68zM0 56.7h1.4l2.2 3.5 2.2-3.5h1.4V64H6v-5.3l-2.3 3.5-2.3-3.4V64H0v-7.3zm8.5 4.6c0-1.6 1.3-2.9 3-2.9s3 1.3 3 2.9c0 1.6-1.3 2.9-3 2.9s-3-1.3-3-2.9zm4.6 0c0-1-.7-1.8-1.7-1.8s-1.7.8-1.7 1.8.7 1.8 1.7 1.8c1.1 0 1.7-.8 1.7-1.8zm2.1 0c0-1.9 1.3-2.9 2.6-2.9.9 0 1.5.5 1.9 1v-3H21V64h-1.3v-.9c-.4.6-1 1-1.9 1-1.3.1-2.6-1-2.6-2.8zm4.5 0c0-1.1-.8-1.8-1.6-1.8-.9 0-1.6.7-1.6 1.8s.7 1.8 1.6 1.8c.9 0 1.6-.8 1.6-1.8zm2.4 0c0-1.6 1.1-2.9 2.7-2.9 1.8 0 2.7 1.4 2.7 3v.4h-4.1c.1.9.8 1.4 1.6 1.4.6 0 1.1-.2 1.5-.7l.7.7c-.5.6-1.3 1-2.3 1-1.6 0-2.8-1.2-2.8-2.9zm4.1-.4c-.1-.8-.6-1.5-1.4-1.5-.8 0-1.3.6-1.4 1.5h2.8zm2.3-2.4h1.3v1.3c.3-.8 1-1.4 2-1.4v1.3h-.1c-1.1 0-1.9.7-1.9 2.2V64h-1.3v-5.5zm4.1 0h1.3v.9c.4-.5.9-1 1.7-1 1.3 0 2 .8 2 2.1V64h-1.3v-3.2c0-.9-.4-1.4-1.2-1.4-.7 0-1.3.5-1.3 1.4V64h-1.3v-5.5zm6.4-2.1h1.4v1.2H39v-1.2zm0 2.1h1.3V64H39v-5.5zm2.5 4.7l3.2-3.6h-3.1v-1h4.7v.9L43.1 63h3.2v1h-4.8v-.8zm5.6-.8c0-1.2.9-1.8 2.3-1.8.6 0 1.1.1 1.5.2v-.1c0-.8-.5-1.2-1.4-1.2-.6 0-1.1.1-1.6.3l-.3-1c.6-.3 1.2-.5 2.1-.5.8 0 1.5.2 1.8.6.4.4.6 1 .6 1.7V64h-1.2v-.7c-.4.5-1 .8-1.8.8-1.1.1-2-.5-2-1.7zm3.8-.4v-.4c-.3-.1-.8-.2-1.3-.2-.8 0-1.3.3-1.3.9 0 .5.5.8 1.1.8.8.1 1.5-.3 1.5-1.1zm2.2-.7c0-1.6 1.2-2.9 2.9-2.9 1 0 1.7.4 2.2 1l-.8.9c-.4-.4-.8-.7-1.4-.7-.9 0-1.6.8-1.6 1.8s.7 1.8 1.7 1.8c.6 0 1-.3 1.4-.7l.8.8c-.5.6-1.2 1-2.3 1-1.7-.1-2.9-1.4-2.9-3zm6.1-4.9h1.4v1.2h-1.4v-1.2zm.1 2.1h1.3V64h-1.3v-5.5zm2.4 2.8c0-1.6 1.3-2.9 3-2.9s3 1.3 3 2.9c0 1.6-1.3 2.9-3 2.9-1.8 0-3-1.3-3-2.9zm4.6 0c0-1-.7-1.8-1.7-1.8s-1.7.8-1.7 1.8.7 1.8 1.7 1.8c1.1 0 1.7-.8 1.7-1.8zm-1.1-5.2l1.2.5-1.3 1.2h-1l1.1-1.7zm3.5 2.4H70v.9c.4-.5.9-1 1.7-1 1.3 0 2 .8 2 2.1V64h-1.3v-3.2c0-.9-.4-1.4-1.2-1.4-.7 0-1.3.5-1.3 1.4V64h-1.3v-5.5zM36.1 19.4h-2.2c-.5 0-.8-.2-.9-.4-.1-.1-.2-.3-.2-.6v-.8c.3-1.5.9-2.4 1.4-3-.1 0-.1 0-.2-.1-.3-.2-.5-.5-.4-.9.1-.5.5-1 .6-1.1.8-.9 1.9-.9 2-.9.2 0 1.7-.1 2.5 1.5 1 1.9 1.2 3.4 1.4 4.7v.8c-.1.2-.1.3-.2.4-.2.2-.5.4-.9.4h-2.2v3.1h9.9c0-1.8-.3-3.6-.8-5.3-.5-1.6-1.3-3.1-2.2-4.3-.9-1.2-2-2.2-3.3-2.9-1.3-.7-2.6-1.1-4-1.1s-2.7.4-4 1.1c-1.2.7-2.3 1.7-3.3 2.9-.9 1.3-1.7 2.7-2.2 4.3-.5 1.7-.8 3.5-.8 5.3H36v-3.1z"/><path class="st36" d="M26.2 22.5c0 1.4.2 2.8.5 4.1 4.4-.5 7.1-1 7.9-1.6.6-.4 1-.6 1.6-.6v-1.9h-10zm10.6 2c.4.1.7.2 1 .3h.1c.6 0 1.1.2 1.7.4.2.1.4.1.6.2.1 0 3.3 1 6 1.2.3-1.3.5-2.7.5-4.1h-9.9v2zm4 4.4c0 .1-.1.2-.2.3-.2.2-.4.2-.7.3 0 .1-.1.2-.2.3-.2.2-.4.4-.9.3 0 .1-.1.2-.2.2-.2.2-.5.3-.8.3-.1.1-.2.1-.3.2-.2.1-.5.1-.8.1v2.6c0 .2-.1.3-.3.3-.2 0-.3-.1-.3-.3V31c-.1.1-.3.1-.4.1h-.2c-.2 0-.3-.1-.5-.3-.2 0-.6.1-.9-.1-.1-.1-.2-.2-.2-.3-.1 0-.2 0-.3-.1-.3-.1-.5-.3-.6-.5h-.2c-.2 0-.6-.1-.7-.4v-.2c-1.4.7-3 1.5-3.8 1.8.3.5.6.9.9 1.4.9 1.2 2 2.2 3.3 2.9.6.3 1.2.6 1.8.7.1-.1.1-.2.3-.3.6-.4 1.7-.1 2 0 .3-.1 1.4-.4 2 0l.3.3c.6-.2 1.2-.4 1.8-.7 1.2-.7 2.3-1.7 3.3-2.9.3-.4.6-.8.9-1.3-1.1-.6-2.9-1.4-4.1-2.2z"/><path class="st481" d="M37.4 37.9v-.4c.3-.1.9-.2 1.2-.6.2-.2.2-.5.2-.7 0-.2-.1-.4-.4-.6-.6-.4-1.7-.1-2 0-.3-.1-1.4-.4-2 0-.2.1-.3.3-.4.6 0 .3 0 .5.2.7.3.4.9.5 1.2.6v.4c-.2.2-1 .9-2.2 1.1 0 .1.1.2.3.4 1-.2 1.7-.7 2.1-1l.1.1c-.1.3-.4 1-1.6 1.3.2.1.4.2.7.2.9-.4 1.2-1 1.3-1.3h.4c.1.3.4.9 1.3 1.3.3 0 .5-.1.7-.2-1.2-.3-1.5-1-1.6-1.3l.1-.1c.3.3 1 .9 2 1 .2-.2.3-.3.3-.4-.9-.2-1.7-.9-1.9-1.1z"/><path class="st36" d="M38.2 35.9c.1.1.1.1.2.3 0 .2 0 .3-.1.4-.1.2-.4.3-.6.3.1-.2.1-.4 0-.7-.1-.2-.2-.4-.4-.5.4.1.7.1.9.2zm-2.6.5c.2-.4.8-.5.8-.5s.2 0 .4.1.4.2.5.4c.1.2-.1.4-.2.5-.2-.1-.4-.2-.6-.2-.2 0-.5.1-.6.2-.2-.1-.3-.3-.3-.5zm-.3.5l-.6-.3c-.1-.1-.1-.3-.1-.4 0-.1.1-.2.2-.3.1-.1.3-.1.6-.1h.3c-.1.1-.3.3-.4.5-.2.2-.1.4 0 .6z"/><circle class="st36" cx="36.4" cy="37.7" r=".5"/><path class="st36" d="M39.2 39.3c-1-.2-1.7-.7-2-1l-.1.1c.1.3.4 1 1.6 1.3.2-.1.3-.3.5-.4zm-3.4-1c-.3.3-1 .9-2.1 1 .1.1.3.2.6.4 1.2-.3 1.5-1 1.6-1.3-.1 0-.1-.1-.1-.1z"/><path class="st482" d="M48.9 25.2c0-.1 0-.1-.1-.2l-.1-.1c0-.1.1-.2.1-.3.2-.4.2-.9.2-1.4 0-.1 0-.1-.1-.2h-.1c0-.1.1-.2.1-.3.1-.4.1-.9.1-1.5 0-.1 0-.1-.1-.2h-.2c0-.1 0-.2.1-.3.1-.4.1-.9 0-1.5 0-.1-.1-.1-.1-.2h-.1v-.2c0-.4 0-.9-.1-1.5 0-.1-.1-.1-.1-.2h-.2v-.4c0-.4-.1-.9-.3-1.4 0-.1-.1-.1-.2-.1h-.2v-.3c-.1-.4-.2-.9-.5-1.4 0-.1-.1-.1-.2-.1h-.2c0-.1 0-.2-.1-.3-.1-.4-.3-.9-.6-1.3 0-.1-.1-.1-.2-.1s-.1 0-.2.1c0-.1-.1-.2-.1-.4-.2-.4-.5-.8-.8-1.2-.1-.1-.1-.1-.2-.1s-.1 0-.1.1c-.1-.1-.1-.2-.2-.3-.2-.4-.6-.7-1-1.1-.1.2-.1.2-.2.2s-.1.1-.1.1c-.3-.4-.7-.6-1.2-.8h.3c.6 0 1-.1 1-.1.1 0 .2-.2.2-.3 0-.1-.1-.2-.3-.2-.6 0-.9-.2-1.2-.3-.1 0-.1-.1-.2-.1L43 7c.1 0 .2-.1.2-.3 0-.1-.1-.2-.2-.3l-1.5-.2c.2 0 .4-.1.6-.2.5-.1.9-.4.9-.4.1-.1.1-.2.1-.3-.1-.1-.2-.2-.3-.1-.6.2-.9.2-1.2.2h-.2l1.3-.8c.1-.1.2-.2.1-.3-.2-.2-.3-.3-.4-.3l-1.5.4c.1-.1.3-.3.5-.4.4-.4.6-.8.6-.8.1-.1 0-.3-.1-.3-.1-.1-.2-.1-.3 0-.5.4-.7.5-1.1.6-.1 0-.1 0-.2.1l.9-1.2c.1-.1.1-.3 0-.4-.1-.1-.2-.1-.3 0l-1.2.9c.1-.2.2-.3.3-.6.3-.5.3-1 .3-1 0-.1-.1-.3-.2-.3s-.3 0-.3.1c-.3.6-.5.8-.8 1-.1 0-.1.1-.2.1l.4-1.5c0-.1 0-.3-.2-.3-.1-.1-.3 0-.3.1l-.8 1.3c0-.2 0-.4.1-.6 0-.6-.1-1-.1-1 0-.1-.2-.2-.3-.2-.1 0-.2.1-.2.3 0 .6-.2.9-.3 1.2 0 .1-.1.1-.1.2L36.8.2c0-.1-.1-.2-.3-.2-.1 0-.2.1-.3.2L36 1.7c0-.2-.1-.4-.2-.6-.2-.6-.5-.9-.5-.9-.1-.1-.2-.1-.3-.1-.1.1-.2.2-.1.3.2.7.1 1 .1 1.3v.2L34.2.6c-.1-.1-.2-.2-.3-.1-.1.1-.2.2-.2.3l.4 1.5c-.1-.1-.3-.3-.4-.5-.4-.4-.8-.6-.8-.7-.1-.1-.3 0-.3.1-.1.1-.1.3 0 .3.4.5.5.7.6 1.1 0 .1 0 .1.1.2L32 2c-.1-.1-.3-.1-.4 0-.1.1-.1.2 0 .4l.9 1.2c-.2-.1-.3-.2-.5-.3-.5-.3-1-.3-1-.3-.1 0-.3.1-.3.2s0 .3.1.3c.6.3.8.5 1 .8 0 .1.1.1.1.2L30.5 4c-.1 0-.3 0-.3.2-.1.1 0 .3.1.3l1.3.8c-.2 0-.4-.1-.6-.1-.6 0-1 .1-1 .1-.1 0-.2.2-.2.3 0 .1.1.2.3.2.6 0 .9.2 1.2.3.1 0 .1.1.2.1l-1.5.2c-.1 0-.2.1-.2.3 0 .1.1.2.2.3l1.5.2c-.2 0-.4.1-.6.2-.6.2-.9.5-.9.5-.1.1-.1.2-.1.3.1.1.2.2.3.1.4-.1.6-.2.8-.2-.3.3-.6.5-.7.7-.1.1-.1.2-.2.2l-.1-.1h-.2c-.4.3-.8.7-1 1.1-.1.1-.1.2-.2.3 0-.1-.1-.1-.1-.1-.1 0-.1 0-.2.1-.4.4-.6.8-.8 1.2 0 .1-.1.2-.1.3l-.1-.1c-.1 0-.1 0-.2.1-.3.4-.5.9-.7 1.3 0 .1-.1.2-.1.3 0 0-.1-.1-.2-.1s-.1.1-.2.1c-.3.5-.4.9-.5 1.4v.3c-.1 0-.1-.1-.2 0-.1 0-.1.1-.2.1-.2.5-.3 1-.3 1.4v.3h-.2c-.1 0-.1.1-.1.2-.1.5-.2 1-.1 1.5v.2h-.1c-.1 0-.1.1-.1.2-.1.5-.1 1 0 1.5 0 .1 0 .2.1.3h-.1c-.1 0-.1.1-.1.2-.1.5-.1 1 0 1.5 0 .1 0 .2.1.3H24c-.1 0-.1.1-.1.2 0 .5.1 1 .2 1.5 0 .1.1.2.1.4-.1 0-.1 0-.2.1-.1 0-.1.1-.1.2.1.5.2 1 .5 1.4 0 .1.1.1.1.2 0 0-.1 0-.1.1-.1.1-.1.1-.1.2.1.5.3 1 .6 1.4.1.1.1.2.2.3-.1 0-.1 0-.1.1s-.1.1 0 .2c.2.5.4.9.7 1.3.1.1.1.2.2.2-.1 0-.1 0-.1.1v.2c.2.5.5.9.9 1.2l.2.2-.1.1v.2c.3.5.6.8 1 1.1.1.1.2.2.3.2-.1 0-.1.1-.1.2s0 .1.1.2c.4.4.8.7 1.1.9.3.2.6.3.9.4.3.1.5.1.8 0 .7.5 1.4.9 2.1 1.2.6.3 1.2.5 1.9.6.1 0 .3.1.4.1-.3-.1-.5-.2-.7-.5l-.1-.1c-.4-.1-.9-.3-1.3-.4-.7-.3-1.4-.7-2-1.1 0-.2 0-.4-.1-.6.5.4.9.7 1.3.9.6.3 1.2.6 1.9.8v-.1c0-.1 0-.2.1-.3-.6-.2-1.2-.4-1.8-.7-1.2-.7-2.3-1.7-3.3-2.9-.3-.4-.6-.9-.9-1.4.7-.3 2.3-1 3.8-1.8v.2c.1.3.4.4.7.4h.2c.1.2.3.4.6.5.1 0 .2.1.3.1.1.1.1.2.2.3.3.2.7.2.9.1.1.2.3.3.5.3h.2c.2 0 .3 0 .4-.1v2.5c0 .2.1.3.3.3.2 0 .3-.1.3-.3V31c.3.1.6 0 .8-.1.2-.1.3-.1.3-.2.3.1.6 0 .8-.3.1-.1.1-.2.2-.2.5 0 .7-.2.9-.3.1-.1.1-.2.2-.3.3 0 .5-.1.7-.3.1-.1.1-.2.2-.3 1.1.9 2.9 1.7 3.7 2-.3.5-.6.9-.9 1.3-.9 1.2-2 2.2-3.3 2.9-.6.3-1.2.6-1.8.7 0 .1.1.2.1.3v.1c.6-.2 1.3-.4 1.9-.8.5-.3.9-.6 1.3-.9-.1.2-.1.4-.1.7-.2.2-.7.5-1.5.9-.6.3-1.2.5-1.8.7h-.1s0 .1-.1.1c-.2.2-.5.4-.7.5.3-.1.7-.1 1-.2.6-.2 1.2-.4 1.8-.7.8-.4 1.3-.8 1.5-.9h.8c.3-.1.6-.2.9-.4.4-.2.8-.5 1.1-.9.1-.1.1-.1.1-.2s-.1-.1-.1-.2c.1-.1.2-.1.3-.2.4-.3.7-.6 1-1.1v-.2c0-.1-.1-.1-.1-.1l.2-.2c.3-.3.6-.7.9-1.2v-.2c0-.1-.1-.1-.2-.1.1-.1.1-.2.2-.2.3-.3.5-.8.7-1.3V29c0-.1-.1-.1-.2-.1.1-.1.1-.2.2-.2.3-.4.4-.8.6-1.4 0-.1 0-.1-.1-.2 0 0-.1-.1-.2-.1.1-.1.1-.2.2-.3.5-.5.6-1 .7-1.5zm-.3-1.7c0 .4-.1.7-.2 1-.1.3-.3.6-.4.8-.2.3-.4.4-.5.4-.3-.4-.4-.9-.4-1.5 0-.2 0-.4.1-.5.3.3.4.8.4.8 0 .1.1.1.1.1.1 0 .1 0 .2-.1.1-.5.5-.8.7-1zm0-1.9c0 .4 0 .7-.1 1-.1.3-.2.6-.4.8-.2.3-.4.4-.5.5-.5-.6-.6-1.5-.6-1.9.3.3.5.7.5.7 0 .1.1.1.1.1.1 0 .1 0 .1-.1.4-.6.7-.9.9-1.1zm-.2-2c.1.4.1.7 0 1 0 .3-.1.6-.3.9-.2.3-.4.5-.4.5-.5-.4-.7-1.3-.7-1.9.3.3.5.6.5.6 0 .1.1.1.2.1s.1-.1.1-.1c.1-.5.4-.9.6-1.1zm-.3-1.8c.1.4.1.7.1 1 0 .3-.1.6-.2.9-.2.3-.3.5-.4.6-.4-.4-.6-.9-.7-1.3 0-.2-.1-.4-.1-.5l.6.6c0 .1.1.1.2.1s.1-.1.1-.1c-.1-.7.2-1.1.4-1.3zm-14.8.1c.3-1.3.8-2.2 1.1-2.7.3-.4.5-.6.7-.7l.1-.1c.1-.1.1-.3 0-.4-.1-.1-.3-.2-.4-.1 0 0-.1 0-.1.1-.3.2-.4.1-.5.1-.1-.1-.1-.2-.1-.3 0-.3.4-.6.5-.8.6-.7 1.6-.8 1.6-.8s.3 0 .7.1c.5.2.9.5 1.2 1.1.4.8.7 1.5.9 2.3-.6-.2-1-.6-1-.6-.1-.1-.3-.1-.4 0-.1.1-.1.1-.1.2s0 .2.1.2c0 0 .7.6 1.5.8.1.3.1.6.2.9-.3-.1-.6-.2-.8-.3-.2 0-.3-.1-.5-.1-.6-.2-1.1-.6-1.1-.6-.1-.1-.3-.1-.4.1-.1.1-.1.3 0 .4 0 0 .6.4 1.2.7.2.1.3.1.5.2.7.2 1 .3 1.1.7 0 .1-.1.1-.1.1-.2.2-.7.3-.9.3h-.7c-.1 0-.8 0-1.4-.4-1.3-.9-2-.8-2.9-.4zm2.6.9h-2.1c-.2 0-.4-.1-.4-.2l-.1-.1c1-.3 1.4-.5 2.6.3zm.9 3.7v-3.1H39c.4-.1.7-.2.9-.4.1-.1.2-.2.2-.4v-.1c0-.1.1-.3 0-.6v-.1c-.2-1.2-.4-2.8-1.4-4.7-.8-1.6-2.3-1.5-2.5-1.5-.1 0-1.3.1-2 .9-.1.1-.5.6-.6 1.1-.1.4.1.8.4.9.1 0 .1.1.2.1-.5.6-1.1 1.6-1.4 3 0 .2-.1.5 0 .7v.1c0 .2.1.4.2.6.1.2.4.4.9.4h2.2v5c-.6 0-1 .2-1.6.6-.8.5-3.4 1.1-7.9 1.6-.3-1.3-.5-2.7-.5-4.1 0-1.8.3-3.6.8-5.3.5-1.6 1.3-3.1 2.2-4.3.9-1.2 2-2.2 3.3-2.9 1.3-.7 2.6-1.1 4-1.1s2.7.4 4 1.1c1.2.7 2.3 1.7 3.3 2.9.9 1.3 1.7 2.7 2.2 4.3.5 1.7.8 3.5.8 5.3 0 1.4-.2 2.8-.5 4.1-2.7-.2-5.9-1.2-6-1.2-.2-.1-.4-.2-.6-.2-.7-.2-1.2-.4-1.7-.4h-.1c-.3-.2-.6-.3-1-.3v-2zM41 8.3c-.2.1-.4.2-.7.2h-.5c-.4 0-.7-.1-1-.3.1-.1.3-.2.6-.2.3-.1.6-.1.8 0 .3 0 .5.1.8.3zm.4 1.1c-.1.1-.3.1-.5.1h-.1c-.5 0-.9-.2-1.3-.5.2-.1.4-.1.6-.1.5-.1.9.1 1.3.5zm-2.2-1.7c-.2.1-.5.2-1 .3-.1 0-.1.1-.1.1 0 .1 0 .1.1.2 0 0 .4.3.6.6-.4 0-1.3-.1-1.9-.9.1-.1.3-.2.5-.3.5-.2 1.2-.2 1.8 0zm-1.9-.3c-.2.1-.4.3-.9.4-.1 0-.1.1-.1.1 0 .1 0 .1.1.2 0 0 .4.2.7.4h-.4c-.5 0-1.1-.1-1.6-.5.1-.1.2-.3.4-.4.4-.2 1-.3 1.8-.2 0-.1 0-.1 0 0 0-.1 0-.1 0 0zm-2.1 0c-.1.2-.4.4-.8.6-.1 0-.1.1-.1.2s.1.1.1.1.4.1.8.3c-.2.1-.4.1-.5.1h-.5c-.3 0-.6 0-1-.2 0-.1.1-.3.3-.5.4-.3 1-.5 1.7-.6zm-2.6 1.2c-.1 0-.1.1 0 .2 0 .1.1.1.1.1h.4c.2.1.3.1.4.1-.2.1-.3.2-.5.2-.4.1-.7.2-1 .2-.2 0-.4 0-.6-.1.1-.3.4-1.2 1.8-1.6 0 .2-.2.6-.6.9zm14.5 8.5c0-.6.2-1 .4-1.2.1.3.2.7.2 1 0 .3 0 .6-.1.9-.1.3-.3.5-.3.6-.4-.2-.7-.7-.9-1.2-.1-.2-.1-.3-.2-.5.4.2.6.5.7.5 0 0 .1.1.2 0v-.1zm-.6-1.7c0-.6.1-1 .3-1.3.1.3.2.7.3 1v.9c-.1.3-.2.6-.3.6-.4-.2-.8-.6-1-1.1-.1-.2-.2-.3-.2-.5.4.2.7.5.7.5s.1.1.2 0c-.1 0 0-.1 0-.1zm-.9-1.5c.1 0 .1-.1.1-.2-.1-.6 0-1 .1-1.3.2.3.3.6.4.9.1.3.1.6.1.9 0 .3-.1.6-.2.7-.5-.2-.9-.5-1.2-1-.1-.2-.2-.3-.3-.5.4.1.8.4.8.4 0 .1.1.1.2.1zm-1.2-1.5h.2c.1 0 .1-.1.1-.2-.2-.5-.1-1-.1-1.3.2.3.4.6.5.9.1.3.2.6.2.9 0 .3 0 .6-.1.7-.5-.1-.9-.3-1.3-.8-.1-.1-.3-.3-.4-.5.5 0 .9.3.9.3zM43.2 11h.2s.1-.1 0-.2c-.3-.5-.3-1-.3-1.2.3.2.5.5.7.8.2.3.3.5.4.8.1.3.1.6 0 .7-.5 0-1-.3-1.3-.5-.2-.1-.3-.3-.5-.4h.1c.3-.1.7 0 .7 0zm-.5-1.2c.1.3.1.6.1.8h-.1c-.7 0-1.4-.4-1.8-.7.4-.1.8 0 .8 0 .1 0 .1 0 .2-.1v-.2c-.3-.3-.4-.7-.5-1 .7.2 1.1.6 1.3 1.2zm-11.8-2c.5-.2.8-.3 1-.3.4-.1.7-.3.7-.3s.1-.1 0-.1c0 0 0-.1-.1-.1l-1.9-.3 1.9-.3c.1 0 .1-.1.1-.1 0-.1 0-.1-.1-.1 0 0-.4-.1-.8-.3-.1-.1-.2-.1-.3-.2-.2-.1-.3-.2-.5-.2h.1c.4 0 .8.1 1 .1.4.1.8 0 .8 0s.1 0 .1-.1c0 0 0-.1-.1-.1l-1.6-1L33 5h.1v-.1s-.4-.2-.7-.6c-.1-.1-.2-.2-.2-.3-.1-.1-.2-.3-.4-.4h.1c.4.2.7.4.8.5.4.2.7.3.7.3h.1v-.1l-1.1-1.5 1.5 1.1h.1v-.1s-.3-.4-.4-.8c0-.1-.1-.2-.1-.4-.1-.2-.1-.4-.2-.6 0 0 0 .1.1.1.3.3.5.6.6.8.2.3.5.5.6.6h.1s.1-.1 0-.1l-.5-1.8 1 1.6s.1.1.1 0l.1-.1s-.1-.4-.1-.9v-1 .1c.1.4.2.7.3.9.2.4.4.7.4.7s.1.1.1 0c0 0 .1 0 .1-.1l.2-1.8.3 1.9c0 .1.1.1.1.1.1 0 .1 0 .1-.1 0 0 .1-.4.3-.8.1-.1.1-.2.2-.3.1-.2.2-.3.2-.5v.1c0 .4-.1.8-.1 1-.1.4 0 .8 0 .8s0 .1.1.1c0 0 .1 0 .1-.1l1-1.6-.5 1.8c0 .1 0 .1.1.1h.1s.2-.4.6-.7c.1-.1.2-.2.3-.2.1-.1.3-.2.4-.4v.1c-.2.4-.4.7-.5.8-.2.4-.3.7-.3.7v.1h.1l1.5-1.1-1.1 1.5v.1h.1s.3-.2.8-.4c.1 0 .2-.1.4-.1.2-.1.4-.1.6-.2 0 0-.1 0-.1.1-.3.3-.6.5-.8.6-.4.2-.6.5-.6.5V5s.1.1.1 0l1.8-.5-1.6 1s-.1.1 0 .1c0 .1.1.1.1.1s.4-.1.9-.1h.9c-.4.3-.8.4-1 .4-.4.1-.7.3-.7.3s-.1.1 0 .1c0 0 0 .1.1.1l1.9.3-2 .2c-.1 0-.1.1-.1.1 0 .1 0 .1.1.1 0 0 .4.1.8.3.1.1.2.1.3.2.2.1.3.2.5.2h-.1c-.4 0-.8-.1-1-.1h-.1c-.3-.1-.7-.2-1-.2 0-.1-.1-.1-.1-.2-.5-.2-1-.3-1.4-.3h-.5V7h-.1c-.5-.1-1-.1-1.5 0-.2 0-.3.1-.5.1 0 0 0-.1-.1-.1 0 0-.1-.1-.2-.1-.5 0-1 .2-1.4.3-.1 0-.2.1-.3.2 0-.1 0-.1-.1-.1s-.1-.1-.2 0c-.5.1-1 .3-1.3.6h-.7c0-.1-.2-.1-.4-.1zm.5.6c0 .3-.1.7-.4 1.2v.2c0 .1.1.1.2.1 0 0 .4-.1.8-.1-.4.3-1 .7-1.8.7h-.1c0-.3 0-1.2 1.3-2.1zm-2.6 2.7c.1-.3.2-.6.4-.8.2-.3.4-.5.7-.8 0 .3 0 .7-.3 1.2v.2c0 .1.1.1.2 0 0 0 .4-.1.8-.1-.2.2-.3.3-.5.4-.3.2-.8.5-1.3.5h-.1s0-.2.1-.6zm-.4-.2c.1.3.1.7-.1 1.3 0 .1 0 .1.1.2h.2s.4-.2.8-.3c-.3.4-.9 1.1-1.7 1.2-.1-.3-.3-1.2.7-2.4zm-1.7 2.5c.1-.3.2-.6.4-.9.1.3.2.7.1 1.3 0 .1 0 .1.1.2h.2s.3-.3.8-.4c-.1.1-.2.3-.3.5-.3.5-.7.8-1.2.9 0-.1-.1-.3-.2-.7 0-.3 0-.6.1-.9zm-.9 1.7c0-.3.1-.6.3-1 .1.3.3.7.3 1.3 0 .1 0 .1.1.2h.2s.4-.3.7-.5c0 .2-.1.3-.2.5-.2.5-.6.9-1.1 1.1-.1-.1-.2-.3-.3-.6v-1zm-.5.8c.2.2.4.6.4 1.2 0 .1 0 .1.1.1h.2s.3-.3.7-.6c0 .2-.1.3-.1.5-.2.5-.5 1-1 1.3-.1-.1-.2-.3-.3-.6-.1-.3-.1-.6-.1-.9 0-.3 0-.6.1-1zm-.5 1.9c.2.2.5.6.6 1.2 0 .1.1.1.1.1.1 0 .1 0 .2-.1 0 0 .3-.4.6-.6 0 .2 0 .3-.1.5-.1.5-.4 1-.8 1.4-.1-.1-.3-.3-.4-.5-.1-.3-.2-.6-.2-.9-.1-.4-.1-.8 0-1.1zm-.3 1.8c.2.2.5.6.6 1.1 0 .1.1.1.1.1.1 0 .1 0 .2-.1 0 0 .2-.4.5-.7v.6c-.1.6-.3 1-.7 1.3-.1-.1-.3-.2-.4-.5-.1-.3-.2-.5-.3-.9-.1-.1-.1-.5 0-.9zm-.2 2s.1 0 0 0c.1 0 .1.1.1.1.2.2.4.5.6 1 0 .1.1.1.2.1s.1-.1.1-.1.1-.4.4-.7c0 .2.1.6 0 .9-.1.4-.3.8-.5 1.1-.3-.2-1-.9-.9-2.4zm0 1.9c.1 0 .1.1.1.1.2.2.5.5.7.9 0 .1.1.1.1.1.1 0 .1 0 .1-.1 0 0 .2-.4.5-.8.1.4.1 1.2-.5 2-.2-.1-1-.7-1-2.2zm.1 2c.3.1.7.4 1 .8 0 .1.1.1.2.1s.1-.1.1-.1.1-.5.3-.8c.1.2.1.3.2.5.1.5 0 1.1-.3 1.6-.1 0-.3-.1-.6-.4-.2-.2-.4-.4-.6-.7-.1-.3-.3-.6-.3-1zm.4 1.8c.1 0 .1 0 .2.1.2.1.6.3.9.7 0 0 .1.1.2.1s.1-.1.1-.1l.2-.8c.2.4.4 1.2.1 2-.4-.1-1.3-.5-1.7-2zm1.1 2.8c-.2-.2-.4-.5-.5-.9.1 0 .1 0 .2.1.2.1.6.3.9.6 0 0 .1.1.2 0 .1 0 .1-.1.1-.1s0-.4.1-.8c.1.2.2.3.2.5.2.5.2 1 .1 1.5-.1 0-.4-.1-.6-.2l-.7-.7zm.3.8c.3 0 .7.2 1.2.5h.2c.1 0 .1-.1.1-.2v-.8c.1.2.2.3.3.5.2.4.4.9.3 1.5-.1 0-.4 0-.7-.2-.3-.1-.5-.3-.7-.5-.3-.2-.5-.4-.7-.8zm3.6 3.2s-.2-.4-.2-.8c.4.3 1 1 .9 1.8h-.7c-.5-.1-1.1-.4-1.6-.9.3 0 .7 0 1.3.2h.2c.2-.1.2-.2.1-.3zM28.4 33h.2c.1 0 .1-.1.1-.2 0 0-.1-.4-.1-.8.3.4.8 1.1.8 1.9h-.1c-.1 0-.4 0-.6-.1-.3-.1-.5-.2-.8-.4-.2-.2-.5-.4-.7-.7.3-.1.7 0 1.2.3zm6.2-4.2c-.1 0-.1.1-.1.1-.3.2-.6.5-.6.8h-.1c-.3-.1-.3-.2-.3-.3 0-.1.1-.3.3-.4.2-.2.4-.3.6-.3h.2v.1zm.4 1.3h-.5s-.1-.1-.1-.2c0-.2.3-.5.4-.6.3-.2.5-.3.6-.3.1 0 .1 0 .2.1.1 0 .1.1.1.1 0 .1-.1.2-.2.2-.3.3-.4.5-.5.7zm1.3.1c-.1.1-.5.3-.7.2 0 0-.1 0-.2-.1.1-.2.4-.4.6-.5.3-.2.4-.1.4-.1l.1.1c0 .2-.1.3-.2.4zm-2.8-1.8l-.1.1c-.2.2-.3.3-.4.6h-.1c-.2 0-.3-.1-.3-.1s0-.1.1-.2c.1-.2.5-.3.7-.3h.1c-.1-.1-.1-.1 0-.1-.1 0-.1 0 0 0zm6.8.4c-.1.1-.2.1-.4.1-.2-.3-.8-1-1.5-1.4h-.2c-.1 0-.1.1-.2.1v.2c0 .1.1.1.1.2.6.3 1.1.9 1.3 1.2 0 0 0 .1-.1.1-.1.1-.2.2-.4.2-.1-.1-.2-.3-.4-.5-.2-.3-.7-.6-.7-.6-.1 0-.1-.1-.2 0-.1 0-.1 0-.2.1 0 .1-.1.1 0 .2 0 .1 0 .1.1.2s.5.3.6.5c.2.2.2.3.3.4 0 .1-.1.1-.1.2H38c-.1-.1-.2-.4-.5-.7-.1-.1-.3-.1-.4 0-.1 0-.1.1-.1.2s0 .1.1.2c.2.2.3.4.4.5l-.1.1c-.1.1-.3.1-.4.1.1-.1.1-.2.1-.3 0-.1 0-.4-.2-.6-.1-.1-.3-.2-.6-.2 0-.2-.1-.3-.3-.4-.2-.2-.5-.3-.8-.2-.1-.1-.2-.3-.4-.4-.3-.3-.6-.3-.8-.2-.2-.2-.5-.2-.6-.2-.3 0-.8.1-1.1.4-1.5.8-3.5 1.7-4.3 2-.4-.8-.8-1.6-1.1-2.5-.1-.2-.1-.5-.2-.7 2.2-.3 4-.5 5.3-.8 1.4-.3 2.3-.6 2.7-.9.5-.4.9-.5 1.4-.5h.3c-.1 0-.2.1-.3.2-.2.1-.3.2-.5.3l-.3.3c-.1.1-.2.1-.4.2-.3.2-.6.3-.6.5-.1.2-.1.4.1.6.2.3.6.3.9.3.3 0 .8-.1 1.1-.3.1-.1.2-.1.3-.2.1-.1.2-.2.3-.2.3-.1.6 0 .9.1.3.1.6.3.9.5.7.5 1.2 1.1 1.4 1.3.2.1.2.2.1.3zm1-.2c-.2-.2-.4-.3-.5-.4v-.1c-.2-.3-.7-.8-1.4-1.3-.5-.3-1.4-.9-2.3-.7-.2 0-.3.1-.5.3-.1.1-.2.1-.3.2-.3.2-.6.2-.8.3-.3 0-.4 0-.5-.1-.1-.1-.1-.1 0-.1.1-.1.3-.2.4-.2.1-.1.3-.1.4-.2.2-.1.3-.2.4-.3.1-.1.2-.2.4-.3.3-.2.6-.2 1-.2h.4c.5 0 .9.1 1.5.4.2.1.4.1.6.2 0 0 .9.3 2.1.6 1 .2 2.5.5 3.9.6-.1.2-.1.5-.2.7-.3.9-.7 1.8-1.1 2.6-.7-.5-2.4-1.2-3.5-2zm3.2 5.6c-.7.6-1.3.9-1.6.9h-.6c0-.5.2-1 .5-1.4l.4-.4c0 .4-.2.8-.2.8v.2s.1.1.2 0c.6-.2 1-.2 1.3-.1zm1.2-1.6c-.2.3-.5.5-.7.7-.3.2-.5.3-.8.4-.3.1-.5.1-.6.1h-.1c0-.5.1-1 .4-1.4.1-.1.2-.3.3-.4v.8c0 .1 0 .1.1.2h.2c.5-.3.9-.4 1.2-.4zm.4-.8c-.2.2-.5.4-.7.5-.3.1-.6.2-.7.2-.1-.5 0-1 .3-1.5.1-.2.2-.3.3-.5.1.4 0 .8 0 .8 0 .1 0 .1.1.2h.2c.4-.4.9-.5 1.2-.5-.3.3-.5.5-.7.8zM47 30c-.2.2-.4.4-.7.6-.3.2-.5.2-.6.2-.1-.5-.1-1 .1-1.5.1-.2.1-.3.2-.5.1.4.1.8.1.8 0 .1 0 .1.1.1h.2c.4-.4.7-.6.9-.6h.2c-.1.4-.3.7-.5.9zm.7-1.7c-.2.3-.4.5-.6.7-.3.2-.5.3-.6.3-.2-.5-.2-1.1-.1-1.5 0-.2.1-.4.2-.5.2.4.2.8.2.8 0 .1.1.1.1.1.1 0 .1 0 .2-.1.4-.4.8-.7 1-.8-.1.4-.3.7-.4 1zm.5-1.9c-.1.3-.3.5-.5.7-.2.2-.5.3-.6.4-.2-.4-.3-.9-.3-1.5 0-.2.1-.4.1-.5.2.4.3.8.3.8 0 .1.1.1.1.1.1 0 .1 0 .2-.1.3-.5.7-.8.9-.9 0 .4-.1.7-.2 1z"/><path d="M39.9 7.6c.3 0 .7.1 1 .2h.1c.2 0 .6.1 1 .1h.1c-.2-.1-.4-.2-.5-.2-.1-.1-.2-.1-.3-.2-.4-.2-.8-.2-.8-.3-.1 0-.1-.1-.1-.1 0-.1 0-.1.1-.1l1.9-.3-1.9-.3s-.1 0-.1-.1v-.1s.3-.2.7-.3c.2 0 .5-.1.9-.3h.1-1c-.4 0-.8.1-.9.1-.1 0-.1 0-.1-.1v-.1l1.6-1-1.8.5h-.1v-.1s.2-.3.6-.5c.2-.1.5-.3.8-.6 0 0 .1 0 .1-.1-.2.1-.4.2-.6.2-.1 0-.2.1-.4.1l-.8.4h-.1v-.1l1.1-1.5-1.5 1h-.1s-.1-.1 0-.1c0 0 .1-.4.3-.7.1-.2.3-.5.5-.8v-.1c-.1.2-.3.3-.4.4-.1.1-.2.2-.3.2-.3.3-.5.6-.6.7 0 0-.1.1-.1 0l-.1-.1.5-1.8-1 1.6-.1.1s-.1 0-.1-.1c0 0-.1-.4 0-.8 0-.2.1-.6.1-1v-.1c-.1.2-.2.4-.2.5-.1.1-.1.2-.2.3-.2.4-.2.8-.3.8 0 .2 0 .2-.1.2s-.1 0-.1-.1L36.4 1l-.3 1.9s0 .1-.1.1h-.1s-.2-.3-.3-.7c0-.2-.1-.6-.3-.9v-.1 1c0 .5.1.8.1.9 0 .1 0 .1-.1.1h-.1l-1-1.6.5 1.8v.1h-.1s-.3-.2-.6-.6c-.1-.2-.3-.5-.6-.8 0 0 0-.1-.1-.1.1.2.2.4.2.6 0 .1.1.2.1.4.2.4.4.7.4.8V4h-.1l-1.5-1.1 1.1 1.5v.1s-.1.1-.1 0c0 0-.4-.1-.7-.3-.2-.1-.5-.3-.8-.5h-.1c.1 0 .2.1.4.3.1.1.1.2.2.3.3.3.7.6.7.6s.1.1 0 .1H33l-1.8-.5 1.6 1 .1.1s0 .1-.1.1c0 0-.4.1-.8 0-.2 0-.6-.1-1-.1h-.1c.2.1.4.2.5.2.1.1.2.2.4.2.4.2.8.3.8.3.1 0 .1.1.1.1 0 .1 0 .1-.1.1l-1.9.3 1.9.2s.1 0 .1.1v.1s-.3.2-.7.3c-.2 0-.5.1-.9.3H31h1.3c.4-.3.8-.5 1.3-.6h.2l.1.1c.1-.1.2-.1.3-.2.3 0 .7-.1 1.3-.1.1 0 .1 0 .2.1l.1.1c.1-.1.2-.2.4-.2.4-.1.9-.1 1.5 0 .1 0 .1.1.2.1v.1h.5c.4 0 .9.1 1.4.3 0-.1 0 0 .1.1z" fill="#edc015"/><path class="st482" d="M37.1 5.2c1.8-.3 2 .2 2 .2s0 .1.2.1c0 0 .1 0 .1-.2 0 0-.2-.6-1.2-.7 0 0-.5-.1-1.1 0-.1.1-.1.5-.1.5-.1.1.1.1.1.1zm-1.5.3c-.2-.1-.7-.1-.7-.1-.8 0-1 .5-1 .5-.1.2.1.2.1.2.2 0 .2-.1.2-.1s0-.1.4-.2V6c0 .2.2.4.4.4s.4-.2.4-.4v-.2c.1 0 .2.1.3.3 0 .1.1.1.2.1.2 0 .1-.1.1-.1-.2-.4-.4-.6-.4-.6z"/><path class="st482" d="M37.1 6.2c.2 0 .2 0 .3-.1l.3-.3V6c0 .2.2.4.4.4s.4-.2.4-.4v-.2c.3.1.4.2.4.2s.1.1.2.1c0 0 .1 0 .1-.2 0 0-.2-.5-1-.5 0 0-.5 0-.7.1 0 0-.3.1-.4.6-.2 0-.2.1 0 .1zm-3.6-.7c.1 0 .2-.1.2-.1s.2-.5 2-.2c0 0 .2 0 .1-.1 0 0 0-.4-.2-.4-.6-.1-1.1 0-1.1 0-1 .1-1.2.7-1.2.7.1.1.2.1.2.1z"/><path class="st484" d="M44.5 34.2c-.3 0-.8 0-1.3.2H43s-.1-.1 0-.2c0 0 .2-.4.2-.8l-.4.4c-.4.5-.6.9-.5 1.4h.6c.4-.2 1-.4 1.6-1zm-14.8-.9c0 .4.2.8.2.8v.2s-.1.1-.2 0c-.5-.2-1-.2-1.3-.2.5.5 1.1.8 1.6.9h.7c0-.7-.7-1.4-1-1.7z"/><path class="st484" d="M45.7 32.6c-.3 0-.7.1-1.2.4h-.2s-.1-.1-.1-.2c0 0 .1-.4 0-.8-.1.1-.2.3-.3.4-.3.5-.5 1-.4 1.4h.1c.1 0 .4 0 .6-.1.3-.1.5-.2.8-.4.3-.2.5-.4.7-.7z"/><path class="st484" d="M46.7 30.9c-.3 0-.7.2-1.2.5h-.2c-.1 0-.1-.1-.1-.2v-.8c-.1.2-.2.3-.3.5-.3.5-.3 1-.3 1.5.1 0 .4 0 .7-.2.3-.1.5-.3.7-.5.3-.2.5-.4.7-.8z"/><path class="st484" d="M47.5 29.1h-.2c-.2.1-.6.3-.9.6 0 0-.1.1-.2 0-.1 0-.1-.1-.1-.1s0-.4-.1-.8c-.1.2-.2.3-.2.5-.2.5-.2 1-.1 1.5.1 0 .4-.1.6-.2.2-.1.5-.3.7-.6.2-.2.4-.5.5-.9z"/><path class="st484" d="M48.1 27.3c-.3.1-.7.3-1 .8 0 0-.1.1-.2.1s-.1-.1-.1-.1-.1-.5-.2-.8c-.1.2-.1.4-.2.5-.1.4-.2 1 .1 1.5.1 0 .3-.1.6-.3.2-.2.4-.4.6-.7.1-.3.3-.6.4-1z"/><path class="st484" d="M48.5 25.4c-.3.1-.6.4-.9.9 0 .1-.1.1-.2.1s-.1-.1-.1-.1-.1-.5-.3-.8c-.1.2-.1.4-.1.5-.1.6 0 1.1.3 1.5.1 0 .3-.2.6-.4.2-.2.4-.4.5-.7 0-.3.1-.6.2-1z"/><path class="st484" d="M47.8 24.5c0 .1-.1.1-.2.1s-.1 0-.1-.1c0 0-.1-.4-.4-.8 0 .2-.1.4-.1.5 0 .6.1 1.1.4 1.5.1 0 .3-.2.5-.4s.3-.5.4-.8c.1-.3.2-.6.2-1-.1.2-.5.5-.7 1z"/><path class="st484" d="M47.7 22.7c-.1 0-.1 0-.1-.1 0 0-.2-.4-.5-.7 0 .5 0 1.3.6 1.9.1-.1.3-.2.5-.5.2-.2.3-.5.4-.8.1-.3.1-.6.1-1-.2.2-.5.5-.7 1.1-.2.1-.2.1-.3.1z"/><path class="st484" d="M47.6 20.9c-.1 0-.1 0-.2-.1 0 0-.2-.3-.5-.6 0 .5.2 1.4.7 1.9.1-.1.3-.2.4-.5.1-.3.2-.5.3-.9v-1c-.2.2-.5.6-.6 1.1.1 0 0 .1-.1.1z"/><path class="st484" d="M47.4 19.1c-.1 0-.1 0-.2-.1 0 0-.2-.3-.6-.6 0 .2.1.4.1.5.1.4.3.9.7 1.3.1-.1.3-.3.4-.6.1-.3.2-.5.2-.9v-1c-.2.2-.4.6-.6 1.2.1.1.1.2 0 .2z"/><path class="st484" d="M47 17.3h-.2s-.3-.3-.7-.5c0 .2.1.4.2.5.2.5.5.9.9 1.2.1-.1.2-.3.3-.6.1-.3.1-.6.1-.9 0-.3-.1-.7-.2-1-.2.2-.4.7-.4 1.2.1 0 .1.1 0 .1z"/><path class="st484" d="M46.2 15.5s-.3-.3-.7-.5c.1.2.1.3.2.5.3.5.6.9 1 1.1.1-.1.2-.3.3-.6.1-.3.1-.6 0-.9 0-.3-.1-.6-.3-1-.1.3-.3.7-.3 1.3 0 .1 0 .1-.1.2l-.1-.1z"/><path class="st484" d="M44.6 13.5c.1.2.2.3.3.5.3.5.7.8 1.2 1 0-.1.2-.3.2-.7 0-.3 0-.6-.1-.9-.1-.3-.2-.6-.4-.9-.1.3-.2.7-.1 1.3 0 .1 0 .1-.1.2h-.2c0-.1-.4-.4-.8-.5z"/><path class="st484" d="M43.6 12.1c.1.2.2.3.4.5.4.4.8.7 1.3.8 0-.1.1-.4.1-.7 0-.3-.1-.6-.2-.9-.1-.3-.3-.6-.5-.9-.1.3-.1.8.1 1.3 0 .1 0 .1-.1.2h-.2c-.1 0-.5-.3-.9-.3z"/><path class="st484" d="M43.4 11c0 .1-.1.1-.2 0 0 0-.4-.1-.8-.1h-.1c.1.1.3.3.5.4.3.2.8.5 1.3.5v-.7c-.1-.3-.2-.6-.4-.8-.2-.3-.4-.5-.7-.8 0 .3 0 .7.3 1.2.1.1.1.2.1.3zM29.3 33.9c.1 0 .1 0 0 0 .1-.8-.4-1.5-.7-1.9 0 .4.1.8.1.8 0 .1 0 .1-.1.2h-.2c-.5-.3-.9-.4-1.2-.4.2.3.5.5.7.7.3.2.5.3.8.4.2.2.5.2.6.2z"/><path class="st484" d="M28.2 32.4c.1-.6-.1-1.1-.3-1.5-.1-.2-.2-.3-.3-.5-.1.4 0 .8 0 .8 0 .1 0 .1-.1.2h-.2c-.4-.4-.9-.5-1.2-.5.2.3.4.6.6.8.2.2.5.4.7.5.5.2.7.2.8.2z"/><path class="st484" d="M27.2 30.9c.1 0 .1 0 0 0 .2-.5.1-1-.1-1.5-.1-.2-.1-.3-.2-.5-.1.4-.1.8-.1.8 0 .1 0 .1-.1.1h-.2c-.3-.3-.7-.5-.9-.6-.1 0-.1 0-.2-.1.1.3.3.6.5.9.2.2.4.4.7.6.3.2.5.3.6.3z"/><path class="st484" d="M26.5 29.3c.4-.8.1-1.6-.1-2-.2.4-.2.8-.2.8 0 .1-.1.1-.1.1-.1 0-.1 0-.2-.1-.3-.4-.6-.6-.9-.7 0 0-.1-.1-.2-.1.4 1.5 1.3 1.9 1.7 2z"/><path class="st484" d="M25.3 27.2c.3.2.5.3.6.4.3-.5.4-1 .3-1.6 0-.2-.1-.3-.2-.5-.2.4-.3.8-.3.8 0 .1-.1.1-.1.1-.1 0-.1 0-.2-.1-.3-.5-.7-.7-1-.9.1.4.2.7.3 1 .2.3.3.6.6.8z"/><path class="st484" d="M25.4 25.8c.6-.8.6-1.6.5-2-.3.3-.5.7-.5.8 0 .1-.1.1-.1.1-.1 0-.1 0-.1-.1-.2-.4-.5-.7-.7-.9l-.1-.1c-.1 1.4.7 2 1 2.2z"/><path class="st484" d="M25.2 24c.3-.3.5-.6.6-1.1.1-.4 0-.7 0-.9-.3.3-.4.7-.4.7 0 .1-.1.1-.1.1-.1 0-.1 0-.2-.1-.1-.5-.4-.8-.6-1l-.1-.1c-.2 1.5.5 2.2.8 2.4z"/><path class="st484" d="M24.8 21.5c.2.3.4.5.4.5.3-.3.6-.8.7-1.3v-.6c-.3.3-.5.6-.5.7 0 .1-.1.1-.2.1s-.1-.1-.1-.1c-.1-.5-.4-.9-.6-1.1v1c0 .3.1.6.3.8z"/><path class="st484" d="M25 19.7c.1.3.3.5.4.5.4-.4.7-.8.8-1.4 0-.2.1-.3.1-.5l-.6.6s-.1.1-.2.1-.1-.1-.1-.1c-.1-.6-.4-.9-.6-1.2-.1.4-.1.7 0 1 0 .4 0 .7.2 1z"/><path class="st484" d="M25.6 18.4c.5-.3.8-.7 1-1.3.1-.2.1-.3.1-.5-.4.2-.7.6-.7.6s-.1.1-.2 0c-.1 0-.1-.1-.1-.1 0-.6-.2-1-.4-1.2-.1.4-.2.7-.2 1 0 .3 0 .6.1.9.2.3.4.5.4.6z"/><path class="st484" d="M26.1 16.6c.5-.2.9-.6 1.1-1.1.1-.1.1-.3.2-.5-.4.2-.7.5-.7.5s-.1.1-.2 0c-.1 0-.1-.1-.1-.2 0-.6-.1-1-.3-1.3-.1.3-.3.7-.3 1v.9c.1.4.2.6.3.7z"/><path class="st484" d="M26.7 14.9c0 .1.1.1 0 0 .5-.1.9-.4 1.2-.9.1-.2.3-.4.3-.5-.5.1-.8.4-.8.4-.1.1-.1.1-.2 0-.1 0-.1-.1-.1-.2.1-.6 0-1-.1-1.3-.2.3-.3.6-.4.9-.1.3-.1.6-.1.9.1.4.2.7.2.7z"/><path class="st484" d="M27.7 13.3c.8-.1 1.4-.8 1.7-1.2-.4 0-.8.3-.8.3h-.2c-.1 0-.1-.1-.1-.2.2-.5.2-1 .1-1.3-1 1.2-.8 2.1-.7 2.4z"/><path class="st484" d="M28.8 11.8c.5 0 1-.3 1.3-.5.2-.1.3-.3.5-.4-.4 0-.8.1-.8.1h-.2c0-.1-.1-.1 0-.2.3-.5.3-1 .3-1.2-.3.2-.5.5-.7.8-.2.3-.3.5-.4.8-.1.3-.1.5 0 .6z"/><path class="st484" d="M32 9.8c-.4 0-.8.1-.8.1-.1 0-.1 0-.2-.1v-.2c.3-.5.4-.9.4-1.2-1.2.9-1.3 1.8-1.3 2.2h.1c.7 0 1.4-.5 1.8-.8z"/><path class="st484" d="M33.5 9c-.1 0-.3-.1-.4-.1h-.4c-.1 0-.1 0-.1-.1v-.2c.4-.4.6-.7.7-.9-1.4.5-1.7 1.3-1.8 1.6.1 0 .3.1.6.1s.6 0 1-.2c.1 0 .3-.1.4-.2 0 .1 0 .1 0 0z"/><path class="st484" d="M35.2 8.6c-.4-.2-.8-.3-.8-.3-.1 0-.1-.1-.1-.1 0-.1 0-.1.1-.2.5-.2.7-.5.8-.6-.7.1-1.3.3-1.7.7-.2.2-.3.4-.3.5.3.1.6.2 1 .2h.5c.2-.1.4-.1.5-.2z"/><path class="st484" d="M36.3 8.1c-.1 0-.1-.1-.1-.2s0-.1.1-.1c.5-.1.8-.3.9-.4-.7 0-1.3.1-1.8.3-.2.1-.4.3-.4.4.5.4 1.1.5 1.6.5h.4c-.3-.4-.7-.5-.7-.5z"/><path class="st484" d="M38.2 8.2c-.1 0-.1-.1-.1-.2s.1-.1.1-.1c.5-.1.8-.2 1-.3-.7-.2-1.3-.2-1.8 0-.2.1-.3.3-.4.4.6.7 1.4.8 1.9.9-.3-.4-.7-.7-.7-.7zm4.6 2.3c.1 0 .1 0 0 0 0-.2 0-.5-.1-.8-.2-.5-.6-.9-1.3-1.1.1.3.2.6.5 1v.2c0 .1-.1.1-.2.1 0 0-.4-.1-.8 0 .5.2 1.2.6 1.9.6z"/><path class="st484" d="M41.4 9.4c-.4-.4-.8-.6-1.4-.5-.2 0-.4 0-.6.1.4.3.9.5 1.3.5h.1c.3 0 .5-.1.6-.1zm-2.6-1.2s0 .1 0 0c.3.2.6.3 1 .3h.5c.3-.1.5-.1.7-.2-.3-.2-.5-.3-.8-.3h-.8c-.3.1-.5.2-.6.2z"/><path class="st485" d="M33.4 18.6c.1.1.2.2.4.2h2.1c-1.2-.8-1.6-.6-2.5-.2z"/><path class="st485" d="M38.5 17.7c-.2-.1-.4-.1-.5-.2-.6-.3-1.2-.7-1.2-.7-.1-.1-.2-.3 0-.4.1-.1.3-.2.4-.1 0 0 .5.4 1.1.6.1 0 .3.1.5.1.3.1.6.2.8.3-.1-.3-.1-.6-.2-.9-.8-.2-1.5-.7-1.5-.8-.1 0-.1-.1-.1-.2s0-.2.1-.2c.1-.1.3-.1.4 0 0 0 .4.4 1 .6-.2-.8-.5-1.6-.9-2.3-.3-.5-.7-.9-1.2-1.1-.4-.1-.7-.1-.7-.1s-1 0-1.6.8c-.1.1-.4.5-.5.8 0 .2 0 .3.1.3 0 0 .2.1.5-.1l.1-.1c.1-.1.3-.1.4.1.1.1.1.3 0 .4l-.1.1c-.1.1-.4.3-.7.7-.4.5-.9 1.4-1.1 2.6v.1c.9-.4 1.6-.5 3.1.5.6.4 1.3.4 1.4.4h.7c.2 0 .7 0 .9-.3l.1-.1c-.3-.5-.6-.6-1.3-.8z"/><path class="st486" d="M35.5 29.5l.2-.2s0-.1-.1-.1c-.1-.1-.1-.1-.2-.1-.2 0-.3.1-.6.3-.2.1-.5.4-.4.6 0 .1 0 .1.1.2s.4.1.5 0c.1-.3.2-.5.5-.7zm1.1.4s0-.1-.1-.1c0 0-.1-.1-.4.1-.2.1-.5.3-.6.5.1.1.1.1.2.1.2 0 .6-.2.7-.2 0-.2.1-.3.2-.4zm-3.2-1.5c-.1 0-.1 0 0 0-.3 0-.6.1-.7.3-.1.1-.1.2-.1.2s.1.1.3.1h.1c.1-.2.2-.4.4-.6l.1-.1-.1.1zm0 1s0 .2.3.3h.1c.1-.3.3-.5.6-.8l.1-.1-.1-.1h-.2c-.2 0-.4.1-.6.3-.1.1-.2.2-.2.4z"/><path class="st486" d="M39.9 28.9c.2 0 .3 0 .4-.1.1-.1.1-.2.1-.2-.2-.2-.7-.8-1.4-1.3-.3-.2-.6-.4-.9-.5-.4-.1-.7-.2-.9-.1-.1 0-.2.1-.3.2-.1.1-.2.1-.3.2-.3.2-.7.3-1.1.3-.3 0-.7 0-.9-.3-.2-.2-.2-.4-.1-.6.1-.2.3-.3.6-.5.1-.1.3-.1.4-.2l.3-.3c.1-.1.2-.2.5-.3.1-.1.2-.1.3-.2h-.3c-.5 0-.9.1-1.4.5-.5.3-1.3.6-2.7.9-1.3.3-3.1.5-5.3.8.1.3.1.5.2.7.3.9.6 1.7 1.1 2.5.8-.3 2.7-1.2 4.3-2 .3-.3.8-.5 1.1-.4.1 0 .4 0 .6.2.2-.1.5-.1.7.1.2.1.4.3.4.4.3-.1.6 0 .8.2.1.1.2.3.3.4.3 0 .5.1.6.2.2.2.3.4.2.6 0 .1-.1.2-.1.3.2 0 .3 0 .4-.1 0 0 .1 0 .1-.1-.1-.1-.2-.3-.4-.5 0-.1-.1-.1-.1-.2s0-.1.1-.2.3-.1.4 0c.3.3.4.6.5.7.1 0 .3 0 .4-.1.1-.1.1-.1.1-.2s-.1-.2-.3-.4c-.1-.2-.5-.4-.6-.5-.1 0-.1-.1-.1-.2v-.2c0-.1.1-.1.2-.1h.2s.5.3.7.6c.2.2.3.4.4.5.2 0 .3-.1.4-.2l.1-.1c-.2-.3-.7-.9-1.3-1.2-.1 0-.1-.1-.1-.2v-.2c0-.1.1-.1.2-.1h.2c.5.5 1.1 1.2 1.3 1.5z"/><path class="st486" d="M36.6 26.4c.2-.1.3-.2.5-.3.9-.2 1.8.4 2.3.7.7.4 1.2 1 1.4 1.3v.1c.1.1.2.3.5.4 1.1.8 2.8 1.6 3.5 1.9.4-.8.8-1.7 1.1-2.6.1-.2.1-.4.2-.7-1.4-.1-2.9-.4-3.9-.6-1.2-.3-2-.6-2.1-.6-.2-.1-.4-.2-.6-.2-.6-.2-1.1-.4-1.5-.4h-.4c-.4 0-.7 0-1 .2-.2.1-.3.2-.4.3-.1.1-.2.2-.4.3-.1.1-.3.2-.4.2-.1.1-.3.2-.4.2v.1c.1.1.2.1.5.1.2 0 .6-.1.8-.3.1 0 .2 0 .3-.1z"/></svg>