<svg id="Layer_1" xmlns="http://www.w3.org/2000/svg" viewBox="0 0 112.3 19.5"><style/><linearGradient id="SVGID_2_" gradientUnits="userSpaceOnUse" x1="35.67" y1="11.033" x2="51.478" y2="11.033"><stop offset="0" stop-color="#073f69"/><stop offset="1" stop-color="#00133c"/></linearGradient><path d="M48.3 19.1c-.2-.6-.4-1.3-.7-1.9-.2-.6-.5-1.3-.7-1.9H40c-.2.7-.4 1.3-.7 1.9-.2.6-.5 1.3-.7 1.9h-3.1c.6-1.7 1.2-3.3 1.7-4.8s1.1-2.9 1.6-4.2c.5-1.3 1-2.6 1.6-3.7l1.5-3.3c.1-.2.2-.2.4-.2h2.3c.2 0 .3.1.4.2l1.5 3.3c.5 1.2 1 2.4 1.6 3.7.5 1.3 1.1 2.7 1.6 4.2.6 1.5 1.1 3.1 1.7 4.8h-3.1zm-4.8-13c-.4.8-.8 1.8-1.2 3-.5 1.2-.9 2.5-1.4 3.9h5.3c-.5-1.4-1-2.7-1.5-3.9-.4-1.2-.9-2.2-1.2-3z" fill="url(#SVGID_2_)"/><linearGradient id="SVGID_3_" gradientUnits="userSpaceOnUse" x1="53.374" y1="12.895" x2="63.607" y2="12.895"><stop offset="0" stop-color="#073f69"/><stop offset="1" stop-color="#00133c"/></linearGradient><path d="M53.4 7.6c0-.2.1-.4.3-.4.5-.1 1.1-.2 1.8-.4.9-.1 1.8-.2 2.9-.2 1 0 1.8.1 2.5.4.7.3 1.2.7 1.6 1.1s.7 1.1.8 1.8c.2.7.2 1.5.2 2.3v6.9h-2.8v-6.4c0-.7 0-1.2-.1-1.7s-.2-.8-.4-1.1c-.2-.3-.5-.5-.8-.6-.3-.1-.7-.2-1.2-.2-.4 0-.7 0-1.1.1-.4 0-.7.1-.9.1v9.9h-2.8V7.6z" fill="url(#SVGID_3_)"/><linearGradient id="SVGID_4_" gradientUnits="userSpaceOnUse" x1="66.393" y1="10.252" x2="77.423" y2="10.252"><stop offset="0" stop-color="#073f69"/><stop offset="1" stop-color="#00133c"/></linearGradient><path d="M77.4 18.8c-.6.2-1.3.3-2.1.5-.9.1-1.7.2-2.7.2-1 0-1.8-.1-2.6-.4-.8-.3-1.4-.7-2-1.3-.5-.6-1-1.2-1.2-2-.3-.8-.4-1.7-.4-2.7 0-1 .1-1.8.4-2.6.2-.8.6-1.5 1.1-2 .5-.6 1-1 1.7-1.3.7-.3 1.4-.5 2.3-.5.6 0 1.1.1 1.6.2s.8.3 1.2.5V1.8c0-.2.2-.4.4-.4l2-.3c.3 0 .5.2.5.4v17.3zM69.3 13c0 1.2.3 2.2.9 2.9.6.7 1.4 1.1 2.5 1.1.5 0 .8 0 1.2-.1.3 0 .6-.1.8-.1v-7c-.2-.2-.6-.3-1-.5-.4-.1-.9-.2-1.3-.2-1 0-1.8.4-2.3 1.1-.6.6-.8 1.6-.8 2.8z" fill="url(#SVGID_4_)"/><linearGradient id="SVGID_5_" gradientUnits="userSpaceOnUse" x1="80.701" y1="10.354" x2="84.19" y2="10.354"><stop offset="0" stop-color="#073f69"/><stop offset="1" stop-color="#00133c"/></linearGradient><path d="M84.2 3.3c0 .5-.2 1-.5 1.3-.4.3-.8.4-1.2.4-.5 0-.9-.2-1.2-.5-.3-.3-.5-.7-.5-1.3 0-.5.2-1 .5-1.3s.8-.5 1.2-.5c.5 0 .9.2 1.2.5.3.4.5.9.5 1.4zm-.3 15.8h-2.8V7.3c0-.2.2-.4.4-.4h2c.2 0 .4.2.4.4v11.8z" fill="url(#SVGID_5_)"/><linearGradient id="SVGID_6_" gradientUnits="userSpaceOnUse" x1="87.491" y1="12.895" x2="97.725" y2="12.895"><stop offset="0" stop-color="#073f69"/><stop offset="1" stop-color="#00133c"/></linearGradient><path d="M87.5 7.6c0-.2.1-.4.3-.4.5-.1 1.1-.2 1.8-.4.9-.1 1.8-.2 2.9-.2 1 0 1.8.1 2.5.4a5 5 0 0 1 1.6 1.1c.4.5.7 1.1.8 1.8.2.7.2 1.5.2 2.3v6.9h-2.8v-6.4c0-.7 0-1.2-.1-1.7s-.2-.8-.4-1.1c-.2-.3-.5-.5-.8-.6-.3-.1-.7-.2-1.2-.2-.4 0-.7 0-1.1.1-.4 0-.7.1-.9.1v9.9h-2.8V7.6z" fill="url(#SVGID_6_)"/><linearGradient id="SVGID_7_" gradientUnits="userSpaceOnUse" x1="100.511" y1="13.035" x2="112.267" y2="13.035"><stop offset="0" stop-color="#073f69"/><stop offset="1" stop-color="#00133c"/></linearGradient><path d="M112.3 13c0 1-.1 1.8-.4 2.6s-.7 1.5-1.2 2c-.5.6-1.1 1-1.9 1.3-.7.3-1.5.5-2.4.5-.9 0-1.7-.2-2.4-.5s-1.3-.7-1.8-1.3c-.5-.6-.9-1.2-1.2-2-.3-.8-.4-1.7-.4-2.6s.1-1.8.4-2.6c.3-.8.7-1.5 1.2-2 .5-.6 1.1-1 1.9-1.3.7-.3 1.5-.5 2.4-.5s1.7.2 2.4.5 1.3.7 1.9 1.3c.5.6.9 1.2 1.2 2s.3 1.6.3 2.6zm-2.9 0c0-1.2-.3-2.2-.8-2.9-.5-.7-1.3-1.1-2.2-1.1-.9 0-1.7.4-2.2 1.1-.5.7-.8 1.7-.8 2.9s.3 2.2.8 2.9c.5.7 1.3 1.1 2.2 1.1.9 0 1.7-.4 2.2-1.1.5-.7.8-1.7.8-2.9z" fill="url(#SVGID_7_)"/><linearGradient id="SVGID_8_" gradientUnits="userSpaceOnUse" x1="10.399" y1="9.622" x2="20.814" y2="9.622"><stop offset="0" stop-color="#073f69"/><stop offset="1" stop-color="#00133c"/></linearGradient><path d="M20.8 10.1c0-.1 0-.1-.1-.1l-4.2-5.1c.6-1.1.6-2.6-.3-3.7C15-.2 12.8-.4 11.4.9c-1.3 1.2-1.3 3.2-.2 4.5.9 1 2.3 1.3 3.5.9l3.2 3.8-2.1 2.7c-1.2-.4-2.7-.1-3.6 1-1.2 1.4-.9 3.6.6 4.7 1.4 1 3.4.7 4.5-.7.8-1.1.9-2.5.2-3.6l3.2-4c.1 0 .1 0 .1-.1zm-6.1-5.5c-.7.6-1.7.5-2.3-.2-.6-.7-.5-1.8.2-2.4.7-.6 1.8-.5 2.4.2.6.7.5 1.8-.3 2.4zM16.1 17c-.6.7-1.6.8-2.4.2-.7-.6-.8-1.6-.2-2.4.6-.7 1.6-.8 2.4-.2.7.7.8 1.7.2 2.4z" fill="url(#SVGID_8_)"/><linearGradient id="SVGID_9_" gradientUnits="userSpaceOnUse" y1="12.487" x2="11.762" y2="12.487"><stop offset="0" stop-color="#073f69"/><stop offset="1" stop-color="#00133c"/></linearGradient><path d="M11.8 7.2c-.7-.3-1.3-.9-1.7-1.5l-5.7 7.2c-1.2-.4-2.7-.1-3.6 1-1.2 1.4-.9 3.6.6 4.7 1.4 1 3.4.7 4.5-.7.8-1.1.9-2.5.2-3.6l5.7-7.1zM4.6 17c-.6.7-1.6.8-2.4.2-.7-.6-.8-1.6-.2-2.4s1.6-.8 2.4-.2c.7.7.8 1.7.2 2.4z" fill="url(#SVGID_9_)"/><linearGradient id="SVGID_10_" gradientUnits="userSpaceOnUse" x1="20.581" y1="9.306" x2="31.101" y2="9.306"><stop offset="0" stop-color="#073f69"/><stop offset="1" stop-color="#00133c"/></linearGradient><path d="M31.1 13.6l-4.4-5.2c.6-1.1.6-2.6-.3-3.7-1.2-1.4-3.4-1.6-4.8-.3-1.3 1.2-1.3 3.2-.2 4.5.9 1 2.3 1.3 3.5.9l4.4 5.2c.7-.3 1.3-.7 1.8-1.4zm-6.2-5.5c-.7.6-1.8.5-2.4-.2-.6-.7-.5-1.8.2-2.4.7-.6 1.8-.5 2.4.2.6.8.5 1.8-.2 2.4zm4.4 6.9c.5-.6 1.1-1.1 1.8-1.4-.7.3-1.3.8-1.8 1.4z" fill="url(#SVGID_10_)"/></svg>