<?xml version="1.0" encoding="utf-8"?>
<!-- Generator: Adobe Illustrator 21.1.0, SVG Export Plug-In . SVG Version: 6.00 Build 0)  -->
<svg version="1.1" id="Layer_1" xmlns="http://www.w3.org/2000/svg" xmlns:xlink="http://www.w3.org/1999/xlink" x="0px" y="0px"
	 viewBox="0 0 73.7 72" style="enable-background:new 0 0 73.7 72;" xml:space="preserve">
<style type="text/css">
	.st0{fill:#0687C5;}
	.st1{fill:#FFFFFF;}
	.st2{fill:#1E1C1B;}
	.st3{fill:#EFB71C;}
	.st4{fill:#289145;}
	.st5{fill:#DB3927;}
	.st6{fill:#EEB580;}
	.st7{fill:#0094D4;}
</style>
<g>
	<g>
		<g>
			<path class="st0" d="M36.126,21.281h-2.278c-0.499,0-0.77-0.206-0.909-0.375c-0.124-0.151-0.202-0.341-0.241-0.563
				c-0.004-0.018-0.004-0.034-0.004-0.05c-0.029-0.208-0.019-0.439,0.034-0.688c0.297-1.486,0.893-2.492,1.381-3.105
				c-0.053-0.016-0.106-0.04-0.159-0.07c-0.308-0.175-0.46-0.538-0.393-0.948c0.085-0.493,0.55-0.992,0.633-1.077
				c0.785-0.915,1.948-0.966,2.092-0.967c0.172-0.013,1.705-0.081,2.533,1.527c0.986,1.923,1.221,3.508,1.406,4.782l0.013,0.065
				c0.034,0.219,0.015,0.407-0.022,0.561c-0.004,0.018-0.012,0.035-0.019,0.05c-0.055,0.177-0.145,0.31-0.228,0.398
				c-0.207,0.226-0.51,0.367-0.896,0.43c-0.166,0.03-0.31,0.032-0.4,0.032c-0.047,0-0.078-0.002-0.094-0.002H37.92
				c-0.001,0-0.004,0-0.009,0c-0.006,0-0.008,0-0.016,0h-1.093v3.213h10.156c0-1.881-0.279-3.706-0.829-5.421
				c-0.532-1.659-1.294-3.147-2.265-4.425c-0.963-1.272-2.085-2.269-3.333-2.964c-1.289-0.718-2.66-1.079-4.067-1.079
				c-1.41,0-2.776,0.361-4.061,1.079c-1.251,0.696-2.371,1.693-3.34,2.964c-0.967,1.278-1.729,2.767-2.262,4.425
				c-0.55,1.715-0.83,3.54-0.83,5.421h10.155V21.281z"/>
		</g>
		<g>
			<path class="st1" d="M25.972,24.494c0,1.433,0.162,2.828,0.48,4.169c4.542-0.514,7.252-1.05,8.057-1.59
				c0.564-0.396,1.02-0.63,1.617-0.614v-1.965H25.972z"/>
			<path class="st1" d="M36.802,26.54c0.414,0.075,0.706,0.187,1.04,0.353c0.035-0.003,0.069-0.003,0.102-0.005
				c0.581-0.026,1.076,0.154,1.762,0.399c0.19,0.067,0.4,0.142,0.633,0.223c0.098,0.032,3.362,1.053,6.129,1.215
				c0.326-1.361,0.491-2.778,0.491-4.23H36.802V26.54z"/>
		</g>
		<polygon class="st2" points="35.792,8.83 35.792,8.83 35.792,8.83 		"/>
		<polygon class="st2" points="33.679,9.141 33.679,9.141 33.679,9.141 		"/>
		<polygon class="st2" points="33.679,9.141 33.679,9.141 33.679,9.141 		"/>
		<path class="st1" d="M40.944,30.977c-0.043,0.089-0.102,0.178-0.188,0.261c-0.169,0.167-0.4,0.253-0.687,0.266
			c-0.032,0.08-0.084,0.175-0.165,0.266c-0.155,0.176-0.429,0.368-0.888,0.347c-0.044,0.074-0.103,0.159-0.181,0.241
			c-0.227,0.23-0.529,0.319-0.862,0.262c-0.077,0.061-0.197,0.139-0.354,0.203c-0.188,0.076-0.464,0.133-0.816,0.068v2.689
			c0,0.19-0.147,0.342-0.338,0.342c-0.189,0-0.338-0.153-0.338-0.342v-2.58c-0.137,0.053-0.287,0.087-0.442,0.087
			c-0.059,0-0.119-0.004-0.178-0.016c-0.189-0.038-0.351-0.14-0.48-0.294c-0.228,0.035-0.628,0.058-0.91-0.13
			c-0.118-0.082-0.201-0.189-0.252-0.319c-0.094-0.014-0.208-0.031-0.323-0.067c-0.297-0.098-0.506-0.27-0.596-0.502
			c-0.07-0.001-0.15-0.008-0.236-0.023c-0.244-0.036-0.565-0.142-0.69-0.431c-0.028-0.057-0.043-0.123-0.051-0.182
			c-1.446,0.743-3.101,1.485-3.842,1.814c0.289,0.495,0.598,0.962,0.936,1.412c0.969,1.267,2.089,2.266,3.34,2.962
			c0.581,0.326,1.18,0.579,1.795,0.756c0.062-0.113,0.15-0.211,0.263-0.29c0.584-0.378,1.692-0.102,2.004-0.009
			c0.312-0.093,1.42-0.37,2.002,0.009c0.118,0.079,0.207,0.177,0.268,0.29c0.615-0.177,1.213-0.43,1.798-0.756
			c1.248-0.696,2.372-1.696,3.333-2.962c0.318-0.421,0.615-0.866,0.886-1.324C43.93,32.681,42.109,31.883,40.944,30.977z"/>
		<g>
			<path class="st0" d="M37.397,40.195c0.021-0.076,0.032-0.152,0.032-0.235c0-0.073-0.008-0.146-0.024-0.215
				c0.34-0.069,0.893-0.231,1.203-0.608c0.177-0.22,0.25-0.478,0.216-0.766c-0.023-0.254-0.149-0.458-0.358-0.595
				c-0.581-0.378-1.689-0.102-2.002-0.009c-0.311-0.093-1.419-0.37-2.004,0.009c-0.204,0.137-0.33,0.341-0.357,0.595
				c-0.032,0.288,0.042,0.546,0.223,0.766c0.306,0.379,0.867,0.542,1.207,0.608c-0.014,0.069-0.022,0.141-0.022,0.215
				c0,0.081,0.008,0.151,0.028,0.228c-0.25,0.241-1.052,0.945-2.211,1.078l0,0c0.036,0.057,0.134,0.222,0.338,0.404
				c1.029-0.195,1.762-0.762,2.094-1.069c0.031,0.037,0.067,0.072,0.105,0.102c-0.075,0.281-0.378,1.012-1.637,1.327
				c0.207,0.1,0.458,0.177,0.754,0.217c0.874-0.396,1.186-0.999,1.295-1.349c0.062,0.01,0.122,0.018,0.191,0.018
				c0.061,0,0.12-0.008,0.182-0.015c0.105,0.348,0.421,0.951,1.291,1.346c0.298-0.039,0.55-0.117,0.754-0.217
				c-1.249-0.312-1.559-1.035-1.634-1.325c0.04-0.031,0.075-0.067,0.11-0.098c0.334,0.306,1.064,0.868,2.092,1.062
				c0.196-0.182,0.303-0.347,0.335-0.404C38.447,41.137,37.654,40.442,37.397,40.195z"/>
			<g>
				<g>
					<path class="st1" d="M38.22,38.155c0.097,0.065,0.145,0.145,0.159,0.266c0.018,0.166-0.022,0.309-0.121,0.428
						c-0.136,0.163-0.357,0.28-0.584,0.357c0.114-0.229,0.125-0.458,0.043-0.674c-0.078-0.217-0.212-0.369-0.361-0.48
						C37.701,38.017,38.034,38.037,38.22,38.155z"/>
					<path class="st1" d="M35.639,38.691c0.169-0.458,0.802-0.466,0.824-0.466h0.002c0,0.005,0.172,0,0.364,0.063
						c0.243,0.076,0.398,0.212,0.465,0.403c0.078,0.204-0.067,0.416-0.189,0.55c-0.174-0.147-0.392-0.239-0.634-0.239
						c-0.246,0-0.47,0.094-0.639,0.242C35.703,39.113,35.556,38.899,35.639,38.691z"/>
					<path class="st1" d="M35.255,39.207c-0.221-0.077-0.448-0.195-0.58-0.358c-0.103-0.12-0.142-0.262-0.123-0.428
						c0.012-0.121,0.063-0.202,0.157-0.266c0.134-0.088,0.338-0.119,0.574-0.119c0.095,0,0.191,0.004,0.295,0.015
						c-0.153,0.111-0.287,0.264-0.365,0.48C35.116,38.783,35.165,39.012,35.255,39.207z"/>
					<circle class="st1" cx="36.469" cy="39.959" r="0.506"/>
				</g>
				<path class="st1" d="M39.266,41.671c-1.028-0.195-1.758-0.756-2.092-1.062c-0.035,0.031-0.07,0.067-0.11,0.098
					c0.075,0.289,0.385,1.012,1.634,1.325C38.941,41.922,39.124,41.793,39.266,41.671z"/>
				<path class="st1" d="M35.762,40.602c-0.332,0.307-1.065,0.874-2.094,1.069c0.138,0.123,0.326,0.252,0.563,0.36
					c1.258-0.315,1.562-1.046,1.637-1.327C35.829,40.674,35.792,40.639,35.762,40.602z"/>
			</g>
		</g>
		<path class="st2" d="M49.169,27.202c0.008-0.073-0.019-0.143-0.075-0.194c-0.043-0.036-0.095-0.052-0.153-0.049
			c0.042-0.094,0.083-0.19,0.118-0.289c0.161-0.43,0.243-0.923,0.251-1.475c0-0.076-0.036-0.139-0.099-0.182
			c-0.046-0.033-0.098-0.045-0.149-0.037c0.031-0.089,0.062-0.185,0.085-0.282c0.114-0.443,0.15-0.944,0.101-1.491
			c-0.008-0.073-0.048-0.136-0.114-0.174c-0.048-0.025-0.105-0.031-0.154-0.018c0.028-0.107,0.048-0.218,0.07-0.331
			c0.075-0.453,0.053-0.955-0.047-1.495c-0.015-0.076-0.065-0.132-0.132-0.161c-0.035-0.016-0.076-0.024-0.115-0.016
			c0.016-0.075,0.025-0.153,0.033-0.231c0.05-0.457,0.011-0.96-0.118-1.492c-0.012-0.071-0.067-0.129-0.137-0.156
			c-0.067-0.026-0.145-0.014-0.201,0.028l0,0c0.005-0.116,0.01-0.236,0.005-0.361c-0.01-0.457-0.118-0.95-0.319-1.463
			c-0.027-0.066-0.086-0.119-0.158-0.134c-0.057-0.014-0.119,0-0.168,0.034c-0.007-0.112-0.015-0.225-0.027-0.333
			c-0.064-0.456-0.222-0.936-0.475-1.423c-0.032-0.066-0.094-0.111-0.17-0.119c-0.054-0.007-0.116,0.01-0.164,0.051
			c-0.012-0.103-0.035-0.204-0.06-0.309c-0.114-0.447-0.329-0.902-0.639-1.361c-0.039-0.063-0.111-0.096-0.184-0.096
			c-0.068,0-0.134,0.032-0.174,0.096c-0.038-0.122-0.083-0.243-0.132-0.362c-0.185-0.418-0.472-0.838-0.848-1.237
			c-0.053-0.056-0.134-0.085-0.204-0.068c-0.053,0.013-0.102,0.045-0.131,0.087c-0.059-0.119-0.124-0.235-0.196-0.351
			c-0.25-0.382-0.593-0.75-1.017-1.078c-0.059-0.047-0.132-0.058-0.204-0.034c-0.055,0.019-0.102,0.059-0.126,0.111
			c-0.282-0.377-0.686-0.662-1.192-0.845c0.089,0.009,0.182,0.015,0.274,0.021c0.601,0.035,1.028-0.089,1.047-0.097
			c0.126-0.039,0.209-0.164,0.193-0.296C43.245,9.46,43.137,9.357,43,9.351c-0.659-0.031-0.907-0.164-1.22-0.335
			c-0.056-0.036-0.118-0.067-0.185-0.1l1.544-0.233c0.133-0.02,0.238-0.137,0.238-0.273c0-0.135-0.104-0.252-0.238-0.273
			l-1.533-0.217c0.177-0.051,0.381-0.11,0.597-0.182c0.57-0.202,0.913-0.479,0.928-0.491c0.104-0.084,0.132-0.232,0.065-0.35
			c-0.067-0.116-0.207-0.169-0.333-0.123c-0.624,0.223-0.899,0.191-1.258,0.16c-0.067-0.01-0.135-0.016-0.21-0.022l1.341-0.802
			c0.115-0.072,0.165-0.218,0.113-0.343c-0.054-0.127-0.191-0.194-0.324-0.16l-1.508,0.385c0.148-0.115,0.318-0.251,0.486-0.399
			c0.452-0.406,0.664-0.793,0.669-0.808c0.065-0.119,0.034-0.266-0.072-0.35c-0.106-0.081-0.255-0.077-0.357,0.015
			c-0.485,0.442-0.757,0.523-1.097,0.626c-0.062,0.019-0.129,0.036-0.199,0.057l0.929-1.249c0.078-0.106,0.067-0.26-0.031-0.359
			c-0.096-0.097-0.248-0.104-0.357-0.022l-1.253,0.931c0.095-0.163,0.199-0.354,0.3-0.564c0.264-0.537,0.307-0.982,0.307-0.997
			c0.013-0.134-0.073-0.258-0.199-0.295c-0.129-0.037-0.266,0.029-0.322,0.146c-0.279,0.6-0.499,0.778-0.775,0.999
			C39,3.77,38.949,3.812,38.89,3.857l0.378-1.504c0.037-0.135-0.036-0.268-0.16-0.323c-0.127-0.049-0.271-0.004-0.341,0.115
			l-0.803,1.347c0.027-0.189,0.046-0.408,0.065-0.638c0.035-0.6-0.097-1.025-0.105-1.047c-0.036-0.125-0.164-0.208-0.298-0.191
			c-0.131,0.018-0.233,0.128-0.236,0.262c-0.032,0.658-0.165,0.907-0.335,1.223c-0.031,0.056-0.062,0.111-0.095,0.173l-0.223-1.532
			c-0.024-0.135-0.137-0.236-0.276-0.236l0,0c-0.137,0-0.254,0.105-0.271,0.239l-0.215,1.525c-0.047-0.175-0.106-0.379-0.18-0.587
			c-0.197-0.569-0.476-0.918-0.487-0.927c-0.084-0.107-0.235-0.135-0.35-0.071c-0.117,0.071-0.169,0.208-0.122,0.335
			c0.22,0.622,0.192,0.905,0.155,1.256c-0.01,0.069-0.017,0.139-0.024,0.213l-0.81-1.341c-0.067-0.116-0.215-0.164-0.338-0.112
			c-0.126,0.053-0.196,0.187-0.164,0.321l0.388,1.498c-0.11-0.145-0.247-0.313-0.396-0.478c-0.4-0.449-0.792-0.662-0.806-0.671
			c-0.12-0.061-0.265-0.031-0.348,0.073c-0.083,0.109-0.075,0.256,0.014,0.355c0.444,0.487,0.524,0.759,0.625,1.101
			c0.021,0.063,0.039,0.131,0.063,0.203l-1.259-0.93c-0.107-0.082-0.26-0.07-0.358,0.024C31.481,3.629,31.47,3.78,31.553,3.89
			l0.93,1.241c-0.155-0.089-0.346-0.194-0.55-0.29c-0.542-0.266-0.987-0.308-1.002-0.311c-0.134-0.012-0.261,0.072-0.291,0.202
			c-0.037,0.126,0.025,0.265,0.146,0.321c0.597,0.28,0.773,0.5,1,0.779c0.043,0.05,0.084,0.103,0.131,0.159l-1.511-0.378
			c-0.136-0.036-0.273,0.036-0.324,0.164c-0.05,0.124-0.003,0.271,0.112,0.342l1.342,0.795c-0.182-0.027-0.4-0.052-0.626-0.062
			c-0.604-0.037-1.025,0.096-1.044,0.097c-0.129,0.041-0.212,0.167-0.196,0.298c0.019,0.134,0.129,0.236,0.26,0.24
			c0.658,0.03,0.907,0.168,1.221,0.335c0.057,0.031,0.113,0.065,0.18,0.099l-1.54,0.226c-0.134,0.017-0.239,0.133-0.236,0.272
			c0,0.135,0.101,0.251,0.236,0.271l1.551,0.226c-0.177,0.049-0.392,0.109-0.609,0.186c-0.57,0.199-0.915,0.48-0.926,0.493
			c-0.104,0.083-0.129,0.231-0.062,0.346c0.063,0.115,0.204,0.17,0.333,0.123c0.358-0.132,0.604-0.174,0.813-0.185
			c-0.329,0.294-0.569,0.523-0.687,0.669c-0.062,0.083-0.118,0.161-0.173,0.248c-0.028-0.045-0.063-0.079-0.116-0.094
			c-0.067-0.025-0.144-0.013-0.201,0.034c-0.44,0.338-0.785,0.705-1.036,1.091c-0.072,0.116-0.139,0.23-0.198,0.346
			c-0.028-0.049-0.086-0.083-0.145-0.095c-0.072-0.01-0.145,0.013-0.196,0.068c-0.373,0.399-0.66,0.818-0.845,1.237
			c-0.051,0.112-0.094,0.229-0.129,0.342c-0.035-0.035-0.087-0.058-0.14-0.059c-0.072-0.006-0.144,0.025-0.185,0.088
			c-0.326,0.442-0.561,0.89-0.692,1.33c-0.035,0.116-0.062,0.234-0.083,0.346c-0.049-0.051-0.116-0.077-0.187-0.072
			c-0.074,0.008-0.138,0.054-0.172,0.116c-0.255,0.488-0.418,0.968-0.483,1.421c-0.017,0.109-0.028,0.226-0.03,0.338
			c-0.054-0.041-0.124-0.058-0.187-0.044c-0.075,0.017-0.13,0.067-0.157,0.138c-0.193,0.511-0.295,1.009-0.3,1.465
			c0,0.116,0,0.222,0.008,0.334c-0.054-0.034-0.121-0.04-0.18-0.018c-0.07,0.026-0.122,0.077-0.14,0.155
			c-0.127,0.536-0.166,1.038-0.119,1.495c0.013,0.085,0.024,0.169,0.04,0.254c-0.032-0.002-0.063,0.001-0.098,0.016
			c-0.067,0.03-0.11,0.085-0.128,0.161c-0.104,0.54-0.116,1.042-0.049,1.495c0.019,0.118,0.046,0.231,0.075,0.339
			c-0.029,0-0.059,0.009-0.088,0.023c-0.065,0.035-0.11,0.096-0.121,0.172c-0.07,0.542-0.051,1.046,0.046,1.497
			c0.024,0.092,0.048,0.194,0.08,0.284c-0.051-0.005-0.102,0.004-0.145,0.034c-0.061,0.037-0.099,0.103-0.1,0.179
			c-0.011,0.55,0.059,1.047,0.204,1.483c0.043,0.126,0.095,0.251,0.149,0.367c-0.014-0.001-0.023-0.005-0.026-0.007
			c-0.075-0.018-0.147,0-0.206,0.052c-0.053,0.048-0.077,0.122-0.065,0.193c0.087,0.541,0.242,1.022,0.462,1.427
			c0.043,0.077,0.088,0.154,0.137,0.223c-0.042,0.012-0.075,0.034-0.104,0.062c-0.051,0.057-0.072,0.129-0.051,0.201
			c0.124,0.532,0.317,1.001,0.566,1.388c0.062,0.092,0.119,0.181,0.191,0.265c-0.062,0.008-0.116,0.036-0.15,0.086
			c-0.046,0.054-0.059,0.134-0.031,0.205c0.185,0.517,0.432,0.958,0.725,1.314c0.061,0.078,0.13,0.152,0.198,0.225
			c-0.051,0.013-0.098,0.052-0.126,0.1c-0.035,0.063-0.038,0.139-0.003,0.206c0.243,0.491,0.54,0.9,0.871,1.224
			c0.073,0.065,0.148,0.129,0.223,0.194c-0.05,0.018-0.094,0.057-0.112,0.109c-0.032,0.065-0.026,0.142,0.016,0.208
			c0.297,0.46,0.631,0.838,0.996,1.123c0.11,0.084,0.223,0.164,0.338,0.231c-0.024,0.009-0.038,0.014-0.046,0.016
			c-0.069,0.022-0.12,0.084-0.139,0.153c-0.016,0.072,0.003,0.149,0.056,0.204c0.38,0.394,0.77,0.705,1.162,0.93
			c0.321,0.179,0.644,0.303,0.958,0.359c0.277,0.054,0.548,0.055,0.776,0.012c0.016-0.004,0.029-0.007,0.04-0.012
			c0.679,0.48,1.397,0.878,2.136,1.191c0.617,0.265,1.256,0.462,1.893,0.596c0.134,0.03,0.261,0.056,0.379,0.075
			c-0.266-0.097-0.54-0.245-0.722-0.474c-0.035-0.04-0.065-0.079-0.086-0.126c-0.441-0.117-0.875-0.268-1.304-0.449
			c-0.707-0.296-1.397-0.679-2.045-1.135c0.005-0.014,0.005-0.02,0.005-0.023c0.011-0.22-0.013-0.444-0.072-0.663
			c0.47,0.376,0.885,0.685,1.342,0.943c0.625,0.346,1.27,0.613,1.932,0.801c0-0.036,0-0.074,0.005-0.114
			c0.013-0.112,0.042-0.214,0.094-0.305c-0.615-0.177-1.213-0.43-1.795-0.756c-1.251-0.696-2.371-1.696-3.34-2.962
			c-0.338-0.45-0.647-0.918-0.936-1.412c0.74-0.329,2.396-1.071,3.842-1.814c0.008,0.06,0.024,0.125,0.051,0.182
			c0.125,0.289,0.445,0.395,0.69,0.431c0.086,0.015,0.166,0.022,0.236,0.023c0.091,0.232,0.3,0.404,0.596,0.502
			c0.115,0.036,0.23,0.053,0.323,0.067c0.051,0.131,0.134,0.238,0.252,0.319c0.282,0.188,0.682,0.165,0.91,0.13
			c0.129,0.154,0.291,0.256,0.48,0.294c0.059,0.012,0.119,0.016,0.178,0.016c0.155,0,0.305-0.034,0.442-0.087v2.58
			c0,0.19,0.149,0.342,0.338,0.342c0.191,0,0.338-0.153,0.338-0.342v-2.689c0.352,0.065,0.628,0.008,0.816-0.068
			c0.157-0.064,0.277-0.142,0.354-0.203c0.333,0.057,0.636-0.032,0.862-0.262c0.078-0.082,0.137-0.168,0.181-0.241
			c0.459,0.021,0.733-0.17,0.888-0.347c0.081-0.091,0.132-0.186,0.165-0.266c0.287-0.013,0.517-0.1,0.687-0.266
			c0.086-0.083,0.145-0.172,0.188-0.261c1.166,0.906,2.986,1.704,3.807,2.048c-0.271,0.458-0.568,0.903-0.886,1.324
			c-0.961,1.267-2.085,2.266-3.333,2.962c-0.584,0.326-1.183,0.579-1.798,0.756c0.049,0.091,0.081,0.193,0.09,0.305
			c0.008,0.04,0.011,0.077,0.011,0.114c0.659-0.187,1.304-0.454,1.928-0.801c0.49-0.276,0.942-0.614,1.358-0.952
			c-0.058,0.218-0.089,0.444-0.077,0.665c0,0.016,0.004,0.022,0.004,0.032c-0.201,0.153-0.728,0.535-1.504,0.913
			c-0.577,0.284-1.179,0.507-1.787,0.67c-0.025,0.009-0.051,0.016-0.076,0.024c-0.022,0.031-0.05,0.069-0.073,0.102
			c-0.192,0.231-0.476,0.385-0.747,0.479c0.338-0.051,0.675-0.12,1.01-0.209c0.632-0.17,1.263-0.405,1.868-0.701
			c0.814-0.404,1.36-0.797,1.567-0.957c0.013,0.001,0.024,0.009,0.033,0.009c0.231,0.047,0.502,0.046,0.776-0.008
			c0.314-0.056,0.638-0.179,0.958-0.359c0.394-0.225,0.785-0.536,1.164-0.93c0.05-0.055,0.073-0.132,0.054-0.204
			c-0.017-0.069-0.07-0.132-0.142-0.153c0-0.002-0.015-0.007-0.031-0.011c0.118-0.069,0.236-0.152,0.349-0.236
			c0.362-0.285,0.695-0.664,0.997-1.123c0.04-0.066,0.046-0.143,0.017-0.208c-0.025-0.052-0.067-0.091-0.115-0.109
			c0.076-0.065,0.15-0.129,0.22-0.194c0.331-0.324,0.626-0.733,0.872-1.224c0.035-0.067,0.032-0.143-0.005-0.206
			c-0.034-0.057-0.094-0.097-0.156-0.107c0.075-0.078,0.15-0.155,0.217-0.243c0.293-0.356,0.54-0.799,0.725-1.313
			c0.027-0.066,0.016-0.141-0.02-0.197c-0.042-0.056-0.106-0.095-0.176-0.097l0,0c0.066-0.077,0.125-0.161,0.184-0.248
			c0.255-0.381,0.454-0.848,0.59-1.378c0.016-0.075-0.002-0.145-0.051-0.202c-0.045-0.049-0.111-0.074-0.178-0.068
			c0.063-0.098,0.117-0.194,0.169-0.296C48.962,28.232,49.102,27.748,49.169,27.202z M48.913,25.493
			c0.001,0.004,0.001,0.008,0.001,0.008c-0.022,0.378-0.095,0.723-0.202,1.024c-0.112,0.308-0.265,0.575-0.453,0.798
			c-0.229,0.265-0.456,0.404-0.544,0.452h-0.003c-0.005,0-0.011,0-0.012-0.003c-0.302-0.409-0.447-0.909-0.437-1.492
			c0.002-0.189,0.02-0.375,0.059-0.563c0,0,0.002-0.007,0.008-0.007c0.001-0.002,0.008,0,0.013,0.002
			c0.266,0.333,0.416,0.768,0.419,0.771c0.02,0.063,0.076,0.107,0.143,0.111c0.066,0.004,0.125-0.032,0.156-0.095
			c0.251-0.516,0.593-0.831,0.837-1.006C48.903,25.491,48.908,25.491,48.913,25.493z M48.871,23.544
			c0.003-0.006,0.006-0.006,0.011-0.006c0.005,0.006,0.005,0.009,0.005,0.012c0.011,0.374-0.025,0.725-0.103,1.037
			c-0.08,0.315-0.204,0.6-0.372,0.836c-0.193,0.282-0.408,0.445-0.491,0.504c-0.008,0.001-0.008,0.001-0.013,0.001
			c-0.003,0-0.003-0.001-0.004-0.006c-0.533-0.599-0.581-1.49-0.566-1.969c0-0.005,0.005-0.006,0.008-0.01
			c0.008,0,0.008,0,0.012,0.004c0.29,0.314,0.479,0.691,0.48,0.695c0.029,0.057,0.089,0.095,0.153,0.089
			c0.064-0.001,0.121-0.045,0.148-0.104C48.332,24.083,48.642,23.739,48.871,23.544z M48.658,21.558
			c0.004-0.004,0.007-0.004,0.009-0.004c0.003,0.004,0.011,0.007,0.014,0.01c0.044,0.372,0.044,0.722-0.006,1.041
			c-0.046,0.323-0.147,0.616-0.287,0.873c-0.169,0.306-0.373,0.488-0.453,0.555c0,0-0.003,0-0.006,0c-0.002,0-0.002,0-0.008,0
			c-0.522-0.438-0.681-1.378-0.732-1.903c0-0.001,0.002-0.006,0.006-0.012c0.004,0,0.011,0,0.015,0.005
			c0.304,0.279,0.529,0.624,0.531,0.629c0.035,0.057,0.098,0.085,0.164,0.076c0.06-0.011,0.113-0.057,0.13-0.119
			C48.176,22.151,48.45,21.775,48.658,21.558z M48.345,19.674c0.005-0.005,0.008-0.005,0.013-0.005c0.006,0,0.007,0.005,0.007,0.013
			c0.066,0.369,0.083,0.717,0.047,1.039c-0.033,0.321-0.114,0.621-0.244,0.884c-0.153,0.306-0.345,0.5-0.419,0.567
			c0,0-0.005,0-0.008,0c0,0-0.002,0-0.005,0c-0.44-0.373-0.652-0.924-0.751-1.32c-0.046-0.178-0.076-0.364-0.097-0.551
			c0-0.004,0.003-0.009,0.006-0.013c0.005-0.002,0.01,0,0.013,0.002c0.327,0.266,0.575,0.621,0.575,0.624
			c0.039,0.051,0.106,0.08,0.169,0.064c0.065-0.013,0.112-0.061,0.129-0.126C47.892,20.288,48.152,19.901,48.345,19.674z
			 M33.294,19.795c0.002-0.026,0.005-0.049,0.013-0.076c0.255-1.294,0.766-2.183,1.149-2.696c0.284-0.387,0.544-0.624,0.671-0.733
			c0.041-0.03,0.083-0.06,0.12-0.098c0.128-0.103,0.145-0.292,0.042-0.423c-0.099-0.13-0.282-0.158-0.419-0.064
			c-0.013,0.006-0.059,0.042-0.128,0.103c-0.287,0.197-0.453,0.136-0.497,0.107c-0.096-0.054-0.137-0.174-0.107-0.329
			c0.048-0.28,0.363-0.653,0.48-0.775c0.008-0.007,0.012-0.011,0.015-0.017c0.638-0.752,1.657-0.767,1.663-0.767
			c0.011,0,0.019,0,0.03-0.004c0.005,0,0.319-0.024,0.715,0.106c0.543,0.181,0.963,0.553,1.25,1.11c0.4,0.777,0.7,1.559,0.927,2.399
			c-0.563-0.202-1.014-0.568-1.019-0.571c-0.133-0.111-0.326-0.093-0.435,0.04c-0.051,0.065-0.08,0.142-0.072,0.226
			c0.01,0.08,0.051,0.156,0.11,0.204c0.032,0.029,0.731,0.601,1.58,0.789c0.061,0.287,0.113,0.584,0.169,0.932
			c-0.268-0.137-0.589-0.227-0.852-0.294c-0.175-0.046-0.343-0.095-0.478-0.142c-0.581-0.234-1.07-0.622-1.076-0.624
			c-0.137-0.108-0.327-0.083-0.434,0.05c-0.105,0.134-0.082,0.329,0.048,0.435c0.024,0.017,0.572,0.444,1.236,0.712
			c0.162,0.066,0.346,0.115,0.547,0.169c0.735,0.195,1.066,0.342,1.084,0.708c-0.021,0.057-0.051,0.107-0.093,0.152
			c-0.234,0.25-0.749,0.279-0.929,0.27c-0.007,0-0.011,0-0.019,0h-0.689c-0.137-0.005-0.843-0.037-1.452-0.429
			C34.879,19.259,34.169,19.415,33.294,19.795z M35.956,20.694h-2.107c-0.215,0-0.362-0.058-0.455-0.168
			c-0.017-0.019-0.033-0.049-0.051-0.077C34.225,20.05,34.692,19.906,35.956,20.694z M36.802,24.494v-3.213h1.093
			c0.008,0,0.01,0,0.016,0c0.005,0,0.008,0,0.009,0h0.656c0.016,0,0.046,0.002,0.094,0.002c0.09,0,0.235-0.002,0.4-0.032
			c0.386-0.063,0.689-0.204,0.896-0.43c0.083-0.088,0.172-0.221,0.228-0.398c0.007-0.015,0.015-0.032,0.019-0.05
			c0.036-0.154,0.055-0.342,0.022-0.561l-0.013-0.065c-0.185-1.274-0.421-2.859-1.406-4.782c-0.828-1.608-2.36-1.54-2.533-1.527
			c-0.144,0.001-1.307,0.052-2.092,0.967c-0.083,0.084-0.548,0.584-0.633,1.077c-0.067,0.41,0.085,0.773,0.393,0.948
			c0.052,0.03,0.105,0.054,0.159,0.07c-0.488,0.612-1.084,1.619-1.387,3.105c-0.046,0.249-0.056,0.48-0.028,0.688
			c0,0.017,0,0.032,0.004,0.05c0.039,0.222,0.117,0.412,0.241,0.563c0.139,0.169,0.41,0.375,0.909,0.375h2.278v3.213v1.965
			c-0.597-0.015-1.054,0.218-1.617,0.614c-0.805,0.54-3.515,1.076-8.057,1.59c-0.318-1.341-0.48-2.736-0.48-4.169
			c0-1.881,0.28-3.706,0.83-5.421c0.533-1.659,1.295-3.147,2.262-4.425c0.969-1.272,2.089-2.269,3.34-2.964
			c1.285-0.718,2.651-1.079,4.061-1.079c1.407,0,2.778,0.361,4.067,1.079c1.248,0.696,2.372,1.693,3.333,2.964
			c0.971,1.278,1.733,2.767,2.265,4.425c0.55,1.715,0.829,3.54,0.829,5.421c0,1.452-0.165,2.869-0.491,4.23
			c-2.767-0.162-6.031-1.183-6.129-1.215c-0.233-0.08-0.443-0.156-0.633-0.223c-0.686-0.245-1.181-0.424-1.762-0.399
			c-0.033,0.002-0.067,0.002-0.102,0.005c-0.334-0.166-0.626-0.278-1.04-0.353V24.494z M41.099,9.966
			c-0.168,0.065-0.427,0.156-0.722,0.213c-0.187,0.028-0.365,0.046-0.529,0.046c-0.399,0-0.739-0.096-1.016-0.291
			c-0.001-0.005-0.008-0.006-0.008-0.011c0-0.002,0.007-0.008,0.008-0.008c0.128-0.073,0.333-0.172,0.6-0.238
			c0.282-0.065,0.573-0.073,0.859-0.027c0.271,0.046,0.542,0.147,0.808,0.297c0.005,0,0.008,0.004,0.008,0.006
			C41.107,9.958,41.101,9.962,41.099,9.966z M41.497,11.085c0,0.004,0,0.005,0,0.009c0,0.002,0,0.005-0.005,0.008
			c-0.114,0.037-0.301,0.09-0.522,0.097c-0.027,0.002-0.051,0.002-0.078,0.002c-0.472,0-0.931-0.171-1.374-0.515
			c0,0-0.005-0.007,0-0.01c0-0.003,0-0.007,0.007-0.007c0.197-0.061,0.397-0.101,0.588-0.111
			C40.669,10.523,41.131,10.699,41.497,11.085z M39.322,9.344c-0.185,0.088-0.503,0.201-0.985,0.258
			c-0.063,0.009-0.122,0.057-0.138,0.124c-0.015,0.065,0.011,0.136,0.066,0.172c0.005,0.003,0.373,0.26,0.645,0.603
			c0.003,0.001,0.003,0.005,0,0.009c0,0.005-0.005,0.005-0.008,0.005l0,0c-0.454-0.013-1.304-0.143-1.908-0.869
			c-0.008-0.003-0.005-0.013,0-0.016c0.095-0.094,0.263-0.22,0.522-0.317c0.486-0.182,1.107-0.178,1.806,0.01
			c0.003,0.001,0.006,0.004,0.008,0.011C39.33,9.336,39.328,9.341,39.322,9.344z M37.293,9.011c-0.16,0.127-0.452,0.306-0.927,0.45
			c-0.064,0.021-0.113,0.079-0.113,0.152c-0.002,0.067,0.041,0.132,0.104,0.155c0.007,0.004,0.408,0.152,0.735,0.427
			c0.004,0.004,0.004,0.006,0.004,0.011c-0.004,0.004-0.008,0.008-0.009,0.008c-0.117,0.01-0.254,0.018-0.407,0.018
			c-0.489,0-1.13-0.085-1.626-0.461c-0.005-0.004-0.005-0.011-0.003-0.015c0.076-0.108,0.218-0.27,0.445-0.417
			c0.444-0.276,1.057-0.398,1.789-0.348c0.008,0,0.014,0.001,0.014,0.007C37.299,9.003,37.299,9.008,37.293,9.011z M35.21,9.044
			c-0.116,0.161-0.361,0.407-0.837,0.636c-0.062,0.034-0.098,0.102-0.09,0.17c0.009,0.07,0.06,0.124,0.127,0.139
			c0.008,0,0.432,0.077,0.815,0.273c0.002,0.002,0.002,0.004,0.002,0.009c0,0.007,0,0.01-0.008,0.01
			c-0.174,0.059-0.357,0.1-0.534,0.135c-0.163,0.029-0.351,0.048-0.561,0.048c-0.307,0-0.65-0.048-0.971-0.195
			c-0.008-0.003-0.011-0.007-0.008-0.014c0.05-0.123,0.148-0.308,0.344-0.499c0.375-0.374,0.966-0.623,1.709-0.73
			c0.003-0.003,0.008,0,0.011,0.004C35.212,9.037,35.21,9.041,35.21,9.044z M32.526,10.325c-0.051,0.042-0.072,0.115-0.048,0.181
			c0.025,0.062,0.087,0.103,0.154,0.103l0,0c0,0,0.179,0,0.413,0.033c0.161,0.022,0.306,0.048,0.438,0.092
			c0.008,0,0.01,0.002,0.01,0.009c0,0.006-0.002,0.009-0.005,0.009c-0.168,0.085-0.344,0.16-0.521,0.221
			c-0.377,0.131-0.705,0.175-0.979,0.175c-0.236,0-0.429-0.032-0.574-0.076c-0.008-0.001-0.012-0.01-0.011-0.015
			c0.067-0.341,0.388-1.189,1.842-1.684c0.004,0,0.004,0,0.011,0.009c0.004,0,0.004,0.005,0.004,0.009
			C33.162,9.611,32.961,9.952,32.526,10.325z M47.346,19.007c0.037-0.572,0.239-0.991,0.402-1.241
			c0.003-0.004,0.006-0.008,0.011-0.008c0.003,0.004,0.004,0.007,0.004,0.012c0.122,0.356,0.184,0.697,0.2,1.024
			c0.008,0.328-0.035,0.631-0.13,0.91c-0.105,0.321-0.267,0.537-0.333,0.614c0,0-0.005,0.002-0.011,0.002c0,0-0.001,0-0.008-0.001
			c-0.406-0.253-0.724-0.667-0.936-1.216c-0.067-0.165-0.124-0.343-0.164-0.526c0-0.003,0-0.007,0.003-0.01
			c0.005-0.004,0.008-0.004,0.013,0c0.365,0.217,0.662,0.536,0.667,0.541c0.04,0.048,0.108,0.064,0.175,0.043
			C47.301,19.13,47.343,19.075,47.346,19.007z M46.698,17.21c-0.022-0.575,0.134-1.012,0.273-1.276c0-0.002,0.006-0.006,0.011-0.006
			c0,0,0.005,0.004,0.008,0.006c0.153,0.343,0.25,0.681,0.298,0.998c0.043,0.324,0.036,0.631-0.032,0.916
			c-0.073,0.336-0.212,0.568-0.269,0.651c0,0.004-0.005,0.004-0.008,0.004h-0.002c-0.438-0.214-0.796-0.59-1.067-1.114
			c-0.082-0.16-0.154-0.332-0.216-0.509c0-0.005,0-0.012,0.001-0.013c0.003-0.003,0.011-0.003,0.016-0.003
			c0.384,0.178,0.717,0.469,0.718,0.474c0.051,0.041,0.118,0.05,0.175,0.023l0,0C46.667,17.334,46.7,17.273,46.698,17.21z
			 M45.793,15.683L45.793,15.683c0.059-0.033,0.091-0.097,0.078-0.164c-0.091-0.568,0.016-1.02,0.118-1.298
			c0.003-0.004,0.006-0.009,0.011-0.009c0.005,0,0.011,0.002,0.011,0.005c0.19,0.327,0.327,0.65,0.41,0.966
			c0.086,0.314,0.11,0.622,0.083,0.913c-0.036,0.343-0.145,0.585-0.193,0.673c0,0.004-0.004,0.004-0.005,0.004H46.3
			c-0.491-0.17-0.904-0.503-1.223-0.993c-0.102-0.155-0.192-0.325-0.267-0.497c0-0.006,0-0.013,0.002-0.014
			c0.003-0.004,0.008-0.004,0.014-0.004c0.418,0.121,0.783,0.404,0.785,0.407C45.662,15.711,45.734,15.718,45.793,15.683z
			 M44.575,14.123c0.056,0.043,0.131,0.04,0.188-0.001c0.056-0.039,0.08-0.111,0.062-0.18c-0.157-0.509-0.134-0.981-0.081-1.283
			c0-0.009,0-0.012,0.006-0.013c0.002,0,0.008,0.001,0.013,0.004c0.233,0.289,0.419,0.575,0.55,0.87
			c0.132,0.295,0.207,0.597,0.228,0.886c0.019,0.332-0.043,0.579-0.083,0.696c0,0.006-0.005,0.01-0.011,0.01c0,0,0,0-0.002,0
			c-0.478-0.091-0.925-0.356-1.333-0.787c-0.13-0.142-0.258-0.297-0.369-0.468c-0.005-0.002-0.005-0.006,0-0.009
			c0-0.005,0.006-0.008,0.008-0.008C44.209,13.873,44.572,14.122,44.575,14.123z M43.358,12.734
			c0.063,0.026,0.137,0.009,0.179-0.044c0.048-0.049,0.056-0.123,0.025-0.183c-0.263-0.509-0.309-0.972-0.299-1.267
			c0,0,0.005-0.004,0.008-0.008c0.001-0.001,0.008-0.001,0.009,0.004c0.278,0.24,0.502,0.501,0.678,0.766
			c0.177,0.275,0.303,0.562,0.366,0.85c0.083,0.34,0.063,0.612,0.047,0.713c0,0.008-0.005,0.008-0.011,0.008
			c-0.008,0.005-0.018,0.005-0.029,0.005c-0.539,0-1.037-0.296-1.366-0.549c-0.161-0.123-0.317-0.269-0.469-0.418
			c0-0.007,0-0.008,0-0.015c0-0.004,0.005-0.006,0.013-0.006c0.017,0,0.038,0,0.059,0C42.98,12.59,43.354,12.734,43.358,12.734z
			 M42.875,11.469c0.13,0.331,0.145,0.638,0.142,0.794c0,0.006-0.005,0.01-0.012,0.01c-0.026,0-0.055,0.003-0.083,0.003
			c-0.668,0-1.444-0.448-1.862-0.727c-0.003-0.002-0.003-0.002-0.003-0.01c0-0.005,0.003-0.007,0.006-0.007
			c0.429-0.083,0.829,0.011,0.834,0.011c0.067,0.014,0.138-0.011,0.175-0.07c0.036-0.057,0.034-0.133-0.011-0.188
			c-0.266-0.328-0.428-0.711-0.518-0.973c0,0,0-0.008,0.003-0.01c0-0.003,0.01-0.003,0.013-0.003
			C42.215,10.515,42.659,10.912,42.875,11.469z M30.767,9.499c0.032-0.013,0.063-0.023,0.097-0.035
			c0.39-0.136,0.767-0.226,0.952-0.269c0.438-0.097,0.74-0.288,0.753-0.294c0.038-0.03,0.062-0.076,0.048-0.12
			c-0.008-0.045-0.047-0.078-0.091-0.088l-1.926-0.276l1.926-0.287c0.054-0.006,0.094-0.051,0.094-0.109
			c0-0.054-0.039-0.1-0.094-0.106c0,0-0.418-0.068-0.85-0.262c-0.129-0.06-0.242-0.119-0.341-0.172
			c-0.17-0.094-0.33-0.179-0.55-0.25c0.035,0.001,0.07,0.004,0.099,0.004c0.419,0.025,0.8,0.085,0.989,0.116
			c0.436,0.079,0.792,0.017,0.808,0.013c0.04-0.005,0.083-0.041,0.091-0.088c0.008-0.045-0.015-0.091-0.055-0.112L31.046,6.17
			l1.888,0.472c0.051,0.015,0.109-0.013,0.129-0.063c0.019-0.053,0-0.109-0.04-0.139c-0.008,0-0.365-0.217-0.69-0.563
			c-0.096-0.101-0.169-0.195-0.244-0.285c-0.125-0.154-0.241-0.298-0.415-0.447c0.03,0.016,0.063,0.03,0.091,0.044
			c0.375,0.18,0.703,0.381,0.867,0.484c0.376,0.241,0.726,0.322,0.739,0.324c0.046,0.011,0.093-0.009,0.119-0.049
			c0.024-0.039,0.024-0.089-0.008-0.122l-1.165-1.556l1.566,1.155c0.043,0.035,0.105,0.03,0.143-0.01
			c0.039-0.037,0.046-0.104,0.014-0.144c-0.03-0.037-0.258-0.363-0.419-0.787c-0.048-0.127-0.086-0.245-0.115-0.359
			c-0.054-0.186-0.112-0.363-0.212-0.571c0.024,0.026,0.045,0.054,0.067,0.077c0.276,0.315,0.504,0.625,0.614,0.785
			c0.246,0.35,0.526,0.556,0.564,0.581c0.033,0.023,0.083,0.023,0.123,0c0.035-0.029,0.057-0.075,0.043-0.123l-0.483-1.88
			l1.005,1.668c0.028,0.047,0.086,0.069,0.137,0.047c0.049-0.023,0.078-0.076,0.067-0.129c-0.008-0.02-0.1-0.418-0.086-0.886
			c0.003-0.14,0.019-0.262,0.031-0.378c0.019-0.191,0.039-0.377,0.023-0.604c0.009,0.031,0.023,0.063,0.035,0.095
			c0.134,0.391,0.224,0.765,0.266,0.957c0.092,0.419,0.273,0.716,0.295,0.753c0.022,0.037,0.072,0.051,0.115,0.046
			c0.046-0.009,0.081-0.044,0.089-0.091l0.265-1.908l0.279,1.908c0.014,0.054,0.057,0.091,0.111,0.091
			c0.056,0,0.103-0.036,0.111-0.091c0.001-0.018,0.063-0.421,0.255-0.853c0.062-0.126,0.116-0.233,0.172-0.338
			c0.094-0.17,0.184-0.332,0.251-0.553c0,0.037,0,0.07-0.007,0.102c-0.022,0.418-0.082,0.8-0.111,0.988
			c-0.078,0.437-0.019,0.792-0.016,0.806c0.008,0.048,0.043,0.084,0.09,0.089c0.044,0.009,0.091-0.008,0.114-0.049l0.993-1.671
			l-0.473,1.885c-0.01,0.056,0.016,0.109,0.065,0.13c0.054,0.019,0.11,0.002,0.139-0.044c0.024-0.04,0.234-0.373,0.564-0.685
			c0.1-0.096,0.19-0.171,0.288-0.251c0.152-0.12,0.295-0.238,0.442-0.41c-0.012,0.031-0.028,0.061-0.043,0.09
			c-0.179,0.376-0.38,0.708-0.486,0.868c-0.236,0.373-0.314,0.724-0.321,0.739c-0.009,0.047,0.007,0.093,0.047,0.121
			c0.038,0.024,0.09,0.021,0.129-0.005l1.554-1.16L39.456,5.83c-0.032,0.04-0.025,0.102,0.011,0.142
			c0.035,0.037,0.099,0.044,0.142,0.011c0.008-0.002,0.344-0.253,0.791-0.419c0.126-0.047,0.239-0.084,0.358-0.116
			c0.185-0.055,0.362-0.109,0.569-0.215c-0.03,0.027-0.052,0.049-0.081,0.073c-0.309,0.271-0.617,0.5-0.774,0.612
			c-0.365,0.253-0.577,0.547-0.581,0.561c-0.032,0.035-0.032,0.087,0,0.127c0.024,0.036,0.07,0.053,0.116,0.041l1.877-0.476
			l-1.664,1.001c-0.048,0.024-0.07,0.085-0.048,0.137c0.024,0.047,0.076,0.078,0.131,0.065c0.041-0.01,0.435-0.101,0.886-0.087
			c0.137,0.008,0.26,0.019,0.377,0.034c0.188,0.018,0.376,0.035,0.604,0.018c-0.03,0.012-0.062,0.025-0.097,0.035
			c-0.394,0.138-0.767,0.228-0.955,0.269c-0.437,0.098-0.741,0.289-0.751,0.295C40.328,7.96,40.312,8.008,40.32,8.05
			c0.008,0.049,0.046,0.08,0.09,0.088l1.921,0.276l-1.921,0.289c-0.054,0.008-0.094,0.052-0.094,0.108
			c0,0.053,0.039,0.102,0.094,0.111c0.042,0.005,0.437,0.071,0.85,0.26c0.123,0.056,0.234,0.116,0.34,0.172
			c0.168,0.093,0.333,0.179,0.55,0.25c-0.037,0-0.072,0-0.102-0.003c-0.418-0.023-0.795-0.086-0.987-0.117L41.01,9.472
			c-0.346-0.147-0.706-0.227-1.062-0.227c0-0.006,0-0.009,0-0.009c-0.018-0.077-0.072-0.137-0.144-0.164
			c-0.521-0.182-1.01-0.273-1.46-0.277c-0.16,0-0.314,0.013-0.467,0.031c-0.005-0.018-0.008-0.038-0.019-0.057
			c-0.031-0.065-0.095-0.109-0.167-0.12c-0.55-0.073-1.049-0.066-1.486,0.021c-0.172,0.035-0.338,0.084-0.492,0.141
			c-0.003-0.048-0.024-0.093-0.055-0.128c-0.046-0.047-0.113-0.076-0.183-0.068c-0.552,0.045-1.035,0.157-1.443,0.334
			c-0.105,0.047-0.212,0.1-0.309,0.158c-0.007-0.058-0.034-0.111-0.081-0.149c-0.052-0.045-0.123-0.063-0.197-0.042
			c-0.535,0.148-0.998,0.354-1.372,0.614L32.051,9.54c-0.103,0.009-0.204,0.009-0.303,0.008c-0.079-0.003-0.347-0.028-0.376-0.033
			C31.179,9.499,30.995,9.479,30.767,9.499z M31.285,10.056c0.003-0.002,0.011-0.002,0.013,0c0.006,0,0.006,0.005,0.006,0.011
			c-0.019,0.294-0.105,0.749-0.424,1.233c-0.035,0.054-0.035,0.125,0.002,0.176c0.038,0.057,0.104,0.08,0.168,0.07
			c0,0,0.416-0.081,0.837-0.049c0.003,0,0.008,0.004,0.011,0.007c0,0.006,0,0.009-0.008,0.014c-0.36,0.288-1.068,0.758-1.83,0.758
			c-0.027,0-0.054,0-0.081,0c-0.005,0-0.009-0.003-0.009-0.01C29.95,11.901,30.035,10.958,31.285,10.056z M28.641,12.858
			c0.064-0.284,0.188-0.568,0.366-0.84c0.177-0.271,0.41-0.537,0.697-0.785c0.003-0.001,0.011-0.001,0.014-0.001
			c0.002,0.001,0.005,0.005,0.005,0.009c0.011,0.295-0.033,0.754-0.3,1.267c-0.034,0.061-0.023,0.129,0.021,0.183
			c0.042,0.05,0.11,0.069,0.172,0.048c0.005-0.004,0.401-0.135,0.817-0.148c0.004,0,0.007,0.002,0.011,0.006
			c0.001,0.007,0.001,0.009-0.004,0.015c-0.156,0.153-0.317,0.298-0.479,0.421c-0.332,0.253-0.82,0.548-1.287,0.548
			c-0.019,0-0.035,0-0.054,0c-0.005,0-0.008-0.002-0.01-0.007C28.591,13.471,28.564,13.201,28.641,12.858z M28.212,12.636
			c0.003-0.008,0.008-0.008,0.011-0.008c0.008,0.004,0.011,0.008,0.011,0.008c0.056,0.293,0.084,0.755-0.097,1.305
			c-0.024,0.065,0.003,0.142,0.059,0.181c0.054,0.041,0.129,0.044,0.186,0.001c0.002-0.001,0.364-0.242,0.814-0.28
			c0.003,0,0.011,0,0.011,0.007c0.001,0,0.001,0.006,0,0.008c-0.294,0.413-0.907,1.123-1.692,1.255l0,0
			c-0.006,0-0.008-0.002-0.011-0.008C27.389,14.756,27.228,13.818,28.212,12.636z M26.519,15.174
			c0.093-0.311,0.244-0.627,0.451-0.944c0.003-0.004,0.005-0.004,0.013-0.004c0.003,0,0.007,0.004,0.007,0.008
			c0.094,0.279,0.179,0.736,0.063,1.305c-0.013,0.066,0.02,0.139,0.086,0.172c0.062,0.036,0.137,0.025,0.189-0.029
			c0.004-0.001,0.332-0.323,0.791-0.385c0.002,0,0.008,0,0.01,0.004c0.003,0.004,0.003,0.009,0.003,0.013
			c-0.062,0.128-0.17,0.328-0.321,0.531c-0.35,0.478-0.763,0.789-1.237,0.926l0,0c-0.007,0-0.009,0-0.009-0.004
			c-0.043-0.092-0.148-0.342-0.169-0.683C26.381,15.792,26.423,15.488,26.519,15.174z M25.604,16.93
			c0.043-0.321,0.149-0.655,0.302-1.002c0-0.002,0.005-0.01,0.016-0.01l0,0c0.003,0,0.005,0.008,0.005,0.01
			c0.132,0.266,0.287,0.703,0.261,1.28c-0.006,0.065,0.032,0.127,0.091,0.155c0.059,0.03,0.129,0.018,0.174-0.023
			c0.016-0.012,0.363-0.308,0.765-0.48c0.003,0,0.005,0,0.011,0.002c0.002,0,0.002,0.004,0.002,0.008
			c-0.04,0.165-0.1,0.326-0.173,0.475c-0.247,0.505-0.634,0.889-1.162,1.151c0,0.002,0,0.002-0.001,0.002
			c0,0-0.008-0.002-0.011-0.006c-0.071-0.104-0.197-0.327-0.26-0.649C25.56,17.559,25.556,17.25,25.604,16.93z M25.105,17.75
			c0-0.002,0.006-0.006,0.008-0.006c0.005-0.002,0.011,0,0.012,0.004c0.169,0.243,0.377,0.66,0.42,1.237
			c0.008,0.066,0.051,0.12,0.11,0.143c0.065,0.018,0.134,0,0.175-0.051c0.005-0.004,0.295-0.349,0.692-0.577
			c0.007,0,0.014,0,0.016,0c0.003,0.004,0.003,0.009,0.003,0.009c-0.019,0.174-0.057,0.343-0.108,0.509
			c-0.181,0.546-0.522,0.976-1.006,1.283c-0.004,0-0.004,0-0.007,0c-0.005,0-0.008,0-0.009-0.002
			c-0.066-0.076-0.231-0.289-0.345-0.614c-0.098-0.275-0.141-0.58-0.137-0.905C24.937,18.456,24.998,18.109,25.105,17.75z
			 M24.545,19.652c0,0,0.006-0.004,0.008-0.007c0.006,0,0.011,0,0.011,0.007c0.199,0.222,0.454,0.611,0.57,1.176
			c0.015,0.062,0.066,0.112,0.128,0.125c0.061,0.014,0.126-0.013,0.166-0.064c0.012-0.017,0.259-0.38,0.604-0.643
			c0.001-0.002,0.008-0.004,0.009-0.002c0.007,0.002,0.008,0.006,0.008,0.012c-0.009,0.168-0.033,0.339-0.07,0.503
			c-0.128,0.555-0.399,1.02-0.802,1.379c-0.003,0.006-0.008,0.008-0.011,0.008c-0.002,0-0.002-0.002-0.008-0.008
			c-0.091-0.079-0.265-0.263-0.41-0.558c-0.132-0.262-0.216-0.564-0.25-0.885C24.465,20.375,24.478,20.023,24.545,19.652z
			 M24.258,21.565c0-0.003,0.006-0.006,0.008-0.01c0.006,0,0.008,0,0.011,0.004c0.207,0.217,0.486,0.593,0.625,1.152
			c0.019,0.063,0.075,0.112,0.142,0.119c0.068,0.009,0.135-0.03,0.164-0.089c0-0.005,0.18-0.378,0.503-0.669
			c0.005,0,0.008,0,0.016,0c0.003,0,0.005,0.005,0.005,0.011c0,0.191-0.016,0.386-0.045,0.571c-0.097,0.585-0.324,1.049-0.678,1.371
			c-0.001,0.001-0.004,0.001-0.009,0.001c0,0-0.003,0-0.006-0.001c-0.075-0.062-0.276-0.247-0.442-0.546
			c-0.145-0.257-0.242-0.55-0.29-0.873C24.213,22.287,24.213,21.937,24.258,21.565z M24.099,23.574c0-0.007,0.001-0.009,0.009-0.009
			c0.003-0.004,0.008-0.004,0.011,0c0.04,0.037,0.08,0.079,0.122,0.121c0.177,0.191,0.42,0.514,0.573,0.988
			c0.024,0.072,0.091,0.118,0.166,0.114c0.075-0.005,0.139-0.06,0.146-0.136l0,0c0-0.004,0.077-0.407,0.42-0.72
			c0-0.005,0.008-0.007,0.011-0.005c0.004,0,0.008,0.008,0.008,0.013c0.033,0.221,0.067,0.572,0.001,0.947
			c-0.075,0.445-0.265,0.815-0.558,1.101c-0.004,0.002-0.008,0.002-0.009,0.002c0,0-0.006,0-0.006-0.002
			C24.693,25.771,24.006,25.104,24.099,23.574z M24.021,25.52c0.005,0,0.011,0,0.011,0c0.045,0.035,0.092,0.071,0.135,0.11
			c0.195,0.173,0.474,0.47,0.678,0.925c0.024,0.057,0.083,0.095,0.145,0.095c0.002,0,0.002,0,0.002,0l0,0
			c0.066,0,0.126-0.041,0.149-0.1c0-0.006,0.176-0.43,0.466-0.768c0.001-0.005,0.005-0.005,0.008-0.005
			c0.004,0.002,0.009,0.005,0.012,0.01c0.088,0.412,0.149,1.219-0.464,2.044c0,0.005-0.006,0.005-0.008,0.005h-0.006
			c-0.319-0.189-1.068-0.783-1.132-2.303C24.013,25.524,24.018,25.521,24.021,25.52z M24.119,27.549
			c0-0.005,0.004-0.009,0.008-0.014c0.005-0.002,0.008-0.002,0.013,0c0.263,0.133,0.651,0.398,0.974,0.878
			c0.041,0.055,0.103,0.08,0.165,0.068c0.067-0.01,0.117-0.058,0.126-0.124l0,0l0.019,0.002l-0.019-0.002
			c0.008-0.02,0.114-0.473,0.337-0.852c0-0.002,0.005-0.002,0.011-0.002c0.001,0,0.008,0,0.008,0.002
			c0.079,0.17,0.135,0.343,0.177,0.519c0.116,0.554,0.024,1.088-0.274,1.596c0,0.005-0.005,0.007-0.01,0.007l0,0
			c-0.098-0.036-0.349-0.141-0.612-0.372c-0.22-0.194-0.408-0.443-0.566-0.729C24.32,28.244,24.202,27.913,24.119,27.549z
			 M24.582,29.429c0-0.007,0-0.009,0.005-0.013c0.003-0.002,0.004-0.004,0.011-0.002c0.051,0.021,0.105,0.049,0.151,0.072
			c0.234,0.118,0.581,0.341,0.889,0.736c0.039,0.048,0.106,0.071,0.168,0.053c0.062-0.014,0.111-0.067,0.121-0.135
			c0-0.002,0.065-0.449,0.247-0.839c0.007,0,0.007-0.004,0.014-0.004l0,0c0.002,0,0.005,0.004,0.01,0.004
			c0.188,0.418,0.451,1.245,0.078,2.084c-0.005,0-0.008,0.002-0.013,0.002h-0.003C25.902,31.284,25.026,30.892,24.582,29.429z
			 M25.714,32.214c-0.204-0.249-0.381-0.552-0.531-0.895c-0.003-0.004-0.003-0.012,0-0.014c0.003-0.004,0.008-0.007,0.011-0.004
			c0.051,0.018,0.105,0.036,0.162,0.057c0.248,0.088,0.613,0.271,0.963,0.627c0.047,0.049,0.117,0.062,0.176,0.037
			c0.062-0.027,0.102-0.082,0.102-0.147c0-0.005,0.014-0.445,0.15-0.854c0,0,0.003-0.004,0.008-0.009
			c0.008,0,0.008,0.005,0.011,0.009c0.094,0.162,0.172,0.329,0.235,0.498c0.201,0.549,0.23,1.069,0.088,1.548
			c-0.005,0.005-0.009,0.009-0.016,0.009l0,0c-0.1-0.018-0.363-0.077-0.66-0.253C26.154,32.672,25.924,32.467,25.714,32.214z
			 M25.991,33.109c0-0.006,0-0.01,0-0.016c0-0.002,0.008-0.005,0.013-0.002c0.295,0.048,0.741,0.183,1.197,0.547
			c0.05,0.041,0.122,0.048,0.181,0.015c0.057-0.032,0.086-0.097,0.078-0.161c0-0.018-0.042-0.416,0.046-0.84
			c0-0.004,0.005-0.008,0.008-0.012c0.005,0,0.01,0.004,0.013,0.008c0.105,0.156,0.204,0.32,0.287,0.485
			c0.177,0.362,0.372,0.916,0.274,1.49c0,0.007-0.007,0.01-0.011,0.01l0,0c-0.13-0.006-0.382-0.037-0.689-0.175
			c-0.269-0.119-0.528-0.294-0.762-0.522C26.393,33.711,26.181,33.431,25.991,33.109z M29.73,36.359
			c-0.003,0-0.163-0.395-0.201-0.82c0-0.003,0.001-0.011,0.008-0.013c0.001,0,0.009,0,0.016,0.002
			c0.376,0.316,1.009,0.98,0.965,1.857c0,0.004-0.003,0.006-0.007,0.007c-0.047,0.006-0.138,0.022-0.256,0.022
			c-0.105,0-0.234-0.012-0.384-0.04c-0.548-0.111-1.103-0.43-1.664-0.958c-0.005-0.001-0.005-0.002-0.005-0.009
			c0-0.005,0.005-0.008,0.01-0.008c0.301-0.037,0.765-0.04,1.31,0.173c0.062,0.024,0.126,0.012,0.176-0.031
			C29.742,36.491,29.757,36.421,29.73,36.359z M28.258,35.191c0.054,0.037,0.126,0.033,0.179-0.005
			c0.056-0.043,0.083-0.107,0.067-0.174c-0.007-0.004-0.104-0.403-0.058-0.833c0-0.002,0.007-0.01,0.008-0.01
			c0.003-0.003,0.008,0,0.016,0.001c0.31,0.378,0.824,1.121,0.773,1.91c-0.003,0.009-0.008,0.01-0.011,0.01
			c-0.021,0-0.047,0.004-0.078,0.004c-0.136,0-0.362-0.018-0.625-0.104c-0.28-0.09-0.555-0.239-0.816-0.444
			c-0.252-0.201-0.493-0.457-0.716-0.759c-0.007-0.002-0.007-0.006,0-0.01c0-0.005,0.004-0.008,0.012-0.005
			C27.306,34.791,27.767,34.877,28.258,35.191z M34.608,30.928c-0.052,0.037-0.103,0.072-0.147,0.106
			c-0.352,0.241-0.569,0.501-0.644,0.767c-0.048-0.011-0.09-0.018-0.129-0.035c-0.263-0.087-0.279-0.221-0.281-0.27
			c-0.007-0.138,0.061-0.261,0.265-0.452c0.239-0.23,0.435-0.337,0.604-0.337c0.066,0,0.119,0.009,0.176,0.038
			c0.086,0.039,0.137,0.089,0.153,0.134C34.608,30.894,34.611,30.912,34.608,30.928z M34.941,32.268
			c-0.106,0.017-0.389,0.05-0.531-0.046c-0.036-0.022-0.075-0.062-0.086-0.154c-0.024-0.229,0.271-0.471,0.447-0.594
			c0.274-0.191,0.462-0.301,0.62-0.301c0.076,0,0.143,0.028,0.213,0.087c0.054,0.044,0.086,0.093,0.081,0.127
			c-0.003,0.07-0.097,0.183-0.178,0.246C35.234,31.823,35.046,32.034,34.941,32.268z M36.318,32.314
			c-0.105,0.081-0.459,0.302-0.711,0.254c-0.041-0.011-0.101-0.027-0.165-0.093c0.115-0.246,0.374-0.408,0.609-0.546
			c0.305-0.171,0.44-0.072,0.443-0.067c0.088,0.084,0.083,0.133,0.083,0.152c-0.013,0.109-0.166,0.239-0.239,0.287
			C36.333,32.306,36.327,32.306,36.318,32.314z M33.425,30.538c-0.04,0.032-0.083,0.069-0.129,0.11
			c-0.16,0.158-0.33,0.346-0.401,0.595c-0.038-0.005-0.074-0.008-0.11-0.014c-0.177-0.027-0.274-0.085-0.29-0.124
			c-0.012-0.03-0.048-0.107,0.053-0.239c0.147-0.196,0.469-0.354,0.7-0.354c0.017,0,0.04,0.006,0.062,0.006
			c0.009,0,0.013,0,0.022,0.005C33.35,30.524,33.385,30.529,33.425,30.538z M40.401,30.873c-0.085,0.075-0.207,0.112-0.365,0.115
			c-0.228-0.303-0.813-1.021-1.562-1.385c-0.067-0.034-0.141-0.036-0.204-0.013c-0.071,0.023-0.126,0.071-0.158,0.135
			c-0.032,0.065-0.036,0.141-0.013,0.21c0.022,0.069,0.075,0.126,0.136,0.155c0.628,0.309,1.154,0.945,1.361,1.217
			c-0.023,0.047-0.049,0.089-0.083,0.126c-0.101,0.119-0.247,0.171-0.443,0.171c-0.067-0.148-0.188-0.321-0.36-0.522
			c-0.229-0.266-0.697-0.595-0.712-0.609c-0.063-0.04-0.134-0.056-0.205-0.043c-0.071,0.012-0.133,0.051-0.175,0.11
			c-0.04,0.058-0.056,0.13-0.047,0.204c0.015,0.07,0.053,0.133,0.112,0.173c0.118,0.085,0.464,0.343,0.617,0.52
			c0.184,0.211,0.252,0.332,0.282,0.394c-0.023,0.055-0.065,0.117-0.121,0.17c-0.099,0.098-0.215,0.133-0.362,0.118
			c-0.07-0.153-0.22-0.441-0.494-0.749c-0.101-0.11-0.268-0.119-0.384-0.023c-0.051,0.049-0.086,0.118-0.088,0.187
			c-0.006,0.075,0.021,0.14,0.067,0.196c0.19,0.21,0.304,0.409,0.371,0.545c-0.04,0.027-0.092,0.053-0.141,0.069
			c-0.131,0.053-0.281,0.072-0.434,0.053c0.067-0.106,0.107-0.215,0.118-0.327c0.019-0.151-0.011-0.375-0.242-0.598
			c-0.114-0.12-0.346-0.222-0.651-0.176c-0.022-0.168-0.11-0.319-0.263-0.448c-0.247-0.215-0.534-0.273-0.849-0.176l0,0
			c-0.052-0.121-0.163-0.286-0.413-0.412c-0.228-0.114-0.475-0.131-0.726-0.052c-0.22-0.189-0.51-0.223-0.593-0.231
			c-0.354-0.046-0.821,0.123-1.131,0.415c-1.545,0.826-3.532,1.722-4.344,2.079c-0.421-0.798-0.781-1.657-1.073-2.558
			c-0.078-0.245-0.15-0.496-0.22-0.751c2.273-0.258,4.1-0.528,5.43-0.794c1.399-0.277,2.304-0.565,2.765-0.874
			c0.529-0.376,0.891-0.555,1.401-0.514c0.12,0.013,0.228,0.021,0.329,0.036c-0.099,0.041-0.185,0.093-0.276,0.155
			c-0.215,0.149-0.344,0.256-0.462,0.353c-0.117,0.094-0.212,0.168-0.357,0.264c-0.102,0.069-0.24,0.135-0.375,0.202
			c-0.314,0.152-0.566,0.273-0.647,0.492c-0.084,0.231-0.052,0.435,0.109,0.654c0.239,0.345,0.633,0.324,0.947,0.302
			c0.357-0.021,0.788-0.15,1.106-0.332c0.11-0.062,0.212-0.132,0.3-0.189c0.137-0.088,0.253-0.168,0.336-0.186
			c0.005,0,0.01,0,0.016,0c0.272-0.08,0.58-0.045,0.947,0.095c0.33,0.126,0.651,0.323,0.947,0.516
			c0.714,0.46,1.235,1.082,1.39,1.278C40.505,30.699,40.472,30.797,40.401,30.873z M41.378,30.662
			c-0.232-0.164-0.395-0.336-0.473-0.421c0,0,0,0,0-0.003l-0.01-0.009c-0.023-0.027-0.034-0.044-0.041-0.05
			c-0.243-0.289-0.748-0.846-1.43-1.286c-0.499-0.327-1.425-0.929-2.328-0.685c-0.18,0.039-0.331,0.143-0.513,0.262
			c-0.085,0.056-0.173,0.113-0.271,0.17c-0.287,0.161-0.638,0.247-0.861,0.261c-0.259,0.014-0.416,0.015-0.483-0.075
			c-0.059-0.082-0.055-0.111-0.05-0.135c0.062-0.054,0.271-0.156,0.388-0.214c0.146-0.073,0.302-0.147,0.433-0.233
			c0.171-0.11,0.279-0.203,0.4-0.298c0.106-0.091,0.231-0.187,0.431-0.329c0.272-0.19,0.565-0.195,1.01-0.205h0.008
			c0.07-0.002,0.141-0.002,0.212-0.002c0.058-0.004,0.112-0.006,0.171-0.008c0.475-0.022,0.905,0.135,1.562,0.368
			c0.19,0.069,0.405,0.147,0.648,0.229c0.035,0.013,0.916,0.292,2.112,0.575c1.038,0.242,2.573,0.559,4.014,0.657
			c-0.063,0.234-0.133,0.466-0.205,0.686c-0.298,0.935-0.678,1.824-1.119,2.644C44.261,32.265,42.522,31.508,41.378,30.662z
			 M44.736,36.421c-0.695,0.65-1.289,0.875-1.664,0.953c-0.15,0.028-0.281,0.04-0.386,0.04c-0.112,0-0.2-0.012-0.254-0.022
			c-0.008-0.001-0.008-0.003-0.008-0.007c-0.021-0.499,0.166-0.983,0.561-1.444c0.121-0.14,0.263-0.279,0.416-0.402
			c0.002-0.003,0.008-0.003,0.013,0c0.003,0.002,0.004,0.005,0.004,0.011c-0.043,0.41-0.205,0.809-0.212,0.809
			c-0.017,0.062-0.007,0.132,0.039,0.182c0.043,0.042,0.113,0.054,0.172,0.031c0.542-0.21,1.01-0.21,1.312-0.171
			c0.003,0,0.007,0.001,0.007,0.006C44.74,36.413,44.736,36.416,44.736,36.421z M45.965,34.791
			c-0.228,0.299-0.466,0.553-0.723,0.754c-0.258,0.205-0.529,0.354-0.814,0.444c-0.257,0.087-0.483,0.104-0.622,0.104
			c-0.032,0-0.054-0.004-0.078-0.004c-0.005,0-0.013-0.001-0.013-0.01c-0.031-0.477,0.111-0.973,0.432-1.47
			c0.096-0.154,0.212-0.301,0.338-0.445c0.003-0.002,0.005-0.003,0.011-0.002c0.002,0,0.005,0.002,0.01,0.006
			c0.035,0.427-0.048,0.851-0.048,0.854c-0.015,0.063,0.017,0.128,0.067,0.166c0.054,0.035,0.123,0.04,0.177,0.002
			c0.488-0.311,0.953-0.4,1.249-0.421c0.007,0,0.012,0.001,0.015,0.005C45.965,34.779,45.965,34.784,45.965,34.791z M46.33,33.936
			c-0.236,0.228-0.491,0.403-0.759,0.522c-0.317,0.143-0.588,0.172-0.687,0.175l0,0c-0.008,0-0.012-0.003-0.012-0.01
			c-0.086-0.47,0.004-0.979,0.271-1.505c0.083-0.164,0.177-0.323,0.287-0.477c0.004-0.005,0.007-0.005,0.012-0.005
			s0.008,0.005,0.008,0.009c0.086,0.414,0.047,0.848,0.047,0.851c-0.008,0.064,0.025,0.126,0.084,0.161
			c0.057,0.03,0.127,0.023,0.175-0.018c0.455-0.359,0.903-0.497,1.201-0.547c0.003,0,0.008,0.002,0.011,0.005
			c0.002,0.003,0.002,0.007,0,0.013C46.781,33.431,46.566,33.711,46.33,33.936z M47.232,32.19c-0.207,0.252-0.439,0.458-0.695,0.607
			c-0.286,0.17-0.537,0.23-0.663,0.25c0,0,0,0-0.003,0c-0.003,0-0.005-0.001-0.011-0.006c-0.139-0.484-0.11-1.001,0.09-1.551
			c0.063-0.165,0.138-0.328,0.227-0.488c0.001,0,0.008-0.002,0.012-0.002c0.005,0,0.008,0.002,0.008,0.008
			c0.133,0.412,0.153,0.838,0.153,0.844c0.002,0.065,0.043,0.119,0.106,0.143c0.063,0.022,0.129,0.006,0.174-0.041l0,0
			c0.36-0.39,0.724-0.569,0.961-0.653c0.059-0.018,0.116-0.037,0.172-0.049c0.001,0,0.012,0.002,0.014,0.005
			c0.003,0.003,0.003,0.006,0.003,0.01C47.626,31.621,47.441,31.929,47.232,32.19z M47.921,30.364
			c-0.18,0.27-0.392,0.499-0.63,0.671c-0.279,0.202-0.54,0.291-0.635,0.312l-0.005,0.002c-0.007,0-0.008-0.002-0.008-0.006
			c-0.233-0.559-0.164-1.155-0.067-1.554c0.04-0.179,0.1-0.367,0.172-0.543c0-0.005,0.008-0.009,0.008-0.009l0,0
			c0.005,0,0.013,0.004,0.013,0.009c0.172,0.395,0.232,0.846,0.236,0.866c0.009,0.063,0.054,0.116,0.118,0.136
			c0.059,0.016,0.129-0.006,0.172-0.053c0.36-0.453,0.773-0.682,1.049-0.79c0.005-0.002,0.008,0,0.013,0
			c0.003,0.005,0.003,0.008,0.003,0.014C48.243,29.777,48.093,30.092,47.921,30.364z M48.423,28.455
			c-0.142,0.296-0.329,0.545-0.541,0.746c-0.241,0.228-0.475,0.345-0.585,0.389h-0.005c-0.008,0-0.012,0-0.015-0.004
			c-0.246-0.444-0.338-0.968-0.264-1.563c0.021-0.185,0.06-0.372,0.111-0.552c0,0,0.003-0.004,0.008-0.006
			c0.007,0,0.011,0.002,0.012,0.005c0.22,0.378,0.338,0.845,0.338,0.85c0.019,0.065,0.07,0.111,0.136,0.12
			c0.064,0.01,0.126-0.017,0.165-0.072c0.304-0.489,0.681-0.767,0.944-0.91c0.003-0.006,0.008-0.002,0.014,0
			c0.002,0.005,0.002,0.008,0.002,0.013C48.67,27.836,48.564,28.166,48.423,28.455z"/>
		<path class="st3" d="M39.947,9.244c0.357,0,0.716,0.08,1.062,0.227l0.051,0.013c0.191,0.031,0.569,0.094,0.987,0.117
			c0.031,0.003,0.065,0.003,0.102,0.003c-0.217-0.071-0.381-0.158-0.55-0.25c-0.106-0.056-0.217-0.116-0.34-0.172
			c-0.414-0.188-0.808-0.254-0.85-0.26c-0.054-0.009-0.094-0.058-0.094-0.111c0-0.057,0.039-0.101,0.094-0.108l1.921-0.289
			l-1.921-0.276c-0.043-0.008-0.082-0.039-0.09-0.088c-0.008-0.042,0.008-0.09,0.049-0.114c0.01-0.006,0.314-0.197,0.751-0.295
			c0.188-0.04,0.561-0.131,0.955-0.269c0.034-0.01,0.067-0.023,0.097-0.035c-0.228,0.018-0.416,0-0.604-0.018
			c-0.117-0.015-0.24-0.026-0.377-0.034c-0.451-0.014-0.845,0.076-0.886,0.087c-0.055,0.014-0.107-0.017-0.131-0.065
			c-0.022-0.052,0-0.113,0.048-0.137l1.664-1.001l-1.877,0.476c-0.046,0.012-0.093-0.005-0.116-0.041
			c-0.032-0.04-0.032-0.092,0-0.127c0.005-0.014,0.217-0.308,0.581-0.561c0.157-0.112,0.464-0.341,0.774-0.612
			c0.029-0.025,0.051-0.047,0.081-0.073c-0.207,0.106-0.383,0.16-0.569,0.215c-0.118,0.032-0.232,0.069-0.358,0.116
			c-0.447,0.167-0.783,0.417-0.791,0.419c-0.043,0.032-0.106,0.026-0.142-0.011c-0.035-0.04-0.043-0.102-0.011-0.142l1.157-1.561
			l-1.554,1.16c-0.039,0.026-0.091,0.03-0.129,0.005c-0.04-0.029-0.056-0.074-0.047-0.121c0.007-0.014,0.086-0.366,0.321-0.739
			c0.105-0.16,0.306-0.492,0.486-0.868c0.016-0.03,0.032-0.059,0.043-0.09c-0.148,0.173-0.291,0.29-0.442,0.41
			c-0.098,0.08-0.188,0.155-0.288,0.251c-0.33,0.312-0.54,0.645-0.564,0.685C38.411,5.01,38.355,5.026,38.3,5.007
			c-0.049-0.021-0.075-0.074-0.065-0.13l0.473-1.885l-0.993,1.671c-0.024,0.041-0.07,0.058-0.114,0.049
			c-0.046-0.005-0.082-0.041-0.09-0.089c-0.003-0.014-0.062-0.369,0.016-0.806c0.03-0.188,0.09-0.571,0.111-0.988
			c0.007-0.032,0.007-0.065,0.007-0.102c-0.067,0.222-0.158,0.383-0.251,0.553c-0.056,0.105-0.11,0.212-0.172,0.338
			c-0.192,0.432-0.254,0.835-0.255,0.853c-0.008,0.054-0.055,0.091-0.111,0.091c-0.054,0-0.098-0.036-0.111-0.091l-0.279-1.908
			l-0.265,1.908c-0.008,0.046-0.042,0.081-0.089,0.091c-0.043,0.005-0.094-0.009-0.115-0.046c-0.022-0.036-0.203-0.334-0.295-0.753
			c-0.042-0.192-0.132-0.566-0.266-0.957c-0.013-0.032-0.027-0.064-0.035-0.095c0.017,0.227-0.004,0.413-0.023,0.604
			c-0.012,0.116-0.028,0.238-0.031,0.378c-0.014,0.468,0.078,0.866,0.086,0.886c0.011,0.053-0.018,0.106-0.067,0.129
			c-0.051,0.022-0.109,0-0.137-0.047l-1.005-1.668l0.483,1.88c0.014,0.048-0.008,0.094-0.043,0.123c-0.04,0.023-0.091,0.023-0.123,0
			c-0.037-0.025-0.317-0.231-0.564-0.581c-0.11-0.16-0.338-0.47-0.614-0.785c-0.022-0.023-0.043-0.052-0.067-0.077
			c0.1,0.207,0.158,0.385,0.212,0.571c0.03,0.114,0.067,0.233,0.115,0.359c0.161,0.424,0.389,0.75,0.419,0.787
			c0.033,0.04,0.026,0.107-0.014,0.144c-0.037,0.04-0.1,0.045-0.143,0.01l-1.566-1.155l1.165,1.556
			c0.032,0.034,0.032,0.083,0.008,0.122c-0.027,0.04-0.073,0.06-0.119,0.049c-0.013-0.002-0.364-0.082-0.739-0.324
			c-0.165-0.103-0.492-0.305-0.867-0.484c-0.028-0.014-0.061-0.028-0.091-0.044c0.173,0.149,0.29,0.293,0.415,0.447
			c0.075,0.091,0.149,0.185,0.244,0.285c0.325,0.346,0.682,0.563,0.69,0.563c0.04,0.031,0.059,0.086,0.04,0.139
			c-0.02,0.05-0.078,0.078-0.129,0.063L31.046,6.17l1.671,0.994c0.04,0.022,0.063,0.067,0.055,0.112
			c-0.008,0.046-0.05,0.082-0.091,0.088c-0.016,0.004-0.372,0.066-0.808-0.013c-0.189-0.031-0.571-0.092-0.989-0.116
			c-0.029,0-0.064-0.002-0.099-0.004c0.22,0.071,0.38,0.156,0.55,0.25c0.099,0.053,0.212,0.112,0.341,0.172
			c0.432,0.194,0.845,0.262,0.845,0.262c0.059,0.006,0.099,0.052,0.099,0.106c0,0.058-0.039,0.102-0.094,0.109l-1.926,0.287
			l1.926,0.276c0.043,0.01,0.083,0.043,0.091,0.088c0.014,0.043-0.01,0.09-0.048,0.12c-0.013,0.006-0.315,0.198-0.753,0.294
			c-0.185,0.043-0.562,0.132-0.952,0.269c-0.034,0.012-0.065,0.022-0.097,0.035c0.228-0.019,0.412,0,0.605,0.017
			c0.03,0.005,0.298,0.03,0.376,0.033c0.099,0.001,0.199,0.001,0.303-0.008l0.022-0.012c0.373-0.261,0.837-0.466,1.372-0.614
			c0.074-0.021,0.145-0.003,0.197,0.042c0.046,0.038,0.074,0.091,0.081,0.149c0.098-0.058,0.204-0.111,0.309-0.158
			c0.408-0.177,0.891-0.289,1.443-0.334c0.07-0.008,0.137,0.021,0.183,0.068c0.032,0.035,0.052,0.08,0.055,0.128
			c0.154-0.057,0.319-0.106,0.492-0.141c0.438-0.086,0.936-0.094,1.486-0.021c0.072,0.011,0.136,0.056,0.167,0.12
			c0.011,0.018,0.014,0.039,0.019,0.057c0.153-0.018,0.307-0.031,0.467-0.031c0.449,0.005,0.938,0.095,1.46,0.277
			c0.072,0.027,0.126,0.087,0.144,0.164C39.947,9.236,39.947,9.238,39.947,9.244z"/>
		<g>
			<path class="st2" d="M37.151,6.811c1.868-0.297,2.073,0.241,2.073,0.241s0.05,0.123,0.203,0.084c0,0,0.128-0.011,0.061-0.164
				c0,0-0.204-0.611-1.198-0.718c0,0-0.514-0.066-1.073,0.034c-0.169,0.027-0.212,0.393-0.212,0.393
				C36.978,6.844,37.151,6.811,37.151,6.811z"/>
			<path class="st2" d="M35.556,7.173c-0.231-0.106-0.752-0.08-0.752-0.08c-0.847,0.025-1.064,0.551-1.064,0.551
				c-0.076,0.176,0.073,0.191,0.073,0.191c0.176,0.04,0.236-0.097,0.236-0.097s0.048-0.15,0.394-0.236
				c-0.024,0.048-0.032,0.105-0.032,0.158c0,0.238,0.195,0.436,0.432,0.436c0.243,0,0.437-0.199,0.437-0.436
				c0-0.06-0.013-0.119-0.036-0.168c0.122,0.045,0.236,0.131,0.31,0.28c0.028,0.06,0.091,0.084,0.254,0.084
				c0.174,0,0.134-0.111,0.134-0.111C35.835,7.305,35.556,7.173,35.556,7.173z"/>
			<path class="st2" d="M37.111,7.856c0.159,0,0.227-0.024,0.256-0.084c0.074-0.15,0.189-0.235,0.31-0.28
				c-0.021,0.049-0.039,0.108-0.039,0.168c0,0.238,0.197,0.436,0.439,0.436c0.237,0,0.43-0.199,0.43-0.436
				c0-0.053-0.01-0.11-0.029-0.158c0.346,0.087,0.396,0.236,0.396,0.236s0.056,0.137,0.229,0.097c0,0,0.151-0.015,0.081-0.191
				c0,0-0.224-0.527-1.071-0.551c0,0-0.517-0.026-0.749,0.08c0,0-0.279,0.132-0.385,0.572C36.978,7.745,36.935,7.856,37.111,7.856z"
				/>
			<path class="st2" d="M33.492,7.136c0.15,0.039,0.202-0.084,0.202-0.084S33.9,6.514,35.77,6.811c0,0,0.171,0.034,0.148-0.13
				c0,0-0.05-0.366-0.215-0.393c-0.566-0.1-1.073-0.034-1.073-0.034c-0.995,0.107-1.204,0.718-1.204,0.718
				C33.366,7.125,33.492,7.136,33.492,7.136z"/>
		</g>
		<g>
			<path class="st4" d="M44.729,36.401c-0.302-0.038-0.77-0.038-1.312,0.171c-0.059,0.024-0.129,0.012-0.172-0.031
				c-0.046-0.051-0.056-0.12-0.039-0.182c0.007,0,0.169-0.399,0.212-0.809c0-0.005-0.001-0.009-0.004-0.011
				c-0.005-0.003-0.011-0.003-0.013,0c-0.153,0.123-0.295,0.261-0.416,0.402c-0.395,0.461-0.581,0.945-0.561,1.444
				c0,0.004,0,0.006,0.008,0.007c0.054,0.01,0.142,0.022,0.254,0.022c0.105,0,0.237-0.012,0.386-0.04
				c0.375-0.078,0.969-0.303,1.664-0.953c0-0.005,0.004-0.008,0-0.014C44.736,36.402,44.732,36.401,44.729,36.401z"/>
			<path class="st4" d="M29.553,35.528c-0.007-0.002-0.015-0.002-0.016-0.002c-0.007,0.002-0.008,0.009-0.008,0.013
				c0.038,0.425,0.198,0.82,0.201,0.82c0.027,0.062,0.012,0.132-0.032,0.182c-0.05,0.042-0.114,0.054-0.176,0.031
				c-0.545-0.213-1.009-0.21-1.31-0.173c-0.005,0-0.01,0.003-0.01,0.008c0,0.006,0,0.008,0.005,0.009
				c0.561,0.528,1.116,0.847,1.664,0.958c0.151,0.028,0.279,0.04,0.384,0.04c0.118,0,0.209-0.016,0.256-0.022
				c0.004-0.001,0.007-0.003,0.007-0.007C30.562,36.508,29.93,35.844,29.553,35.528z"/>
			<path class="st4" d="M45.95,34.77c-0.296,0.021-0.761,0.11-1.249,0.421c-0.054,0.037-0.123,0.033-0.177-0.002
				c-0.05-0.037-0.082-0.102-0.067-0.166c0-0.003,0.084-0.427,0.048-0.854c-0.005-0.005-0.008-0.006-0.01-0.006
				c-0.006-0.001-0.008,0-0.011,0.002c-0.126,0.144-0.242,0.291-0.338,0.445c-0.32,0.498-0.462,0.993-0.432,1.47
				c0,0.009,0.008,0.01,0.013,0.01c0.024,0,0.046,0.004,0.078,0.004c0.139,0,0.365-0.018,0.622-0.104
				c0.285-0.09,0.556-0.239,0.814-0.444c0.257-0.201,0.496-0.455,0.723-0.754c0-0.006,0-0.012,0-0.016
				C45.962,34.771,45.957,34.77,45.95,34.77z"/>
			<path class="st4" d="M46.958,33.09c-0.299,0.05-0.746,0.189-1.201,0.547c-0.048,0.041-0.118,0.048-0.175,0.018
				c-0.059-0.035-0.092-0.097-0.084-0.161c0-0.003,0.038-0.437-0.047-0.851c0-0.004-0.003-0.009-0.008-0.009s-0.008,0-0.012,0.005
				c-0.109,0.155-0.204,0.313-0.287,0.477c-0.267,0.527-0.357,1.035-0.271,1.505c0,0.007,0.004,0.01,0.012,0.01l0,0
				c0.099-0.003,0.37-0.032,0.687-0.175c0.268-0.119,0.523-0.294,0.759-0.522c0.236-0.225,0.45-0.505,0.639-0.827
				c0.002-0.006,0.002-0.01,0-0.013C46.966,33.093,46.961,33.09,46.958,33.09z"/>
			<path class="st4" d="M47.762,31.252c-0.055,0.012-0.112,0.031-0.172,0.049c-0.236,0.084-0.601,0.263-0.961,0.653l0,0
				c-0.045,0.048-0.111,0.064-0.174,0.041c-0.063-0.025-0.104-0.079-0.106-0.143c0-0.006-0.02-0.432-0.153-0.844
				c0-0.005-0.003-0.008-0.008-0.008c-0.004,0-0.011,0.002-0.012,0.002c-0.089,0.16-0.164,0.323-0.227,0.488
				c-0.2,0.55-0.229,1.066-0.09,1.551c0.006,0.005,0.008,0.006,0.011,0.006c0.003,0,0.003,0,0.003,0
				c0.126-0.021,0.377-0.08,0.663-0.25c0.256-0.148,0.488-0.355,0.695-0.607c0.209-0.261,0.394-0.57,0.547-0.923
				c0-0.004,0-0.007-0.003-0.01C47.774,31.254,47.763,31.252,47.762,31.252z"/>
			<path class="st4" d="M48.345,29.405c-0.276,0.108-0.689,0.337-1.049,0.79c-0.043,0.046-0.113,0.068-0.172,0.053
				c-0.064-0.019-0.109-0.072-0.118-0.136c-0.004-0.021-0.063-0.471-0.236-0.866c0-0.005-0.008-0.009-0.013-0.009l0,0
				c0,0-0.008,0.004-0.008,0.009c-0.073,0.175-0.132,0.363-0.172,0.543c-0.097,0.399-0.166,0.995,0.067,1.554
				c0,0.004,0.001,0.006,0.008,0.006l0.005-0.002c0.095-0.022,0.356-0.11,0.635-0.312c0.238-0.172,0.449-0.402,0.63-0.671
				c0.172-0.272,0.322-0.586,0.44-0.944c0-0.006,0-0.009-0.003-0.014C48.353,29.405,48.35,29.403,48.345,29.405z"/>
			<path class="st4" d="M48.726,27.456c-0.263,0.143-0.641,0.421-0.944,0.91c-0.038,0.056-0.101,0.083-0.165,0.072
				c-0.066-0.009-0.117-0.056-0.136-0.12c0-0.005-0.118-0.471-0.338-0.85c-0.001-0.002-0.005-0.005-0.012-0.005
				c-0.005,0.002-0.008,0.005-0.008,0.005c-0.051,0.182-0.091,0.369-0.111,0.554c-0.074,0.595,0.018,1.12,0.264,1.563
				c0.003,0.004,0.007,0.004,0.015,0.004h0.005c0.11-0.044,0.344-0.161,0.585-0.389c0.212-0.201,0.399-0.45,0.541-0.746
				c0.142-0.289,0.247-0.62,0.319-0.987c0-0.005,0-0.008-0.002-0.013C48.734,27.45,48.729,27.45,48.726,27.456z"/>
			<path class="st4" d="M48.061,26.499c-0.031,0.062-0.09,0.099-0.156,0.095c-0.067-0.004-0.123-0.048-0.143-0.111
				c-0.003-0.002-0.153-0.438-0.419-0.771c-0.005-0.002-0.012-0.004-0.013-0.002c-0.006,0-0.008,0.007-0.008,0.007
				c-0.039,0.187-0.057,0.374-0.059,0.563c-0.011,0.582,0.135,1.083,0.437,1.492c0.001,0.003,0.007,0.003,0.012,0.003h0.003
				c0.088-0.048,0.315-0.187,0.544-0.452c0.188-0.223,0.341-0.489,0.453-0.798c0.107-0.301,0.18-0.646,0.202-1.021
				c0,0,0-0.006-0.001-0.01c-0.005-0.002-0.011-0.002-0.016,0C48.654,25.668,48.312,25.983,48.061,26.499z"/>
			<path class="st4" d="M47.991,24.729c-0.064,0.006-0.124-0.032-0.153-0.089c-0.001-0.004-0.19-0.381-0.48-0.695
				c-0.004-0.004-0.004-0.004-0.012-0.004c-0.003,0.004-0.008,0.005-0.008,0.01c-0.016,0.479,0.033,1.37,0.566,1.969
				c0.001,0.005,0.001,0.006,0.004,0.006c0.005,0,0.005,0,0.013-0.001c0.083-0.058,0.298-0.222,0.491-0.504
				c0.168-0.236,0.293-0.521,0.372-0.836c0.078-0.311,0.113-0.663,0.103-1.037c0-0.003,0-0.005-0.005-0.012
				c-0.005,0-0.008,0-0.011,0.006c-0.229,0.195-0.539,0.539-0.732,1.081C48.112,24.684,48.055,24.728,47.991,24.729z"/>
			<path class="st4" d="M47.904,22.829c-0.066,0.009-0.128-0.02-0.164-0.076c-0.002-0.005-0.228-0.35-0.531-0.629
				c-0.004-0.005-0.011-0.005-0.015-0.005c-0.004,0.005-0.006,0.011-0.006,0.012c0.051,0.525,0.21,1.465,0.732,1.903
				c0.006,0,0.006,0,0.008,0c0.003,0,0.006,0,0.006,0c0.08-0.067,0.284-0.249,0.453-0.555c0.14-0.257,0.24-0.55,0.287-0.873
				c0.05-0.319,0.05-0.669,0.006-1.041c-0.003-0.003-0.011-0.006-0.014-0.01c-0.002,0-0.005,0-0.009,0.004
				c-0.208,0.217-0.482,0.593-0.624,1.152C48.018,22.772,47.964,22.818,47.904,22.829z"/>
			<path class="st4" d="M47.65,20.977c-0.062,0.016-0.129-0.013-0.169-0.064c0-0.003-0.247-0.358-0.575-0.624
				c-0.003-0.002-0.008-0.004-0.013-0.002c-0.003,0.004-0.006,0.009-0.006,0.013c0.021,0.187,0.05,0.373,0.097,0.551
				c0.099,0.395,0.311,0.947,0.751,1.32c0.003,0,0.005,0,0.005,0c0.003,0,0.008,0,0.008,0c0.074-0.067,0.266-0.261,0.419-0.567
				c0.13-0.264,0.212-0.563,0.244-0.884c0.035-0.322,0.019-0.67-0.047-1.039c0-0.008-0.001-0.013-0.007-0.013
				c-0.005,0-0.008,0-0.013,0.005c-0.193,0.227-0.452,0.614-0.566,1.178C47.762,20.917,47.715,20.965,47.65,20.977z"/>
			<path class="st4" d="M47.24,19.152c-0.067,0.021-0.135,0.005-0.175-0.043c-0.005-0.005-0.303-0.324-0.667-0.541
				c-0.005-0.004-0.008-0.004-0.013,0c-0.003,0.003-0.003,0.007-0.003,0.01c0.039,0.182,0.097,0.361,0.164,0.526
				c0.212,0.549,0.53,0.963,0.936,1.216c0.007,0.001,0.007,0.001,0.007,0.001c0.007,0,0.012-0.001,0.012-0.001
				c0.066-0.079,0.228-0.295,0.333-0.616c0.096-0.279,0.138-0.582,0.13-0.91c-0.016-0.327-0.078-0.668-0.2-1.024
				c0-0.005-0.001-0.008-0.004-0.012c-0.005,0-0.008,0.004-0.011,0.007c-0.163,0.25-0.365,0.67-0.402,1.242
				C47.343,19.075,47.301,19.13,47.24,19.152z"/>
			<path class="st4" d="M46.429,17.339c-0.002-0.005-0.334-0.296-0.718-0.474c-0.005,0-0.013,0-0.016,0.003
				c-0.001,0.001-0.001,0.008-0.001,0.013c0.062,0.177,0.134,0.348,0.216,0.509c0.271,0.524,0.63,0.9,1.067,1.114h0.002
				c0.003,0,0.008,0,0.008-0.004c0.057-0.083,0.196-0.315,0.269-0.651c0.067-0.285,0.075-0.592,0.032-0.916
				c-0.047-0.318-0.145-0.655-0.298-0.998c-0.003-0.002-0.008-0.006-0.008-0.006c-0.005,0-0.011,0.004-0.011,0.006
				c-0.139,0.264-0.295,0.701-0.273,1.276c0.002,0.063-0.031,0.124-0.094,0.152l0,0C46.547,17.39,46.48,17.381,46.429,17.339z"/>
			<path class="st4" d="M44.812,15.267c-0.002,0.001-0.002,0.008-0.002,0.014c0.075,0.172,0.166,0.342,0.267,0.497
				c0.319,0.49,0.732,0.823,1.223,0.993h0.003c0.004,0,0.008,0,0.008-0.004c0.048-0.088,0.157-0.329,0.193-0.673
				c0.028-0.29,0.003-0.599-0.083-0.913c-0.083-0.315-0.22-0.639-0.41-0.962c0-0.007-0.006-0.009-0.011-0.009
				c-0.005,0-0.008,0.005-0.011,0.009c-0.102,0.279-0.209,0.731-0.118,1.298c0.013,0.068-0.019,0.132-0.078,0.164l0,0
				c-0.059,0.035-0.131,0.029-0.182-0.013c-0.003-0.002-0.368-0.285-0.785-0.407C44.82,15.263,44.815,15.263,44.812,15.267z"/>
			<path class="st4" d="M43.743,13.848c-0.005,0.002-0.005,0.006,0,0.009c0.11,0.17,0.239,0.326,0.369,0.468
				c0.408,0.431,0.86,0.696,1.333,0.787c0.002,0,0.002,0,0.002,0c0.006,0,0.011-0.004,0.011-0.01
				c0.039-0.117,0.102-0.364,0.083-0.696c-0.021-0.289-0.096-0.588-0.228-0.886c-0.131-0.295-0.317-0.581-0.55-0.87
				c-0.005-0.003-0.011-0.004-0.013-0.004c-0.006,0.001-0.006,0.004-0.006,0.013c-0.053,0.302-0.076,0.775,0.081,1.283
				c0.018,0.068-0.006,0.141-0.062,0.18c-0.057,0.041-0.129,0.044-0.188,0.001c-0.003-0.001-0.367-0.25-0.824-0.283
				C43.749,13.84,43.743,13.843,43.743,13.848z"/>
			<path class="st4" d="M43.537,12.69c-0.042,0.053-0.116,0.069-0.179,0.044c-0.004,0-0.378-0.144-0.786-0.144
				c-0.024,0-0.045,0-0.062,0c-0.008,0-0.013,0.002-0.013,0.006c0,0.007,0,0.008,0,0.015c0.152,0.149,0.308,0.295,0.469,0.418
				c0.329,0.253,0.827,0.549,1.366,0.549c0.011,0,0.021,0,0.029,0c0.006-0.005,0.011-0.005,0.011-0.013
				c0.016-0.101,0.035-0.372-0.047-0.713c-0.063-0.288-0.188-0.575-0.366-0.85c-0.176-0.265-0.4-0.525-0.678-0.766
				c-0.001-0.005-0.008-0.005-0.009-0.004c-0.003,0.004-0.008,0.007-0.008,0.007c-0.011,0.296,0.036,0.759,0.299,1.268
				C43.594,12.568,43.586,12.641,43.537,12.69z"/>
			<path class="st4" d="M29.154,36.093c0.031,0,0.057-0.004,0.078-0.004c0.003,0,0.008-0.001,0.011-0.01
				c0.051-0.789-0.462-1.531-0.773-1.91c-0.008-0.001-0.013-0.004-0.016-0.001c-0.001,0-0.008,0.008-0.008,0.01
				c-0.046,0.43,0.051,0.829,0.058,0.833c0.016,0.067-0.011,0.132-0.067,0.174c-0.053,0.037-0.125,0.042-0.179,0.005
				c-0.491-0.314-0.952-0.4-1.25-0.421c-0.008-0.003-0.012,0-0.012,0.005c-0.007,0.004-0.007,0.008,0,0.01
				c0.224,0.303,0.464,0.559,0.716,0.759c0.261,0.205,0.536,0.354,0.816,0.444C28.792,36.075,29.018,36.093,29.154,36.093z"/>
			<path class="st4" d="M28.078,34.633L28.078,34.633c0.004,0,0.011-0.003,0.011-0.01c0.098-0.575-0.097-1.128-0.274-1.49
				c-0.083-0.165-0.181-0.329-0.287-0.485c-0.003-0.004-0.008-0.008-0.013-0.008c-0.003,0.004-0.008,0.008-0.008,0.012
				c-0.089,0.424-0.046,0.822-0.046,0.84c0.008,0.065-0.021,0.129-0.078,0.161c-0.059,0.032-0.131,0.026-0.181-0.015
				c-0.456-0.364-0.903-0.5-1.197-0.547c-0.005-0.002-0.013,0-0.013,0.002c0,0.005,0,0.009,0,0.016
				c0.189,0.323,0.402,0.603,0.636,0.827c0.234,0.228,0.493,0.403,0.762,0.522C27.695,34.596,27.948,34.627,28.078,34.633z"/>
			<path class="st4" d="M27.072,33.076L27.072,33.076c0.007,0,0.011-0.004,0.016-0.009c0.142-0.479,0.113-0.999-0.088-1.548
				c-0.062-0.169-0.141-0.337-0.235-0.498c-0.003-0.004-0.003-0.009-0.011-0.009c-0.005,0.005-0.008,0.009-0.008,0.009
				c-0.136,0.409-0.15,0.85-0.15,0.854c0,0.065-0.04,0.12-0.102,0.147c-0.059,0.025-0.129,0.012-0.176-0.037
				c-0.35-0.356-0.714-0.54-0.963-0.627c-0.056-0.021-0.11-0.039-0.162-0.057c-0.003-0.003-0.008,0-0.011,0.004
				c-0.003,0.002-0.003,0.01,0,0.014c0.15,0.342,0.327,0.646,0.531,0.895c0.21,0.253,0.44,0.458,0.698,0.61
				C26.71,32.999,26.973,33.058,27.072,33.076z"/>
			<path class="st4" d="M26.259,31.387h0.003c0.005,0,0.008-0.002,0.013-0.002c0.373-0.839,0.11-1.665-0.078-2.084
				c-0.005,0-0.008-0.004-0.01-0.004l0,0c-0.007,0-0.007,0.004-0.014,0.004c-0.182,0.39-0.247,0.837-0.247,0.839
				c-0.01,0.068-0.059,0.12-0.121,0.135c-0.061,0.018-0.128-0.005-0.168-0.053c-0.307-0.395-0.655-0.618-0.889-0.736
				c-0.045-0.023-0.1-0.051-0.151-0.072c-0.007-0.001-0.008,0-0.011,0.002c-0.005,0.004-0.005,0.006-0.005,0.013
				C25.026,30.892,25.902,31.284,26.259,31.387z"/>
			<path class="st4" d="M25.041,29.255c0.263,0.231,0.514,0.336,0.609,0.372h0.003c0.005,0,0.01-0.002,0.01-0.007
				c0.298-0.508,0.39-1.042,0.274-1.596c-0.042-0.175-0.099-0.348-0.177-0.519c0-0.002-0.007-0.002-0.008-0.002
				c-0.006,0-0.011,0-0.011,0.002c-0.223,0.379-0.329,0.833-0.337,0.852l0.019,0.002l0,0l0,0l0,0l-0.019-0.002l0,0
				c-0.009,0.066-0.059,0.113-0.126,0.124c-0.062,0.013-0.123-0.013-0.165-0.068c-0.322-0.48-0.711-0.745-0.974-0.878
				c-0.005-0.002-0.008-0.002-0.013,0c-0.004,0.005-0.008,0.009-0.008,0.014c0.083,0.364,0.201,0.695,0.357,0.977
				C24.633,28.812,24.822,29.061,25.041,29.255z"/>
			<path class="st4" d="M25.149,27.836h0.006c0.002,0,0.008,0,0.008-0.005c0.613-0.825,0.552-1.632,0.464-2.044
				c-0.003-0.005-0.008-0.008-0.012-0.01c-0.003,0-0.007,0-0.008,0.005c-0.29,0.338-0.466,0.762-0.466,0.768
				c-0.023,0.059-0.083,0.1-0.149,0.1l0,0c0,0,0,0-0.002,0c-0.062,0-0.121-0.037-0.145-0.095c-0.204-0.456-0.483-0.752-0.678-0.925
				c-0.043-0.039-0.09-0.075-0.135-0.11c0,0-0.006,0-0.011,0c-0.003,0.001-0.008,0.004-0.005,0.013
				C24.081,27.053,24.829,27.647,25.149,27.836z"/>
			<path class="st4" d="M24.992,25.986c0,0.002,0.006,0.002,0.006,0.002c0.001,0,0.005,0,0.009-0.002
				c0.293-0.287,0.483-0.656,0.558-1.101c0.066-0.375,0.032-0.726-0.001-0.947c0-0.005-0.004-0.013-0.008-0.013
				c-0.003-0.002-0.011,0-0.011,0.005c-0.343,0.313-0.42,0.716-0.42,0.72l0,0c-0.007,0.077-0.071,0.132-0.146,0.136
				c-0.075,0.004-0.142-0.041-0.166-0.114c-0.153-0.474-0.395-0.796-0.573-0.988c-0.042-0.042-0.082-0.084-0.122-0.121
				c-0.003-0.004-0.008-0.004-0.011,0c-0.008,0-0.009,0.002-0.009,0.009C24.006,25.104,24.693,25.771,24.992,25.986z"/>
			<path class="st4" d="M24.551,23.478c0.166,0.3,0.367,0.484,0.442,0.546c0.003,0.001,0.006,0.001,0.006,0.001
				c0.005,0,0.008,0,0.009-0.001c0.354-0.323,0.581-0.786,0.678-1.371c0.03-0.184,0.045-0.379,0.045-0.571
				c0-0.006-0.002-0.011-0.005-0.011c-0.008,0-0.011,0-0.016,0c-0.322,0.29-0.503,0.664-0.503,0.669
				c-0.029,0.059-0.096,0.098-0.164,0.089c-0.067-0.007-0.123-0.056-0.142-0.119c-0.139-0.559-0.418-0.935-0.625-1.152
				c-0.003-0.004-0.005-0.004-0.011-0.004c-0.002,0.004-0.008,0.007-0.008,0.01c-0.045,0.372-0.045,0.722,0.003,1.041
				C24.308,22.928,24.406,23.221,24.551,23.478z"/>
			<path class="st4" d="M24.747,21.581c0.145,0.295,0.319,0.479,0.41,0.558c0.006,0.006,0.006,0.008,0.008,0.008
				c0.003,0,0.008-0.002,0.011-0.008c0.403-0.359,0.674-0.824,0.802-1.379c0.037-0.164,0.061-0.336,0.07-0.503
				c0-0.005-0.001-0.01-0.008-0.012c-0.001-0.002-0.008,0-0.009,0.002c-0.345,0.263-0.592,0.626-0.604,0.643
				c-0.039,0.051-0.104,0.078-0.166,0.064c-0.062-0.013-0.113-0.063-0.128-0.125c-0.115-0.565-0.371-0.954-0.57-1.176
				c0-0.007-0.005-0.007-0.011-0.007c-0.002,0.003-0.008,0.007-0.008,0.007c-0.067,0.372-0.08,0.723-0.048,1.044
				C24.531,21.016,24.615,21.318,24.747,21.581z"/>
			<path class="st4" d="M25.411,20.298c0.001,0.002,0.004,0.002,0.009,0.002c0.003,0,0.003,0,0.007,0
				c0.484-0.307,0.825-0.737,1.006-1.283c0.051-0.166,0.09-0.335,0.108-0.508c0,0,0-0.006-0.003-0.01c-0.002,0-0.009,0-0.016,0
				c-0.397,0.228-0.687,0.573-0.692,0.577c-0.041,0.051-0.11,0.068-0.175,0.051c-0.059-0.023-0.103-0.077-0.11-0.143
				c-0.042-0.577-0.251-0.994-0.42-1.237c-0.001-0.004-0.007-0.006-0.012-0.004c-0.002,0-0.008,0.004-0.008,0.004
				c-0.107,0.362-0.169,0.709-0.176,1.031c-0.004,0.326,0.039,0.63,0.137,0.905C25.18,20.009,25.345,20.222,25.411,20.298z"/>
			<path class="st4" d="M25.883,18.491c0.003,0.004,0.008,0.006,0.008,0.006c0.004,0,0.004,0,0.004-0.002
				c0.528-0.261,0.915-0.646,1.162-1.151c0.074-0.149,0.133-0.31,0.173-0.475c0-0.004,0-0.008-0.002-0.008
				c-0.006-0.002-0.008-0.002-0.011-0.002c-0.402,0.172-0.749,0.468-0.765,0.48c-0.045,0.041-0.115,0.053-0.174,0.023
				c-0.059-0.028-0.097-0.089-0.091-0.155c0.026-0.577-0.129-1.014-0.261-1.28c0-0.002-0.002-0.01-0.005-0.01l0,0
				c-0.011,0-0.016,0.008-0.016,0.01c-0.153,0.346-0.258,0.681-0.302,1.002c-0.048,0.32-0.044,0.629,0.019,0.912
				C25.686,18.164,25.812,18.386,25.883,18.491z"/>
			<path class="st4" d="M26.565,16.767c0,0.004,0.002,0.004,0.009,0.004l0,0c0.474-0.136,0.887-0.448,1.237-0.926
				c0.152-0.203,0.259-0.403,0.321-0.531c0-0.003,0-0.009-0.003-0.013c-0.002-0.004-0.008-0.004-0.008-0.004
				c-0.461,0.062-0.789,0.384-0.793,0.385c-0.052,0.053-0.127,0.065-0.189,0.029c-0.066-0.032-0.099-0.106-0.086-0.172
				c0.116-0.569,0.031-1.026-0.063-1.305c0-0.004-0.004-0.008-0.007-0.008c-0.008,0-0.01,0-0.013,0.004
				c-0.207,0.316-0.359,0.632-0.451,0.944c-0.096,0.314-0.138,0.617-0.122,0.91C26.417,16.425,26.522,16.676,26.565,16.767z"/>
			<path class="st4" d="M27.515,15.114L27.515,15.114c0.785-0.132,1.398-0.842,1.692-1.255c0.001-0.002,0.001-0.008,0-0.008
				c0-0.007-0.008-0.007-0.011-0.007c-0.45,0.037-0.812,0.279-0.814,0.28c-0.057,0.043-0.132,0.04-0.186-0.001
				c-0.056-0.039-0.083-0.116-0.059-0.181c0.18-0.55,0.153-1.012,0.097-1.305c0,0-0.003-0.004-0.011-0.008
				c-0.003,0-0.008,0-0.011,0.008c-0.984,1.182-0.823,2.12-0.708,2.47C27.507,15.112,27.509,15.114,27.515,15.114z"/>
			<path class="st4" d="M28.62,13.58c0.019,0,0.035,0,0.054,0c0.467,0,0.955-0.296,1.287-0.548c0.162-0.123,0.323-0.268,0.479-0.421
				c0.005-0.005,0.005-0.008,0.004-0.015c-0.004-0.004-0.007-0.006-0.011-0.006c-0.416,0.014-0.812,0.144-0.817,0.148
				c-0.062,0.022-0.13,0.002-0.172-0.048c-0.043-0.054-0.054-0.123-0.021-0.183c0.267-0.513,0.31-0.972,0.3-1.267
				c0-0.004-0.003-0.008-0.005-0.009c-0.003,0-0.011,0-0.014,0.001c-0.287,0.248-0.519,0.514-0.697,0.785
				c-0.177,0.273-0.302,0.556-0.366,0.84c-0.078,0.343-0.05,0.613-0.032,0.714C28.612,13.577,28.615,13.58,28.62,13.58z"/>
			<path class="st4" d="M31.886,11.498c-0.421-0.032-0.837,0.049-0.837,0.049c-0.063,0.01-0.129-0.013-0.168-0.07
				c-0.036-0.051-0.037-0.123-0.002-0.176c0.318-0.484,0.405-0.94,0.424-1.233c0-0.006,0-0.011-0.006-0.011
				c-0.002-0.002-0.01-0.002-0.013,0c-1.25,0.901-1.334,1.845-1.316,2.211c0,0.006,0.004,0.01,0.009,0.01c0.027,0,0.054,0,0.081,0
				c0.762,0,1.47-0.47,1.83-0.758c0.008-0.005,0.008-0.007,0.008-0.014C31.894,11.502,31.889,11.498,31.886,11.498z"/>
			<path class="st4" d="M33.482,10.733c-0.132-0.044-0.277-0.07-0.438-0.092c-0.234-0.033-0.413-0.033-0.413-0.033l0,0
				c-0.067,0-0.129-0.041-0.154-0.103c-0.024-0.066-0.003-0.138,0.048-0.181c0.435-0.373,0.636-0.714,0.733-0.935
				c0-0.004,0-0.009-0.004-0.009c-0.007-0.009-0.007-0.009-0.011-0.009c-1.454,0.495-1.775,1.343-1.842,1.684
				c-0.001,0.005,0.003,0.014,0.011,0.015c0.145,0.044,0.338,0.076,0.576,0.076c0.271,0,0.598-0.045,0.976-0.175
				c0.177-0.061,0.353-0.136,0.521-0.221c0.003,0,0.005-0.003,0.005-0.009C33.492,10.735,33.49,10.733,33.482,10.733z"/>
			<path class="st4" d="M35.226,10.263c-0.383-0.195-0.807-0.273-0.815-0.273c-0.067-0.013-0.118-0.069-0.127-0.139
				c-0.008-0.069,0.028-0.136,0.09-0.17c0.476-0.23,0.72-0.475,0.837-0.636c0-0.003,0.002-0.007,0-0.013
				c-0.003-0.004-0.008-0.007-0.011-0.004c-0.743,0.107-1.334,0.356-1.709,0.73c-0.196,0.19-0.294,0.376-0.344,0.499
				c-0.003,0.006,0,0.01,0.008,0.014c0.32,0.147,0.663,0.195,0.971,0.195c0.21,0,0.398-0.019,0.561-0.048
				c0.177-0.036,0.36-0.077,0.534-0.135c0.008,0,0.008-0.002,0.008-0.01C35.228,10.267,35.228,10.265,35.226,10.263z"/>
			<path class="st4" d="M36.357,9.769c-0.063-0.024-0.106-0.088-0.104-0.155c0-0.073,0.049-0.132,0.113-0.152
				c0.475-0.145,0.768-0.324,0.927-0.45C37.299,9.008,37.299,9.003,37.299,9c0-0.006-0.006-0.007-0.014-0.007
				c-0.731-0.049-1.344,0.072-1.789,0.348c-0.228,0.147-0.37,0.309-0.445,0.417c-0.002,0.004-0.002,0.011,0.003,0.015
				c0.496,0.375,1.137,0.461,1.626,0.461c0.153,0,0.29-0.008,0.407-0.018c0.001,0,0.005-0.004,0.009-0.008
				c0-0.005,0-0.007-0.004-0.011C36.765,9.921,36.364,9.773,36.357,9.769z"/>
			<path class="st4" d="M38.265,9.897c-0.055-0.035-0.081-0.107-0.066-0.172c0.016-0.067,0.075-0.115,0.138-0.124
				c0.483-0.057,0.8-0.17,0.985-0.258c0.006-0.003,0.008-0.008,0.008-0.009c-0.002-0.007-0.005-0.01-0.008-0.011
				c-0.7-0.189-1.321-0.193-1.806-0.01c-0.259,0.098-0.428,0.223-0.522,0.317c-0.005,0.003-0.008,0.013,0,0.016
				c0.604,0.725,1.454,0.856,1.908,0.869l0,0c0.003,0,0.008,0,0.008-0.005c0.003-0.004,0.003-0.008,0-0.009
				C38.638,10.157,38.27,9.9,38.265,9.897z"/>
			<path class="st4" d="M43.005,12.273c0.007,0,0.012-0.004,0.012-0.01c0.003-0.156-0.012-0.464-0.142-0.794
				c-0.216-0.556-0.66-0.954-1.316-1.17c-0.003,0-0.013,0-0.013,0.003c-0.003,0.002-0.003,0.009-0.003,0.009
				c0.091,0.264,0.252,0.647,0.518,0.975c0.044,0.056,0.047,0.132,0.011,0.188c-0.037,0.059-0.108,0.084-0.175,0.07
				c-0.005,0-0.405-0.094-0.834-0.011c-0.003,0-0.006,0.002-0.006,0.007c0,0.008,0,0.008,0.003,0.01
				c0.418,0.279,1.193,0.727,1.862,0.727C42.95,12.277,42.98,12.273,43.005,12.273z"/>
			<path class="st4" d="M41.497,11.095c0-0.004,0-0.005,0-0.009c-0.367-0.386-0.829-0.563-1.384-0.528
				c-0.191,0.01-0.391,0.051-0.588,0.111c-0.007,0-0.007,0.004-0.007,0.007c-0.005,0.003,0,0.009,0,0.009
				c0.442,0.345,0.902,0.516,1.374,0.516c0.027,0,0.051,0,0.078-0.002c0.222-0.006,0.408-0.06,0.522-0.097
				C41.497,11.1,41.497,11.097,41.497,11.095z"/>
			<path class="st4" d="M38.824,9.923c0,0.005,0.007,0.006,0.008,0.011c0.277,0.195,0.617,0.291,1.016,0.291
				c0.165,0,0.342-0.018,0.529-0.046c0.296-0.057,0.555-0.148,0.722-0.213c0.002-0.003,0.008-0.007,0.008-0.011
				c0-0.002-0.003-0.006-0.008-0.006c-0.266-0.15-0.537-0.251-0.808-0.297c-0.287-0.046-0.577-0.037-0.859,0.027
				c-0.267,0.065-0.472,0.164-0.6,0.238C38.831,9.916,38.824,9.921,38.824,9.923z"/>
		</g>
		<g>
			<path class="st5" d="M33.394,20.526c0.094,0.11,0.24,0.168,0.455,0.168h2.107c-1.263-0.787-1.731-0.643-2.614-0.245
				C33.361,20.477,33.377,20.506,33.394,20.526z"/>
			<path class="st5" d="M38.541,19.564c-0.201-0.054-0.385-0.103-0.547-0.169c-0.664-0.267-1.212-0.695-1.236-0.712
				c-0.13-0.106-0.154-0.301-0.048-0.435c0.106-0.134,0.297-0.158,0.434-0.05c0.006,0.002,0.495,0.391,1.076,0.624
				c0.135,0.048,0.303,0.096,0.478,0.142c0.263,0.067,0.584,0.157,0.852,0.294c-0.055-0.348-0.107-0.646-0.169-0.932
				c-0.849-0.188-1.548-0.76-1.58-0.789c-0.059-0.047-0.101-0.124-0.11-0.204c-0.008-0.084,0.021-0.162,0.072-0.226
				c0.108-0.133,0.302-0.151,0.435-0.04c0.005,0.002,0.456,0.368,1.019,0.571c-0.228-0.841-0.527-1.623-0.927-2.399
				c-0.287-0.557-0.707-0.929-1.25-1.11c-0.395-0.13-0.71-0.106-0.715-0.106c-0.011,0.004-0.019,0.004-0.03,0.004
				c-0.006,0-1.025,0.015-1.663,0.767c-0.003,0.005-0.007,0.009-0.015,0.017c-0.117,0.122-0.432,0.495-0.48,0.775
				c-0.03,0.155,0.012,0.275,0.107,0.329c0.043,0.029,0.21,0.09,0.497-0.107c0.069-0.061,0.115-0.097,0.128-0.103
				c0.137-0.094,0.32-0.065,0.419,0.064c0.102,0.131,0.086,0.319-0.042,0.423c-0.037,0.038-0.079,0.068-0.12,0.098
				c-0.127,0.109-0.387,0.346-0.671,0.733c-0.383,0.513-0.894,1.402-1.149,2.696c-0.008,0.027-0.011,0.05-0.013,0.076
				c0.875-0.38,1.585-0.536,3.15,0.47c0.609,0.391,1.315,0.424,1.452,0.429h0.689c0.008,0,0.012,0,0.019,0
				c0.18,0.009,0.696-0.02,0.929-0.27c0.041-0.045,0.072-0.096,0.093-0.152C39.607,19.906,39.276,19.759,38.541,19.564z"/>
		</g>
		<g>
			<path class="st6" d="M35.507,31.634c0.082-0.063,0.175-0.176,0.178-0.246c0.005-0.034-0.027-0.082-0.081-0.127
				c-0.07-0.059-0.137-0.087-0.213-0.087c-0.158,0-0.346,0.109-0.62,0.301c-0.176,0.123-0.471,0.365-0.447,0.594
				c0.011,0.092,0.049,0.132,0.086,0.154c0.142,0.097,0.425,0.063,0.531,0.046C35.046,32.034,35.234,31.823,35.507,31.634z"/>
			<path class="st6" d="M36.578,32.015c0-0.019,0.005-0.069-0.083-0.152c-0.004-0.005-0.138-0.104-0.443,0.067
				c-0.236,0.139-0.494,0.3-0.609,0.546c0.064,0.066,0.123,0.081,0.165,0.093c0.251,0.048,0.605-0.173,0.711-0.254
				c0.01-0.008,0.016-0.008,0.021-0.013C36.412,32.254,36.565,32.123,36.578,32.015z"/>
			<path class="st6" d="M33.31,30.519c-0.022,0-0.045-0.006-0.062-0.006c-0.231,0-0.553,0.158-0.7,0.354
				c-0.102,0.132-0.065,0.209-0.053,0.239c0.016,0.039,0.112,0.097,0.29,0.124c0.036,0.006,0.072,0.009,0.11,0.014
				c0.071-0.249,0.241-0.438,0.401-0.595c0.046-0.041,0.089-0.078,0.129-0.11c-0.04-0.009-0.075-0.014-0.094-0.014
				C33.323,30.519,33.319,30.519,33.31,30.519z"/>
			<path class="st6" d="M33.407,31.496c0.002,0.049,0.018,0.183,0.281,0.27c0.039,0.017,0.081,0.024,0.129,0.035
				c0.075-0.266,0.292-0.526,0.644-0.767c0.043-0.034,0.095-0.068,0.147-0.106c0.003-0.016,0-0.034-0.002-0.048
				c-0.016-0.045-0.067-0.095-0.153-0.134c-0.057-0.03-0.11-0.038-0.176-0.038c-0.169,0-0.366,0.107-0.604,0.337
				C33.468,31.235,33.4,31.358,33.407,31.496z"/>
			<path class="st6" d="M40.036,30.988c0.158-0.002,0.28-0.039,0.365-0.115c0.072-0.076,0.104-0.174,0.115-0.25
				c-0.155-0.196-0.676-0.818-1.39-1.278c-0.296-0.194-0.617-0.391-0.947-0.516c-0.367-0.14-0.675-0.175-0.947-0.095
				c-0.006,0-0.011,0-0.016,0c-0.083,0.018-0.199,0.098-0.336,0.186c-0.088,0.058-0.189,0.128-0.3,0.189
				c-0.317,0.182-0.749,0.311-1.106,0.332c-0.314,0.022-0.708,0.043-0.947-0.302c-0.162-0.219-0.193-0.424-0.109-0.654
				c0.081-0.219,0.332-0.339,0.647-0.492c0.134-0.068,0.273-0.134,0.375-0.202c0.145-0.097,0.239-0.17,0.357-0.264
				c0.118-0.097,0.247-0.204,0.462-0.353c0.091-0.062,0.177-0.113,0.276-0.155c-0.102-0.016-0.209-0.024-0.329-0.036
				c-0.511-0.041-0.872,0.138-1.401,0.514c-0.461,0.308-1.366,0.596-2.765,0.874c-1.33,0.266-3.158,0.536-5.43,0.794
				c0.07,0.256,0.142,0.507,0.22,0.751c0.292,0.901,0.652,1.76,1.073,2.558c0.812-0.357,2.799-1.253,4.344-2.079
				c0.31-0.293,0.778-0.462,1.131-0.415c0.084,0.008,0.373,0.041,0.593,0.231c0.251-0.078,0.499-0.062,0.726,0.052
				c0.25,0.126,0.361,0.291,0.413,0.412l0,0c0.314-0.096,0.601-0.039,0.849,0.176c0.153,0.129,0.241,0.28,0.263,0.448
				c0.306-0.046,0.537,0.056,0.651,0.176c0.232,0.223,0.261,0.446,0.242,0.598c-0.011,0.112-0.051,0.221-0.118,0.327
				c0.153,0.019,0.303,0,0.434-0.053c0.049-0.017,0.101-0.043,0.141-0.069c-0.067-0.136-0.18-0.335-0.371-0.545
				c-0.046-0.056-0.073-0.121-0.067-0.196c0.002-0.069,0.036-0.138,0.088-0.187c0.116-0.096,0.283-0.087,0.384,0.023
				c0.274,0.308,0.424,0.596,0.494,0.749c0.147,0.015,0.263-0.02,0.362-0.118c0.056-0.054,0.099-0.116,0.121-0.17
				c-0.03-0.062-0.098-0.183-0.282-0.394c-0.153-0.177-0.499-0.435-0.617-0.52c-0.059-0.04-0.098-0.103-0.112-0.173
				c-0.009-0.074,0.007-0.146,0.047-0.204c0.042-0.059,0.104-0.098,0.175-0.11c0.071-0.013,0.142,0.003,0.205,0.043
				c0.015,0.014,0.483,0.343,0.712,0.609c0.171,0.201,0.293,0.374,0.36,0.522c0.196,0,0.343-0.053,0.443-0.171
				c0.034-0.036,0.06-0.079,0.083-0.126c-0.207-0.272-0.733-0.909-1.361-1.217c-0.061-0.03-0.114-0.086-0.136-0.155
				c-0.023-0.068-0.019-0.145,0.013-0.21c0.032-0.064,0.087-0.111,0.158-0.135c0.063-0.023,0.137-0.021,0.204,0.013
				C39.223,29.967,39.808,30.685,40.036,30.988z"/>
			<path class="st6" d="M36.583,28.47c0.182-0.119,0.333-0.223,0.513-0.262c0.903-0.244,1.829,0.359,2.328,0.685
				c0.682,0.44,1.187,0.997,1.43,1.286c0.008,0.006,0.019,0.023,0.041,0.05l0.01,0.009c0,0.003,0,0.003,0,0.003
				c0.078,0.085,0.241,0.257,0.473,0.421c1.144,0.846,2.883,1.603,3.605,1.898c0.441-0.82,0.821-1.709,1.119-2.644
				c0.072-0.22,0.142-0.453,0.205-0.686c-1.441-0.099-2.976-0.415-4.014-0.657c-1.196-0.283-2.076-0.562-2.112-0.575
				c-0.243-0.081-0.458-0.159-0.648-0.229c-0.657-0.234-1.087-0.39-1.562-0.368c-0.059,0.001-0.113,0.004-0.171,0.008
				c-0.071,0-0.142,0.001-0.212,0.002h-0.008c-0.445,0.01-0.738,0.016-1.01,0.205c-0.2,0.142-0.324,0.238-0.431,0.329
				c-0.121,0.096-0.229,0.188-0.4,0.298c-0.131,0.085-0.287,0.159-0.433,0.233c-0.117,0.058-0.326,0.16-0.388,0.214
				c-0.005,0.024-0.009,0.054,0.05,0.135c0.067,0.09,0.224,0.089,0.483,0.075c0.224-0.013,0.575-0.1,0.861-0.261
				C36.409,28.583,36.498,28.525,36.583,28.47z"/>
		</g>
	</g>
	<g>
		<g>
			<path class="st7" d="M0.193,65.619h1.685c0.993,0,1.622,0.567,1.622,1.428v0.012c0,0.957-0.769,1.458-1.708,1.458H0.944v1.372
				H0.193V65.619z M1.816,67.839c0.568,0,0.921-0.317,0.921-0.762v-0.012c0-0.5-0.36-0.762-0.921-0.762H0.944v1.537H1.816z"/>
			<path class="st7" d="M4.122,66.668h0.739v0.726c0.201-0.481,0.573-0.811,1.14-0.786v0.781H5.959
				c-0.647,0-1.098,0.421-1.098,1.275v1.226H4.122V66.668z"/>
			<path class="st7" d="M6.403,68.291v-0.012c0-0.921,0.652-1.678,1.574-1.678c1.026,0,1.543,0.805,1.543,1.733
				c0,0.067-0.006,0.134-0.012,0.207H7.142c0.08,0.525,0.452,0.817,0.928,0.817c0.36,0,0.615-0.134,0.872-0.384l0.432,0.384
				c-0.305,0.366-0.724,0.604-1.317,0.604C7.124,69.963,6.403,69.286,6.403,68.291z M8.789,68.053
				c-0.049-0.476-0.329-0.848-0.818-0.848c-0.45,0-0.768,0.348-0.836,0.848H8.789z"/>
			<path class="st7" d="M9.942,69.469l0.329-0.501c0.348,0.262,0.725,0.397,1.055,0.397c0.316,0,0.501-0.135,0.501-0.348v-0.012
				c0-0.25-0.342-0.336-0.72-0.451c-0.476-0.135-1.006-0.33-1.006-0.946v-0.012c0-0.611,0.506-0.983,1.146-0.983
				c0.403,0,0.843,0.14,1.184,0.366l-0.293,0.524c-0.31-0.189-0.641-0.305-0.909-0.305c-0.287,0-0.451,0.134-0.451,0.323v0.012
				c0,0.232,0.347,0.33,0.725,0.451c0.47,0.147,1.001,0.36,1.001,0.94v0.012c0,0.678-0.525,1.013-1.195,1.013
				C10.851,69.95,10.344,69.786,9.942,69.469z"/>
			<path class="st7" d="M13.206,65.473h0.792v0.701h-0.792V65.473z M13.237,66.668h0.738v3.221h-0.738V66.668z"/>
			<path class="st7" d="M14.713,68.285v-0.012c0-1.067,0.725-1.671,1.494-1.671c0.531,0,0.866,0.269,1.099,0.568v-1.733h0.737v4.453
				h-0.737v-0.537c-0.239,0.336-0.575,0.604-1.099,0.604C15.45,69.956,14.713,69.353,14.713,68.285z M17.318,68.285v-0.012
				c0-0.622-0.44-1.031-0.933-1.031c-0.508,0-0.927,0.391-0.927,1.031v0.012c0,0.622,0.428,1.031,0.927,1.031
				C16.878,69.316,17.318,68.901,17.318,68.285z"/>
			<path class="st7" d="M18.727,68.291v-0.012c0-0.921,0.652-1.678,1.574-1.678c1.025,0,1.543,0.805,1.543,1.733
				c0,0.067-0.006,0.134-0.013,0.207h-2.366c0.079,0.525,0.45,0.817,0.927,0.817c0.36,0,0.616-0.134,0.872-0.384l0.433,0.384
				c-0.305,0.366-0.725,0.604-1.318,0.604C19.447,69.963,18.727,69.286,18.727,68.291z M21.112,68.053
				c-0.049-0.476-0.329-0.848-0.818-0.848c-0.451,0-0.769,0.348-0.836,0.848H21.112z"/>
			<path class="st7" d="M22.527,66.668h0.737v0.501c0.208-0.305,0.508-0.568,1.007-0.568c0.726,0,1.147,0.488,1.147,1.238v2.05
				h-0.738v-1.83c0-0.5-0.25-0.786-0.689-0.786c-0.427,0-0.727,0.299-0.727,0.799v1.818h-0.737V66.668z"/>
			<path class="st7" d="M26.072,68.297v-0.012c0-0.915,0.708-1.684,1.671-1.684c0.609,0,0.988,0.226,1.287,0.555l-0.458,0.494
				c-0.226-0.238-0.463-0.403-0.836-0.403c-0.536,0-0.927,0.464-0.927,1.025v0.012c0,0.574,0.396,1.038,0.964,1.038
				c0.348,0,0.605-0.165,0.836-0.403l0.446,0.439c-0.317,0.354-0.69,0.604-1.319,0.604C26.78,69.963,26.072,69.212,26.072,68.297z"
				/>
			<path class="st7" d="M29.683,65.473h0.793v0.701h-0.793V65.473z M29.713,66.668h0.739v3.221h-0.739V66.668z"/>
			<path class="st7" d="M33.326,69.889v-0.396c-0.22,0.262-0.556,0.463-1.043,0.463c-0.61,0-1.148-0.347-1.148-0.994V68.95
				c0-0.714,0.555-1.056,1.306-1.056c0.39,0,0.641,0.055,0.891,0.135v-0.061c0-0.445-0.28-0.689-0.793-0.689
				c-0.36,0-0.628,0.079-0.92,0.202l-0.202-0.592c0.354-0.158,0.702-0.269,1.227-0.269c0.951,0,1.415,0.501,1.415,1.36v1.909H33.326
				z M33.344,68.541c-0.19-0.073-0.452-0.128-0.739-0.128c-0.464,0-0.738,0.189-0.738,0.501v0.012c0,0.305,0.274,0.475,0.623,0.475
				c0.487,0,0.854-0.274,0.854-0.677V68.541z"/>
			<path class="st7" d="M36.479,68.285v-0.012c0-1.067,0.725-1.671,1.495-1.671c0.53,0,0.865,0.269,1.098,0.568v-1.733h0.738v4.453
				h-0.738v-0.537c-0.238,0.336-0.574,0.604-1.098,0.604C37.217,69.956,36.479,69.353,36.479,68.285z M39.084,68.285v-0.012
				c0-0.622-0.44-1.031-0.933-1.031c-0.507,0-0.927,0.391-0.927,1.031v0.012c0,0.622,0.427,1.031,0.927,1.031
				C38.644,69.316,39.084,68.901,39.084,68.285z"/>
			<path class="st7" d="M40.493,68.291v-0.012c0-0.921,0.653-1.678,1.574-1.678c1.025,0,1.543,0.805,1.543,1.733
				c0,0.067-0.006,0.134-0.012,0.207h-2.367c0.08,0.525,0.451,0.817,0.927,0.817c0.36,0,0.616-0.134,0.872-0.384l0.434,0.384
				c-0.306,0.366-0.726,0.604-1.318,0.604C41.214,69.963,40.493,69.286,40.493,68.291z M42.879,68.053
				c-0.049-0.476-0.33-0.848-0.818-0.848c-0.451,0-0.769,0.348-0.836,0.848H42.879z"/>
			<path class="st7" d="M46.106,65.436h0.738v4.453h-0.738V65.436z"/>
			<path class="st7" d="M49.717,69.889v-0.396c-0.219,0.262-0.555,0.463-1.044,0.463c-0.609,0-1.146-0.347-1.146-0.994V68.95
				c0-0.714,0.556-1.056,1.306-1.056c0.39,0,0.641,0.055,0.891,0.135v-0.061c0-0.445-0.281-0.689-0.794-0.689
				c-0.359,0-0.628,0.079-0.921,0.202l-0.201-0.592c0.354-0.158,0.702-0.269,1.226-0.269c0.951,0,1.415,0.501,1.415,1.36v1.909
				H49.717z M49.735,68.541c-0.189-0.073-0.451-0.128-0.738-0.128c-0.463,0-0.738,0.189-0.738,0.501v0.012
				c0,0.305,0.275,0.475,0.622,0.475c0.488,0,0.854-0.274,0.854-0.677V68.541z"/>
			<path class="st7" d="M53.121,65.619h0.697l2.287,2.953v-2.953h0.737v4.27h-0.628l-2.355-3.038v3.038h-0.738V65.619z"/>
			<path class="st7" d="M59.764,69.889v-0.396c-0.22,0.262-0.554,0.463-1.043,0.463c-0.61,0-1.147-0.347-1.147-0.994V68.95
				c0-0.714,0.555-1.056,1.306-1.056c0.39,0,0.641,0.055,0.891,0.135v-0.061c0-0.445-0.281-0.689-0.794-0.689
				c-0.359,0-0.628,0.079-0.921,0.202l-0.201-0.592c0.353-0.158,0.701-0.269,1.226-0.269c0.952,0,1.415,0.501,1.415,1.36v1.909
				H59.764z M59.783,68.541c-0.189-0.073-0.45-0.128-0.738-0.128c-0.464,0-0.738,0.189-0.738,0.501v0.012
				c0,0.305,0.274,0.475,0.622,0.475c0.489,0,0.854-0.274,0.854-0.677V68.541z"/>
			<path class="st7" d="M61.138,68.297v-0.012c0-0.915,0.707-1.684,1.671-1.684c0.609,0,0.987,0.226,1.287,0.555l-0.458,0.494
				c-0.226-0.238-0.463-0.403-0.836-0.403c-0.536,0-0.927,0.464-0.927,1.025v0.012c0,0.574,0.396,1.038,0.964,1.038
				c0.348,0,0.604-0.165,0.836-0.403l0.445,0.439c-0.316,0.354-0.689,0.604-1.318,0.604C61.844,69.963,61.138,69.212,61.138,68.297z
				"/>
			<path class="st7" d="M64.748,65.473h0.794v0.701h-0.794V65.473z M64.779,66.668h0.738v3.221h-0.738V66.668z"/>
			<path class="st7" d="M66.244,68.297v-0.012c0-0.921,0.731-1.684,1.72-1.684c0.988,0,1.714,0.75,1.714,1.671v0.012
				c0,0.916-0.732,1.678-1.726,1.678C66.969,69.963,66.244,69.212,66.244,68.297z M68.94,68.297v-0.012
				c0-0.567-0.409-1.037-0.988-1.037c-0.592,0-0.971,0.464-0.971,1.025v0.012c0,0.561,0.409,1.038,0.983,1.038
				C68.561,69.323,68.94,68.852,68.94,68.297z M68.298,65.259l0.672,0.299l-0.751,0.701h-0.555L68.298,65.259z"/>
			<path class="st7" d="M70.367,66.668h0.738v0.501c0.208-0.305,0.507-0.568,1.006-0.568c0.726,0,1.147,0.488,1.147,1.238v2.05
				H72.52v-1.83c0-0.5-0.249-0.786-0.689-0.786c-0.428,0-0.726,0.299-0.726,0.799v1.818h-0.738V66.668z"/>
		</g>
		<g>
			<g>
				<g>
					<path class="st7" d="M3.353,51.431l0.773-0.919c0.699,0.606,1.399,0.95,2.307,0.95c0.794,0,1.295-0.365,1.295-0.918v-0.021
						c0-0.522-0.293-0.804-1.65-1.117c-1.556-0.376-2.433-0.836-2.433-2.182v-0.021c0-1.253,1.044-2.119,2.495-2.119
						c1.065,0,1.91,0.324,2.652,0.918l-0.689,0.971c-0.657-0.491-1.315-0.752-1.983-0.752c-0.752,0-1.191,0.386-1.191,0.867v0.021
						c0,0.564,0.334,0.814,1.733,1.149c1.545,0.376,2.349,0.929,2.349,2.14v0.021c0,1.367-1.076,2.182-2.61,2.182
						C5.284,52.6,4.23,52.214,3.353,51.431z"/>
					<path class="st7" d="M9.869,49.76v-0.021c0-1.577,1.117-2.871,2.693-2.871c1.754,0,2.642,1.378,2.642,2.965
						c0,0.115-0.011,0.23-0.021,0.355h-4.051c0.136,0.898,0.773,1.399,1.587,1.399c0.616,0,1.054-0.23,1.493-0.658l0.741,0.658
						c-0.522,0.626-1.242,1.033-2.255,1.033C11.101,52.621,9.869,51.462,9.869,49.76z M13.951,49.353
						c-0.083-0.815-0.564-1.452-1.399-1.452c-0.773,0-1.316,0.595-1.43,1.452H13.951z"/>
					<path class="st7" d="M15.967,49.77V49.75c0-1.566,1.211-2.882,2.86-2.882c1.044,0,1.692,0.386,2.203,0.95l-0.783,0.846
						c-0.386-0.407-0.794-0.689-1.43-0.689c-0.919,0-1.587,0.793-1.587,1.754v0.021c0,0.981,0.679,1.775,1.65,1.775
						c0.595,0,1.034-0.282,1.43-0.689l0.762,0.752c-0.543,0.606-1.18,1.033-2.255,1.033C17.178,52.621,15.967,51.337,15.967,49.77z"
						/>
					<path class="st7" d="M22.024,46.983h1.263v1.242c0.344-0.824,0.982-1.389,1.952-1.347v1.336h-0.073
						c-1.107,0-1.879,0.72-1.879,2.182v2.099h-1.263V46.983z"/>
					<path class="st7" d="M25.825,49.76v-0.021c0-1.577,1.117-2.871,2.693-2.871c1.754,0,2.642,1.378,2.642,2.965
						c0,0.115-0.011,0.23-0.021,0.355h-4.051c0.136,0.898,0.773,1.399,1.587,1.399c0.616,0,1.054-0.23,1.493-0.658l0.741,0.658
						c-0.522,0.626-1.242,1.033-2.255,1.033C27.057,52.621,25.825,51.462,25.825,49.76z M29.907,49.353
						c-0.083-0.815-0.564-1.452-1.399-1.452c-0.773,0-1.316,0.595-1.43,1.452H29.907z"/>
					<path class="st7" d="M32.487,50.971v-2.902h-0.7v-1.086h0.7v-1.514h1.263v1.514h1.482v1.086h-1.482v2.704
						c0,0.491,0.25,0.689,0.679,0.689c0.282,0,0.532-0.063,0.783-0.188v1.034c-0.313,0.177-0.668,0.282-1.138,0.282
						C33.145,52.59,32.487,52.182,32.487,50.971z"/>
					<path class="st7" d="M39.671,52.495v-0.679c-0.376,0.449-0.95,0.793-1.785,0.793c-1.044,0-1.963-0.595-1.963-1.702v-0.021
						c0-1.222,0.95-1.806,2.234-1.806c0.668,0,1.096,0.094,1.524,0.23v-0.104c0-0.762-0.48-1.18-1.357-1.18
						c-0.616,0-1.076,0.135-1.577,0.344l-0.344-1.013c0.606-0.271,1.201-0.46,2.099-0.46c1.629,0,2.422,0.856,2.422,2.328v3.268
						H39.671z M39.702,50.188c-0.323-0.126-0.772-0.219-1.263-0.219c-0.794,0-1.263,0.323-1.263,0.856v0.021
						c0,0.522,0.47,0.815,1.065,0.815c0.835,0,1.462-0.47,1.462-1.159V50.188z"/>
					<path class="st7" d="M42.219,46.983h1.263v1.242c0.344-0.824,0.982-1.389,1.952-1.347v1.336h-0.073
						c-1.107,0-1.879,0.72-1.879,2.182v2.099h-1.263V46.983z"/>
					<path class="st7" d="M46.397,46.983h1.263v5.512h-1.263V46.983z M47.608,44.571l1.149,0.511l-1.284,1.2h-0.95L47.608,44.571z"
						/>
					<path class="st7" d="M52.474,52.495v-0.679c-0.376,0.449-0.95,0.793-1.785,0.793c-1.044,0-1.963-0.595-1.963-1.702v-0.021
						c0-1.222,0.95-1.806,2.235-1.806c0.668,0,1.096,0.094,1.524,0.23v-0.104c0-0.762-0.48-1.18-1.357-1.18
						c-0.616,0-1.076,0.135-1.577,0.344l-0.344-1.013c0.606-0.271,1.201-0.46,2.099-0.46c1.629,0,2.422,0.856,2.422,2.328v3.268
						H52.474z M52.505,50.188c-0.323-0.126-0.773-0.219-1.263-0.219c-0.794,0-1.263,0.323-1.263,0.856v0.021
						c0,0.522,0.47,0.815,1.065,0.815c0.835,0,1.462-0.47,1.462-1.159V50.188z"/>
					<path class="st7" d="M57.664,49.75v-0.021c0-1.827,1.243-2.86,2.558-2.86c0.908,0,1.483,0.459,1.879,0.971v-2.965h1.263v7.621
						h-1.263v-0.919c-0.407,0.575-0.982,1.034-1.879,1.034C58.927,52.61,57.664,51.576,57.664,49.75z M62.122,49.75v-0.021
						c0-1.065-0.751-1.764-1.597-1.764c-0.867,0-1.587,0.668-1.587,1.764v0.021c0,1.065,0.731,1.764,1.587,1.764
						C61.37,51.514,62.122,50.804,62.122,49.75z"/>
					<path class="st7" d="M64.431,49.76v-0.021c0-1.577,1.117-2.871,2.693-2.871c1.754,0,2.642,1.378,2.642,2.965
						c0,0.115-0.011,0.23-0.021,0.355h-4.051c0.136,0.898,0.773,1.399,1.587,1.399c0.616,0,1.054-0.23,1.493-0.658l0.741,0.658
						c-0.522,0.626-1.242,1.033-2.255,1.033C65.663,52.621,64.431,51.462,64.431,49.76z M68.513,49.353
						c-0.083-0.815-0.564-1.452-1.399-1.452c-0.773,0-1.316,0.595-1.43,1.452H68.513z"/>
					<path class="st7" d="M0.137,54.758h1.367l2.224,3.456l2.224-3.456h1.368v7.308H6.035v-5.241L3.728,60.27H3.686L1.4,56.845v5.22
						H0.137V54.758z"/>
					<path class="st7" d="M8.543,59.341V59.32c0-1.577,1.253-2.882,2.944-2.882c1.691,0,2.933,1.284,2.933,2.86v0.021
						c0,1.566-1.253,2.871-2.955,2.871C9.785,62.191,8.543,60.907,8.543,59.341z M13.158,59.341V59.32
						c0-0.971-0.7-1.775-1.692-1.775c-1.013,0-1.66,0.793-1.66,1.754v0.021c0,0.96,0.699,1.775,1.681,1.775
						C12.51,61.095,13.158,60.291,13.158,59.341z"/>
					<path class="st7" d="M15.216,59.32v-0.021c0-1.827,1.243-2.86,2.558-2.86c0.908,0,1.483,0.459,1.879,0.971v-2.965h1.263v7.621
						h-1.263v-0.919c-0.407,0.575-0.982,1.034-1.879,1.034C16.479,62.181,15.216,61.147,15.216,59.32z M19.674,59.32v-0.021
						c0-1.065-0.751-1.764-1.597-1.764c-0.867,0-1.587,0.668-1.587,1.764v0.021c0,1.065,0.731,1.764,1.587,1.764
						C18.922,61.084,19.674,60.375,19.674,59.32z"/>
					<path class="st7" d="M21.982,59.33V59.31c0-1.577,1.117-2.871,2.693-2.871c1.754,0,2.642,1.378,2.642,2.965
						c0,0.115-0.011,0.23-0.021,0.355h-4.05c0.135,0.898,0.772,1.399,1.587,1.399c0.616,0,1.054-0.23,1.493-0.658l0.741,0.658
						c-0.522,0.626-1.242,1.033-2.255,1.033C23.214,62.191,21.982,61.032,21.982,59.33z M26.064,58.923
						c-0.083-0.815-0.564-1.452-1.399-1.452c-0.773,0-1.316,0.595-1.43,1.452H26.064z"/>
					<path class="st7" d="M28.384,56.553h1.263v1.242c0.344-0.824,0.982-1.389,1.952-1.347v1.336h-0.073
						c-1.107,0-1.879,0.72-1.879,2.182v2.099h-1.263V56.553z"/>
					<path class="st7" d="M32.487,56.553h1.263v0.856c0.355-0.522,0.867-0.971,1.723-0.971c1.242,0,1.963,0.835,1.963,2.119v3.508
						h-1.263v-3.132c0-0.856-0.428-1.347-1.18-1.347c-0.731,0-1.242,0.511-1.242,1.367v3.111h-1.263V56.553z"/>
					<path class="st7" d="M38.774,54.507h1.357v1.201h-1.357V54.507z M38.826,56.553h1.263v5.512h-1.263V56.553z"/>
					<path class="st7" d="M41.28,61.199l3.184-3.612h-3.069v-1.034h4.677v0.867l-3.184,3.612h3.184v1.034H41.28V61.199z"/>
					<path class="st7" d="M50.542,62.066v-0.679c-0.376,0.449-0.95,0.793-1.785,0.793c-1.044,0-1.963-0.595-1.963-1.702v-0.021
						c0-1.222,0.951-1.806,2.235-1.806c0.668,0,1.096,0.094,1.524,0.23v-0.104c0-0.762-0.48-1.18-1.357-1.18
						c-0.616,0-1.076,0.135-1.577,0.344l-0.344-1.013c0.606-0.271,1.201-0.46,2.099-0.46c1.629,0,2.422,0.856,2.422,2.328v3.268
						H50.542z M50.573,59.759c-0.323-0.126-0.773-0.219-1.263-0.219c-0.794,0-1.263,0.323-1.263,0.856v0.021
						c0,0.522,0.47,0.815,1.065,0.815c0.835,0,1.462-0.47,1.462-1.159V59.759z"/>
					<path class="st7" d="M52.788,59.341V59.32c0-1.566,1.211-2.882,2.86-2.882c1.044,0,1.692,0.386,2.203,0.95l-0.783,0.846
						c-0.386-0.407-0.794-0.689-1.43-0.689c-0.919,0-1.587,0.793-1.587,1.754v0.021c0,0.981,0.679,1.775,1.65,1.775
						c0.595,0,1.034-0.282,1.43-0.689l0.762,0.752c-0.543,0.606-1.18,1.033-2.255,1.033C53.999,62.191,52.788,60.907,52.788,59.341z
						"/>
					<path class="st7" d="M58.866,54.507h1.357v1.201h-1.357V54.507z M58.918,56.553h1.263v5.512h-1.263V56.553z"/>
					<path class="st7" d="M61.319,59.341V59.32c0-1.577,1.253-2.882,2.944-2.882c1.691,0,2.933,1.284,2.933,2.86v0.021
						c0,1.566-1.253,2.871-2.955,2.871C62.562,62.191,61.319,60.907,61.319,59.341z M65.934,59.341V59.32
						c0-0.971-0.7-1.775-1.692-1.775c-1.013,0-1.66,0.793-1.66,1.754v0.021c0,0.96,0.7,1.775,1.681,1.775
						C65.287,61.095,65.934,60.291,65.934,59.341z M64.838,54.142l1.149,0.511l-1.284,1.2h-0.95L64.838,54.142z"/>
					<path class="st7" d="M68.274,56.553h1.263v0.856c0.355-0.522,0.867-0.971,1.723-0.971c1.242,0,1.963,0.835,1.963,2.119v3.508
						h-1.263v-3.132c0-0.856-0.428-1.347-1.18-1.347c-0.731,0-1.242,0.511-1.242,1.367v3.111h-1.263V56.553z"/>
				</g>
			</g>
		</g>
	</g>
</g>
</svg>
