<?xml version="1.0" encoding="utf-8"?>
<!-- Generator: Adobe Illustrator 23.0.2, SVG Export Plug-In . SVG Version: 6.00 Build 0)  -->
<svg version="1.1" id="Layer_1" xmlns="http://www.w3.org/2000/svg" xmlns:xlink="http://www.w3.org/1999/xlink" x="0px" y="0px"
	 viewBox="0 0 305.8 53" style="enable-background:new 0 0 305.8 53;" xml:space="preserve">
<style type="text/css">
	.st0{fill:#FFFFFF;}
</style>
<g>
	<g>
		<g>
			<g>
				<g>
					<g>
						<g>
							<g>
								<path class="st0" d="M55.1,27.7c0-0.1,0-0.3-0.1-0.4L43.9,14.1c1.7-2.9,1.5-6.8-0.9-9.6c-3.1-3.7-8.9-4.1-12.5-0.7
									c-3.3,3.1-3.5,8.5-0.5,11.8c2.4,2.6,6,3.4,9.2,2.3l8.3,10L42.1,35c-3.2-1.1-7-0.2-9.3,2.7c-3.1,3.8-2.4,9.5,1.6,12.4
									c3.7,2.6,9,1.8,11.7-1.8c2.1-2.8,2.2-6.5,0.6-9.5L55,28.3C55.1,28.1,55.2,27.9,55.1,27.7z M39.3,13.3
									c-1.9,1.6-4.6,1.3-6.2-0.6c-1.6-1.9-1.3-4.6,0.6-6.2s4.6-1.3,6.2,0.6C41.4,9,41.2,11.8,39.3,13.3z M42.8,45.9
									c-1.5,1.9-4.3,2.2-6.2,0.6c-1.9-1.5-2.2-4.3-0.6-6.2c1.5-1.9,4.3-2.2,6.2-0.6C44.1,41.2,44.3,44,42.8,45.9z"/>
							</g>
						</g>
						<g>
							<g>
								<path class="st0" d="M31.5,20.3c-1.8-0.9-3.4-2.2-4.6-3.9L12.1,35c-3.2-1.1-7-0.2-9.3,2.7c-3.1,3.8-2.4,9.5,1.6,12.4
									c3.7,2.6,9,1.8,11.7-1.8c2.1-2.8,2.2-6.5,0.6-9.5L31.5,20.3C31.5,20.3,31.5,20.3,31.5,20.3z M12.8,45.9
									c-1.5,1.9-4.3,2.2-6.2,0.6c-1.9-1.5-2.2-4.3-0.6-6.2s4.3-2.2,6.2-0.6C14.1,41.2,14.4,44,12.8,45.9z"/>
							</g>
						</g>
						<g>
							<g>
								<path class="st0" d="M82,37L82,37L70.5,23.4c1.7-2.9,1.5-6.8-0.8-9.6C66.5,10,60.8,9.6,57.2,13c-3.3,3.1-3.5,8.5-0.5,11.8
									c2.3,2.6,6,3.4,9.2,2.4l11.4,13.4c0,0,0,0,0,0c0,0,0,0,0,0C79.1,39.8,80.8,38.6,82,37z M65.8,22.6c-1.9,1.6-4.6,1.3-6.2-0.6
									c-1.6-1.9-1.3-4.6,0.6-6.2c1.9-1.6,4.6-1.3,6.2,0.6C68,18.3,67.7,21,65.8,22.6z M77.3,40.6c1.2-1.6,2.8-2.9,4.6-3.7
									C80.1,37.8,78.5,39,77.3,40.6z"/>
							</g>
						</g>
					</g>
				</g>
			</g>
		</g>
		<g>
			<path class="st0" d="M112.4,8.6h6.8l18.4,42h-7.7l-4.2-10.1h-19.7l-4.3,10.1H94L112.4,8.6z M122.9,34.1l-7.2-16.7l-7.1,16.7
				H122.9z"/>
			<path class="st0" d="M143.8,19.2h7.2V24c2-2.9,4.9-5.5,9.8-5.5c7.1,0,11.2,4.8,11.2,12v20.1h-7.2V32.7c0-4.9-2.4-7.7-6.7-7.7
				c-4.2,0-7.1,2.9-7.1,7.8v17.8h-7.2V19.2z"/>
			<path class="st0" d="M177.4,34.9v-0.1c0-10.4,7.1-16.3,14.6-16.3c5.2,0,8.5,2.6,10.7,5.5V7.1h7.2v43.5h-7.2v-5.2
				c-2.3,3.3-5.6,5.9-10.7,5.9C184.6,51.3,177.4,45.4,177.4,34.9z M202.8,34.9v-0.1c0-6.1-4.3-10.1-9.1-10.1
				c-4.9,0-9.1,3.8-9.1,10.1v0.1c0,6.1,4.2,10.1,9.1,10.1C198.5,45,202.8,41,202.8,34.9z"/>
			<path class="st0" d="M219.1,7.5h7.7v6.9h-7.7V7.5z M219.4,19.2h7.2v31.5h-7.2V19.2z"/>
			<path class="st0" d="M236,19.2h7.2V24c2-2.9,4.9-5.5,9.8-5.5c7.1,0,11.2,4.8,11.2,12v20.1H257V32.7c0-4.9-2.4-7.7-6.7-7.7
				c-4.2,0-7.1,2.9-7.1,7.8v17.8H236V19.2z"/>
			<path class="st0" d="M269.5,35.1v-0.1c0-9,7.2-16.4,16.8-16.4c9.7,0,16.7,7.3,16.7,16.3v0.1c0,8.9-7.1,16.4-16.9,16.4
				C276.5,51.3,269.5,44,269.5,35.1z M295.8,35.1v-0.1c0-5.5-4-10.1-9.7-10.1c-5.8,0-9.5,4.5-9.5,10v0.1c0,5.5,4,10.1,9.6,10.1
				C292.1,45,295.8,40.5,295.8,35.1z"/>
		</g>
	</g>
</g>
</svg>
