<?xml version="1.0" encoding="utf-8"?>
<!-- Generator: Adobe Illustrator 21.1.0, SVG Export Plug-In . SVG Version: 6.00 Build 0)  -->
<svg version="1.1" id="Layer_1" xmlns="http://www.w3.org/2000/svg" xmlns:xlink="http://www.w3.org/1999/xlink" x="0px" y="0px"
	 viewBox="0 0 42.8 31.1" style="enable-background:new 0 0 42.8 31.1;" xml:space="preserve">
<style type="text/css">
	.st0{fill:#FFFFFF;}
</style>
<g>
	<g>
		<path class="st0" d="M27,18.2c-1.3,0-2.3,1.4-2.3,3.2c0,1.8,1,3.2,2.3,3.2s2.3-1.4,2.3-3.2S28.3,18.2,27,18.2L27,18.2z M35,9.9
			c0.3-0.6,0.3-4.3-1.1-7.8c0,0-3.2,0.4-8,3.7c-1-0.3-2.7-0.4-4.4-0.4c-1.7,0-3.4,0.1-4.4,0.4c-4.8-3.3-8-3.7-8-3.7
			C7.5,5.6,7.5,9.3,7.8,9.9c-1.6,1.8-2.6,3.9-2.6,6.8c0,12.7,10.5,12.9,13.2,12.9c0.6,0,1.8,0,3.1,0c1.3,0,2.5,0,3.1,0
			c2.7,0,13.2-0.2,13.2-12.9C37.7,13.9,36.7,11.7,35,9.9L35,9.9z M21.5,28.1L21.5,28.1c-6.8,0-11.9-0.8-11.9-7.3
			c0-1.6,0.5-3,1.8-4.2c2.2-2,5.8-0.9,10-0.9l0,0l0,0c4.2,0,7.8-1.1,10,0.9c1.3,1.2,1.8,2.6,1.8,4.2C33.3,27.3,28.1,28.1,21.5,28.1
			L21.5,28.1z M15.8,18.2c-1.3,0-2.3,1.4-2.3,3.2c0,1.8,1,3.2,2.3,3.2s2.3-1.4,2.3-3.2S17.1,18.2,15.8,18.2L15.8,18.2z"/>
	</g>
</g>
</svg>
