<?xml version="1.0" encoding="utf-8"?>
<!-- Generator: Adobe Illustrator 21.1.0, SVG Export Plug-In . SVG Version: 6.00 Build 0)  -->
<svg version="1.1" id="Layer_1" xmlns="http://www.w3.org/2000/svg" xmlns:xlink="http://www.w3.org/1999/xlink" x="0px" y="0px"
	 viewBox="0 0 112.3 19.5" style="enable-background:new 0 0 112.3 19.5;" xml:space="preserve">
<style type="text/css">
	.st0{clip-path:url(#SVGID_2_);fill:url(#SVGID_3_);}
	.st1{clip-path:url(#SVGID_2_);}
	.st2{fill:url(#SVGID_4_);}
	.st3{fill:url(#SVGID_5_);}
	.st4{fill:url(#SVGID_6_);}
	.st5{fill:url(#SVGID_7_);}
	.st6{fill:url(#SVGID_8_);}
	.st7{fill:url(#SVGID_9_);}
	.st8{fill:url(#SVGID_10_);}
	.st9{fill:url(#SVGID_11_);}
	.st10{fill:url(#SVGID_12_);}
	.st11{fill:url(#SVGID_13_);}
	.st12{fill:url(#SVGID_14_);}
	.st13{fill:url(#SVGID_15_);}
	.st14{fill:url(#SVGID_16_);}
	.st15{fill:url(#SVGID_17_);}
	.st16{fill:url(#SVGID_18_);}
	.st17{fill:url(#SVGID_19_);}
	.st18{fill:url(#SVGID_20_);}
	.st19{fill:url(#SVGID_21_);}
	.st20{fill:url(#SVGID_22_);}
	.st21{fill:url(#SVGID_23_);}
	.st22{fill:url(#SVGID_24_);}
	.st23{fill:url(#SVGID_25_);}
	.st24{fill:url(#SVGID_26_);}
	.st25{fill:url(#SVGID_27_);}
	.st26{fill:url(#SVGID_28_);}
	.st27{fill:url(#SVGID_29_);}
	.st28{fill:url(#SVGID_30_);}
	.st29{clip-path:url(#SVGID_32_);}
	.st30{fill:url(#SVGID_33_);}
	.st31{opacity:0.3;}
	.st32{fill:none;}
	.st33{fill:#999999;}
	.st34{opacity:0.12;fill:#D1DAE8;}
	.st35{opacity:0.1;}
	.st36{fill:#FFFFFF;}
	.st37{fill:#E1F6FF;stroke:#9AC8E2;stroke-width:0.7588;stroke-miterlimit:10;}
	.st38{fill:#FFFFFF;stroke:#9AC8E2;stroke-width:0.7588;stroke-miterlimit:10;}
	.st39{opacity:0.2;}
	.st40{fill:#CBE8F4;stroke:#9AC8E2;stroke-width:0.75;stroke-miterlimit:10;}
	.st41{clip-path:url(#SVGID_35_);}
	.st42{fill:url(#SVGID_36_);}
	.st43{fill:url(#SVGID_37_);}
	.st44{fill:url(#SVGID_38_);}
	.st45{fill:url(#SVGID_39_);}
	.st46{fill:url(#SVGID_40_);}
	.st47{fill:url(#SVGID_41_);}
	.st48{fill:url(#SVGID_42_);}
	.st49{fill:url(#SVGID_43_);}
	.st50{fill:url(#SVGID_44_);}
	.st51{fill:url(#SVGID_45_);}
	.st52{fill:url(#SVGID_46_);}
	.st53{fill:url(#SVGID_47_);}
	.st54{fill:url(#SVGID_48_);}
	.st55{fill:url(#SVGID_49_);}
	.st56{fill:url(#SVGID_50_);}
	.st57{fill:url(#SVGID_51_);}
	.st58{fill:url(#SVGID_52_);}
	.st59{fill:url(#SVGID_53_);}
	.st60{fill:url(#SVGID_54_);}
	.st61{fill:url(#SVGID_55_);}
	.st62{fill:url(#SVGID_56_);}
	.st63{fill:url(#SVGID_57_);}
	.st64{fill:url(#SVGID_58_);}
	.st65{fill:url(#SVGID_59_);}
	.st66{fill:url(#SVGID_60_);}
	.st67{fill:url(#SVGID_61_);}
	.st68{fill:url(#SVGID_62_);}
	.st69{fill:url(#SVGID_63_);}
	.st70{fill:url(#SVGID_64_);}
	.st71{fill:url(#SVGID_65_);}
	.st72{fill:url(#SVGID_66_);}
	.st73{fill:url(#SVGID_67_);}
	.st74{fill:url(#SVGID_68_);}
	.st75{fill:url(#SVGID_69_);}
	.st76{fill:url(#SVGID_70_);}
	.st77{fill:url(#SVGID_71_);}
	.st78{fill:url(#SVGID_72_);}
	.st79{fill:url(#SVGID_73_);}
	.st80{fill:url(#SVGID_74_);}
	.st81{fill:url(#SVGID_75_);}
	.st82{fill:url(#SVGID_76_);}
	.st83{fill:url(#SVGID_77_);}
	.st84{fill:url(#SVGID_78_);}
	.st85{fill:url(#SVGID_79_);}
	.st86{fill:url(#SVGID_80_);}
	.st87{fill:url(#SVGID_81_);}
	.st88{fill:url(#SVGID_82_);}
	.st89{fill:url(#SVGID_83_);}
	.st90{fill:url(#SVGID_84_);}
	.st91{fill:url(#SVGID_85_);}
	.st92{fill:url(#SVGID_86_);}
	.st93{fill:url(#SVGID_87_);}
	.st94{fill:url(#SVGID_88_);}
	.st95{fill:url(#SVGID_89_);}
	.st96{fill:url(#SVGID_90_);}
	.st97{fill:url(#SVGID_91_);}
	.st98{fill:url(#SVGID_92_);}
	.st99{fill:url(#SVGID_93_);}
	.st100{fill:url(#SVGID_94_);}
	.st101{fill:url(#SVGID_95_);}
	.st102{fill:url(#SVGID_96_);}
	.st103{fill:url(#SVGID_97_);}
	.st104{fill:url(#SVGID_98_);}
	.st105{fill:url(#SVGID_99_);}
	.st106{fill:url(#SVGID_100_);}
	.st107{fill:url(#SVGID_101_);}
	.st108{fill:url(#SVGID_102_);}
	.st109{fill:url(#SVGID_103_);}
	.st110{fill:url(#SVGID_104_);}
	.st111{fill:url(#SVGID_105_);}
	.st112{fill:url(#SVGID_106_);}
	.st113{fill:url(#SVGID_107_);}
	.st114{fill:url(#SVGID_108_);}
	.st115{fill:url(#SVGID_109_);}
	.st116{fill:url(#SVGID_110_);}
	.st117{fill:url(#SVGID_111_);}
	.st118{fill:url(#SVGID_112_);}
	.st119{fill:url(#SVGID_113_);}
	.st120{fill:url(#SVGID_114_);}
	.st121{fill:url(#SVGID_115_);}
	.st122{fill:url(#SVGID_116_);}
	.st123{fill:url(#SVGID_117_);}
	.st124{fill:#777777;}
	.st125{enable-background:new    ;}
	.st126{fill:#E6E6E6;}
	.st127{fill:#BFBFBF;}
	.st128{clip-path:url(#SVGID_119_);}
	.st129{clip-path:url(#SVGID_123_);}
	.st130{clip-path:url(#SVGID_127_);}
	.st131{fill:#FB635E;}
	.st132{fill:#EEA126;}
	.st133{fill:#35CA4A;}
	.st134{fill:#CBCBCB;}
	.st135{clip-path:url(#SVGID_131_);}
	.st136{clip-path:url(#SVGID_135_);}
	.st137{clip-path:url(#SVGID_139_);}
	.st138{clip-path:url(#SVGID_143_);}
	.st139{clip-path:url(#SVGID_147_);}
	.st140{clip-path:url(#SVGID_151_);}
	.st141{clip-path:url(#SVGID_155_);}
	.st142{clip-path:url(#SVGID_159_);}
	.st143{clip-path:url(#SVGID_163_);}
	.st144{clip-path:url(#SVGID_167_);}
	.st145{clip-path:url(#SVGID_171_);}
	.st146{clip-path:url(#SVGID_175_);}
	.st147{clip-path:url(#SVGID_179_);}
	.st148{clip-path:url(#SVGID_183_);}
	.st149{clip-path:url(#SVGID_187_);}
	.st150{clip-path:url(#SVGID_191_);}
	.st151{clip-path:url(#SVGID_195_);}
	.st152{clip-path:url(#SVGID_199_);}
	.st153{clip-path:url(#SVGID_203_);}
	.st154{clip-path:url(#SVGID_207_);}
	.st155{clip-path:url(#SVGID_211_);}
	.st156{clip-path:url(#SVGID_215_);}
	.st157{clip-path:url(#SVGID_219_);}
	.st158{clip-path:url(#SVGID_223_);}
	.st159{clip-path:url(#SVGID_227_);}
	.st160{fill:#CCCCCC;}
	.st161{clip-path:url(#SVGID_231_);}
	.st162{clip-path:url(#SVGID_235_);}
	.st163{clip-path:url(#SVGID_239_);}
	.st164{clip-path:url(#SVGID_243_);}
	.st165{clip-path:url(#SVGID_247_);}
	.st166{clip-path:url(#SVGID_251_);}
	.st167{clip-path:url(#SVGID_255_);}
	.st168{clip-path:url(#SVGID_259_);}
	.st169{clip-path:url(#SVGID_263_);}
	.st170{clip-path:url(#SVGID_267_);}
	.st171{fill:#2B86C1;}
	.st172{clip-path:url(#SVGID_271_);}
	.st173{clip-path:url(#SVGID_275_);}
	.st174{clip-path:url(#SVGID_279_);}
	.st175{clip-path:url(#SVGID_283_);}
	.st176{fill:#0072BC;}
	.st177{clip-path:url(#SVGID_287_);}
	.st178{clip-path:url(#SVGID_291_);}
	.st179{clip-path:url(#SVGID_295_);}
	.st180{clip-path:url(#SVGID_299_);}
	.st181{clip-path:url(#SVGID_303_);}
	.st182{clip-path:url(#SVGID_307_);}
	.st183{clip-path:url(#SVGID_311_);}
	.st184{clip-path:url(#SVGID_315_);}
	.st185{clip-path:url(#SVGID_319_);}
	.st186{clip-path:url(#SVGID_323_);}
	.st187{clip-path:url(#SVGID_327_);}
	.st188{clip-path:url(#SVGID_331_);}
	.st189{clip-path:url(#SVGID_335_);}
	.st190{clip-path:url(#SVGID_339_);}
	.st191{clip-path:url(#SVGID_343_);}
	.st192{clip-path:url(#SVGID_347_);}
	.st193{clip-path:url(#SVGID_351_);}
	.st194{clip-path:url(#SVGID_355_);}
	.st195{clip-path:url(#SVGID_359_);}
	.st196{fill:#F2F2F2;}
	.st197{clip-path:url(#SVGID_363_);}
	.st198{clip-path:url(#SVGID_367_);}
	.st199{clip-path:url(#SVGID_371_);}
	.st200{clip-path:url(#SVGID_375_);}
	.st201{clip-path:url(#SVGID_379_);}
	.st202{clip-path:url(#SVGID_383_);}
	.st203{clip-path:url(#SVGID_387_);}
	.st204{clip-path:url(#SVGID_391_);}
	.st205{clip-path:url(#SVGID_395_);}
	.st206{clip-path:url(#SVGID_399_);}
	.st207{clip-path:url(#SVGID_403_);}
	.st208{clip-path:url(#SVGID_407_);}
	.st209{clip-path:url(#SVGID_411_);}
	.st210{clip-path:url(#SVGID_415_);}
	.st211{clip-path:url(#SVGID_419_);}
	.st212{clip-path:url(#SVGID_423_);}
	.st213{clip-path:url(#SVGID_427_);}
	.st214{clip-path:url(#SVGID_431_);}
	.st215{clip-path:url(#SVGID_435_);}
	.st216{clip-path:url(#SVGID_439_);}
	.st217{clip-path:url(#SVGID_443_);}
	.st218{clip-path:url(#SVGID_447_);}
	.st219{clip-path:url(#SVGID_451_);}
	.st220{clip-path:url(#SVGID_455_);}
	.st221{clip-path:url(#SVGID_459_);}
	.st222{clip-path:url(#SVGID_463_);}
	.st223{clip-path:url(#SVGID_467_);}
	.st224{clip-path:url(#SVGID_471_);}
	.st225{clip-path:url(#SVGID_475_);}
	.st226{clip-path:url(#SVGID_479_);}
	.st227{clip-path:url(#SVGID_483_);}
	.st228{clip-path:url(#SVGID_487_);}
	.st229{clip-path:url(#SVGID_491_);}
	.st230{clip-path:url(#SVGID_495_);}
	.st231{clip-path:url(#SVGID_499_);}
	.st232{clip-path:url(#SVGID_503_);}
	.st233{clip-path:url(#SVGID_507_);}
	.st234{clip-path:url(#SVGID_511_);}
	.st235{clip-path:url(#SVGID_515_);}
	.st236{clip-path:url(#SVGID_519_);}
	.st237{clip-path:url(#SVGID_523_);}
	.st238{clip-path:url(#SVGID_527_);}
	.st239{clip-path:url(#SVGID_531_);}
	.st240{clip-path:url(#SVGID_535_);}
	.st241{clip-path:url(#SVGID_539_);}
	.st242{clip-path:url(#SVGID_543_);}
	.st243{clip-path:url(#SVGID_547_);}
	.st244{clip-path:url(#SVGID_551_);}
	.st245{clip-path:url(#SVGID_555_);}
	.st246{clip-path:url(#SVGID_559_);}
	.st247{clip-path:url(#SVGID_563_);}
	.st248{clip-path:url(#SVGID_567_);}
	.st249{clip-path:url(#SVGID_571_);}
	.st250{clip-path:url(#SVGID_575_);}
	.st251{clip-path:url(#SVGID_579_);}
	.st252{clip-path:url(#SVGID_583_);}
	.st253{clip-path:url(#SVGID_587_);}
	.st254{clip-path:url(#SVGID_591_);}
	.st255{clip-path:url(#SVGID_595_);}
	.st256{clip-path:url(#SVGID_599_);}
	.st257{clip-path:url(#SVGID_603_);}
	.st258{clip-path:url(#SVGID_607_);}
	.st259{clip-path:url(#SVGID_611_);}
	.st260{clip-path:url(#SVGID_615_);}
	.st261{clip-path:url(#SVGID_619_);}
	.st262{clip-path:url(#SVGID_623_);}
	.st263{clip-path:url(#SVGID_627_);}
	.st264{clip-path:url(#SVGID_631_);}
	.st265{clip-path:url(#SVGID_635_);}
	.st266{clip-path:url(#SVGID_639_);}
	.st267{clip-path:url(#SVGID_643_);}
	.st268{clip-path:url(#SVGID_647_);}
	.st269{clip-path:url(#SVGID_651_);}
	.st270{clip-path:url(#SVGID_655_);}
	.st271{fill:#69818E;}
	.st272{clip-path:url(#SVGID_659_);}
	.st273{clip-path:url(#SVGID_663_);}
	.st274{clip-path:url(#SVGID_667_);}
	.st275{clip-path:url(#SVGID_671_);}
	.st276{clip-path:url(#SVGID_675_);}
	.st277{clip-path:url(#SVGID_679_);}
	.st278{clip-path:url(#SVGID_683_);}
	.st279{fill:#1E90DA;}
	.st280{clip-path:url(#SVGID_687_);}
	.st281{clip-path:url(#SVGID_691_);}
	.st282{clip-path:url(#SVGID_695_);}
	.st283{fill:#4E697B;}
	.st284{fill:#7E7E7E;}
	.st285{clip-path:url(#SVGID_699_);}
	.st286{clip-path:url(#SVGID_703_);}
	.st287{clip-path:url(#SVGID_707_);}
	.st288{clip-path:url(#SVGID_711_);}
	.st289{clip-path:url(#SVGID_715_);}
	.st290{clip-path:url(#SVGID_719_);}
	.st291{clip-path:url(#SVGID_723_);}
	.st292{clip-path:url(#SVGID_727_);}
	.st293{clip-path:url(#SVGID_731_);}
	.st294{clip-path:url(#SVGID_735_);}
	.st295{clip-path:url(#SVGID_739_);}
	.st296{clip-path:url(#SVGID_743_);}
	.st297{clip-path:url(#SVGID_747_);}
	.st298{clip-path:url(#SVGID_751_);}
	.st299{clip-path:url(#SVGID_755_);}
	.st300{clip-path:url(#SVGID_759_);}
	.st301{clip-path:url(#SVGID_763_);}
	.st302{clip-path:url(#SVGID_767_);}
	.st303{clip-path:url(#SVGID_771_);}
	.st304{clip-path:url(#SVGID_775_);}
	.st305{clip-path:url(#SVGID_779_);}
	.st306{clip-path:url(#SVGID_783_);}
	.st307{clip-path:url(#SVGID_787_);}
	.st308{clip-path:url(#SVGID_791_);}
	.st309{clip-path:url(#SVGID_795_);}
	.st310{clip-path:url(#SVGID_799_);}
	.st311{clip-path:url(#SVGID_803_);}
	.st312{clip-path:url(#SVGID_807_);}
	.st313{clip-path:url(#SVGID_811_);}
	.st314{clip-path:url(#SVGID_815_);}
	.st315{clip-path:url(#SVGID_819_);}
	.st316{clip-path:url(#SVGID_823_);}
	.st317{clip-path:url(#SVGID_827_);}
	.st318{clip-path:url(#SVGID_831_);}
	.st319{clip-path:url(#SVGID_835_);}
	.st320{clip-path:url(#SVGID_839_);}
	.st321{clip-path:url(#SVGID_843_);}
	.st322{clip-path:url(#SVGID_847_);}
	.st323{clip-path:url(#SVGID_851_);}
	.st324{clip-path:url(#SVGID_855_);}
	.st325{clip-path:url(#SVGID_859_);}
	.st326{opacity:0.2;fill:#5D5D5D;}
	.st327{clip-path:url(#SVGID_863_);}
	.st328{clip-path:url(#SVGID_867_);}
	.st329{clip-path:url(#SVGID_871_);}
	.st330{fill:none;stroke:#9AC8E2;stroke-width:0.75;stroke-miterlimit:10;}
	.st331{fill:#FFFFFF;stroke:#9AC8E2;stroke-width:0.75;stroke-miterlimit:10;}
	.st332{opacity:0.7;fill:#FFFFFF;stroke:#9AC8E2;stroke-width:0.75;stroke-miterlimit:10;enable-background:new    ;}
	.st333{fill:none;stroke:#9AC8E2;stroke-width:0.75;stroke-linecap:round;stroke-miterlimit:10;}
	.st334{fill:#92C2DD;stroke:#9AC8E2;stroke-width:0.75;stroke-miterlimit:10;}
	.st335{fill:#FB635E;stroke:#9AC8E2;stroke-width:0.75;stroke-miterlimit:10;}
	.st336{fill:#EEA126;stroke:#9AC8E2;stroke-width:0.75;stroke-miterlimit:10;}
	.st337{fill:#35CA4A;stroke:#9AC8E2;stroke-width:0.75;stroke-miterlimit:10;}
	.st338{fill:#E1F6FF;stroke:#9AC8E2;stroke-width:0.75;stroke-miterlimit:10;}
	.st339{fill:#E9F8FF;stroke:#9AC8E2;stroke-width:0.75;stroke-miterlimit:10;}
	.st340{fill:none;stroke:#9AC8E2;stroke-width:0.75;stroke-linecap:round;stroke-linejoin:round;stroke-miterlimit:10;}
	.st341{fill:none;stroke:#9AC8E2;stroke-width:0.5;stroke-miterlimit:10;}
	.st342{fill:#9AC8E2;}
	.st343{opacity:0.75;fill:url(#SVGID_874_);}
	.st344{opacity:0.7;clip-path:url(#SVGID_876_);fill:url(#SVGID_877_);}
	.st345{clip-path:url(#SVGID_879_);}
	.st346{clip-path:url(#SVGID_881_);}
	.st347{clip-path:url(#SVGID_883_);fill:url(#SVGID_884_);}
	.st348{opacity:8.000180e-02;clip-path:url(#SVGID_886_);}
	.st349{clip-path:url(#SVGID_888_);}
	.st350{clip-path:url(#SVGID_890_);fill:url(#SVGID_891_);}
	.st351{clip-path:url(#SVGID_893_);fill:url(#SVGID_894_);}
	.st352{clip-path:url(#SVGID_896_);fill:url(#SVGID_897_);}
	.st353{clip-path:url(#SVGID_888_);fill:url(#SVGID_898_);}
	.st354{clip-path:url(#SVGID_900_);fill:url(#SVGID_901_);}
	.st355{clip-path:url(#SVGID_903_);fill:url(#SVGID_904_);}
	.st356{clip-path:url(#SVGID_888_);fill:url(#SVGID_905_);}
	.st357{clip-path:url(#SVGID_888_);fill:url(#SVGID_906_);}
	.st358{clip-path:url(#SVGID_888_);fill:url(#SVGID_907_);}
	.st359{clip-path:url(#SVGID_909_);fill:url(#SVGID_910_);}
	.st360{clip-path:url(#SVGID_912_);fill:url(#SVGID_913_);}
	.st361{clip-path:url(#SVGID_915_);fill:url(#SVGID_916_);}
	.st362{clip-path:url(#SVGID_918_);fill:url(#SVGID_919_);}
	.st363{clip-path:url(#SVGID_921_);fill:url(#SVGID_922_);}
	.st364{clip-path:url(#SVGID_924_);fill:url(#SVGID_925_);}
	.st365{clip-path:url(#SVGID_927_);fill:url(#SVGID_928_);}
	.st366{clip-path:url(#SVGID_888_);fill:url(#SVGID_929_);}
	.st367{clip-path:url(#SVGID_931_);fill:url(#SVGID_932_);}
	.st368{clip-path:url(#SVGID_934_);fill:url(#SVGID_935_);}
	.st369{clip-path:url(#SVGID_937_);fill:url(#SVGID_938_);}
	.st370{clip-path:url(#SVGID_940_);fill:url(#SVGID_941_);}
	.st371{clip-path:url(#SVGID_943_);fill:url(#SVGID_944_);}
	.st372{clip-path:url(#SVGID_888_);fill:url(#SVGID_945_);}
	.st373{clip-path:url(#SVGID_888_);fill:url(#SVGID_946_);}
	.st374{clip-path:url(#SVGID_888_);fill:url(#SVGID_947_);}
	.st375{clip-path:url(#SVGID_888_);fill:url(#SVGID_948_);}
	.st376{clip-path:url(#SVGID_888_);fill:url(#SVGID_949_);}
	.st377{clip-path:url(#SVGID_951_);fill:url(#SVGID_952_);}
	.st378{clip-path:url(#SVGID_888_);fill:url(#SVGID_953_);}
	.st379{clip-path:url(#SVGID_888_);fill:url(#SVGID_954_);}
	.st380{clip-path:url(#SVGID_888_);fill:url(#SVGID_955_);}
	.st381{clip-path:url(#SVGID_888_);fill:url(#SVGID_956_);}
	.st382{clip-path:url(#SVGID_888_);fill:url(#SVGID_957_);}
	.st383{clip-path:url(#SVGID_888_);fill:url(#SVGID_958_);}
	.st384{clip-path:url(#SVGID_888_);fill:url(#SVGID_959_);}
	.st385{clip-path:url(#SVGID_888_);fill:url(#SVGID_960_);}
	.st386{opacity:0.25;clip-path:url(#SVGID_886_);}
	.st387{clip-path:url(#SVGID_962_);}
	.st388{clip-path:url(#SVGID_964_);fill:url(#SVGID_965_);}
	.st389{clip-path:url(#SVGID_967_);fill:url(#SVGID_968_);}
	.st390{clip-path:url(#SVGID_970_);fill:url(#SVGID_971_);}
	.st391{clip-path:url(#SVGID_973_);fill:url(#SVGID_974_);}
	.st392{clip-path:url(#SVGID_976_);fill:url(#SVGID_977_);}
	.st393{clip-path:url(#SVGID_979_);fill:url(#SVGID_980_);}
	.st394{clip-path:url(#SVGID_982_);fill:url(#SVGID_983_);}
	.st395{clip-path:url(#SVGID_985_);fill:url(#SVGID_986_);}
	.st396{clip-path:url(#SVGID_988_);fill:url(#SVGID_989_);}
	.st397{clip-path:url(#SVGID_991_);fill:url(#SVGID_992_);}
	.st398{clip-path:url(#SVGID_994_);fill:url(#SVGID_995_);}
	.st399{clip-path:url(#SVGID_997_);fill:url(#SVGID_998_);}
	.st400{filter:url(#Adobe_OpacityMaskFilter);}
	.st401{opacity:0.75;clip-path:url(#SVGID_962_);mask:url(#SVGID_999_);}
	.st402{clip-path:url(#SVGID_1003_);fill:#D5D5D5;}
	.st403{opacity:0.4;clip-path:url(#SVGID_886_);}
	.st404{clip-path:url(#SVGID_1005_);fill:url(#SVGID_1006_);}
	.st405{clip-path:url(#SVGID_1008_);fill:url(#SVGID_1009_);}
	.st406{clip-path:url(#SVGID_1011_);fill:url(#SVGID_1012_);}
	.st407{clip-path:url(#SVGID_1014_);fill:url(#SVGID_1015_);}
	.st408{clip-path:url(#SVGID_1017_);fill:url(#SVGID_1018_);}
	.st409{fill:#EECD6E;}
	.st410{clip-path:url(#SVGID_1020_);fill:#FFFFFF;}
	.st411{clip-path:url(#SVGID_1020_);fill:#F4F6F9;}
	.st412{clip-path:url(#SVGID_1020_);fill:#252225;}
	.st413{clip-path:url(#SVGID_1020_);fill:#E1C16A;}
	.st414{clip-path:url(#SVGID_1020_);fill:#55925E;}
	.st415{clip-path:url(#SVGID_1020_);fill:#D6AE7D;}
	.st416{clip-path:url(#SVGID_1020_);fill:#5183A9;}
	.st417{clip-path:url(#SVGID_1020_);fill:#AD422D;}
	.st418{opacity:0.5;clip-path:url(#SVGID_1020_);}
	.st419{clip-path:url(#SVGID_1022_);fill:url(#SVGID_1023_);}
	.st420{clip-path:url(#SVGID_1025_);}
	.st421{fill:url(#SVGID_1026_);}
	.st422{opacity:0.7;clip-path:url(#SVGID_1028_);fill:url(#SVGID_1029_);}
	.st423{clip-path:url(#SVGID_1031_);}
	.st424{fill:none;stroke:#BCDBED;stroke-miterlimit:10;}
	.st425{fill:#8BDEF7;stroke:#9AC8E2;stroke-width:0.7588;stroke-miterlimit:10;}
	.st426{fill:#B7E7F9;stroke:#9AC8E2;stroke-width:0.7588;stroke-miterlimit:10;}
	.st427{fill:none;stroke:url(#SVGID_1032_);stroke-miterlimit:10;}
	.st428{fill:none;stroke:url(#SVGID_1033_);stroke-miterlimit:10;}
	.st429{fill:#FFFFFF;stroke:#9AC8E2;stroke-width:0.4598;stroke-miterlimit:10;}
	.st430{fill:#FB635E;stroke:#9AC8E2;stroke-width:0.4598;stroke-miterlimit:10;}
	.st431{fill:#EEA126;stroke:#9AC8E2;stroke-width:0.4598;stroke-miterlimit:10;}
	.st432{fill:#35CA4A;stroke:#9AC8E2;stroke-width:0.4598;stroke-miterlimit:10;}
	.st433{opacity:0.75;fill:url(#SVGID_1034_);}
	.st434{fill:#073F69;}
	.st435{opacity:0.7;}
	.st436{fill:none;stroke:#777777;stroke-width:10.7802;stroke-miterlimit:10;}
	.st437{fill:#CEE3ED;}
	.st438{fill:#BCDBED;}
	.st439{fill:#8CC6ED;}
	.st440{fill:#DFEAEF;}
	.st441{fill:none;stroke:#056696;stroke-width:3.1706;stroke-miterlimit:10;}
	.st442{fill:#056696;}
	.st443{fill:none;stroke:#056696;stroke-width:3.1706;stroke-miterlimit:10;stroke-dasharray:7.5807,7.5807;}
	.st444{fill:none;stroke:#056696;stroke-width:3.1706;stroke-miterlimit:10;stroke-dasharray:7.2932,7.2932;}
	.st445{fill:none;stroke:#056696;stroke-width:3.1706;stroke-miterlimit:10;stroke-dasharray:7.4095,7.4095;}
	.st446{fill:#FFFFFF;stroke:#056696;stroke-width:3.1706;stroke-miterlimit:10;}
	.st447{fill:#FFFFFF;stroke:#87BCCC;stroke-width:3.1706;stroke-miterlimit:10;}
	.st448{fill:none;stroke:#BCDBED;stroke-width:3.8048;stroke-miterlimit:10;}
	.st449{fill:#D8D8D8;}
	.st450{fill:#87BCCC;}
	.st451{fill:url(#SVGID_1035_);}
	.st452{fill:url(#SVGID_1036_);}
	.st453{fill:url(#SVGID_1037_);}
	.st454{fill:url(#SVGID_1038_);}
	.st455{fill:url(#SVGID_1039_);}
	.st456{fill:url(#SVGID_1040_);}
	.st457{fill:url(#SVGID_1041_);}
	.st458{fill:url(#SVGID_1042_);}
	.st459{fill:url(#SVGID_1043_);}
	.st460{fill:url(#SVGID_1044_);}
	.st461{fill:url(#SVGID_1045_);}
	.st462{fill:url(#SVGID_1046_);}
	.st463{fill:url(#SVGID_1047_);}
	.st464{fill:url(#SVGID_1048_);}
	.st465{fill:url(#SVGID_1049_);}
	.st466{fill:url(#SVGID_1050_);}
	.st467{fill:url(#SVGID_1051_);}
	.st468{fill:url(#SVGID_1052_);}
	.st469{fill:none;stroke:url(#SVGID_1053_);stroke-miterlimit:10;}
	.st470{fill:none;stroke:url(#SVGID_1054_);stroke-miterlimit:10;}
	.st471{fill:none;stroke:url(#SVGID_1055_);stroke-miterlimit:10;}
	.st472{fill:none;stroke:url(#SVGID_1056_);stroke-miterlimit:10;}
	.st473{fill:none;stroke:url(#SVGID_1057_);stroke-miterlimit:10;}
	.st474{fill:none;stroke:url(#SVGID_1058_);stroke-miterlimit:10;}
	.st475{fill:none;stroke:url(#SVGID_1059_);stroke-miterlimit:10;}
	.st476{fill:none;stroke:url(#SVGID_1060_);stroke-miterlimit:10;}
	.st477{fill:none;stroke:url(#SVGID_1061_);stroke-miterlimit:10;}
	.st478{fill:none;stroke:url(#SVGID_1062_);stroke-miterlimit:10;}
	.st479{fill:#1D62A8;}
	.st480{fill:none;stroke:#BCDBED;stroke-width:0.9098;stroke-miterlimit:10;}
	.st481{fill:#3F8ECE;}
	.st482{fill:#222220;}
	.st483{fill:#EDC015;}
	.st484{fill:#5D9942;}
	.st485{fill:#C5351A;}
	.st486{fill:#EABF83;}
	.st487{fill:none;stroke:url(#SVGID_1063_);stroke-miterlimit:10;}
	.st488{fill:none;stroke:url(#SVGID_1064_);stroke-miterlimit:10;}
	.st489{fill:none;stroke:url(#SVGID_1065_);stroke-miterlimit:10;}
	.st490{fill:none;stroke:url(#SVGID_1066_);stroke-miterlimit:10;}
	.st491{fill:none;stroke:url(#SVGID_1067_);stroke-miterlimit:10;}
	.st492{fill:none;stroke:url(#SVGID_1068_);stroke-miterlimit:10;}
	.st493{fill:none;stroke:url(#SVGID_1069_);stroke-miterlimit:10;}
	.st494{fill:none;stroke:url(#SVGID_1070_);stroke-miterlimit:10;}
	.st495{fill:none;stroke:url(#SVGID_1071_);stroke-miterlimit:10;}
	.st496{fill:none;stroke:url(#SVGID_1072_);stroke-miterlimit:10;}
	.st497{fill:none;stroke:url(#SVGID_1073_);stroke-miterlimit:10;}
	.st498{fill:none;stroke:url(#SVGID_1074_);stroke-miterlimit:10;}
	.st499{fill:none;stroke:url(#SVGID_1075_);stroke-miterlimit:10;}
	.st500{fill:none;stroke:url(#SVGID_1076_);stroke-miterlimit:10;}
	.st501{fill:none;stroke:url(#SVGID_1077_);stroke-miterlimit:10;}
	.st502{fill:none;stroke:url(#SVGID_1078_);stroke-miterlimit:10;}
	.st503{clip-path:url(#SVGID_1080_);}
	.st504{opacity:0.25;fill:#8CC6ED;}
	.st505{opacity:0.6;fill:#056696;}
	.st506{opacity:0.8;fill:#8CC6ED;}
	.st507{opacity:0.5;fill:#8CC6ED;}
	.st508{opacity:0.4;fill:#87BCCC;}
</style>
<g>
	<g>
		<g>
			<linearGradient id="SVGID_2_" gradientUnits="userSpaceOnUse" x1="35.6699" y1="11.0328" x2="51.4779" y2="11.0328">
				<stop  offset="0" style="stop-color:#073F69"/>
				<stop  offset="1" style="stop-color:#00133C"/>
			</linearGradient>
			<path style="fill:url(#SVGID_2_);" d="M48.3,19.1c-0.2-0.6-0.4-1.3-0.7-1.9c-0.2-0.6-0.5-1.3-0.7-1.9h-6.9
				c-0.2,0.7-0.4,1.3-0.7,1.9c-0.2,0.6-0.5,1.3-0.7,1.9h-3.1c0.6-1.7,1.2-3.3,1.7-4.8c0.5-1.5,1.1-2.9,1.6-4.2
				c0.5-1.3,1-2.6,1.6-3.7c0.5-1.1,1-2.2,1.5-3.3c0.1-0.2,0.2-0.2,0.4-0.2h2.3c0.2,0,0.3,0.1,0.4,0.2c0.5,1.1,1,2.2,1.5,3.3
				c0.5,1.2,1,2.4,1.6,3.7c0.5,1.3,1.1,2.7,1.6,4.2c0.6,1.5,1.1,3.1,1.7,4.8H48.3z M43.5,6.1c-0.4,0.8-0.8,1.8-1.2,3
				c-0.5,1.2-0.9,2.5-1.4,3.9h5.3c-0.5-1.4-1-2.7-1.5-3.9C44.3,7.9,43.8,6.9,43.5,6.1z"/>
			<linearGradient id="SVGID_3_" gradientUnits="userSpaceOnUse" x1="53.3736" y1="12.8945" x2="63.6069" y2="12.8945">
				<stop  offset="0" style="stop-color:#073F69"/>
				<stop  offset="1" style="stop-color:#00133C"/>
			</linearGradient>
			<path style="fill:url(#SVGID_3_);" d="M53.4,7.6c0-0.2,0.1-0.4,0.3-0.4c0.5-0.1,1.1-0.2,1.8-0.4c0.9-0.1,1.8-0.2,2.9-0.2
				c1,0,1.8,0.1,2.5,0.4c0.7,0.3,1.2,0.7,1.6,1.1s0.7,1.1,0.8,1.8c0.2,0.7,0.2,1.5,0.2,2.3v6.9h-2.8v-6.4c0-0.7,0-1.2-0.1-1.7
				c-0.1-0.5-0.2-0.8-0.4-1.1c-0.2-0.3-0.5-0.5-0.8-0.6c-0.3-0.1-0.7-0.2-1.2-0.2c-0.4,0-0.7,0-1.1,0.1c-0.4,0-0.7,0.1-0.9,0.1v9.9
				h-2.8V7.6z"/>
			<linearGradient id="SVGID_4_" gradientUnits="userSpaceOnUse" x1="66.3934" y1="10.2516" x2="77.4226" y2="10.2516">
				<stop  offset="0" style="stop-color:#073F69"/>
				<stop  offset="1" style="stop-color:#00133C"/>
			</linearGradient>
			<path class="st2" d="M77.4,18.8c-0.6,0.2-1.3,0.3-2.1,0.5c-0.9,0.1-1.7,0.2-2.7,0.2c-1,0-1.8-0.1-2.6-0.4c-0.8-0.3-1.4-0.7-2-1.3
				c-0.5-0.6-1-1.2-1.2-2c-0.3-0.8-0.4-1.7-0.4-2.7c0-1,0.1-1.8,0.4-2.6c0.2-0.8,0.6-1.5,1.1-2c0.5-0.6,1-1,1.7-1.3
				c0.7-0.3,1.4-0.5,2.3-0.5c0.6,0,1.1,0.1,1.6,0.2c0.5,0.1,0.8,0.3,1.2,0.5V1.8c0-0.2,0.2-0.4,0.4-0.4l2-0.3c0.3,0,0.5,0.2,0.5,0.4
				V18.8z M69.3,13c0,1.2,0.3,2.2,0.9,2.9c0.6,0.7,1.4,1.1,2.5,1.1c0.5,0,0.8,0,1.2-0.1c0.3,0,0.6-0.1,0.8-0.1v-7
				c-0.2-0.2-0.6-0.3-1-0.5c-0.4-0.1-0.9-0.2-1.3-0.2c-1,0-1.8,0.4-2.3,1.1C69.5,10.8,69.3,11.8,69.3,13z"/>
			<linearGradient id="SVGID_5_" gradientUnits="userSpaceOnUse" x1="80.7008" y1="10.3536" x2="84.1901" y2="10.3536">
				<stop  offset="0" style="stop-color:#073F69"/>
				<stop  offset="1" style="stop-color:#00133C"/>
			</linearGradient>
			<path class="st3" d="M84.2,3.3c0,0.5-0.2,1-0.5,1.3C83.3,4.9,82.9,5,82.5,5c-0.5,0-0.9-0.2-1.2-0.5c-0.3-0.3-0.5-0.7-0.5-1.3
				c0-0.5,0.2-1,0.5-1.3s0.8-0.5,1.2-0.5c0.5,0,0.9,0.2,1.2,0.5C84,2.3,84.2,2.8,84.2,3.3z M83.9,19.1h-2.8V7.3
				c0-0.2,0.2-0.4,0.4-0.4h2c0.2,0,0.4,0.2,0.4,0.4V19.1z"/>
			<linearGradient id="SVGID_6_" gradientUnits="userSpaceOnUse" x1="87.4913" y1="12.8945" x2="97.7247" y2="12.8945">
				<stop  offset="0" style="stop-color:#073F69"/>
				<stop  offset="1" style="stop-color:#00133C"/>
			</linearGradient>
			<path class="st4" d="M87.5,7.6c0-0.2,0.1-0.4,0.3-0.4c0.5-0.1,1.1-0.2,1.8-0.4c0.9-0.1,1.8-0.2,2.9-0.2c1,0,1.8,0.1,2.5,0.4
				c0.7,0.3,1.2,0.7,1.6,1.1c0.4,0.5,0.7,1.1,0.8,1.8c0.2,0.7,0.2,1.5,0.2,2.3v6.9h-2.8v-6.4c0-0.7,0-1.2-0.1-1.7
				c-0.1-0.5-0.2-0.8-0.4-1.1c-0.2-0.3-0.5-0.5-0.8-0.6c-0.3-0.1-0.7-0.2-1.2-0.2c-0.4,0-0.7,0-1.1,0.1c-0.4,0-0.7,0.1-0.9,0.1v9.9
				h-2.8V7.6z"/>
			<linearGradient id="SVGID_7_" gradientUnits="userSpaceOnUse" x1="100.5112" y1="13.035" x2="112.2666" y2="13.035">
				<stop  offset="0" style="stop-color:#073F69"/>
				<stop  offset="1" style="stop-color:#00133C"/>
			</linearGradient>
			<path class="st5" d="M112.3,13c0,1-0.1,1.8-0.4,2.6s-0.7,1.5-1.2,2c-0.5,0.6-1.1,1-1.9,1.3c-0.7,0.3-1.5,0.5-2.4,0.5
				c-0.9,0-1.7-0.2-2.4-0.5c-0.7-0.3-1.3-0.7-1.8-1.3c-0.5-0.6-0.9-1.2-1.2-2c-0.3-0.8-0.4-1.7-0.4-2.6s0.1-1.8,0.4-2.6
				c0.3-0.8,0.7-1.5,1.2-2c0.5-0.6,1.1-1,1.9-1.3c0.7-0.3,1.5-0.5,2.4-0.5s1.7,0.2,2.4,0.5c0.7,0.3,1.3,0.7,1.9,1.3
				c0.5,0.6,0.9,1.2,1.2,2S112.3,12,112.3,13z M109.4,13c0-1.2-0.3-2.2-0.8-2.9c-0.5-0.7-1.3-1.1-2.2-1.1c-0.9,0-1.7,0.4-2.2,1.1
				c-0.5,0.7-0.8,1.7-0.8,2.9c0,1.2,0.3,2.2,0.8,2.9c0.5,0.7,1.3,1.1,2.2,1.1c0.9,0,1.7-0.4,2.2-1.1C109.1,15.2,109.4,14.2,109.4,13
				z"/>
		</g>
	</g>
	<g>
		<g>
			<g>
				<g>
					<linearGradient id="SVGID_8_" gradientUnits="userSpaceOnUse" x1="10.3994" y1="9.6216" x2="20.8141" y2="9.6216">
						<stop  offset="0" style="stop-color:#073F69"/>
						<stop  offset="1" style="stop-color:#00133C"/>
					</linearGradient>
					<path class="st6" d="M20.8,10.1c0-0.1,0-0.1-0.1-0.1l-4.2-5.1c0.6-1.1,0.6-2.6-0.3-3.7c-1.2-1.4-3.4-1.6-4.8-0.3
						c-1.3,1.2-1.3,3.2-0.2,4.5c0.9,1,2.3,1.3,3.5,0.9l3.2,3.8l-2.1,2.7c-1.2-0.4-2.7-0.1-3.6,1c-1.2,1.4-0.9,3.6,0.6,4.7
						c1.4,1,3.4,0.7,4.5-0.7c0.8-1.1,0.9-2.5,0.2-3.6l3.2-4C20.8,10.2,20.8,10.2,20.8,10.1z M14.7,4.6C14,5.2,13,5.1,12.4,4.4
						c-0.6-0.7-0.5-1.8,0.2-2.4c0.7-0.6,1.8-0.5,2.4,0.2C15.6,2.9,15.5,4,14.7,4.6z M16.1,17c-0.6,0.7-1.6,0.8-2.4,0.2
						c-0.7-0.6-0.8-1.6-0.2-2.4c0.6-0.7,1.6-0.8,2.4-0.2C16.6,15.3,16.7,16.3,16.1,17z"/>
				</g>
			</g>
			<g>
				<g>
					<linearGradient id="SVGID_9_" gradientUnits="userSpaceOnUse" x1="9.094947e-13" y1="12.4868" x2="11.7617" y2="12.4868">
						<stop  offset="0" style="stop-color:#073F69"/>
						<stop  offset="1" style="stop-color:#00133C"/>
					</linearGradient>
					<path class="st7" d="M11.8,7.2c-0.7-0.3-1.3-0.9-1.7-1.5l-5.7,7.2c-1.2-0.4-2.7-0.1-3.6,1c-1.2,1.4-0.9,3.6,0.6,4.7
						c1.4,1,3.4,0.7,4.5-0.7c0.8-1.1,0.9-2.5,0.2-3.6L11.8,7.2C11.8,7.2,11.8,7.2,11.8,7.2z M4.6,17c-0.6,0.7-1.6,0.8-2.4,0.2
						c-0.7-0.6-0.8-1.6-0.2-2.4s1.6-0.8,2.4-0.2C5.1,15.3,5.2,16.3,4.6,17z"/>
				</g>
			</g>
			<g>
				<g>
					<linearGradient id="SVGID_10_" gradientUnits="userSpaceOnUse" x1="20.5806" y1="9.3058" x2="31.1006" y2="9.3058">
						<stop  offset="0" style="stop-color:#073F69"/>
						<stop  offset="1" style="stop-color:#00133C"/>
					</linearGradient>
					<path class="st8" d="M31.1,13.6C31.1,13.6,31.1,13.6,31.1,13.6l-4.4-5.2c0.6-1.1,0.6-2.6-0.3-3.7c-1.2-1.4-3.4-1.6-4.8-0.3
						c-1.3,1.2-1.3,3.2-0.2,4.5c0.9,1,2.3,1.3,3.5,0.9l4.4,5.2c0,0,0,0,0,0c0,0,0,0,0,0C30,14.7,30.6,14.3,31.1,13.6z M24.9,8.1
						c-0.7,0.6-1.8,0.5-2.4-0.2c-0.6-0.7-0.5-1.8,0.2-2.4c0.7-0.6,1.8-0.5,2.4,0.2C25.7,6.5,25.6,7.5,24.9,8.1z M29.3,15
						c0.5-0.6,1.1-1.1,1.8-1.4C30.4,13.9,29.8,14.4,29.3,15z"/>
				</g>
			</g>
		</g>
	</g>
</g>
</svg>
