<?xml version="1.0" encoding="utf-8"?>
<!-- Generator: Adobe Illustrator 21.1.0, SVG Export Plug-In . SVG Version: 6.00 Build 0)  -->
<svg version="1.1" id="Layer_1" xmlns="http://www.w3.org/2000/svg" xmlns:xlink="http://www.w3.org/1999/xlink" x="0px" y="0px"
	 viewBox="0 0 73.7 72" style="enable-background:new 0 0 73.7 72;" xml:space="preserve">
<style type="text/css">
	.st0{fill:#0687C5;}
	.st1{fill:#FFFFFF;}
	.st2{fill:#1E1C1B;}
	.st3{fill:#EFB71C;}
	.st4{fill:#289145;}
	.st5{fill:#DB3927;}
	.st6{fill:#EEB580;}
	.st7{fill:#0094D4;}
</style>
<g>
	<g>
		<g>
			<path class="st0" d="M36.1,21.3h-2.3c-0.5,0-0.8-0.2-0.9-0.4c-0.1-0.2-0.2-0.3-0.2-0.6c0,0,0,0,0-0.1c0-0.2,0-0.4,0-0.7
				c0.3-1.5,0.9-2.5,1.4-3.1c-0.1,0-0.1,0-0.2-0.1c-0.3-0.2-0.5-0.5-0.4-0.9c0.1-0.5,0.5-1,0.6-1.1c0.8-0.9,1.9-1,2.1-1
				c0.2,0,1.7-0.1,2.5,1.5c1,1.9,1.2,3.5,1.4,4.8l0,0.1c0,0.2,0,0.4,0,0.6c0,0,0,0,0,0.1c-0.1,0.2-0.1,0.3-0.2,0.4
				c-0.2,0.2-0.5,0.4-0.9,0.4c-0.2,0-0.3,0-0.4,0c0,0-0.1,0-0.1,0h-0.7c0,0,0,0,0,0c0,0,0,0,0,0h-1.1v3.2H47c0-1.9-0.3-3.7-0.8-5.4
				c-0.5-1.7-1.3-3.1-2.3-4.4c-1-1.3-2.1-2.3-3.3-3c-1.3-0.7-2.7-1.1-4.1-1.1c-1.4,0-2.8,0.4-4.1,1.1c-1.3,0.7-2.4,1.7-3.3,3
				c-1,1.3-1.7,2.8-2.3,4.4c-0.5,1.7-0.8,3.5-0.8,5.4h10.2V21.3z"/>
		</g>
		<g>
			<path class="st1" d="M26,24.5c0,1.4,0.2,2.8,0.5,4.2c4.5-0.5,7.3-1.1,8.1-1.6c0.6-0.4,1-0.6,1.6-0.6v-2H26z"/>
			<path class="st1" d="M36.8,26.5c0.4,0.1,0.7,0.2,1,0.4c0,0,0.1,0,0.1,0c0.6,0,1.1,0.2,1.8,0.4c0.2,0.1,0.4,0.1,0.6,0.2
				c0.1,0,3.4,1.1,6.1,1.2c0.3-1.4,0.5-2.8,0.5-4.2H36.8V26.5z"/>
		</g>
		<polygon class="st2" points="35.8,8.8 35.8,8.8 35.8,8.8 		"/>
		<polygon class="st2" points="33.7,9.1 33.7,9.1 33.7,9.1 		"/>
		<polygon class="st2" points="33.7,9.1 33.7,9.1 33.7,9.1 		"/>
		<path class="st1" d="M40.9,31c0,0.1-0.1,0.2-0.2,0.3c-0.2,0.2-0.4,0.3-0.7,0.3c0,0.1-0.1,0.2-0.2,0.3c-0.2,0.2-0.4,0.4-0.9,0.3
			c0,0.1-0.1,0.2-0.2,0.2c-0.2,0.2-0.5,0.3-0.9,0.3c-0.1,0.1-0.2,0.1-0.4,0.2c-0.2,0.1-0.5,0.1-0.8,0.1v2.7c0,0.2-0.1,0.3-0.3,0.3
			c-0.2,0-0.3-0.2-0.3-0.3V33c-0.1,0.1-0.3,0.1-0.4,0.1c-0.1,0-0.1,0-0.2,0c-0.2,0-0.4-0.1-0.5-0.3c-0.2,0-0.6,0.1-0.9-0.1
			c-0.1-0.1-0.2-0.2-0.3-0.3c-0.1,0-0.2,0-0.3-0.1c-0.3-0.1-0.5-0.3-0.6-0.5c-0.1,0-0.1,0-0.2,0c-0.2,0-0.6-0.1-0.7-0.4
			c0-0.1,0-0.1-0.1-0.2c-1.4,0.7-3.1,1.5-3.8,1.8c0.3,0.5,0.6,1,0.9,1.4c1,1.3,2.1,2.3,3.3,3c0.6,0.3,1.2,0.6,1.8,0.8
			c0.1-0.1,0.1-0.2,0.3-0.3c0.6-0.4,1.7-0.1,2,0c0.3-0.1,1.4-0.4,2,0c0.1,0.1,0.2,0.2,0.3,0.3c0.6-0.2,1.2-0.4,1.8-0.8
			c1.2-0.7,2.4-1.7,3.3-3c0.3-0.4,0.6-0.9,0.9-1.3C43.9,32.7,42.1,31.9,40.9,31z"/>
		<g>
			<path class="st0" d="M37.4,40.2c0-0.1,0-0.2,0-0.2c0-0.1,0-0.1,0-0.2c0.3-0.1,0.9-0.2,1.2-0.6c0.2-0.2,0.3-0.5,0.2-0.8
				c0-0.3-0.1-0.5-0.4-0.6c-0.6-0.4-1.7-0.1-2,0c-0.3-0.1-1.4-0.4-2,0c-0.2,0.1-0.3,0.3-0.4,0.6c0,0.3,0,0.5,0.2,0.8
				c0.3,0.4,0.9,0.5,1.2,0.6c0,0.1,0,0.1,0,0.2c0,0.1,0,0.2,0,0.2c-0.3,0.2-1.1,0.9-2.2,1.1l0,0c0,0.1,0.1,0.2,0.3,0.4
				c1-0.2,1.8-0.8,2.1-1.1c0,0,0.1,0.1,0.1,0.1c-0.1,0.3-0.4,1-1.6,1.3c0.2,0.1,0.5,0.2,0.8,0.2c0.9-0.4,1.2-1,1.3-1.3
				c0.1,0,0.1,0,0.2,0c0.1,0,0.1,0,0.2,0c0.1,0.3,0.4,1,1.3,1.3c0.3,0,0.5-0.1,0.8-0.2c-1.2-0.3-1.6-1-1.6-1.3c0,0,0.1-0.1,0.1-0.1
				c0.3,0.3,1.1,0.9,2.1,1.1c0.2-0.2,0.3-0.3,0.3-0.4C38.4,41.1,37.7,40.4,37.4,40.2z"/>
			<g>
				<g>
					<path class="st1" d="M38.2,38.2c0.1,0.1,0.1,0.1,0.2,0.3c0,0.2,0,0.3-0.1,0.4c-0.1,0.2-0.4,0.3-0.6,0.4c0.1-0.2,0.1-0.5,0-0.7
						c-0.1-0.2-0.2-0.4-0.4-0.5C37.7,38,38,38,38.2,38.2z"/>
					<path class="st1" d="M35.6,38.7c0.2-0.5,0.8-0.5,0.8-0.5h0c0,0,0.2,0,0.4,0.1c0.2,0.1,0.4,0.2,0.5,0.4c0.1,0.2-0.1,0.4-0.2,0.5
						c-0.2-0.1-0.4-0.2-0.6-0.2c-0.2,0-0.5,0.1-0.6,0.2C35.7,39.1,35.6,38.9,35.6,38.7z"/>
					<path class="st1" d="M35.3,39.2c-0.2-0.1-0.4-0.2-0.6-0.4c-0.1-0.1-0.1-0.3-0.1-0.4c0-0.1,0.1-0.2,0.2-0.3
						c0.1-0.1,0.3-0.1,0.6-0.1c0.1,0,0.2,0,0.3,0c-0.2,0.1-0.3,0.3-0.4,0.5C35.1,38.8,35.2,39,35.3,39.2z"/>
					<circle class="st1" cx="36.5" cy="40" r="0.5"/>
				</g>
				<path class="st1" d="M39.3,41.7c-1-0.2-1.8-0.8-2.1-1.1c0,0-0.1,0.1-0.1,0.1c0.1,0.3,0.4,1,1.6,1.3
					C38.9,41.9,39.1,41.8,39.3,41.7z"/>
				<path class="st1" d="M35.8,40.6c-0.3,0.3-1.1,0.9-2.1,1.1c0.1,0.1,0.3,0.3,0.6,0.4c1.3-0.3,1.6-1,1.6-1.3
					C35.8,40.7,35.8,40.6,35.8,40.6z"/>
			</g>
		</g>
		<path class="st2" d="M49.2,27.2c0-0.1,0-0.1-0.1-0.2c0,0-0.1-0.1-0.2,0c0-0.1,0.1-0.2,0.1-0.3c0.2-0.4,0.2-0.9,0.3-1.5
			c0-0.1,0-0.1-0.1-0.2c0,0-0.1,0-0.1,0c0-0.1,0.1-0.2,0.1-0.3c0.1-0.4,0.1-0.9,0.1-1.5c0-0.1,0-0.1-0.1-0.2c0,0-0.1,0-0.2,0
			c0-0.1,0-0.2,0.1-0.3c0.1-0.5,0.1-1,0-1.5c0-0.1-0.1-0.1-0.1-0.2c0,0-0.1,0-0.1,0c0-0.1,0-0.2,0-0.2c0.1-0.5,0-1-0.1-1.5
			c0-0.1-0.1-0.1-0.1-0.2c-0.1,0-0.1,0-0.2,0l0,0c0-0.1,0-0.2,0-0.4c0-0.5-0.1-1-0.3-1.5c0-0.1-0.1-0.1-0.2-0.1c-0.1,0-0.1,0-0.2,0
			c0-0.1,0-0.2,0-0.3c-0.1-0.5-0.2-0.9-0.5-1.4c0-0.1-0.1-0.1-0.2-0.1c-0.1,0-0.1,0-0.2,0.1c0-0.1,0-0.2-0.1-0.3
			c-0.1-0.4-0.3-0.9-0.6-1.4c0-0.1-0.1-0.1-0.2-0.1c-0.1,0-0.1,0-0.2,0.1c0-0.1-0.1-0.2-0.1-0.4c-0.2-0.4-0.5-0.8-0.8-1.2
			c-0.1-0.1-0.1-0.1-0.2-0.1c-0.1,0-0.1,0-0.1,0.1c-0.1-0.1-0.1-0.2-0.2-0.4c-0.3-0.4-0.6-0.8-1-1.1c-0.1,0-0.1-0.1-0.2,0
			c-0.1,0-0.1,0.1-0.1,0.1c-0.3-0.4-0.7-0.7-1.2-0.8c0.1,0,0.2,0,0.3,0c0.6,0,1-0.1,1-0.1c0.1,0,0.2-0.2,0.2-0.3
			c0-0.1-0.1-0.2-0.3-0.2c-0.7,0-0.9-0.2-1.2-0.3c-0.1,0-0.1-0.1-0.2-0.1l1.5-0.2c0.1,0,0.2-0.1,0.2-0.3c0-0.1-0.1-0.3-0.2-0.3
			l-1.5-0.2c0.2-0.1,0.4-0.1,0.6-0.2c0.6-0.2,0.9-0.5,0.9-0.5c0.1-0.1,0.1-0.2,0.1-0.3c-0.1-0.1-0.2-0.2-0.3-0.1
			C42.2,7,42,7,41.6,6.9c-0.1,0-0.1,0-0.2,0l1.3-0.8c0.1-0.1,0.2-0.2,0.1-0.3c-0.1-0.1-0.2-0.2-0.3-0.2L41,6
			c0.1-0.1,0.3-0.3,0.5-0.4c0.5-0.4,0.7-0.8,0.7-0.8c0.1-0.1,0-0.3-0.1-0.3c-0.1-0.1-0.3-0.1-0.4,0C41.3,4.9,41,5,40.6,5.1
			c-0.1,0-0.1,0-0.2,0.1l0.9-1.2c0.1-0.1,0.1-0.3,0-0.4c-0.1-0.1-0.2-0.1-0.4,0l-1.3,0.9c0.1-0.2,0.2-0.4,0.3-0.6
			c0.3-0.5,0.3-1,0.3-1c0-0.1-0.1-0.3-0.2-0.3c-0.1,0-0.3,0-0.3,0.1c-0.3,0.6-0.5,0.8-0.8,1c0,0-0.1,0.1-0.2,0.1l0.4-1.5
			c0-0.1,0-0.3-0.2-0.3c-0.1,0-0.3,0-0.3,0.1L38,3.5c0-0.2,0-0.4,0.1-0.6c0-0.6-0.1-1-0.1-1c0-0.1-0.2-0.2-0.3-0.2
			c-0.1,0-0.2,0.1-0.2,0.3c0,0.7-0.2,0.9-0.3,1.2C37,3.2,37,3.2,37,3.3l-0.2-1.5c0-0.1-0.1-0.2-0.3-0.2l0,0c-0.1,0-0.3,0.1-0.3,0.2
			L36,3.3c0-0.2-0.1-0.4-0.2-0.6c-0.2-0.6-0.5-0.9-0.5-0.9c-0.1-0.1-0.2-0.1-0.3-0.1c-0.1,0.1-0.2,0.2-0.1,0.3
			C35.1,2.6,35,2.9,35,3.3c0,0.1,0,0.1,0,0.2l-0.8-1.3C34.1,2,33.9,2,33.8,2c-0.1,0.1-0.2,0.2-0.2,0.3L34,3.9
			c-0.1-0.1-0.2-0.3-0.4-0.5c-0.4-0.4-0.8-0.7-0.8-0.7c-0.1-0.1-0.3,0-0.3,0.1c-0.1,0.1-0.1,0.3,0,0.4C33,3.6,33,3.9,33.1,4.2
			c0,0.1,0,0.1,0.1,0.2l-1.3-0.9c-0.1-0.1-0.3-0.1-0.4,0c-0.1,0.1-0.1,0.3,0,0.4l0.9,1.2c-0.2-0.1-0.3-0.2-0.5-0.3
			c-0.5-0.3-1-0.3-1-0.3c-0.1,0-0.3,0.1-0.3,0.2c0,0.1,0,0.3,0.1,0.3c0.6,0.3,0.8,0.5,1,0.8c0,0.1,0.1,0.1,0.1,0.2l-1.5-0.4
			c-0.1,0-0.3,0-0.3,0.2c-0.1,0.1,0,0.3,0.1,0.3l1.3,0.8c-0.2,0-0.4-0.1-0.6-0.1c-0.6,0-1,0.1-1,0.1c-0.1,0-0.2,0.2-0.2,0.3
			c0,0.1,0.1,0.2,0.3,0.2c0.7,0,0.9,0.2,1.2,0.3c0.1,0,0.1,0.1,0.2,0.1l-1.5,0.2c-0.1,0-0.2,0.1-0.2,0.3c0,0.1,0.1,0.3,0.2,0.3
			l1.6,0.2C31.2,9,31,9,30.7,9.1c-0.6,0.2-0.9,0.5-0.9,0.5c-0.1,0.1-0.1,0.2-0.1,0.3c0.1,0.1,0.2,0.2,0.3,0.1
			c0.4-0.1,0.6-0.2,0.8-0.2c-0.3,0.3-0.6,0.5-0.7,0.7c-0.1,0.1-0.1,0.2-0.2,0.2c0,0-0.1-0.1-0.1-0.1c-0.1,0-0.1,0-0.2,0
			c-0.4,0.3-0.8,0.7-1,1.1c-0.1,0.1-0.1,0.2-0.2,0.3c0,0-0.1-0.1-0.1-0.1c-0.1,0-0.1,0-0.2,0.1c-0.4,0.4-0.7,0.8-0.8,1.2
			c-0.1,0.1-0.1,0.2-0.1,0.3c0,0-0.1-0.1-0.1-0.1c-0.1,0-0.1,0-0.2,0.1c-0.3,0.4-0.6,0.9-0.7,1.3c0,0.1-0.1,0.2-0.1,0.3
			c0-0.1-0.1-0.1-0.2-0.1c-0.1,0-0.1,0.1-0.2,0.1c-0.3,0.5-0.4,1-0.5,1.4c0,0.1,0,0.2,0,0.3c-0.1,0-0.1-0.1-0.2,0
			c-0.1,0-0.1,0.1-0.2,0.1c-0.2,0.5-0.3,1-0.3,1.5c0,0.1,0,0.2,0,0.3c-0.1,0-0.1,0-0.2,0c-0.1,0-0.1,0.1-0.1,0.2
			c-0.1,0.5-0.2,1-0.1,1.5c0,0.1,0,0.2,0,0.3c0,0-0.1,0-0.1,0c-0.1,0-0.1,0.1-0.1,0.2c-0.1,0.5-0.1,1,0,1.5c0,0.1,0,0.2,0.1,0.3
			c0,0-0.1,0-0.1,0c-0.1,0-0.1,0.1-0.1,0.2c-0.1,0.5-0.1,1,0,1.5c0,0.1,0,0.2,0.1,0.3c-0.1,0-0.1,0-0.1,0c-0.1,0-0.1,0.1-0.1,0.2
			c0,0.5,0.1,1,0.2,1.5c0,0.1,0.1,0.3,0.1,0.4c0,0,0,0,0,0c-0.1,0-0.1,0-0.2,0.1c-0.1,0-0.1,0.1-0.1,0.2c0.1,0.5,0.2,1,0.5,1.4
			c0,0.1,0.1,0.2,0.1,0.2c0,0-0.1,0-0.1,0.1c-0.1,0.1-0.1,0.1-0.1,0.2c0.1,0.5,0.3,1,0.6,1.4c0.1,0.1,0.1,0.2,0.2,0.3
			c-0.1,0-0.1,0-0.1,0.1c0,0.1-0.1,0.1,0,0.2c0.2,0.5,0.4,1,0.7,1.3c0.1,0.1,0.1,0.2,0.2,0.2c-0.1,0-0.1,0.1-0.1,0.1
			c0,0.1,0,0.1,0,0.2c0.2,0.5,0.5,0.9,0.9,1.2c0.1,0.1,0.1,0.1,0.2,0.2c-0.1,0-0.1,0.1-0.1,0.1c0,0.1,0,0.1,0,0.2
			c0.3,0.5,0.6,0.8,1,1.1c0.1,0.1,0.2,0.2,0.3,0.2c0,0,0,0,0,0c-0.1,0-0.1,0.1-0.1,0.2c0,0.1,0,0.1,0.1,0.2c0.4,0.4,0.8,0.7,1.2,0.9
			c0.3,0.2,0.6,0.3,1,0.4c0.3,0.1,0.5,0.1,0.8,0c0,0,0,0,0,0c0.7,0.5,1.4,0.9,2.1,1.2c0.6,0.3,1.3,0.5,1.9,0.6
			c0.1,0,0.3,0.1,0.4,0.1c-0.3-0.1-0.5-0.2-0.7-0.5c0,0-0.1-0.1-0.1-0.1c-0.4-0.1-0.9-0.3-1.3-0.4c-0.7-0.3-1.4-0.7-2-1.1
			c0,0,0,0,0,0c0-0.2,0-0.4-0.1-0.7c0.5,0.4,0.9,0.7,1.3,0.9c0.6,0.3,1.3,0.6,1.9,0.8c0,0,0-0.1,0-0.1c0-0.1,0-0.2,0.1-0.3
			c-0.6-0.2-1.2-0.4-1.8-0.8c-1.3-0.7-2.4-1.7-3.3-3c-0.3-0.5-0.6-0.9-0.9-1.4c0.7-0.3,2.4-1.1,3.8-1.8c0,0.1,0,0.1,0.1,0.2
			c0.1,0.3,0.4,0.4,0.7,0.4c0.1,0,0.2,0,0.2,0c0.1,0.2,0.3,0.4,0.6,0.5c0.1,0,0.2,0.1,0.3,0.1c0.1,0.1,0.1,0.2,0.3,0.3
			c0.3,0.2,0.7,0.2,0.9,0.1c0.1,0.2,0.3,0.3,0.5,0.3c0.1,0,0.1,0,0.2,0c0.2,0,0.3,0,0.4-0.1v2.6c0,0.2,0.1,0.3,0.3,0.3
			c0.2,0,0.3-0.2,0.3-0.3v-2.7c0.4,0.1,0.6,0,0.8-0.1c0.2-0.1,0.3-0.1,0.4-0.2c0.3,0.1,0.6,0,0.9-0.3c0.1-0.1,0.1-0.2,0.2-0.2
			c0.5,0,0.7-0.2,0.9-0.3c0.1-0.1,0.1-0.2,0.2-0.3c0.3,0,0.5-0.1,0.7-0.3c0.1-0.1,0.1-0.2,0.2-0.3c1.2,0.9,3,1.7,3.8,2
			c-0.3,0.5-0.6,0.9-0.9,1.3c-1,1.3-2.1,2.3-3.3,3c-0.6,0.3-1.2,0.6-1.8,0.8c0,0.1,0.1,0.2,0.1,0.3c0,0,0,0.1,0,0.1
			c0.7-0.2,1.3-0.5,1.9-0.8c0.5-0.3,0.9-0.6,1.4-1C42.1,37,42,37.2,42,37.4c0,0,0,0,0,0c-0.2,0.2-0.7,0.5-1.5,0.9
			c-0.6,0.3-1.2,0.5-1.8,0.7c0,0-0.1,0-0.1,0c0,0-0.1,0.1-0.1,0.1c-0.2,0.2-0.5,0.4-0.7,0.5c0.3-0.1,0.7-0.1,1-0.2
			c0.6-0.2,1.3-0.4,1.9-0.7c0.8-0.4,1.4-0.8,1.6-1c0,0,0,0,0,0c0.2,0,0.5,0,0.8,0c0.3-0.1,0.6-0.2,1-0.4c0.4-0.2,0.8-0.5,1.2-0.9
			c0.1-0.1,0.1-0.1,0.1-0.2c0-0.1-0.1-0.1-0.1-0.2c0,0,0,0,0,0c0.1-0.1,0.2-0.2,0.3-0.2c0.4-0.3,0.7-0.7,1-1.1c0-0.1,0-0.1,0-0.2
			c0-0.1-0.1-0.1-0.1-0.1c0.1-0.1,0.1-0.1,0.2-0.2c0.3-0.3,0.6-0.7,0.9-1.2c0-0.1,0-0.1,0-0.2c0-0.1-0.1-0.1-0.2-0.1
			c0.1-0.1,0.1-0.2,0.2-0.2c0.3-0.4,0.5-0.8,0.7-1.3c0-0.1,0-0.1,0-0.2c0-0.1-0.1-0.1-0.2-0.1l0,0c0.1-0.1,0.1-0.2,0.2-0.2
			c0.3-0.4,0.5-0.8,0.6-1.4c0-0.1,0-0.1-0.1-0.2c0,0-0.1-0.1-0.2-0.1c0.1-0.1,0.1-0.2,0.2-0.3C49,28.2,49.1,27.7,49.2,27.2z
			 M48.9,25.5C48.9,25.5,48.9,25.5,48.9,25.5c0,0.4-0.1,0.7-0.2,1c-0.1,0.3-0.3,0.6-0.5,0.8c-0.2,0.3-0.5,0.4-0.5,0.5h0c0,0,0,0,0,0
			c-0.3-0.4-0.4-0.9-0.4-1.5c0-0.2,0-0.4,0.1-0.6c0,0,0,0,0,0c0,0,0,0,0,0c0.3,0.3,0.4,0.8,0.4,0.8c0,0.1,0.1,0.1,0.1,0.1
			c0.1,0,0.1,0,0.2-0.1C48.3,26,48.7,25.7,48.9,25.5C48.9,25.5,48.9,25.5,48.9,25.5z M48.9,23.5C48.9,23.5,48.9,23.5,48.9,23.5
			C48.9,23.5,48.9,23.5,48.9,23.5c0,0.4,0,0.7-0.1,1c-0.1,0.3-0.2,0.6-0.4,0.8c-0.2,0.3-0.4,0.4-0.5,0.5c0,0,0,0,0,0c0,0,0,0,0,0
			c-0.5-0.6-0.6-1.5-0.6-2c0,0,0,0,0,0c0,0,0,0,0,0c0.3,0.3,0.5,0.7,0.5,0.7c0,0.1,0.1,0.1,0.2,0.1c0.1,0,0.1,0,0.1-0.1
			C48.3,24.1,48.6,23.7,48.9,23.5z M48.7,21.6C48.7,21.6,48.7,21.6,48.7,21.6C48.7,21.6,48.7,21.6,48.7,21.6c0.1,0.4,0.1,0.7,0,1
			c0,0.3-0.1,0.6-0.3,0.9C48.2,23.8,48,24,47.9,24c0,0,0,0,0,0c0,0,0,0,0,0c-0.5-0.4-0.7-1.4-0.7-1.9c0,0,0,0,0,0c0,0,0,0,0,0
			c0.3,0.3,0.5,0.6,0.5,0.6c0,0.1,0.1,0.1,0.2,0.1c0.1,0,0.1-0.1,0.1-0.1C48.2,22.2,48.5,21.8,48.7,21.6z M48.3,19.7
			C48.3,19.7,48.4,19.7,48.3,19.7C48.4,19.7,48.4,19.7,48.3,19.7c0.1,0.4,0.1,0.7,0.1,1c0,0.3-0.1,0.6-0.2,0.9
			c-0.2,0.3-0.3,0.5-0.4,0.6c0,0,0,0,0,0c0,0,0,0,0,0c-0.4-0.4-0.7-0.9-0.8-1.3c0-0.2-0.1-0.4-0.1-0.6c0,0,0,0,0,0c0,0,0,0,0,0
			c0.3,0.3,0.6,0.6,0.6,0.6c0,0.1,0.1,0.1,0.2,0.1c0.1,0,0.1-0.1,0.1-0.1C47.9,20.3,48.2,19.9,48.3,19.7z M33.3,19.8
			C33.3,19.8,33.3,19.7,33.3,19.8c0.3-1.4,0.8-2.3,1.2-2.8c0.3-0.4,0.5-0.6,0.7-0.7c0,0,0.1-0.1,0.1-0.1c0.1-0.1,0.1-0.3,0-0.4
			c-0.1-0.1-0.3-0.2-0.4-0.1c0,0-0.1,0-0.1,0.1c-0.3,0.2-0.5,0.1-0.5,0.1c-0.1-0.1-0.1-0.2-0.1-0.3c0-0.3,0.4-0.7,0.5-0.8
			c0,0,0,0,0,0c0.6-0.8,1.7-0.8,1.7-0.8c0,0,0,0,0,0c0,0,0.3,0,0.7,0.1c0.5,0.2,1,0.6,1.2,1.1c0.4,0.8,0.7,1.6,0.9,2.4
			c-0.6-0.2-1-0.6-1-0.6c-0.1-0.1-0.3-0.1-0.4,0c-0.1,0.1-0.1,0.1-0.1,0.2c0,0.1,0.1,0.2,0.1,0.2c0,0,0.7,0.6,1.6,0.8
			c0.1,0.3,0.1,0.6,0.2,0.9C39.3,19.1,39,19,38.7,19c-0.2,0-0.3-0.1-0.5-0.1c-0.6-0.2-1.1-0.6-1.1-0.6c-0.1-0.1-0.3-0.1-0.4,0.1
			c-0.1,0.1-0.1,0.3,0,0.4c0,0,0.6,0.4,1.2,0.7c0.2,0.1,0.3,0.1,0.5,0.2c0.7,0.2,1.1,0.3,1.1,0.7c0,0.1-0.1,0.1-0.1,0.2
			c-0.2,0.3-0.7,0.3-0.9,0.3c0,0,0,0,0,0h-0.7c-0.1,0-0.8,0-1.5-0.4C34.9,19.3,34.2,19.4,33.3,19.8z M36,20.7h-2.1
			c-0.2,0-0.4-0.1-0.5-0.2c0,0,0,0-0.1-0.1C34.2,20.1,34.7,19.9,36,20.7z M36.8,24.5v-3.2h1.1c0,0,0,0,0,0c0,0,0,0,0,0h0.7
			c0,0,0,0,0.1,0c0.1,0,0.2,0,0.4,0c0.4-0.1,0.7-0.2,0.9-0.4c0.1-0.1,0.2-0.2,0.2-0.4c0,0,0,0,0-0.1c0-0.2,0.1-0.3,0-0.6l0-0.1
			c-0.2-1.3-0.4-2.9-1.4-4.8c-0.8-1.6-2.4-1.5-2.5-1.5c-0.1,0-1.3,0.1-2.1,1c-0.1,0.1-0.5,0.6-0.6,1.1c-0.1,0.4,0.1,0.8,0.4,0.9
			c0.1,0,0.1,0.1,0.2,0.1c-0.5,0.6-1.1,1.6-1.4,3.1c0,0.2-0.1,0.5,0,0.7c0,0,0,0,0,0.1c0,0.2,0.1,0.4,0.2,0.6
			c0.1,0.2,0.4,0.4,0.9,0.4h2.3v3.2v2c-0.6,0-1.1,0.2-1.6,0.6c-0.8,0.5-3.5,1.1-8.1,1.6c-0.3-1.3-0.5-2.7-0.5-4.2
			c0-1.9,0.3-3.7,0.8-5.4c0.5-1.7,1.3-3.1,2.3-4.4c1-1.3,2.1-2.3,3.3-3c1.3-0.7,2.7-1.1,4.1-1.1c1.4,0,2.8,0.4,4.1,1.1
			c1.2,0.7,2.4,1.7,3.3,3c1,1.3,1.7,2.8,2.3,4.4c0.5,1.7,0.8,3.5,0.8,5.4c0,1.5-0.2,2.9-0.5,4.2c-2.8-0.2-6-1.2-6.1-1.2
			c-0.2-0.1-0.4-0.2-0.6-0.2c-0.7-0.2-1.2-0.4-1.8-0.4c0,0-0.1,0-0.1,0c-0.3-0.2-0.6-0.3-1-0.4V24.5z M41.1,10
			c-0.2,0.1-0.4,0.2-0.7,0.2c-0.2,0-0.4,0-0.5,0c-0.4,0-0.7-0.1-1-0.3c0,0,0,0,0,0c0,0,0,0,0,0c0.1-0.1,0.3-0.2,0.6-0.2
			c0.3-0.1,0.6-0.1,0.9,0C40.6,9.7,40.8,9.8,41.1,10C41.1,9.9,41.1,10,41.1,10C41.1,10,41.1,10,41.1,10z M41.5,11.1
			C41.5,11.1,41.5,11.1,41.5,11.1C41.5,11.1,41.5,11.1,41.5,11.1c-0.1,0.1-0.3,0.1-0.5,0.1c0,0-0.1,0-0.1,0c-0.5,0-0.9-0.2-1.4-0.5
			c0,0,0,0,0,0c0,0,0,0,0,0c0.2-0.1,0.4-0.1,0.6-0.1C40.7,10.5,41.1,10.7,41.5,11.1z M39.3,9.3c-0.2,0.1-0.5,0.2-1,0.3
			c-0.1,0-0.1,0.1-0.1,0.1c0,0.1,0,0.1,0.1,0.2c0,0,0.4,0.3,0.6,0.6c0,0,0,0,0,0c0,0,0,0,0,0l0,0c-0.5,0-1.3-0.1-1.9-0.9
			c0,0,0,0,0,0c0.1-0.1,0.3-0.2,0.5-0.3C38,9.1,38.6,9.1,39.3,9.3C39.3,9.3,39.3,9.3,39.3,9.3C39.3,9.3,39.3,9.3,39.3,9.3z M37.3,9
			c-0.2,0.1-0.5,0.3-0.9,0.5c-0.1,0-0.1,0.1-0.1,0.2c0,0.1,0,0.1,0.1,0.2c0,0,0.4,0.2,0.7,0.4c0,0,0,0,0,0c0,0,0,0,0,0
			c-0.1,0-0.3,0-0.4,0c-0.5,0-1.1-0.1-1.6-0.5c0,0,0,0,0,0c0.1-0.1,0.2-0.3,0.4-0.4C35.9,9.1,36.6,8.9,37.3,9C37.3,9,37.3,9,37.3,9
			C37.3,9,37.3,9,37.3,9z M35.2,9c-0.1,0.2-0.4,0.4-0.8,0.6c-0.1,0-0.1,0.1-0.1,0.2c0,0.1,0.1,0.1,0.1,0.1c0,0,0.4,0.1,0.8,0.3
			c0,0,0,0,0,0c0,0,0,0,0,0c-0.2,0.1-0.4,0.1-0.5,0.1c-0.2,0-0.4,0-0.6,0c-0.3,0-0.7,0-1-0.2c0,0,0,0,0,0c0.1-0.1,0.1-0.3,0.3-0.5
			C33.9,9.4,34.5,9.1,35.2,9C35.2,9,35.2,9,35.2,9C35.2,9,35.2,9,35.2,9z M32.5,10.3c-0.1,0-0.1,0.1,0,0.2c0,0.1,0.1,0.1,0.2,0.1
			l0,0c0,0,0.2,0,0.4,0c0.2,0,0.3,0,0.4,0.1c0,0,0,0,0,0c0,0,0,0,0,0c-0.2,0.1-0.3,0.2-0.5,0.2c-0.4,0.1-0.7,0.2-1,0.2
			c-0.2,0-0.4,0-0.6-0.1c0,0,0,0,0,0c0.1-0.3,0.4-1.2,1.8-1.7c0,0,0,0,0,0c0,0,0,0,0,0C33.2,9.6,33,10,32.5,10.3z M47.3,19
			c0-0.6,0.2-1,0.4-1.2c0,0,0,0,0,0c0,0,0,0,0,0c0.1,0.4,0.2,0.7,0.2,1c0,0.3,0,0.6-0.1,0.9c-0.1,0.3-0.3,0.5-0.3,0.6c0,0,0,0,0,0
			c0,0,0,0,0,0c-0.4-0.3-0.7-0.7-0.9-1.2c-0.1-0.2-0.1-0.3-0.2-0.5c0,0,0,0,0,0c0,0,0,0,0,0c0.4,0.2,0.7,0.5,0.7,0.5
			c0,0,0.1,0.1,0.2,0C47.3,19.1,47.3,19.1,47.3,19z M46.7,17.2c0-0.6,0.1-1,0.3-1.3c0,0,0,0,0,0c0,0,0,0,0,0c0.2,0.3,0.3,0.7,0.3,1
			c0,0.3,0,0.6,0,0.9c-0.1,0.3-0.2,0.6-0.3,0.7c0,0,0,0,0,0h0c-0.4-0.2-0.8-0.6-1.1-1.1c-0.1-0.2-0.2-0.3-0.2-0.5c0,0,0,0,0,0
			c0,0,0,0,0,0c0.4,0.2,0.7,0.5,0.7,0.5c0.1,0,0.1,0.1,0.2,0l0,0C46.7,17.3,46.7,17.3,46.7,17.2z M45.8,15.7L45.8,15.7
			c0.1,0,0.1-0.1,0.1-0.2c-0.1-0.6,0-1,0.1-1.3c0,0,0,0,0,0c0,0,0,0,0,0c0.2,0.3,0.3,0.7,0.4,1c0.1,0.3,0.1,0.6,0.1,0.9
			c0,0.3-0.1,0.6-0.2,0.7c0,0,0,0,0,0h0c-0.5-0.2-0.9-0.5-1.2-1c-0.1-0.2-0.2-0.3-0.3-0.5c0,0,0,0,0,0c0,0,0,0,0,0
			c0.4,0.1,0.8,0.4,0.8,0.4C45.7,15.7,45.7,15.7,45.8,15.7z M44.6,14.1c0.1,0,0.1,0,0.2,0c0.1,0,0.1-0.1,0.1-0.2
			c-0.2-0.5-0.1-1-0.1-1.3c0,0,0,0,0,0c0,0,0,0,0,0c0.2,0.3,0.4,0.6,0.5,0.9c0.1,0.3,0.2,0.6,0.2,0.9c0,0.3,0,0.6-0.1,0.7
			c0,0,0,0,0,0c0,0,0,0,0,0c-0.5-0.1-0.9-0.4-1.3-0.8c-0.1-0.1-0.3-0.3-0.4-0.5c0,0,0,0,0,0c0,0,0,0,0,0
			C44.2,13.9,44.6,14.1,44.6,14.1z M43.4,12.7c0.1,0,0.1,0,0.2,0c0,0,0.1-0.1,0-0.2c-0.3-0.5-0.3-1-0.3-1.3c0,0,0,0,0,0c0,0,0,0,0,0
			c0.3,0.2,0.5,0.5,0.7,0.8c0.2,0.3,0.3,0.6,0.4,0.8c0.1,0.3,0.1,0.6,0,0.7c0,0,0,0,0,0c0,0,0,0,0,0c-0.5,0-1-0.3-1.4-0.5
			c-0.2-0.1-0.3-0.3-0.5-0.4c0,0,0,0,0,0c0,0,0,0,0,0c0,0,0,0,0.1,0C43,12.6,43.4,12.7,43.4,12.7z M42.9,11.5
			c0.1,0.3,0.1,0.6,0.1,0.8c0,0,0,0,0,0c0,0-0.1,0-0.1,0c-0.7,0-1.4-0.4-1.9-0.7c0,0,0,0,0,0c0,0,0,0,0,0c0.4-0.1,0.8,0,0.8,0
			c0.1,0,0.1,0,0.2-0.1c0-0.1,0-0.1,0-0.2c-0.3-0.3-0.4-0.7-0.5-1c0,0,0,0,0,0c0,0,0,0,0,0C42.2,10.5,42.7,10.9,42.9,11.5z
			 M30.8,9.5C30.8,9.5,30.8,9.5,30.8,9.5c0.5-0.2,0.9-0.3,1-0.3c0.4-0.1,0.7-0.3,0.8-0.3c0,0,0.1-0.1,0-0.1c0,0,0-0.1-0.1-0.1
			l-1.9-0.3l1.9-0.3c0.1,0,0.1-0.1,0.1-0.1c0-0.1,0-0.1-0.1-0.1c0,0-0.4-0.1-0.8-0.3c-0.1-0.1-0.2-0.1-0.3-0.2
			c-0.2-0.1-0.3-0.2-0.5-0.3c0,0,0.1,0,0.1,0c0.4,0,0.8,0.1,1,0.1c0.4,0.1,0.8,0,0.8,0c0,0,0.1,0,0.1-0.1c0,0,0-0.1-0.1-0.1l-1.7-1
			l1.9,0.5c0.1,0,0.1,0,0.1-0.1c0-0.1,0-0.1,0-0.1c0,0-0.4-0.2-0.7-0.6c-0.1-0.1-0.2-0.2-0.2-0.3c-0.1-0.2-0.2-0.3-0.4-0.4
			c0,0,0.1,0,0.1,0c0.4,0.2,0.7,0.4,0.9,0.5C33,5.9,33.4,6,33.4,6c0,0,0.1,0,0.1,0c0,0,0-0.1,0-0.1l-1.2-1.6l1.6,1.2
			c0,0,0.1,0,0.1,0c0,0,0-0.1,0-0.1c0,0-0.3-0.4-0.4-0.8c0-0.1-0.1-0.2-0.1-0.4c-0.1-0.2-0.1-0.4-0.2-0.6c0,0,0,0.1,0.1,0.1
			c0.3,0.3,0.5,0.6,0.6,0.8C34.2,4.8,34.5,5,34.5,5c0,0,0.1,0,0.1,0c0,0,0.1-0.1,0-0.1L34.2,3l1,1.7c0,0,0.1,0.1,0.1,0
			c0,0,0.1-0.1,0.1-0.1c0,0-0.1-0.4-0.1-0.9c0-0.1,0-0.3,0-0.4c0-0.2,0-0.4,0-0.6c0,0,0,0.1,0,0.1c0.1,0.4,0.2,0.8,0.3,1
			C35.8,4.2,36,4.5,36,4.5c0,0,0.1,0.1,0.1,0c0,0,0.1,0,0.1-0.1l0.3-1.9l0.3,1.9c0,0.1,0.1,0.1,0.1,0.1c0.1,0,0.1,0,0.1-0.1
			c0,0,0.1-0.4,0.3-0.9c0.1-0.1,0.1-0.2,0.2-0.3c0.1-0.2,0.2-0.3,0.3-0.6c0,0,0,0.1,0,0.1c0,0.4-0.1,0.8-0.1,1c-0.1,0.4,0,0.8,0,0.8
			c0,0,0,0.1,0.1,0.1c0,0,0.1,0,0.1,0l1-1.7l-0.5,1.9c0,0.1,0,0.1,0.1,0.1c0.1,0,0.1,0,0.1,0c0,0,0.2-0.4,0.6-0.7
			c0.1-0.1,0.2-0.2,0.3-0.3c0.2-0.1,0.3-0.2,0.4-0.4c0,0,0,0.1,0,0.1c-0.2,0.4-0.4,0.7-0.5,0.9c-0.2,0.4-0.3,0.7-0.3,0.7
			c0,0,0,0.1,0,0.1c0,0,0.1,0,0.1,0l1.6-1.2l-1.2,1.6c0,0,0,0.1,0,0.1c0,0,0.1,0,0.1,0c0,0,0.3-0.3,0.8-0.4c0.1,0,0.2-0.1,0.4-0.1
			c0.2-0.1,0.4-0.1,0.6-0.2c0,0-0.1,0-0.1,0.1c-0.3,0.3-0.6,0.5-0.8,0.6c-0.4,0.3-0.6,0.5-0.6,0.6c0,0,0,0.1,0,0.1
			c0,0,0.1,0.1,0.1,0l1.9-0.5l-1.7,1c0,0-0.1,0.1,0,0.1c0,0,0.1,0.1,0.1,0.1c0,0,0.4-0.1,0.9-0.1c0.1,0,0.3,0,0.4,0
			c0.2,0,0.4,0,0.6,0c0,0-0.1,0-0.1,0c-0.4,0.1-0.8,0.2-1,0.3c-0.4,0.1-0.7,0.3-0.8,0.3c0,0-0.1,0.1,0,0.1c0,0,0,0.1,0.1,0.1
			l1.9,0.3l-1.9,0.3c-0.1,0-0.1,0.1-0.1,0.1c0,0.1,0,0.1,0.1,0.1c0,0,0.4,0.1,0.9,0.3c0.1,0.1,0.2,0.1,0.3,0.2
			c0.2,0.1,0.3,0.2,0.5,0.3c0,0-0.1,0-0.1,0c-0.4,0-0.8-0.1-1-0.1l-0.1,0c-0.3-0.1-0.7-0.2-1.1-0.2c0,0,0,0,0,0
			c0-0.1-0.1-0.1-0.1-0.2c-0.5-0.2-1-0.3-1.5-0.3c-0.2,0-0.3,0-0.5,0c0,0,0,0,0-0.1c0-0.1-0.1-0.1-0.2-0.1c-0.5-0.1-1-0.1-1.5,0
			c-0.2,0-0.3,0.1-0.5,0.1c0,0,0-0.1-0.1-0.1c0,0-0.1-0.1-0.2-0.1c-0.6,0-1,0.2-1.4,0.3c-0.1,0-0.2,0.1-0.3,0.2c0-0.1,0-0.1-0.1-0.1
			c-0.1,0-0.1-0.1-0.2,0c-0.5,0.1-1,0.4-1.4,0.6l0,0c-0.1,0-0.2,0-0.3,0c-0.1,0-0.3,0-0.4,0C31.2,9.5,31,9.5,30.8,9.5z M31.3,10.1
			C31.3,10.1,31.3,10.1,31.3,10.1C31.3,10.1,31.3,10.1,31.3,10.1c0,0.3-0.1,0.8-0.4,1.2c0,0.1,0,0.1,0,0.2c0,0.1,0.1,0.1,0.2,0.1
			c0,0,0.4-0.1,0.8,0c0,0,0,0,0,0c0,0,0,0,0,0c-0.4,0.3-1.1,0.8-1.8,0.8c0,0-0.1,0-0.1,0c0,0,0,0,0,0C30,11.9,30,11,31.3,10.1z
			 M28.6,12.9c0.1-0.3,0.2-0.6,0.4-0.8c0.2-0.3,0.4-0.5,0.7-0.8c0,0,0,0,0,0c0,0,0,0,0,0c0,0.3,0,0.8-0.3,1.3c0,0.1,0,0.1,0,0.2
			c0,0.1,0.1,0.1,0.2,0c0,0,0.4-0.1,0.8-0.1c0,0,0,0,0,0c0,0,0,0,0,0c-0.2,0.2-0.3,0.3-0.5,0.4c-0.3,0.3-0.8,0.5-1.3,0.5
			c0,0,0,0-0.1,0c0,0,0,0,0,0C28.6,13.5,28.6,13.2,28.6,12.9z M28.2,12.6C28.2,12.6,28.2,12.6,28.2,12.6
			C28.2,12.6,28.2,12.6,28.2,12.6c0.1,0.3,0.1,0.8-0.1,1.3c0,0.1,0,0.1,0.1,0.2c0.1,0,0.1,0,0.2,0c0,0,0.4-0.2,0.8-0.3c0,0,0,0,0,0
			c0,0,0,0,0,0c-0.3,0.4-0.9,1.1-1.7,1.3l0,0c0,0,0,0,0,0C27.4,14.8,27.2,13.8,28.2,12.6z M26.5,15.2c0.1-0.3,0.2-0.6,0.5-0.9
			c0,0,0,0,0,0c0,0,0,0,0,0c0.1,0.3,0.2,0.7,0.1,1.3c0,0.1,0,0.1,0.1,0.2c0.1,0,0.1,0,0.2,0c0,0,0.3-0.3,0.8-0.4c0,0,0,0,0,0
			c0,0,0,0,0,0c-0.1,0.1-0.2,0.3-0.3,0.5c-0.3,0.5-0.8,0.8-1.2,0.9l0,0c0,0,0,0,0,0c0-0.1-0.1-0.3-0.2-0.7
			C26.4,15.8,26.4,15.5,26.5,15.2z M25.6,16.9c0-0.3,0.1-0.7,0.3-1c0,0,0,0,0,0l0,0c0,0,0,0,0,0c0.1,0.3,0.3,0.7,0.3,1.3
			c0,0.1,0,0.1,0.1,0.2c0.1,0,0.1,0,0.2,0c0,0,0.4-0.3,0.8-0.5c0,0,0,0,0,0c0,0,0,0,0,0c0,0.2-0.1,0.3-0.2,0.5
			c-0.2,0.5-0.6,0.9-1.2,1.2c0,0,0,0,0,0c0,0,0,0,0,0c-0.1-0.1-0.2-0.3-0.3-0.6C25.6,17.6,25.6,17.3,25.6,16.9z M25.1,17.7
			C25.1,17.7,25.1,17.7,25.1,17.7C25.1,17.7,25.1,17.7,25.1,17.7c0.2,0.2,0.4,0.7,0.4,1.2c0,0.1,0.1,0.1,0.1,0.1
			c0.1,0,0.1,0,0.2-0.1c0,0,0.3-0.3,0.7-0.6c0,0,0,0,0,0c0,0,0,0,0,0c0,0.2-0.1,0.3-0.1,0.5c-0.2,0.5-0.5,1-1,1.3c0,0,0,0,0,0
			c0,0,0,0,0,0c-0.1-0.1-0.2-0.3-0.3-0.6c-0.1-0.3-0.1-0.6-0.1-0.9C24.9,18.5,25,18.1,25.1,17.7z M24.5,19.7
			C24.5,19.7,24.6,19.6,24.5,19.7C24.6,19.6,24.6,19.6,24.5,19.7c0.2,0.2,0.5,0.6,0.6,1.2c0,0.1,0.1,0.1,0.1,0.1
			c0.1,0,0.1,0,0.2-0.1c0,0,0.3-0.4,0.6-0.6c0,0,0,0,0,0c0,0,0,0,0,0c0,0.2,0,0.3-0.1,0.5c-0.1,0.6-0.4,1-0.8,1.4c0,0,0,0,0,0
			c0,0,0,0,0,0c-0.1-0.1-0.3-0.3-0.4-0.6c-0.1-0.3-0.2-0.6-0.3-0.9C24.5,20.4,24.5,20,24.5,19.7z M24.3,21.6
			C24.3,21.6,24.3,21.6,24.3,21.6C24.3,21.6,24.3,21.6,24.3,21.6c0.2,0.2,0.5,0.6,0.6,1.1c0,0.1,0.1,0.1,0.1,0.1
			c0.1,0,0.1,0,0.2-0.1c0,0,0.2-0.4,0.5-0.7c0,0,0,0,0,0c0,0,0,0,0,0c0,0.2,0,0.4,0,0.6c-0.1,0.6-0.3,1-0.7,1.4c0,0,0,0,0,0
			c0,0,0,0,0,0c-0.1-0.1-0.3-0.2-0.4-0.5c-0.1-0.3-0.2-0.5-0.3-0.9C24.2,22.3,24.2,21.9,24.3,21.6z M24.1,23.6
			C24.1,23.6,24.1,23.6,24.1,23.6C24.1,23.6,24.1,23.6,24.1,23.6c0.1,0,0.1,0.1,0.1,0.1c0.2,0.2,0.4,0.5,0.6,1
			c0,0.1,0.1,0.1,0.2,0.1c0.1,0,0.1-0.1,0.1-0.1l0,0c0,0,0.1-0.4,0.4-0.7c0,0,0,0,0,0c0,0,0,0,0,0c0,0.2,0.1,0.6,0,0.9
			c-0.1,0.4-0.3,0.8-0.6,1.1c0,0,0,0,0,0c0,0,0,0,0,0C24.7,25.8,24,25.1,24.1,23.6z M24,25.5C24,25.5,24,25.5,24,25.5
			c0.1,0,0.1,0.1,0.1,0.1c0.2,0.2,0.5,0.5,0.7,0.9c0,0.1,0.1,0.1,0.1,0.1c0,0,0,0,0,0l0,0c0.1,0,0.1,0,0.1-0.1c0,0,0.2-0.4,0.5-0.8
			c0,0,0,0,0,0c0,0,0,0,0,0c0.1,0.4,0.1,1.2-0.5,2c0,0,0,0,0,0h0C24.8,27.6,24.1,27.1,24,25.5C24,25.5,24,25.5,24,25.5z M24.1,27.5
			C24.1,27.5,24.1,27.5,24.1,27.5C24.1,27.5,24.1,27.5,24.1,27.5c0.3,0.1,0.7,0.4,1,0.9c0,0.1,0.1,0.1,0.2,0.1
			c0.1,0,0.1-0.1,0.1-0.1l0,0l0,0l0,0c0,0,0.1-0.5,0.3-0.9c0,0,0,0,0,0c0,0,0,0,0,0c0.1,0.2,0.1,0.3,0.2,0.5c0.1,0.6,0,1.1-0.3,1.6
			c0,0,0,0,0,0l0,0c-0.1,0-0.3-0.1-0.6-0.4c-0.2-0.2-0.4-0.4-0.6-0.7C24.3,28.2,24.2,27.9,24.1,27.5z M24.6,29.4
			C24.6,29.4,24.6,29.4,24.6,29.4C24.6,29.4,24.6,29.4,24.6,29.4c0.1,0,0.1,0,0.2,0.1c0.2,0.1,0.6,0.3,0.9,0.7c0,0,0.1,0.1,0.2,0.1
			c0.1,0,0.1-0.1,0.1-0.1c0,0,0.1-0.4,0.2-0.8c0,0,0,0,0,0l0,0c0,0,0,0,0,0c0.2,0.4,0.5,1.2,0.1,2.1c0,0,0,0,0,0h0
			C25.9,31.3,25,30.9,24.6,29.4z M25.7,32.2c-0.2-0.2-0.4-0.6-0.5-0.9c0,0,0,0,0,0c0,0,0,0,0,0c0.1,0,0.1,0,0.2,0.1
			c0.2,0.1,0.6,0.3,1,0.6c0,0,0.1,0.1,0.2,0c0.1,0,0.1-0.1,0.1-0.1c0,0,0-0.4,0.1-0.9c0,0,0,0,0,0c0,0,0,0,0,0
			c0.1,0.2,0.2,0.3,0.2,0.5c0.2,0.5,0.2,1.1,0.1,1.5c0,0,0,0,0,0l0,0c-0.1,0-0.4-0.1-0.7-0.3C26.2,32.7,25.9,32.5,25.7,32.2z
			 M26,33.1C26,33.1,26,33.1,26,33.1C26,33.1,26,33.1,26,33.1c0.3,0,0.8,0.2,1.2,0.5c0.1,0,0.1,0,0.2,0c0.1,0,0.1-0.1,0.1-0.2
			c0,0,0-0.4,0-0.8c0,0,0,0,0,0c0,0,0,0,0,0c0.1,0.2,0.2,0.3,0.3,0.5c0.2,0.4,0.4,0.9,0.3,1.5c0,0,0,0,0,0l0,0c-0.1,0-0.4,0-0.7-0.2
			c-0.3-0.1-0.5-0.3-0.8-0.5C26.4,33.7,26.2,33.4,26,33.1z M29.7,36.4c0,0-0.2-0.4-0.2-0.8c0,0,0,0,0,0c0,0,0,0,0,0
			c0.4,0.3,1,1,1,1.9c0,0,0,0,0,0c0,0-0.1,0-0.3,0c-0.1,0-0.2,0-0.4,0c-0.5-0.1-1.1-0.4-1.7-1c0,0,0,0,0,0c0,0,0,0,0,0
			c0.3,0,0.8,0,1.3,0.2c0.1,0,0.1,0,0.2,0C29.7,36.5,29.8,36.4,29.7,36.4z M28.3,35.2c0.1,0,0.1,0,0.2,0c0.1,0,0.1-0.1,0.1-0.2
			c0,0-0.1-0.4-0.1-0.8c0,0,0,0,0,0c0,0,0,0,0,0c0.3,0.4,0.8,1.1,0.8,1.9c0,0,0,0,0,0c0,0,0,0-0.1,0c-0.1,0-0.4,0-0.6-0.1
			c-0.3-0.1-0.6-0.2-0.8-0.4c-0.3-0.2-0.5-0.5-0.7-0.8c0,0,0,0,0,0c0,0,0,0,0,0C27.3,34.8,27.8,34.9,28.3,35.2z M34.6,30.9
			c-0.1,0-0.1,0.1-0.1,0.1c-0.4,0.2-0.6,0.5-0.6,0.8c0,0-0.1,0-0.1,0c-0.3-0.1-0.3-0.2-0.3-0.3c0-0.1,0.1-0.3,0.3-0.5
			c0.2-0.2,0.4-0.3,0.6-0.3c0.1,0,0.1,0,0.2,0C34.5,30.8,34.6,30.8,34.6,30.9C34.6,30.9,34.6,30.9,34.6,30.9z M34.9,32.3
			c-0.1,0-0.4,0.1-0.5,0c0,0-0.1-0.1-0.1-0.2c0-0.2,0.3-0.5,0.4-0.6c0.3-0.2,0.5-0.3,0.6-0.3c0.1,0,0.1,0,0.2,0.1
			c0.1,0,0.1,0.1,0.1,0.1c0,0.1-0.1,0.2-0.2,0.2C35.2,31.8,35,32,34.9,32.3z M36.3,32.3c-0.1,0.1-0.5,0.3-0.7,0.3c0,0-0.1,0-0.2-0.1
			c0.1-0.2,0.4-0.4,0.6-0.5c0.3-0.2,0.4-0.1,0.4-0.1c0.1,0.1,0.1,0.1,0.1,0.2C36.6,32.1,36.4,32.3,36.3,32.3
			C36.3,32.3,36.3,32.3,36.3,32.3z M33.4,30.5c0,0-0.1,0.1-0.1,0.1c-0.2,0.2-0.3,0.3-0.4,0.6c0,0-0.1,0-0.1,0
			c-0.2,0-0.3-0.1-0.3-0.1c0,0,0-0.1,0.1-0.2c0.1-0.2,0.5-0.4,0.7-0.4c0,0,0,0,0.1,0C33.3,30.5,33.3,30.5,33.4,30.5
			C33.4,30.5,33.4,30.5,33.4,30.5z M40.4,30.9C40.3,30.9,40.2,31,40,31c-0.2-0.3-0.8-1-1.6-1.4c-0.1,0-0.1,0-0.2,0
			c-0.1,0-0.1,0.1-0.2,0.1c0,0.1,0,0.1,0,0.2c0,0.1,0.1,0.1,0.1,0.2c0.6,0.3,1.2,0.9,1.4,1.2c0,0,0,0.1-0.1,0.1
			c-0.1,0.1-0.2,0.2-0.4,0.2c-0.1-0.1-0.2-0.3-0.4-0.5c-0.2-0.3-0.7-0.6-0.7-0.6c-0.1,0-0.1-0.1-0.2,0c-0.1,0-0.1,0.1-0.2,0.1
			c0,0.1-0.1,0.1,0,0.2c0,0.1,0.1,0.1,0.1,0.2c0.1,0.1,0.5,0.3,0.6,0.5c0.2,0.2,0.3,0.3,0.3,0.4c0,0.1-0.1,0.1-0.1,0.2
			c-0.1,0.1-0.2,0.1-0.4,0.1c-0.1-0.2-0.2-0.4-0.5-0.7c-0.1-0.1-0.3-0.1-0.4,0c-0.1,0-0.1,0.1-0.1,0.2c0,0.1,0,0.1,0.1,0.2
			c0.2,0.2,0.3,0.4,0.4,0.5c0,0-0.1,0.1-0.1,0.1c-0.1,0.1-0.3,0.1-0.4,0.1c0.1-0.1,0.1-0.2,0.1-0.3c0-0.2,0-0.4-0.2-0.6
			c-0.1-0.1-0.3-0.2-0.7-0.2c0-0.2-0.1-0.3-0.3-0.4c-0.2-0.2-0.5-0.3-0.8-0.2l0,0c-0.1-0.1-0.2-0.3-0.4-0.4
			c-0.2-0.1-0.5-0.1-0.7-0.1C33.8,30,33.5,30,33.4,30c-0.4,0-0.8,0.1-1.1,0.4c-1.5,0.8-3.5,1.7-4.3,2.1c-0.4-0.8-0.8-1.7-1.1-2.6
			c-0.1-0.2-0.1-0.5-0.2-0.8c2.3-0.3,4.1-0.5,5.4-0.8c1.4-0.3,2.3-0.6,2.8-0.9c0.5-0.4,0.9-0.6,1.4-0.5c0.1,0,0.2,0,0.3,0
			c-0.1,0-0.2,0.1-0.3,0.2c-0.2,0.1-0.3,0.3-0.5,0.4c-0.1,0.1-0.2,0.2-0.4,0.3c-0.1,0.1-0.2,0.1-0.4,0.2c-0.3,0.2-0.6,0.3-0.6,0.5
			c-0.1,0.2-0.1,0.4,0.1,0.7c0.2,0.3,0.6,0.3,0.9,0.3c0.4,0,0.8-0.1,1.1-0.3c0.1-0.1,0.2-0.1,0.3-0.2c0.1-0.1,0.3-0.2,0.3-0.2
			c0,0,0,0,0,0c0.3-0.1,0.6,0,0.9,0.1c0.3,0.1,0.7,0.3,0.9,0.5c0.7,0.5,1.2,1.1,1.4,1.3C40.5,30.7,40.5,30.8,40.4,30.9z M41.4,30.7
			c-0.2-0.2-0.4-0.3-0.5-0.4c0,0,0,0,0,0l0,0c0,0,0,0,0-0.1c-0.2-0.3-0.7-0.8-1.4-1.3c-0.5-0.3-1.4-0.9-2.3-0.7
			c-0.2,0-0.3,0.1-0.5,0.3c-0.1,0.1-0.2,0.1-0.3,0.2c-0.3,0.2-0.6,0.2-0.9,0.3c-0.3,0-0.4,0-0.5-0.1c-0.1-0.1-0.1-0.1-0.1-0.1
			c0.1-0.1,0.3-0.2,0.4-0.2c0.1-0.1,0.3-0.1,0.4-0.2c0.2-0.1,0.3-0.2,0.4-0.3c0.1-0.1,0.2-0.2,0.4-0.3c0.3-0.2,0.6-0.2,1-0.2h0
			c0.1,0,0.1,0,0.2,0c0.1,0,0.1,0,0.2,0c0.5,0,0.9,0.1,1.6,0.4c0.2,0.1,0.4,0.1,0.6,0.2c0,0,0.9,0.3,2.1,0.6c1,0.2,2.6,0.6,4,0.7
			c-0.1,0.2-0.1,0.5-0.2,0.7c-0.3,0.9-0.7,1.8-1.1,2.6C44.3,32.3,42.5,31.5,41.4,30.7z M44.7,36.4c-0.7,0.7-1.3,0.9-1.7,1
			c-0.1,0-0.3,0-0.4,0c-0.1,0-0.2,0-0.3,0c0,0,0,0,0,0c0-0.5,0.2-1,0.6-1.4c0.1-0.1,0.3-0.3,0.4-0.4c0,0,0,0,0,0c0,0,0,0,0,0
			c0,0.4-0.2,0.8-0.2,0.8c0,0.1,0,0.1,0,0.2c0,0,0.1,0.1,0.2,0C44,36.4,44.4,36.4,44.7,36.4C44.7,36.4,44.7,36.4,44.7,36.4
			C44.7,36.4,44.7,36.4,44.7,36.4z M46,34.8c-0.2,0.3-0.5,0.6-0.7,0.8c-0.3,0.2-0.5,0.4-0.8,0.4c-0.3,0.1-0.5,0.1-0.6,0.1
			c0,0-0.1,0-0.1,0c0,0,0,0,0,0c0-0.5,0.1-1,0.4-1.5c0.1-0.2,0.2-0.3,0.3-0.4c0,0,0,0,0,0c0,0,0,0,0,0c0,0.4,0,0.9,0,0.9
			c0,0.1,0,0.1,0.1,0.2c0.1,0,0.1,0,0.2,0C45.2,34.9,45.7,34.8,46,34.8C46,34.8,46,34.8,46,34.8C46,34.8,46,34.8,46,34.8z
			 M46.3,33.9c-0.2,0.2-0.5,0.4-0.8,0.5c-0.3,0.1-0.6,0.2-0.7,0.2l0,0c0,0,0,0,0,0c-0.1-0.5,0-1,0.3-1.5c0.1-0.2,0.2-0.3,0.3-0.5
			c0,0,0,0,0,0s0,0,0,0c0.1,0.4,0,0.8,0,0.9c0,0.1,0,0.1,0.1,0.2c0.1,0,0.1,0,0.2,0c0.5-0.4,0.9-0.5,1.2-0.5c0,0,0,0,0,0
			c0,0,0,0,0,0C46.8,33.4,46.6,33.7,46.3,33.9z M47.2,32.2c-0.2,0.3-0.4,0.5-0.7,0.6C46.3,33,46,33,45.9,33c0,0,0,0,0,0c0,0,0,0,0,0
			c-0.1-0.5-0.1-1,0.1-1.6c0.1-0.2,0.1-0.3,0.2-0.5c0,0,0,0,0,0c0,0,0,0,0,0c0.1,0.4,0.2,0.8,0.2,0.8c0,0.1,0,0.1,0.1,0.1
			c0.1,0,0.1,0,0.2,0l0,0c0.4-0.4,0.7-0.6,1-0.7c0.1,0,0.1,0,0.2,0c0,0,0,0,0,0c0,0,0,0,0,0C47.6,31.6,47.4,31.9,47.2,32.2z
			 M47.9,30.4c-0.2,0.3-0.4,0.5-0.6,0.7c-0.3,0.2-0.5,0.3-0.6,0.3l0,0c0,0,0,0,0,0c-0.2-0.6-0.2-1.2-0.1-1.6c0-0.2,0.1-0.4,0.2-0.5
			c0,0,0,0,0,0l0,0c0,0,0,0,0,0c0.2,0.4,0.2,0.8,0.2,0.9c0,0.1,0.1,0.1,0.1,0.1c0.1,0,0.1,0,0.2-0.1c0.4-0.5,0.8-0.7,1-0.8
			c0,0,0,0,0,0c0,0,0,0,0,0C48.2,29.8,48.1,30.1,47.9,30.4z M48.4,28.5c-0.1,0.3-0.3,0.5-0.5,0.7c-0.2,0.2-0.5,0.3-0.6,0.4h0
			c0,0,0,0,0,0c-0.2-0.4-0.3-1-0.3-1.6c0-0.2,0.1-0.4,0.1-0.6c0,0,0,0,0,0c0,0,0,0,0,0c0.2,0.4,0.3,0.8,0.3,0.8
			c0,0.1,0.1,0.1,0.1,0.1c0.1,0,0.1,0,0.2-0.1c0.3-0.5,0.7-0.8,0.9-0.9c0,0,0,0,0,0c0,0,0,0,0,0C48.7,27.8,48.6,28.2,48.4,28.5z"/>
		<path class="st3" d="M39.9,9.2c0.4,0,0.7,0.1,1.1,0.2l0.1,0c0.2,0,0.6,0.1,1,0.1c0,0,0.1,0,0.1,0c-0.2-0.1-0.4-0.2-0.5-0.3
			c-0.1-0.1-0.2-0.1-0.3-0.2c-0.4-0.2-0.8-0.3-0.9-0.3c-0.1,0-0.1-0.1-0.1-0.1c0-0.1,0-0.1,0.1-0.1l1.9-0.3l-1.9-0.3
			c0,0-0.1,0-0.1-0.1c0,0,0-0.1,0-0.1c0,0,0.3-0.2,0.8-0.3c0.2,0,0.6-0.1,1-0.3c0,0,0.1,0,0.1,0c-0.2,0-0.4,0-0.6,0
			c-0.1,0-0.2,0-0.4,0c-0.5,0-0.8,0.1-0.9,0.1c-0.1,0-0.1,0-0.1-0.1c0-0.1,0-0.1,0-0.1l1.7-1L40,6.6c0,0-0.1,0-0.1,0
			c0,0,0-0.1,0-0.1c0,0,0.2-0.3,0.6-0.6c0.2-0.1,0.5-0.3,0.8-0.6c0,0,0.1,0,0.1-0.1c-0.2,0.1-0.4,0.2-0.6,0.2
			c-0.1,0-0.2,0.1-0.4,0.1C40,5.7,39.6,6,39.6,6c0,0-0.1,0-0.1,0c0,0,0-0.1,0-0.1l1.2-1.6l-1.6,1.2c0,0-0.1,0-0.1,0
			c0,0-0.1-0.1,0-0.1c0,0,0.1-0.4,0.3-0.7c0.1-0.2,0.3-0.5,0.5-0.9c0,0,0-0.1,0-0.1c-0.1,0.2-0.3,0.3-0.4,0.4
			c-0.1,0.1-0.2,0.2-0.3,0.3c-0.3,0.3-0.5,0.6-0.6,0.7c0,0-0.1,0.1-0.1,0c0,0-0.1-0.1-0.1-0.1L38.7,3l-1,1.7c0,0-0.1,0.1-0.1,0
			c0,0-0.1,0-0.1-0.1c0,0-0.1-0.4,0-0.8c0-0.2,0.1-0.6,0.1-1c0,0,0-0.1,0-0.1c-0.1,0.2-0.2,0.4-0.3,0.6c-0.1,0.1-0.1,0.2-0.2,0.3
			C37,4.1,37,4.5,37,4.5c0,0.1-0.1,0.1-0.1,0.1c-0.1,0-0.1,0-0.1-0.1l-0.3-1.9l-0.3,1.9c0,0,0,0.1-0.1,0.1c0,0-0.1,0-0.1,0
			c0,0-0.2-0.3-0.3-0.8c0-0.2-0.1-0.6-0.3-1c0,0,0-0.1,0-0.1c0,0.2,0,0.4,0,0.6c0,0.1,0,0.2,0,0.4c0,0.5,0.1,0.9,0.1,0.9
			c0,0.1,0,0.1-0.1,0.1c-0.1,0-0.1,0-0.1,0l-1-1.7l0.5,1.9c0,0,0,0.1,0,0.1c0,0-0.1,0-0.1,0c0,0-0.3-0.2-0.6-0.6
			c-0.1-0.2-0.3-0.5-0.6-0.8c0,0,0-0.1-0.1-0.1c0.1,0.2,0.2,0.4,0.2,0.6c0,0.1,0.1,0.2,0.1,0.4C33.8,4.9,34,5.2,34,5.3
			c0,0,0,0.1,0,0.1c0,0-0.1,0-0.1,0l-1.6-1.2l1.2,1.6c0,0,0,0.1,0,0.1c0,0-0.1,0.1-0.1,0c0,0-0.4-0.1-0.7-0.3
			c-0.2-0.1-0.5-0.3-0.9-0.5c0,0-0.1,0-0.1,0c0.2,0.1,0.3,0.3,0.4,0.4c0.1,0.1,0.1,0.2,0.2,0.3C32.7,6.2,33,6.4,33,6.4
			c0,0,0.1,0.1,0,0.1c0,0.1-0.1,0.1-0.1,0.1L31,6.2l1.7,1c0,0,0.1,0.1,0.1,0.1c0,0-0.1,0.1-0.1,0.1c0,0-0.4,0.1-0.8,0
			c-0.2,0-0.6-0.1-1-0.1c0,0-0.1,0-0.1,0c0.2,0.1,0.4,0.2,0.5,0.3c0.1,0.1,0.2,0.1,0.3,0.2c0.4,0.2,0.8,0.3,0.8,0.3
			c0.1,0,0.1,0.1,0.1,0.1c0,0.1,0,0.1-0.1,0.1l-1.9,0.3l1.9,0.3c0,0,0.1,0,0.1,0.1c0,0,0,0.1,0,0.1c0,0-0.3,0.2-0.8,0.3
			c-0.2,0-0.6,0.1-1,0.3c0,0-0.1,0-0.1,0c0.2,0,0.4,0,0.6,0c0,0,0.3,0,0.4,0c0.1,0,0.2,0,0.3,0l0,0c0.4-0.3,0.8-0.5,1.4-0.6
			c0.1,0,0.1,0,0.2,0c0,0,0.1,0.1,0.1,0.1C33.8,9,33.9,9,34,8.9c0.4-0.2,0.9-0.3,1.4-0.3c0.1,0,0.1,0,0.2,0.1c0,0,0.1,0.1,0.1,0.1
			c0.2-0.1,0.3-0.1,0.5-0.1c0.4-0.1,0.9-0.1,1.5,0c0.1,0,0.1,0.1,0.2,0.1c0,0,0,0,0,0.1c0.2,0,0.3,0,0.5,0c0.4,0,0.9,0.1,1.5,0.3
			C39.9,9.1,39.9,9.2,39.9,9.2C39.9,9.2,39.9,9.2,39.9,9.2z"/>
		<g>
			<path class="st2" d="M37.2,6.8c1.9-0.3,2.1,0.2,2.1,0.2s0.1,0.1,0.2,0.1c0,0,0.1,0,0.1-0.2c0,0-0.2-0.6-1.2-0.7
				c0,0-0.5-0.1-1.1,0C37,6.3,37,6.7,37,6.7C37,6.8,37.2,6.8,37.2,6.8z"/>
			<path class="st2" d="M35.6,7.2c-0.2-0.1-0.8-0.1-0.8-0.1c-0.8,0-1.1,0.6-1.1,0.6c-0.1,0.2,0.1,0.2,0.1,0.2C34,7.9,34,7.7,34,7.7
				s0-0.1,0.4-0.2c0,0,0,0.1,0,0.2c0,0.2,0.2,0.4,0.4,0.4c0.2,0,0.4-0.2,0.4-0.4c0-0.1,0-0.1,0-0.2c0.1,0,0.2,0.1,0.3,0.3
				c0,0.1,0.1,0.1,0.3,0.1c0.2,0,0.1-0.1,0.1-0.1C35.8,7.3,35.6,7.2,35.6,7.2z"/>
			<path class="st2" d="M37.1,7.9c0.2,0,0.2,0,0.3-0.1c0.1-0.1,0.2-0.2,0.3-0.3c0,0,0,0.1,0,0.2c0,0.2,0.2,0.4,0.4,0.4
				c0.2,0,0.4-0.2,0.4-0.4c0-0.1,0-0.1,0-0.2c0.3,0.1,0.4,0.2,0.4,0.2s0.1,0.1,0.2,0.1c0,0,0.2,0,0.1-0.2c0,0-0.2-0.5-1.1-0.6
				c0,0-0.5,0-0.7,0.1c0,0-0.3,0.1-0.4,0.6C37,7.7,36.9,7.9,37.1,7.9z"/>
			<path class="st2" d="M33.5,7.1c0.1,0,0.2-0.1,0.2-0.1s0.2-0.5,2.1-0.2c0,0,0.2,0,0.1-0.1c0,0-0.1-0.4-0.2-0.4
				c-0.6-0.1-1.1,0-1.1,0c-1,0.1-1.2,0.7-1.2,0.7C33.4,7.1,33.5,7.1,33.5,7.1z"/>
		</g>
		<g>
			<path class="st4" d="M44.7,36.4c-0.3,0-0.8,0-1.3,0.2c-0.1,0-0.1,0-0.2,0c0-0.1-0.1-0.1,0-0.2c0,0,0.2-0.4,0.2-0.8c0,0,0,0,0,0
				c0,0,0,0,0,0c-0.2,0.1-0.3,0.3-0.4,0.4c-0.4,0.5-0.6,0.9-0.6,1.4c0,0,0,0,0,0c0.1,0,0.1,0,0.3,0c0.1,0,0.2,0,0.4,0
				C43.4,37.3,44,37.1,44.7,36.4C44.7,36.4,44.7,36.4,44.7,36.4C44.7,36.4,44.7,36.4,44.7,36.4z"/>
			<path class="st4" d="M29.6,35.5C29.5,35.5,29.5,35.5,29.6,35.5C29.5,35.5,29.5,35.5,29.6,35.5c0,0.4,0.2,0.8,0.2,0.8
				c0,0.1,0,0.1,0,0.2c-0.1,0-0.1,0.1-0.2,0c-0.5-0.2-1-0.2-1.3-0.2c0,0,0,0,0,0c0,0,0,0,0,0c0.6,0.5,1.1,0.8,1.7,1
				c0.2,0,0.3,0,0.4,0c0.1,0,0.2,0,0.3,0c0,0,0,0,0,0C30.6,36.5,29.9,35.8,29.6,35.5z"/>
			<path class="st4" d="M45.9,34.8c-0.3,0-0.8,0.1-1.2,0.4c-0.1,0-0.1,0-0.2,0c-0.1,0-0.1-0.1-0.1-0.2c0,0,0.1-0.4,0-0.9
				c0,0,0,0,0,0c0,0,0,0,0,0c-0.1,0.1-0.2,0.3-0.3,0.4c-0.3,0.5-0.5,1-0.4,1.5c0,0,0,0,0,0c0,0,0,0,0.1,0c0.1,0,0.4,0,0.6-0.1
				c0.3-0.1,0.6-0.2,0.8-0.4C45.5,35.3,45.7,35.1,45.9,34.8C46,34.8,46,34.8,45.9,34.8C46,34.8,46,34.8,45.9,34.8z"/>
			<path class="st4" d="M47,33.1c-0.3,0.1-0.7,0.2-1.2,0.5c0,0-0.1,0-0.2,0c-0.1,0-0.1-0.1-0.1-0.2c0,0,0-0.4,0-0.9c0,0,0,0,0,0
				s0,0,0,0c-0.1,0.2-0.2,0.3-0.3,0.5c-0.3,0.5-0.4,1-0.3,1.5c0,0,0,0,0,0l0,0c0.1,0,0.4,0,0.7-0.2c0.3-0.1,0.5-0.3,0.8-0.5
				C46.6,33.7,46.8,33.4,47,33.1C47,33.1,47,33.1,47,33.1C47,33.1,47,33.1,47,33.1z"/>
			<path class="st4" d="M47.8,31.3c-0.1,0-0.1,0-0.2,0c-0.2,0.1-0.6,0.3-1,0.7l0,0c0,0-0.1,0.1-0.2,0c-0.1,0-0.1-0.1-0.1-0.1
				c0,0,0-0.4-0.2-0.8c0,0,0,0,0,0c0,0,0,0,0,0c-0.1,0.2-0.2,0.3-0.2,0.5c-0.2,0.5-0.2,1.1-0.1,1.6c0,0,0,0,0,0c0,0,0,0,0,0
				c0.1,0,0.4-0.1,0.7-0.3c0.3-0.1,0.5-0.4,0.7-0.6C47.4,31.9,47.6,31.6,47.8,31.3C47.8,31.3,47.8,31.3,47.8,31.3
				C47.8,31.3,47.8,31.3,47.8,31.3z"/>
			<path class="st4" d="M48.3,29.4c-0.3,0.1-0.7,0.3-1,0.8c0,0-0.1,0.1-0.2,0.1c-0.1,0-0.1-0.1-0.1-0.1c0,0-0.1-0.5-0.2-0.9
				c0,0,0,0,0,0l0,0c0,0,0,0,0,0c-0.1,0.2-0.1,0.4-0.2,0.5c-0.1,0.4-0.2,1,0.1,1.6c0,0,0,0,0,0l0,0c0.1,0,0.4-0.1,0.6-0.3
				c0.2-0.2,0.4-0.4,0.6-0.7C48.1,30.1,48.2,29.8,48.3,29.4C48.4,29.4,48.4,29.4,48.3,29.4C48.4,29.4,48.3,29.4,48.3,29.4z"/>
			<path class="st4" d="M48.7,27.5c-0.3,0.1-0.6,0.4-0.9,0.9c0,0.1-0.1,0.1-0.2,0.1c-0.1,0-0.1-0.1-0.1-0.1c0,0-0.1-0.5-0.3-0.8
				c0,0,0,0,0,0c0,0,0,0,0,0C47.1,27.7,47,27.8,47,28c-0.1,0.6,0,1.1,0.3,1.6c0,0,0,0,0,0h0c0.1,0,0.3-0.2,0.6-0.4
				c0.2-0.2,0.4-0.5,0.5-0.7C48.6,28.2,48.7,27.8,48.7,27.5C48.7,27.5,48.7,27.5,48.7,27.5C48.7,27.4,48.7,27.4,48.7,27.5z"/>
			<path class="st4" d="M48.1,26.5c0,0.1-0.1,0.1-0.2,0.1c-0.1,0-0.1,0-0.1-0.1c0,0-0.2-0.4-0.4-0.8c0,0,0,0,0,0c0,0,0,0,0,0
				c0,0.2-0.1,0.4-0.1,0.6c0,0.6,0.1,1.1,0.4,1.5c0,0,0,0,0,0h0c0.1,0,0.3-0.2,0.5-0.5c0.2-0.2,0.3-0.5,0.5-0.8
				c0.1-0.3,0.2-0.6,0.2-1c0,0,0,0,0,0c0,0,0,0,0,0C48.7,25.7,48.3,26,48.1,26.5z"/>
			<path class="st4" d="M48,24.7c-0.1,0-0.1,0-0.2-0.1c0,0-0.2-0.4-0.5-0.7c0,0,0,0,0,0c0,0,0,0,0,0c0,0.5,0,1.4,0.6,2c0,0,0,0,0,0
				c0,0,0,0,0,0c0.1-0.1,0.3-0.2,0.5-0.5c0.2-0.2,0.3-0.5,0.4-0.8c0.1-0.3,0.1-0.7,0.1-1c0,0,0,0,0,0c0,0,0,0,0,0
				c-0.2,0.2-0.5,0.5-0.7,1.1C48.1,24.7,48.1,24.7,48,24.7z"/>
			<path class="st4" d="M47.9,22.8c-0.1,0-0.1,0-0.2-0.1c0,0-0.2-0.3-0.5-0.6c0,0,0,0,0,0c0,0,0,0,0,0c0.1,0.5,0.2,1.5,0.7,1.9
				c0,0,0,0,0,0c0,0,0,0,0,0c0.1-0.1,0.3-0.2,0.5-0.6c0.1-0.3,0.2-0.5,0.3-0.9c0.1-0.3,0.1-0.7,0-1c0,0,0,0,0,0c0,0,0,0,0,0
				c-0.2,0.2-0.5,0.6-0.6,1.2C48,22.8,48,22.8,47.9,22.8z"/>
			<path class="st4" d="M47.6,21c-0.1,0-0.1,0-0.2-0.1c0,0-0.2-0.4-0.6-0.6c0,0,0,0,0,0c0,0,0,0,0,0c0,0.2,0.1,0.4,0.1,0.6
				c0.1,0.4,0.3,0.9,0.8,1.3c0,0,0,0,0,0c0,0,0,0,0,0c0.1-0.1,0.3-0.3,0.4-0.6c0.1-0.3,0.2-0.6,0.2-0.9c0-0.3,0-0.7,0-1c0,0,0,0,0,0
				c0,0,0,0,0,0c-0.2,0.2-0.5,0.6-0.6,1.2C47.8,20.9,47.7,21,47.6,21z"/>
			<path class="st4" d="M47.2,19.2c-0.1,0-0.1,0-0.2,0c0,0-0.3-0.3-0.7-0.5c0,0,0,0,0,0c0,0,0,0,0,0c0,0.2,0.1,0.4,0.2,0.5
				c0.2,0.5,0.5,1,0.9,1.2c0,0,0,0,0,0c0,0,0,0,0,0c0.1-0.1,0.2-0.3,0.3-0.6c0.1-0.3,0.1-0.6,0.1-0.9c0-0.3-0.1-0.7-0.2-1
				c0,0,0,0,0,0c0,0,0,0,0,0c-0.2,0.3-0.4,0.7-0.4,1.2C47.3,19.1,47.3,19.1,47.2,19.2z"/>
			<path class="st4" d="M46.4,17.3c0,0-0.3-0.3-0.7-0.5c0,0,0,0,0,0c0,0,0,0,0,0c0.1,0.2,0.1,0.3,0.2,0.5c0.3,0.5,0.6,0.9,1.1,1.1h0
				c0,0,0,0,0,0c0.1-0.1,0.2-0.3,0.3-0.7c0.1-0.3,0.1-0.6,0-0.9c0-0.3-0.1-0.7-0.3-1c0,0,0,0,0,0c0,0,0,0,0,0
				c-0.1,0.3-0.3,0.7-0.3,1.3c0,0.1,0,0.1-0.1,0.2l0,0C46.5,17.4,46.5,17.4,46.4,17.3z"/>
			<path class="st4" d="M44.8,15.3C44.8,15.3,44.8,15.3,44.8,15.3c0.1,0.2,0.2,0.4,0.3,0.5c0.3,0.5,0.7,0.8,1.2,1h0c0,0,0,0,0,0
				c0-0.1,0.2-0.3,0.2-0.7c0-0.3,0-0.6-0.1-0.9c-0.1-0.3-0.2-0.6-0.4-1c0,0,0,0,0,0c0,0,0,0,0,0c-0.1,0.3-0.2,0.7-0.1,1.3
				c0,0.1,0,0.1-0.1,0.2l0,0c-0.1,0-0.1,0-0.2,0C45.6,15.7,45.2,15.4,44.8,15.3C44.8,15.3,44.8,15.3,44.8,15.3z"/>
			<path class="st4" d="M43.7,13.8C43.7,13.9,43.7,13.9,43.7,13.8c0.1,0.2,0.2,0.3,0.4,0.5c0.4,0.4,0.9,0.7,1.3,0.8c0,0,0,0,0,0
				c0,0,0,0,0,0c0-0.1,0.1-0.4,0.1-0.7c0-0.3-0.1-0.6-0.2-0.9c-0.1-0.3-0.3-0.6-0.5-0.9c0,0,0,0,0,0c0,0,0,0,0,0
				c-0.1,0.3-0.1,0.8,0.1,1.3c0,0.1,0,0.1-0.1,0.2c-0.1,0-0.1,0-0.2,0C44.6,14.1,44.2,13.9,43.7,13.8C43.7,13.8,43.7,13.8,43.7,13.8
				z"/>
			<path class="st4" d="M43.5,12.7c0,0.1-0.1,0.1-0.2,0c0,0-0.4-0.1-0.8-0.1c0,0,0,0-0.1,0c0,0,0,0,0,0c0,0,0,0,0,0
				c0.2,0.1,0.3,0.3,0.5,0.4c0.3,0.3,0.8,0.5,1.4,0.5c0,0,0,0,0,0c0,0,0,0,0,0c0-0.1,0-0.4,0-0.7c-0.1-0.3-0.2-0.6-0.4-0.8
				c-0.2-0.3-0.4-0.5-0.7-0.8c0,0,0,0,0,0c0,0,0,0,0,0c0,0.3,0,0.8,0.3,1.3C43.6,12.6,43.6,12.6,43.5,12.7z"/>
			<path class="st4" d="M29.2,36.1C29.2,36.1,29.2,36.1,29.2,36.1C29.2,36.1,29.2,36.1,29.2,36.1c0.1-0.8-0.4-1.5-0.7-1.9
				c0,0,0,0,0,0c0,0,0,0,0,0c0,0.4,0.1,0.8,0.1,0.8c0,0.1,0,0.1-0.1,0.2c-0.1,0-0.1,0-0.2,0c-0.5-0.3-1-0.4-1.2-0.4c0,0,0,0,0,0
				c0,0,0,0,0,0c0.2,0.3,0.5,0.6,0.7,0.8c0.3,0.2,0.5,0.4,0.8,0.4C28.8,36.1,29,36.1,29.2,36.1z"/>
			<path class="st4" d="M28.1,34.6L28.1,34.6C28.1,34.6,28.1,34.6,28.1,34.6c0.1-0.6-0.1-1.1-0.3-1.5c-0.1-0.2-0.2-0.3-0.3-0.5
				c0,0,0,0,0,0c0,0,0,0,0,0c-0.1,0.4,0,0.8,0,0.8c0,0.1,0,0.1-0.1,0.2c-0.1,0-0.1,0-0.2,0c-0.5-0.4-0.9-0.5-1.2-0.5c0,0,0,0,0,0
				c0,0,0,0,0,0c0.2,0.3,0.4,0.6,0.6,0.8c0.2,0.2,0.5,0.4,0.8,0.5C27.7,34.6,27.9,34.6,28.1,34.6z"/>
			<path class="st4" d="M27.1,33.1L27.1,33.1C27.1,33.1,27.1,33.1,27.1,33.1c0.2-0.5,0.1-1-0.1-1.6c-0.1-0.2-0.1-0.3-0.2-0.5
				c0,0,0,0,0,0c0,0,0,0,0,0c-0.1,0.4-0.1,0.8-0.1,0.9c0,0.1,0,0.1-0.1,0.1c-0.1,0-0.1,0-0.2,0c-0.3-0.4-0.7-0.5-1-0.6
				c-0.1,0-0.1,0-0.2-0.1c0,0,0,0,0,0c0,0,0,0,0,0c0.1,0.3,0.3,0.6,0.5,0.9c0.2,0.3,0.4,0.5,0.7,0.6C26.7,33,27,33.1,27.1,33.1z"/>
			<path class="st4" d="M26.3,31.4L26.3,31.4C26.3,31.4,26.3,31.4,26.3,31.4c0.4-0.8,0.1-1.7-0.1-2.1c0,0,0,0,0,0l0,0c0,0,0,0,0,0
				c-0.2,0.4-0.2,0.8-0.2,0.8c0,0.1-0.1,0.1-0.1,0.1c-0.1,0-0.1,0-0.2-0.1c-0.3-0.4-0.7-0.6-0.9-0.7c0,0-0.1-0.1-0.2-0.1
				c0,0,0,0,0,0c0,0,0,0,0,0C25,30.9,25.9,31.3,26.3,31.4z"/>
			<path class="st4" d="M25,29.3c0.3,0.2,0.5,0.3,0.6,0.4h0c0,0,0,0,0,0c0.3-0.5,0.4-1,0.3-1.6c0-0.2-0.1-0.3-0.2-0.5c0,0,0,0,0,0
				c0,0,0,0,0,0c-0.2,0.4-0.3,0.8-0.3,0.9l0,0l0,0l0,0l0,0l0,0l0,0c0,0.1-0.1,0.1-0.1,0.1c-0.1,0-0.1,0-0.2-0.1
				c-0.3-0.5-0.7-0.7-1-0.9c0,0,0,0,0,0c0,0,0,0,0,0c0.1,0.4,0.2,0.7,0.4,1C24.6,28.8,24.8,29.1,25,29.3z"/>
			<path class="st4" d="M25.1,27.8L25.1,27.8C25.2,27.8,25.2,27.8,25.1,27.8c0.6-0.8,0.6-1.6,0.5-2c0,0,0,0,0,0c0,0,0,0,0,0
				c-0.3,0.3-0.5,0.8-0.5,0.8c0,0.1-0.1,0.1-0.1,0.1l0,0c0,0,0,0,0,0c-0.1,0-0.1,0-0.1-0.1c-0.2-0.5-0.5-0.8-0.7-0.9
				c0,0-0.1-0.1-0.1-0.1c0,0,0,0,0,0c0,0,0,0,0,0C24.1,27.1,24.8,27.6,25.1,27.8z"/>
			<path class="st4" d="M25,26C25,26,25,26,25,26C25,26,25,26,25,26c0.3-0.3,0.5-0.7,0.6-1.1c0.1-0.4,0-0.7,0-0.9c0,0,0,0,0,0
				c0,0,0,0,0,0c-0.3,0.3-0.4,0.7-0.4,0.7l0,0c0,0.1-0.1,0.1-0.1,0.1c-0.1,0-0.1,0-0.2-0.1c-0.2-0.5-0.4-0.8-0.6-1
				c0,0-0.1-0.1-0.1-0.1c0,0,0,0,0,0c0,0,0,0,0,0C24,25.1,24.7,25.8,25,26z"/>
			<path class="st4" d="M24.6,23.5c0.2,0.3,0.4,0.5,0.4,0.5c0,0,0,0,0,0c0,0,0,0,0,0c0.4-0.3,0.6-0.8,0.7-1.4c0-0.2,0-0.4,0-0.6
				c0,0,0,0,0,0c0,0,0,0,0,0c-0.3,0.3-0.5,0.7-0.5,0.7c0,0.1-0.1,0.1-0.2,0.1c-0.1,0-0.1-0.1-0.1-0.1c-0.1-0.6-0.4-0.9-0.6-1.2
				c0,0,0,0,0,0c0,0,0,0,0,0c0,0.4,0,0.7,0,1C24.3,22.9,24.4,23.2,24.6,23.5z"/>
			<path class="st4" d="M24.7,21.6c0.1,0.3,0.3,0.5,0.4,0.6c0,0,0,0,0,0c0,0,0,0,0,0c0.4-0.4,0.7-0.8,0.8-1.4c0-0.2,0.1-0.3,0.1-0.5
				c0,0,0,0,0,0c0,0,0,0,0,0c-0.3,0.3-0.6,0.6-0.6,0.6c0,0.1-0.1,0.1-0.2,0.1c-0.1,0-0.1-0.1-0.1-0.1c-0.1-0.6-0.4-1-0.6-1.2
				c0,0,0,0,0,0c0,0,0,0,0,0c-0.1,0.4-0.1,0.7,0,1C24.5,21,24.6,21.3,24.7,21.6z"/>
			<path class="st4" d="M25.4,20.3C25.4,20.3,25.4,20.3,25.4,20.3C25.4,20.3,25.4,20.3,25.4,20.3c0.5-0.3,0.8-0.7,1-1.3
				c0.1-0.2,0.1-0.3,0.1-0.5c0,0,0,0,0,0c0,0,0,0,0,0c-0.4,0.2-0.7,0.6-0.7,0.6c0,0.1-0.1,0.1-0.2,0.1c-0.1,0-0.1-0.1-0.1-0.1
				c0-0.6-0.3-1-0.4-1.2c0,0,0,0,0,0c0,0,0,0,0,0c-0.1,0.4-0.2,0.7-0.2,1c0,0.3,0,0.6,0.1,0.9C25.2,20,25.3,20.2,25.4,20.3z"/>
			<path class="st4" d="M25.9,18.5C25.9,18.5,25.9,18.5,25.9,18.5C25.9,18.5,25.9,18.5,25.9,18.5c0.5-0.3,0.9-0.6,1.2-1.1
				c0.1-0.1,0.1-0.3,0.2-0.5c0,0,0,0,0,0c0,0,0,0,0,0c-0.4,0.2-0.7,0.5-0.8,0.5c0,0-0.1,0.1-0.2,0c-0.1,0-0.1-0.1-0.1-0.2
				c0-0.6-0.1-1-0.3-1.3c0,0,0,0,0,0l0,0c0,0,0,0,0,0c-0.2,0.3-0.3,0.7-0.3,1c0,0.3,0,0.6,0,0.9C25.7,18.2,25.8,18.4,25.9,18.5z"/>
			<path class="st4" d="M26.6,16.8C26.6,16.8,26.6,16.8,26.6,16.8L26.6,16.8c0.5-0.1,0.9-0.4,1.2-0.9c0.2-0.2,0.3-0.4,0.3-0.5
				c0,0,0,0,0,0c0,0,0,0,0,0c-0.5,0.1-0.8,0.4-0.8,0.4c-0.1,0.1-0.1,0.1-0.2,0c-0.1,0-0.1-0.1-0.1-0.2c0.1-0.6,0-1-0.1-1.3
				c0,0,0,0,0,0c0,0,0,0,0,0c-0.2,0.3-0.4,0.6-0.5,0.9c-0.1,0.3-0.1,0.6-0.1,0.9C26.4,16.4,26.5,16.7,26.6,16.8z"/>
			<path class="st4" d="M27.5,15.1L27.5,15.1c0.8-0.1,1.4-0.8,1.7-1.3c0,0,0,0,0,0c0,0,0,0,0,0c-0.5,0-0.8,0.3-0.8,0.3
				c-0.1,0-0.1,0-0.2,0c-0.1,0-0.1-0.1-0.1-0.2c0.2-0.5,0.2-1,0.1-1.3c0,0,0,0,0,0c0,0,0,0,0,0C27.2,13.8,27.4,14.8,27.5,15.1
				C27.5,15.1,27.5,15.1,27.5,15.1z"/>
			<path class="st4" d="M28.6,13.6C28.6,13.6,28.7,13.6,28.6,13.6c0.5,0,1-0.3,1.3-0.5c0.2-0.1,0.3-0.3,0.5-0.4c0,0,0,0,0,0
				c0,0,0,0,0,0c-0.4,0-0.8,0.1-0.8,0.1c-0.1,0-0.1,0-0.2,0c0-0.1-0.1-0.1,0-0.2c0.3-0.5,0.3-1,0.3-1.3c0,0,0,0,0,0c0,0,0,0,0,0
				c-0.3,0.2-0.5,0.5-0.7,0.8c-0.2,0.3-0.3,0.6-0.4,0.8C28.6,13.2,28.6,13.5,28.6,13.6C28.6,13.6,28.6,13.6,28.6,13.6z"/>
			<path class="st4" d="M31.9,11.5c-0.4,0-0.8,0-0.8,0c-0.1,0-0.1,0-0.2-0.1c0-0.1,0-0.1,0-0.2c0.3-0.5,0.4-0.9,0.4-1.2c0,0,0,0,0,0
				c0,0,0,0,0,0C30,11,30,11.9,30,12.3c0,0,0,0,0,0c0,0,0.1,0,0.1,0C30.8,12.3,31.5,11.8,31.9,11.5C31.9,11.5,31.9,11.5,31.9,11.5
				C31.9,11.5,31.9,11.5,31.9,11.5z"/>
			<path class="st4" d="M33.5,10.7c-0.1,0-0.3-0.1-0.4-0.1c-0.2,0-0.4,0-0.4,0l0,0c-0.1,0-0.1,0-0.2-0.1c0-0.1,0-0.1,0-0.2
				c0.4-0.4,0.6-0.7,0.7-0.9c0,0,0,0,0,0c0,0,0,0,0,0c-1.5,0.5-1.8,1.3-1.8,1.7c0,0,0,0,0,0c0.1,0,0.3,0.1,0.6,0.1
				c0.3,0,0.6,0,1-0.2C33.1,10.9,33.3,10.8,33.5,10.7C33.5,10.8,33.5,10.7,33.5,10.7C33.5,10.7,33.5,10.7,33.5,10.7z"/>
			<path class="st4" d="M35.2,10.3c-0.4-0.2-0.8-0.3-0.8-0.3c-0.1,0-0.1-0.1-0.1-0.1c0-0.1,0-0.1,0.1-0.2c0.5-0.2,0.7-0.5,0.8-0.6
				c0,0,0,0,0,0c0,0,0,0,0,0c-0.7,0.1-1.3,0.4-1.7,0.7c-0.2,0.2-0.3,0.4-0.3,0.5c0,0,0,0,0,0c0.3,0.1,0.7,0.2,1,0.2
				c0.2,0,0.4,0,0.6,0C34.9,10.4,35,10.3,35.2,10.3C35.2,10.3,35.2,10.3,35.2,10.3C35.2,10.3,35.2,10.3,35.2,10.3z"/>
			<path class="st4" d="M36.4,9.8c-0.1,0-0.1-0.1-0.1-0.2c0-0.1,0-0.1,0.1-0.2c0.5-0.1,0.8-0.3,0.9-0.5c0,0,0,0,0,0c0,0,0,0,0,0
				c-0.7,0-1.3,0.1-1.8,0.3c-0.2,0.1-0.4,0.3-0.4,0.4c0,0,0,0,0,0c0.5,0.4,1.1,0.5,1.6,0.5c0.2,0,0.3,0,0.4,0c0,0,0,0,0,0
				c0,0,0,0,0,0C36.8,9.9,36.4,9.8,36.4,9.8z"/>
			<path class="st4" d="M38.3,9.9c-0.1,0-0.1-0.1-0.1-0.2c0-0.1,0.1-0.1,0.1-0.1c0.5-0.1,0.8-0.2,1-0.3c0,0,0,0,0,0c0,0,0,0,0,0
				c-0.7-0.2-1.3-0.2-1.8,0c-0.3,0.1-0.4,0.2-0.5,0.3c0,0,0,0,0,0c0.6,0.7,1.5,0.9,1.9,0.9l0,0c0,0,0,0,0,0c0,0,0,0,0,0
				C38.6,10.2,38.3,9.9,38.3,9.9z"/>
			<path class="st4" d="M43,12.3C43,12.3,43,12.3,43,12.3c0-0.2,0-0.5-0.1-0.8c-0.2-0.6-0.7-1-1.3-1.2c0,0,0,0,0,0c0,0,0,0,0,0
				c0.1,0.3,0.3,0.6,0.5,1c0,0.1,0,0.1,0,0.2c0,0.1-0.1,0.1-0.2,0.1c0,0-0.4-0.1-0.8,0c0,0,0,0,0,0c0,0,0,0,0,0
				C41.5,11.8,42.3,12.3,43,12.3C43,12.3,43,12.3,43,12.3z"/>
			<path class="st4" d="M41.5,11.1C41.5,11.1,41.5,11.1,41.5,11.1c-0.4-0.4-0.8-0.6-1.4-0.5c-0.2,0-0.4,0.1-0.6,0.1c0,0,0,0,0,0
				c0,0,0,0,0,0c0.4,0.3,0.9,0.5,1.4,0.5c0,0,0.1,0,0.1,0C41.2,11.2,41.4,11.1,41.5,11.1C41.5,11.1,41.5,11.1,41.5,11.1z"/>
			<path class="st4" d="M38.8,9.9C38.8,9.9,38.8,9.9,38.8,9.9c0.3,0.2,0.6,0.3,1,0.3c0.2,0,0.3,0,0.5,0c0.3-0.1,0.6-0.1,0.7-0.2
				c0,0,0,0,0,0c0,0,0,0,0,0c-0.3-0.1-0.5-0.3-0.8-0.3c-0.3,0-0.6,0-0.9,0C39.2,9.7,39,9.8,38.8,9.9C38.8,9.9,38.8,9.9,38.8,9.9z"/>
		</g>
		<g>
			<path class="st5" d="M33.4,20.5c0.1,0.1,0.2,0.2,0.5,0.2H36C34.7,19.9,34.2,20.1,33.4,20.5C33.4,20.5,33.4,20.5,33.4,20.5z"/>
			<path class="st5" d="M38.5,19.6c-0.2-0.1-0.4-0.1-0.5-0.2c-0.7-0.3-1.2-0.7-1.2-0.7c-0.1-0.1-0.2-0.3,0-0.4
				c0.1-0.1,0.3-0.2,0.4-0.1c0,0,0.5,0.4,1.1,0.6c0.1,0,0.3,0.1,0.5,0.1c0.3,0.1,0.6,0.2,0.9,0.3c-0.1-0.3-0.1-0.6-0.2-0.9
				c-0.8-0.2-1.5-0.8-1.6-0.8c-0.1,0-0.1-0.1-0.1-0.2c0-0.1,0-0.2,0.1-0.2c0.1-0.1,0.3-0.2,0.4,0c0,0,0.5,0.4,1,0.6
				c-0.2-0.8-0.5-1.6-0.9-2.4c-0.3-0.6-0.7-0.9-1.2-1.1C36.6,14,36.3,14,36.3,14c0,0,0,0,0,0c0,0-1,0-1.7,0.8c0,0,0,0,0,0
				c-0.1,0.1-0.4,0.5-0.5,0.8c0,0.2,0,0.3,0.1,0.3c0,0,0.2,0.1,0.5-0.1c0.1-0.1,0.1-0.1,0.1-0.1c0.1-0.1,0.3-0.1,0.4,0.1
				c0.1,0.1,0.1,0.3,0,0.4c0,0-0.1,0.1-0.1,0.1c-0.1,0.1-0.4,0.3-0.7,0.7c-0.4,0.5-0.9,1.4-1.1,2.7c0,0,0,0.1,0,0.1
				c0.9-0.4,1.6-0.5,3.1,0.5c0.6,0.4,1.3,0.4,1.5,0.4h0.7c0,0,0,0,0,0c0.2,0,0.7,0,0.9-0.3c0,0,0.1-0.1,0.1-0.2
				C39.6,19.9,39.3,19.8,38.5,19.6z"/>
		</g>
		<g>
			<path class="st6" d="M35.5,31.6c0.1-0.1,0.2-0.2,0.2-0.2c0,0,0-0.1-0.1-0.1c-0.1-0.1-0.1-0.1-0.2-0.1c-0.2,0-0.3,0.1-0.6,0.3
				c-0.2,0.1-0.5,0.4-0.4,0.6c0,0.1,0,0.1,0.1,0.2c0.1,0.1,0.4,0.1,0.5,0C35,32,35.2,31.8,35.5,31.6z"/>
			<path class="st6" d="M36.6,32c0,0,0-0.1-0.1-0.2c0,0-0.1-0.1-0.4,0.1c-0.2,0.1-0.5,0.3-0.6,0.5c0.1,0.1,0.1,0.1,0.2,0.1
				c0.3,0,0.6-0.2,0.7-0.3c0,0,0,0,0,0C36.4,32.3,36.6,32.1,36.6,32z"/>
			<path class="st6" d="M33.3,30.5C33.3,30.5,33.3,30.5,33.3,30.5c-0.3,0-0.6,0.2-0.8,0.3c-0.1,0.1-0.1,0.2-0.1,0.2
				c0,0,0.1,0.1,0.3,0.1c0,0,0.1,0,0.1,0c0.1-0.2,0.2-0.4,0.4-0.6c0,0,0.1-0.1,0.1-0.1C33.4,30.5,33.4,30.5,33.3,30.5
				C33.3,30.5,33.3,30.5,33.3,30.5z"/>
			<path class="st6" d="M33.4,31.5c0,0,0,0.2,0.3,0.3c0,0,0.1,0,0.1,0c0.1-0.3,0.3-0.5,0.6-0.8c0,0,0.1-0.1,0.1-0.1c0,0,0,0,0,0
				c0,0-0.1-0.1-0.2-0.1c-0.1,0-0.1,0-0.2,0c-0.2,0-0.4,0.1-0.6,0.3C33.5,31.2,33.4,31.4,33.4,31.5z"/>
			<path class="st6" d="M40,31c0.2,0,0.3,0,0.4-0.1c0.1-0.1,0.1-0.2,0.1-0.3c-0.2-0.2-0.7-0.8-1.4-1.3c-0.3-0.2-0.6-0.4-0.9-0.5
				c-0.4-0.1-0.7-0.2-0.9-0.1c0,0,0,0,0,0c-0.1,0-0.2,0.1-0.3,0.2c-0.1,0.1-0.2,0.1-0.3,0.2c-0.3,0.2-0.7,0.3-1.1,0.3
				c-0.3,0-0.7,0-0.9-0.3c-0.2-0.2-0.2-0.4-0.1-0.7c0.1-0.2,0.3-0.3,0.6-0.5c0.1-0.1,0.3-0.1,0.4-0.2c0.1-0.1,0.2-0.2,0.4-0.3
				c0.1-0.1,0.2-0.2,0.5-0.4c0.1-0.1,0.2-0.1,0.3-0.2c-0.1,0-0.2,0-0.3,0c-0.5,0-0.9,0.1-1.4,0.5c-0.5,0.3-1.4,0.6-2.8,0.9
				c-1.3,0.3-3.2,0.5-5.4,0.8c0.1,0.3,0.1,0.5,0.2,0.8c0.3,0.9,0.7,1.8,1.1,2.6c0.8-0.4,2.8-1.3,4.3-2.1c0.3-0.3,0.8-0.5,1.1-0.4
				c0.1,0,0.4,0,0.6,0.2c0.3-0.1,0.5-0.1,0.7,0.1c0.3,0.1,0.4,0.3,0.4,0.4l0,0c0.3-0.1,0.6,0,0.8,0.2c0.2,0.1,0.2,0.3,0.3,0.4
				c0.3,0,0.5,0.1,0.7,0.2c0.2,0.2,0.3,0.4,0.2,0.6c0,0.1-0.1,0.2-0.1,0.3c0.2,0,0.3,0,0.4-0.1c0,0,0.1,0,0.1-0.1
				c-0.1-0.1-0.2-0.3-0.4-0.5c0-0.1-0.1-0.1-0.1-0.2c0-0.1,0-0.1,0.1-0.2c0.1-0.1,0.3-0.1,0.4,0c0.3,0.3,0.4,0.6,0.5,0.7
				c0.1,0,0.3,0,0.4-0.1c0.1-0.1,0.1-0.1,0.1-0.2c0-0.1-0.1-0.2-0.3-0.4c-0.2-0.2-0.5-0.4-0.6-0.5c-0.1,0-0.1-0.1-0.1-0.2
				c0-0.1,0-0.1,0-0.2c0-0.1,0.1-0.1,0.2-0.1c0.1,0,0.1,0,0.2,0c0,0,0.5,0.3,0.7,0.6c0.2,0.2,0.3,0.4,0.4,0.5c0.2,0,0.3-0.1,0.4-0.2
				c0,0,0.1-0.1,0.1-0.1c-0.2-0.3-0.7-0.9-1.4-1.2c-0.1,0-0.1-0.1-0.1-0.2c0-0.1,0-0.1,0-0.2c0-0.1,0.1-0.1,0.2-0.1
				c0.1,0,0.1,0,0.2,0C39.2,30,39.8,30.7,40,31z"/>
			<path class="st6" d="M36.6,28.5c0.2-0.1,0.3-0.2,0.5-0.3c0.9-0.2,1.8,0.4,2.3,0.7c0.7,0.4,1.2,1,1.4,1.3c0,0,0,0,0,0.1l0,0
				c0,0,0,0,0,0c0.1,0.1,0.2,0.3,0.5,0.4c1.1,0.8,2.9,1.6,3.6,1.9c0.4-0.8,0.8-1.7,1.1-2.6c0.1-0.2,0.1-0.5,0.2-0.7
				c-1.4-0.1-3-0.4-4-0.7c-1.2-0.3-2.1-0.6-2.1-0.6c-0.2-0.1-0.5-0.2-0.6-0.2c-0.7-0.2-1.1-0.4-1.6-0.4c-0.1,0-0.1,0-0.2,0
				c-0.1,0-0.1,0-0.2,0h0c-0.4,0-0.7,0-1,0.2c-0.2,0.1-0.3,0.2-0.4,0.3c-0.1,0.1-0.2,0.2-0.4,0.3c-0.1,0.1-0.3,0.2-0.4,0.2
				c-0.1,0.1-0.3,0.2-0.4,0.2c0,0,0,0.1,0.1,0.1c0.1,0.1,0.2,0.1,0.5,0.1c0.2,0,0.6-0.1,0.9-0.3C36.4,28.6,36.5,28.5,36.6,28.5z"/>
		</g>
	</g>
	<g>
		<g>
			<path class="st7" d="M0.2,65.6h1.7c1,0,1.6,0.6,1.6,1.4v0c0,1-0.8,1.5-1.7,1.5H0.9v1.4H0.2V65.6z M1.8,67.8
				c0.6,0,0.9-0.3,0.9-0.8v0c0-0.5-0.4-0.8-0.9-0.8H0.9v1.5H1.8z"/>
			<path class="st7" d="M4.1,66.7h0.7v0.7c0.2-0.5,0.6-0.8,1.1-0.8v0.8h0c-0.6,0-1.1,0.4-1.1,1.3v1.2H4.1V66.7z"/>
			<path class="st7" d="M6.4,68.3L6.4,68.3c0-0.9,0.7-1.7,1.6-1.7c1,0,1.5,0.8,1.5,1.7c0,0.1,0,0.1,0,0.2H7.1
				c0.1,0.5,0.5,0.8,0.9,0.8c0.4,0,0.6-0.1,0.9-0.4l0.4,0.4C9.1,69.7,8.6,70,8.1,70C7.1,70,6.4,69.3,6.4,68.3z M8.8,68.1
				c0-0.5-0.3-0.8-0.8-0.8c-0.5,0-0.8,0.3-0.8,0.8H8.8z"/>
			<path class="st7" d="M9.9,69.5l0.3-0.5c0.3,0.3,0.7,0.4,1.1,0.4c0.3,0,0.5-0.1,0.5-0.3v0c0-0.2-0.3-0.3-0.7-0.5
				c-0.5-0.1-1-0.3-1-0.9v0c0-0.6,0.5-1,1.1-1c0.4,0,0.8,0.1,1.2,0.4l-0.3,0.5c-0.3-0.2-0.6-0.3-0.9-0.3c-0.3,0-0.5,0.1-0.5,0.3v0
				c0,0.2,0.3,0.3,0.7,0.5c0.5,0.1,1,0.4,1,0.9v0c0,0.7-0.5,1-1.2,1C10.9,70,10.3,69.8,9.9,69.5z"/>
			<path class="st7" d="M13.2,65.5H14v0.7h-0.8V65.5z M13.2,66.7H14v3.2h-0.7V66.7z"/>
			<path class="st7" d="M14.7,68.3L14.7,68.3c0-1.1,0.7-1.7,1.5-1.7c0.5,0,0.9,0.3,1.1,0.6v-1.7H18v4.5h-0.7v-0.5
				c-0.2,0.3-0.6,0.6-1.1,0.6C15.5,70,14.7,69.4,14.7,68.3z M17.3,68.3L17.3,68.3c0-0.6-0.4-1-0.9-1c-0.5,0-0.9,0.4-0.9,1v0
				c0,0.6,0.4,1,0.9,1C16.9,69.3,17.3,68.9,17.3,68.3z"/>
			<path class="st7" d="M18.7,68.3L18.7,68.3c0-0.9,0.7-1.7,1.6-1.7c1,0,1.5,0.8,1.5,1.7c0,0.1,0,0.1,0,0.2h-2.4
				c0.1,0.5,0.5,0.8,0.9,0.8c0.4,0,0.6-0.1,0.9-0.4l0.4,0.4C21.4,69.7,21,70,20.4,70C19.4,70,18.7,69.3,18.7,68.3z M21.1,68.1
				c0-0.5-0.3-0.8-0.8-0.8c-0.5,0-0.8,0.3-0.8,0.8H21.1z"/>
			<path class="st7" d="M22.5,66.7h0.7v0.5c0.2-0.3,0.5-0.6,1-0.6c0.7,0,1.1,0.5,1.1,1.2v2h-0.7v-1.8c0-0.5-0.3-0.8-0.7-0.8
				c-0.4,0-0.7,0.3-0.7,0.8v1.8h-0.7V66.7z"/>
			<path class="st7" d="M26.1,68.3L26.1,68.3c0-0.9,0.7-1.7,1.7-1.7c0.6,0,1,0.2,1.3,0.6l-0.5,0.5c-0.2-0.2-0.5-0.4-0.8-0.4
				c-0.5,0-0.9,0.5-0.9,1v0c0,0.6,0.4,1,1,1c0.3,0,0.6-0.2,0.8-0.4l0.4,0.4c-0.3,0.4-0.7,0.6-1.3,0.6C26.8,70,26.1,69.2,26.1,68.3z"
				/>
			<path class="st7" d="M29.7,65.5h0.8v0.7h-0.8V65.5z M29.7,66.7h0.7v3.2h-0.7V66.7z"/>
			<path class="st7" d="M33.3,69.9v-0.4c-0.2,0.3-0.6,0.5-1,0.5c-0.6,0-1.1-0.3-1.1-1v0c0-0.7,0.6-1.1,1.3-1.1
				c0.4,0,0.6,0.1,0.9,0.1V68c0-0.4-0.3-0.7-0.8-0.7c-0.4,0-0.6,0.1-0.9,0.2l-0.2-0.6c0.4-0.2,0.7-0.3,1.2-0.3c1,0,1.4,0.5,1.4,1.4
				v1.9H33.3z M33.3,68.5c-0.2-0.1-0.5-0.1-0.7-0.1c-0.5,0-0.7,0.2-0.7,0.5v0c0,0.3,0.3,0.5,0.6,0.5c0.5,0,0.9-0.3,0.9-0.7V68.5z"/>
			<path class="st7" d="M36.5,68.3L36.5,68.3c0-1.1,0.7-1.7,1.5-1.7c0.5,0,0.9,0.3,1.1,0.6v-1.7h0.7v4.5h-0.7v-0.5
				C38.8,69.7,38.5,70,38,70C37.2,70,36.5,69.4,36.5,68.3z M39.1,68.3L39.1,68.3c0-0.6-0.4-1-0.9-1c-0.5,0-0.9,0.4-0.9,1v0
				c0,0.6,0.4,1,0.9,1C38.6,69.3,39.1,68.9,39.1,68.3z"/>
			<path class="st7" d="M40.5,68.3L40.5,68.3c0-0.9,0.7-1.7,1.6-1.7c1,0,1.5,0.8,1.5,1.7c0,0.1,0,0.1,0,0.2h-2.4
				c0.1,0.5,0.5,0.8,0.9,0.8c0.4,0,0.6-0.1,0.9-0.4l0.4,0.4c-0.3,0.4-0.7,0.6-1.3,0.6C41.2,70,40.5,69.3,40.5,68.3z M42.9,68.1
				c0-0.5-0.3-0.8-0.8-0.8c-0.5,0-0.8,0.3-0.8,0.8H42.9z"/>
			<path class="st7" d="M46.1,65.4h0.7v4.5h-0.7V65.4z"/>
			<path class="st7" d="M49.7,69.9v-0.4c-0.2,0.3-0.6,0.5-1,0.5c-0.6,0-1.1-0.3-1.1-1v0c0-0.7,0.6-1.1,1.3-1.1
				c0.4,0,0.6,0.1,0.9,0.1V68c0-0.4-0.3-0.7-0.8-0.7c-0.4,0-0.6,0.1-0.9,0.2l-0.2-0.6c0.4-0.2,0.7-0.3,1.2-0.3c1,0,1.4,0.5,1.4,1.4
				v1.9H49.7z M49.7,68.5c-0.2-0.1-0.5-0.1-0.7-0.1c-0.5,0-0.7,0.2-0.7,0.5v0c0,0.3,0.3,0.5,0.6,0.5c0.5,0,0.9-0.3,0.9-0.7V68.5z"/>
			<path class="st7" d="M53.1,65.6h0.7l2.3,3v-3h0.7v4.3h-0.6l-2.4-3v3h-0.7V65.6z"/>
			<path class="st7" d="M59.8,69.9v-0.4c-0.2,0.3-0.6,0.5-1,0.5c-0.6,0-1.1-0.3-1.1-1v0c0-0.7,0.6-1.1,1.3-1.1
				c0.4,0,0.6,0.1,0.9,0.1V68c0-0.4-0.3-0.7-0.8-0.7c-0.4,0-0.6,0.1-0.9,0.2l-0.2-0.6c0.4-0.2,0.7-0.3,1.2-0.3c1,0,1.4,0.5,1.4,1.4
				v1.9H59.8z M59.8,68.5c-0.2-0.1-0.5-0.1-0.7-0.1c-0.5,0-0.7,0.2-0.7,0.5v0c0,0.3,0.3,0.5,0.6,0.5c0.5,0,0.9-0.3,0.9-0.7V68.5z"/>
			<path class="st7" d="M61.1,68.3L61.1,68.3c0-0.9,0.7-1.7,1.7-1.7c0.6,0,1,0.2,1.3,0.6l-0.5,0.5c-0.2-0.2-0.5-0.4-0.8-0.4
				c-0.5,0-0.9,0.5-0.9,1v0c0,0.6,0.4,1,1,1c0.3,0,0.6-0.2,0.8-0.4l0.4,0.4c-0.3,0.4-0.7,0.6-1.3,0.6C61.8,70,61.1,69.2,61.1,68.3z"
				/>
			<path class="st7" d="M64.7,65.5h0.8v0.7h-0.8V65.5z M64.8,66.7h0.7v3.2h-0.7V66.7z"/>
			<path class="st7" d="M66.2,68.3L66.2,68.3c0-0.9,0.7-1.7,1.7-1.7c1,0,1.7,0.8,1.7,1.7v0c0,0.9-0.7,1.7-1.7,1.7
				C67,70,66.2,69.2,66.2,68.3z M68.9,68.3L68.9,68.3c0-0.6-0.4-1-1-1c-0.6,0-1,0.5-1,1v0c0,0.6,0.4,1,1,1
				C68.6,69.3,68.9,68.9,68.9,68.3z M68.3,65.3l0.7,0.3l-0.8,0.7h-0.6L68.3,65.3z"/>
			<path class="st7" d="M70.4,66.7h0.7v0.5c0.2-0.3,0.5-0.6,1-0.6c0.7,0,1.1,0.5,1.1,1.2v2h-0.7v-1.8c0-0.5-0.2-0.8-0.7-0.8
				c-0.4,0-0.7,0.3-0.7,0.8v1.8h-0.7V66.7z"/>
		</g>
		<g>
			<g>
				<g>
					<path class="st7" d="M3.4,51.4l0.8-0.9c0.7,0.6,1.4,1,2.3,1c0.8,0,1.3-0.4,1.3-0.9v0c0-0.5-0.3-0.8-1.6-1.1
						c-1.6-0.4-2.4-0.8-2.4-2.2v0c0-1.3,1-2.1,2.5-2.1c1.1,0,1.9,0.3,2.7,0.9l-0.7,1c-0.7-0.5-1.3-0.8-2-0.8c-0.8,0-1.2,0.4-1.2,0.9
						v0c0,0.6,0.3,0.8,1.7,1.1C8.2,48.6,9,49.2,9,50.4v0c0,1.4-1.1,2.2-2.6,2.2C5.3,52.6,4.2,52.2,3.4,51.4z"/>
					<path class="st7" d="M9.9,49.8L9.9,49.8c0-1.6,1.1-2.9,2.7-2.9c1.8,0,2.6,1.4,2.6,3c0,0.1,0,0.2,0,0.4h-4.1
						c0.1,0.9,0.8,1.4,1.6,1.4c0.6,0,1.1-0.2,1.5-0.7l0.7,0.7c-0.5,0.6-1.2,1-2.3,1C11.1,52.6,9.9,51.5,9.9,49.8z M14,49.4
						c-0.1-0.8-0.6-1.5-1.4-1.5c-0.8,0-1.3,0.6-1.4,1.5H14z"/>
					<path class="st7" d="M16,49.8L16,49.8c0-1.6,1.2-2.9,2.9-2.9c1,0,1.7,0.4,2.2,1l-0.8,0.8c-0.4-0.4-0.8-0.7-1.4-0.7
						c-0.9,0-1.6,0.8-1.6,1.8v0c0,1,0.7,1.8,1.6,1.8c0.6,0,1-0.3,1.4-0.7l0.8,0.8c-0.5,0.6-1.2,1-2.3,1C17.2,52.6,16,51.3,16,49.8z"
						/>
					<path class="st7" d="M22,47h1.3v1.2c0.3-0.8,1-1.4,2-1.3v1.3h-0.1c-1.1,0-1.9,0.7-1.9,2.2v2.1H22V47z"/>
					<path class="st7" d="M25.8,49.8L25.8,49.8c0-1.6,1.1-2.9,2.7-2.9c1.8,0,2.6,1.4,2.6,3c0,0.1,0,0.2,0,0.4h-4.1
						c0.1,0.9,0.8,1.4,1.6,1.4c0.6,0,1.1-0.2,1.5-0.7l0.7,0.7c-0.5,0.6-1.2,1-2.3,1C27.1,52.6,25.8,51.5,25.8,49.8z M29.9,49.4
						c-0.1-0.8-0.6-1.5-1.4-1.5c-0.8,0-1.3,0.6-1.4,1.5H29.9z"/>
					<path class="st7" d="M32.5,51v-2.9h-0.7V47h0.7v-1.5h1.3V47h1.5v1.1h-1.5v2.7c0,0.5,0.3,0.7,0.7,0.7c0.3,0,0.5-0.1,0.8-0.2v1
						c-0.3,0.2-0.7,0.3-1.1,0.3C33.1,52.6,32.5,52.2,32.5,51z"/>
					<path class="st7" d="M39.7,52.5v-0.7c-0.4,0.4-1,0.8-1.8,0.8c-1,0-2-0.6-2-1.7v0c0-1.2,1-1.8,2.2-1.8c0.7,0,1.1,0.1,1.5,0.2
						v-0.1c0-0.8-0.5-1.2-1.4-1.2c-0.6,0-1.1,0.1-1.6,0.3l-0.3-1c0.6-0.3,1.2-0.5,2.1-0.5c1.6,0,2.4,0.9,2.4,2.3v3.3H39.7z
						 M39.7,50.2c-0.3-0.1-0.8-0.2-1.3-0.2c-0.8,0-1.3,0.3-1.3,0.9v0c0,0.5,0.5,0.8,1.1,0.8c0.8,0,1.5-0.5,1.5-1.2V50.2z"/>
					<path class="st7" d="M42.2,47h1.3v1.2c0.3-0.8,1-1.4,2-1.3v1.3h-0.1c-1.1,0-1.9,0.7-1.9,2.2v2.1h-1.3V47z"/>
					<path class="st7" d="M46.4,47h1.3v5.5h-1.3V47z M47.6,44.6l1.1,0.5l-1.3,1.2h-1L47.6,44.6z"/>
					<path class="st7" d="M52.5,52.5v-0.7c-0.4,0.4-1,0.8-1.8,0.8c-1,0-2-0.6-2-1.7v0c0-1.2,1-1.8,2.2-1.8c0.7,0,1.1,0.1,1.5,0.2
						v-0.1c0-0.8-0.5-1.2-1.4-1.2c-0.6,0-1.1,0.1-1.6,0.3l-0.3-1c0.6-0.3,1.2-0.5,2.1-0.5c1.6,0,2.4,0.9,2.4,2.3v3.3H52.5z
						 M52.5,50.2c-0.3-0.1-0.8-0.2-1.3-0.2c-0.8,0-1.3,0.3-1.3,0.9v0c0,0.5,0.5,0.8,1.1,0.8c0.8,0,1.5-0.5,1.5-1.2V50.2z"/>
					<path class="st7" d="M57.7,49.7L57.7,49.7c0-1.8,1.2-2.9,2.6-2.9c0.9,0,1.5,0.5,1.9,1v-3h1.3v7.6h-1.3v-0.9c-0.4,0.6-1,1-1.9,1
						C58.9,52.6,57.7,51.6,57.7,49.7z M62.1,49.7L62.1,49.7c0-1.1-0.8-1.8-1.6-1.8c-0.9,0-1.6,0.7-1.6,1.8v0c0,1.1,0.7,1.8,1.6,1.8
						C61.4,51.5,62.1,50.8,62.1,49.7z"/>
					<path class="st7" d="M64.4,49.8L64.4,49.8c0-1.6,1.1-2.9,2.7-2.9c1.8,0,2.6,1.4,2.6,3c0,0.1,0,0.2,0,0.4h-4.1
						c0.1,0.9,0.8,1.4,1.6,1.4c0.6,0,1.1-0.2,1.5-0.7l0.7,0.7c-0.5,0.6-1.2,1-2.3,1C65.7,52.6,64.4,51.5,64.4,49.8z M68.5,49.4
						c-0.1-0.8-0.6-1.5-1.4-1.5c-0.8,0-1.3,0.6-1.4,1.5H68.5z"/>
					<path class="st7" d="M0.1,54.8h1.4l2.2,3.5L6,54.8h1.4v7.3H6v-5.2l-2.3,3.4h0l-2.3-3.4v5.2H0.1V54.8z"/>
					<path class="st7" d="M8.5,59.3L8.5,59.3c0-1.6,1.3-2.9,2.9-2.9c1.7,0,2.9,1.3,2.9,2.9v0c0,1.6-1.3,2.9-3,2.9
						C9.8,62.2,8.5,60.9,8.5,59.3z M13.2,59.3L13.2,59.3c0-1-0.7-1.8-1.7-1.8c-1,0-1.7,0.8-1.7,1.8v0c0,1,0.7,1.8,1.7,1.8
						C12.5,61.1,13.2,60.3,13.2,59.3z"/>
					<path class="st7" d="M15.2,59.3L15.2,59.3c0-1.8,1.2-2.9,2.6-2.9c0.9,0,1.5,0.5,1.9,1v-3h1.3v7.6h-1.3v-0.9c-0.4,0.6-1,1-1.9,1
						C16.5,62.2,15.2,61.1,15.2,59.3z M19.7,59.3L19.7,59.3c0-1.1-0.8-1.8-1.6-1.8c-0.9,0-1.6,0.7-1.6,1.8v0c0,1.1,0.7,1.8,1.6,1.8
						C18.9,61.1,19.7,60.4,19.7,59.3z"/>
					<path class="st7" d="M22,59.3L22,59.3c0-1.6,1.1-2.9,2.7-2.9c1.8,0,2.6,1.4,2.6,3c0,0.1,0,0.2,0,0.4h-4.1
						c0.1,0.9,0.8,1.4,1.6,1.4c0.6,0,1.1-0.2,1.5-0.7l0.7,0.7c-0.5,0.6-1.2,1-2.3,1C23.2,62.2,22,61,22,59.3z M26.1,58.9
						c-0.1-0.8-0.6-1.5-1.4-1.5c-0.8,0-1.3,0.6-1.4,1.5H26.1z"/>
					<path class="st7" d="M28.4,56.6h1.3v1.2c0.3-0.8,1-1.4,2-1.3v1.3h-0.1c-1.1,0-1.9,0.7-1.9,2.2v2.1h-1.3V56.6z"/>
					<path class="st7" d="M32.5,56.6h1.3v0.9c0.4-0.5,0.9-1,1.7-1c1.2,0,2,0.8,2,2.1v3.5h-1.3v-3.1c0-0.9-0.4-1.3-1.2-1.3
						c-0.7,0-1.2,0.5-1.2,1.4v3.1h-1.3V56.6z"/>
					<path class="st7" d="M38.8,54.5h1.4v1.2h-1.4V54.5z M38.8,56.6h1.3v5.5h-1.3V56.6z"/>
					<path class="st7" d="M41.3,61.2l3.2-3.6h-3.1v-1h4.7v0.9L42.9,61h3.2v1h-4.8V61.2z"/>
					<path class="st7" d="M50.5,62.1v-0.7c-0.4,0.4-1,0.8-1.8,0.8c-1,0-2-0.6-2-1.7v0c0-1.2,1-1.8,2.2-1.8c0.7,0,1.1,0.1,1.5,0.2
						v-0.1c0-0.8-0.5-1.2-1.4-1.2c-0.6,0-1.1,0.1-1.6,0.3l-0.3-1c0.6-0.3,1.2-0.5,2.1-0.5c1.6,0,2.4,0.9,2.4,2.3v3.3H50.5z
						 M50.6,59.8c-0.3-0.1-0.8-0.2-1.3-0.2c-0.8,0-1.3,0.3-1.3,0.9v0c0,0.5,0.5,0.8,1.1,0.8c0.8,0,1.5-0.5,1.5-1.2V59.8z"/>
					<path class="st7" d="M52.8,59.3L52.8,59.3c0-1.6,1.2-2.9,2.9-2.9c1,0,1.7,0.4,2.2,1l-0.8,0.8c-0.4-0.4-0.8-0.7-1.4-0.7
						c-0.9,0-1.6,0.8-1.6,1.8v0c0,1,0.7,1.8,1.6,1.8c0.6,0,1-0.3,1.4-0.7l0.8,0.8c-0.5,0.6-1.2,1-2.3,1C54,62.2,52.8,60.9,52.8,59.3
						z"/>
					<path class="st7" d="M58.9,54.5h1.4v1.2h-1.4V54.5z M58.9,56.6h1.3v5.5h-1.3V56.6z"/>
					<path class="st7" d="M61.3,59.3L61.3,59.3c0-1.6,1.3-2.9,2.9-2.9c1.7,0,2.9,1.3,2.9,2.9v0c0,1.6-1.3,2.9-3,2.9
						C62.6,62.2,61.3,60.9,61.3,59.3z M65.9,59.3L65.9,59.3c0-1-0.7-1.8-1.7-1.8c-1,0-1.7,0.8-1.7,1.8v0c0,1,0.7,1.8,1.7,1.8
						C65.3,61.1,65.9,60.3,65.9,59.3z M64.8,54.1l1.1,0.5l-1.3,1.2h-1L64.8,54.1z"/>
					<path class="st7" d="M68.3,56.6h1.3v0.9c0.4-0.5,0.9-1,1.7-1c1.2,0,2,0.8,2,2.1v3.5H72v-3.1c0-0.9-0.4-1.3-1.2-1.3
						c-0.7,0-1.2,0.5-1.2,1.4v3.1h-1.3V56.6z"/>
				</g>
			</g>
		</g>
	</g>
</g>
</svg>
