<?xml version="1.0" encoding="utf-8"?>
<!-- Generator: Adobe Illustrator 21.1.0, SVG Export Plug-In . SVG Version: 6.00 Build 0)  -->
<svg version="1.1" id="Layer_1" xmlns="http://www.w3.org/2000/svg" xmlns:xlink="http://www.w3.org/1999/xlink" x="0px" y="0px"
	 viewBox="0 0 73.7 72" style="enable-background:new 0 0 73.7 72;" xml:space="preserve">
<style type="text/css">
	.st0{clip-path:url(#SVGID_2_);fill:url(#SVGID_3_);}
	.st1{clip-path:url(#SVGID_2_);}
	.st2{fill:url(#SVGID_4_);}
	.st3{fill:url(#SVGID_5_);}
	.st4{fill:url(#SVGID_6_);}
	.st5{fill:url(#SVGID_7_);}
	.st6{fill:url(#SVGID_8_);}
	.st7{fill:url(#SVGID_9_);}
	.st8{fill:url(#SVGID_10_);}
	.st9{fill:url(#SVGID_11_);}
	.st10{fill:url(#SVGID_12_);}
	.st11{fill:url(#SVGID_13_);}
	.st12{fill:url(#SVGID_14_);}
	.st13{fill:url(#SVGID_15_);}
	.st14{fill:url(#SVGID_16_);}
	.st15{fill:url(#SVGID_17_);}
	.st16{fill:url(#SVGID_18_);}
	.st17{fill:url(#SVGID_19_);}
	.st18{fill:url(#SVGID_20_);}
	.st19{fill:url(#SVGID_21_);}
	.st20{fill:url(#SVGID_22_);}
	.st21{fill:url(#SVGID_23_);}
	.st22{fill:url(#SVGID_24_);}
	.st23{fill:url(#SVGID_25_);}
	.st24{fill:url(#SVGID_26_);}
	.st25{fill:url(#SVGID_27_);}
	.st26{fill:url(#SVGID_28_);}
	.st27{fill:url(#SVGID_29_);}
	.st28{fill:url(#SVGID_30_);}
	.st29{clip-path:url(#SVGID_32_);}
	.st30{fill:url(#SVGID_33_);}
	.st31{opacity:0.3;}
	.st32{fill:none;}
	.st33{fill:#999999;}
	.st34{opacity:0.12;fill:#D1DAE8;}
	.st35{opacity:0.1;}
	.st36{fill:#FFFFFF;}
	.st37{fill:#E1F6FF;stroke:#9AC8E2;stroke-width:0.7588;stroke-miterlimit:10;}
	.st38{fill:#FFFFFF;stroke:#9AC8E2;stroke-width:0.7588;stroke-miterlimit:10;}
	.st39{opacity:0.2;}
	.st40{fill:#CBE8F4;stroke:#9AC8E2;stroke-width:0.75;stroke-miterlimit:10;}
	.st41{clip-path:url(#SVGID_35_);}
	.st42{fill:url(#SVGID_36_);}
	.st43{fill:url(#SVGID_37_);}
	.st44{fill:url(#SVGID_38_);}
	.st45{fill:url(#SVGID_39_);}
	.st46{fill:url(#SVGID_40_);}
	.st47{fill:url(#SVGID_41_);}
	.st48{fill:url(#SVGID_42_);}
	.st49{fill:url(#SVGID_43_);}
	.st50{fill:url(#SVGID_44_);}
	.st51{fill:url(#SVGID_45_);}
	.st52{fill:url(#SVGID_46_);}
	.st53{fill:url(#SVGID_47_);}
	.st54{fill:url(#SVGID_48_);}
	.st55{fill:url(#SVGID_49_);}
	.st56{fill:url(#SVGID_50_);}
	.st57{fill:url(#SVGID_51_);}
	.st58{fill:url(#SVGID_52_);}
	.st59{fill:url(#SVGID_53_);}
	.st60{fill:url(#SVGID_54_);}
	.st61{fill:url(#SVGID_55_);}
	.st62{fill:url(#SVGID_56_);}
	.st63{fill:url(#SVGID_57_);}
	.st64{fill:url(#SVGID_58_);}
	.st65{fill:url(#SVGID_59_);}
	.st66{fill:url(#SVGID_60_);}
	.st67{fill:url(#SVGID_61_);}
	.st68{fill:url(#SVGID_62_);}
	.st69{fill:url(#SVGID_63_);}
	.st70{fill:url(#SVGID_64_);}
	.st71{fill:url(#SVGID_65_);}
	.st72{fill:url(#SVGID_66_);}
	.st73{fill:url(#SVGID_67_);}
	.st74{fill:url(#SVGID_68_);}
	.st75{fill:url(#SVGID_69_);}
	.st76{fill:url(#SVGID_70_);}
	.st77{fill:url(#SVGID_71_);}
	.st78{fill:url(#SVGID_72_);}
	.st79{fill:url(#SVGID_73_);}
	.st80{fill:url(#SVGID_74_);}
	.st81{fill:url(#SVGID_75_);}
	.st82{fill:url(#SVGID_76_);}
	.st83{fill:url(#SVGID_77_);}
	.st84{fill:url(#SVGID_78_);}
	.st85{fill:url(#SVGID_79_);}
	.st86{fill:url(#SVGID_80_);}
	.st87{fill:url(#SVGID_81_);}
	.st88{fill:url(#SVGID_82_);}
	.st89{fill:url(#SVGID_83_);}
	.st90{fill:url(#SVGID_84_);}
	.st91{fill:url(#SVGID_85_);}
	.st92{fill:url(#SVGID_86_);}
	.st93{fill:url(#SVGID_87_);}
	.st94{fill:url(#SVGID_88_);}
	.st95{fill:url(#SVGID_89_);}
	.st96{fill:url(#SVGID_90_);}
	.st97{fill:url(#SVGID_91_);}
	.st98{fill:url(#SVGID_92_);}
	.st99{fill:url(#SVGID_93_);}
	.st100{fill:url(#SVGID_94_);}
	.st101{fill:url(#SVGID_95_);}
	.st102{fill:url(#SVGID_96_);}
	.st103{fill:url(#SVGID_97_);}
	.st104{fill:url(#SVGID_98_);}
	.st105{fill:url(#SVGID_99_);}
	.st106{fill:url(#SVGID_100_);}
	.st107{fill:url(#SVGID_101_);}
	.st108{fill:url(#SVGID_102_);}
	.st109{fill:url(#SVGID_103_);}
	.st110{fill:url(#SVGID_104_);}
	.st111{fill:url(#SVGID_105_);}
	.st112{fill:url(#SVGID_106_);}
	.st113{fill:url(#SVGID_107_);}
	.st114{fill:url(#SVGID_108_);}
	.st115{fill:url(#SVGID_109_);}
	.st116{fill:url(#SVGID_110_);}
	.st117{fill:url(#SVGID_111_);}
	.st118{fill:url(#SVGID_112_);}
	.st119{fill:url(#SVGID_113_);}
	.st120{fill:url(#SVGID_114_);}
	.st121{fill:url(#SVGID_115_);}
	.st122{fill:url(#SVGID_116_);}
	.st123{fill:url(#SVGID_117_);}
	.st124{fill:#777777;}
	.st125{enable-background:new    ;}
	.st126{fill:#E6E6E6;}
	.st127{fill:#BFBFBF;}
	.st128{clip-path:url(#SVGID_119_);}
	.st129{clip-path:url(#SVGID_123_);}
	.st130{clip-path:url(#SVGID_127_);}
	.st131{fill:#FB635E;}
	.st132{fill:#EEA126;}
	.st133{fill:#35CA4A;}
	.st134{fill:#CBCBCB;}
	.st135{clip-path:url(#SVGID_131_);}
	.st136{clip-path:url(#SVGID_135_);}
	.st137{clip-path:url(#SVGID_139_);}
	.st138{clip-path:url(#SVGID_143_);}
	.st139{clip-path:url(#SVGID_147_);}
	.st140{clip-path:url(#SVGID_151_);}
	.st141{clip-path:url(#SVGID_155_);}
	.st142{clip-path:url(#SVGID_159_);}
	.st143{clip-path:url(#SVGID_163_);}
	.st144{clip-path:url(#SVGID_167_);}
	.st145{clip-path:url(#SVGID_171_);}
	.st146{clip-path:url(#SVGID_175_);}
	.st147{clip-path:url(#SVGID_179_);}
	.st148{clip-path:url(#SVGID_183_);}
	.st149{clip-path:url(#SVGID_187_);}
	.st150{clip-path:url(#SVGID_191_);}
	.st151{clip-path:url(#SVGID_195_);}
	.st152{clip-path:url(#SVGID_199_);}
	.st153{clip-path:url(#SVGID_203_);}
	.st154{clip-path:url(#SVGID_207_);}
	.st155{clip-path:url(#SVGID_211_);}
	.st156{clip-path:url(#SVGID_215_);}
	.st157{clip-path:url(#SVGID_219_);}
	.st158{clip-path:url(#SVGID_223_);}
	.st159{clip-path:url(#SVGID_227_);}
	.st160{fill:#CCCCCC;}
	.st161{clip-path:url(#SVGID_231_);}
	.st162{clip-path:url(#SVGID_235_);}
	.st163{clip-path:url(#SVGID_239_);}
	.st164{clip-path:url(#SVGID_243_);}
	.st165{clip-path:url(#SVGID_247_);}
	.st166{clip-path:url(#SVGID_251_);}
	.st167{clip-path:url(#SVGID_255_);}
	.st168{clip-path:url(#SVGID_259_);}
	.st169{clip-path:url(#SVGID_263_);}
	.st170{clip-path:url(#SVGID_267_);}
	.st171{fill:#2B86C1;}
	.st172{clip-path:url(#SVGID_271_);}
	.st173{clip-path:url(#SVGID_275_);}
	.st174{clip-path:url(#SVGID_279_);}
	.st175{clip-path:url(#SVGID_283_);}
	.st176{fill:#0072BC;}
	.st177{clip-path:url(#SVGID_287_);}
	.st178{clip-path:url(#SVGID_291_);}
	.st179{clip-path:url(#SVGID_295_);}
	.st180{clip-path:url(#SVGID_299_);}
	.st181{clip-path:url(#SVGID_303_);}
	.st182{clip-path:url(#SVGID_307_);}
	.st183{clip-path:url(#SVGID_311_);}
	.st184{clip-path:url(#SVGID_315_);}
	.st185{clip-path:url(#SVGID_319_);}
	.st186{clip-path:url(#SVGID_323_);}
	.st187{clip-path:url(#SVGID_327_);}
	.st188{clip-path:url(#SVGID_331_);}
	.st189{clip-path:url(#SVGID_335_);}
	.st190{clip-path:url(#SVGID_339_);}
	.st191{clip-path:url(#SVGID_343_);}
	.st192{clip-path:url(#SVGID_347_);}
	.st193{clip-path:url(#SVGID_351_);}
	.st194{clip-path:url(#SVGID_355_);}
	.st195{clip-path:url(#SVGID_359_);}
	.st196{fill:#F2F2F2;}
	.st197{clip-path:url(#SVGID_363_);}
	.st198{clip-path:url(#SVGID_367_);}
	.st199{clip-path:url(#SVGID_371_);}
	.st200{clip-path:url(#SVGID_375_);}
	.st201{clip-path:url(#SVGID_379_);}
	.st202{clip-path:url(#SVGID_383_);}
	.st203{clip-path:url(#SVGID_387_);}
	.st204{clip-path:url(#SVGID_391_);}
	.st205{clip-path:url(#SVGID_395_);}
	.st206{clip-path:url(#SVGID_399_);}
	.st207{clip-path:url(#SVGID_403_);}
	.st208{clip-path:url(#SVGID_407_);}
	.st209{clip-path:url(#SVGID_411_);}
	.st210{clip-path:url(#SVGID_415_);}
	.st211{clip-path:url(#SVGID_419_);}
	.st212{clip-path:url(#SVGID_423_);}
	.st213{clip-path:url(#SVGID_427_);}
	.st214{clip-path:url(#SVGID_431_);}
	.st215{clip-path:url(#SVGID_435_);}
	.st216{clip-path:url(#SVGID_439_);}
	.st217{clip-path:url(#SVGID_443_);}
	.st218{clip-path:url(#SVGID_447_);}
	.st219{clip-path:url(#SVGID_451_);}
	.st220{clip-path:url(#SVGID_455_);}
	.st221{clip-path:url(#SVGID_459_);}
	.st222{clip-path:url(#SVGID_463_);}
	.st223{clip-path:url(#SVGID_467_);}
	.st224{clip-path:url(#SVGID_471_);}
	.st225{clip-path:url(#SVGID_475_);}
	.st226{clip-path:url(#SVGID_479_);}
	.st227{clip-path:url(#SVGID_483_);}
	.st228{clip-path:url(#SVGID_487_);}
	.st229{clip-path:url(#SVGID_491_);}
	.st230{clip-path:url(#SVGID_495_);}
	.st231{clip-path:url(#SVGID_499_);}
	.st232{clip-path:url(#SVGID_503_);}
	.st233{clip-path:url(#SVGID_507_);}
	.st234{clip-path:url(#SVGID_511_);}
	.st235{clip-path:url(#SVGID_515_);}
	.st236{clip-path:url(#SVGID_519_);}
	.st237{clip-path:url(#SVGID_523_);}
	.st238{clip-path:url(#SVGID_527_);}
	.st239{clip-path:url(#SVGID_531_);}
	.st240{clip-path:url(#SVGID_535_);}
	.st241{clip-path:url(#SVGID_539_);}
	.st242{clip-path:url(#SVGID_543_);}
	.st243{clip-path:url(#SVGID_547_);}
	.st244{clip-path:url(#SVGID_551_);}
	.st245{clip-path:url(#SVGID_555_);}
	.st246{clip-path:url(#SVGID_559_);}
	.st247{clip-path:url(#SVGID_563_);}
	.st248{clip-path:url(#SVGID_567_);}
	.st249{clip-path:url(#SVGID_571_);}
	.st250{clip-path:url(#SVGID_575_);}
	.st251{clip-path:url(#SVGID_579_);}
	.st252{clip-path:url(#SVGID_583_);}
	.st253{clip-path:url(#SVGID_587_);}
	.st254{clip-path:url(#SVGID_591_);}
	.st255{clip-path:url(#SVGID_595_);}
	.st256{clip-path:url(#SVGID_599_);}
	.st257{clip-path:url(#SVGID_603_);}
	.st258{clip-path:url(#SVGID_607_);}
	.st259{clip-path:url(#SVGID_611_);}
	.st260{clip-path:url(#SVGID_615_);}
	.st261{clip-path:url(#SVGID_619_);}
	.st262{clip-path:url(#SVGID_623_);}
	.st263{clip-path:url(#SVGID_627_);}
	.st264{clip-path:url(#SVGID_631_);}
	.st265{clip-path:url(#SVGID_635_);}
	.st266{clip-path:url(#SVGID_639_);}
	.st267{clip-path:url(#SVGID_643_);}
	.st268{clip-path:url(#SVGID_647_);}
	.st269{clip-path:url(#SVGID_651_);}
	.st270{clip-path:url(#SVGID_655_);}
	.st271{fill:#69818E;}
	.st272{clip-path:url(#SVGID_659_);}
	.st273{clip-path:url(#SVGID_663_);}
	.st274{clip-path:url(#SVGID_667_);}
	.st275{clip-path:url(#SVGID_671_);}
	.st276{clip-path:url(#SVGID_675_);}
	.st277{clip-path:url(#SVGID_679_);}
	.st278{clip-path:url(#SVGID_683_);}
	.st279{fill:#1E90DA;}
	.st280{clip-path:url(#SVGID_687_);}
	.st281{clip-path:url(#SVGID_691_);}
	.st282{clip-path:url(#SVGID_695_);}
	.st283{fill:#4E697B;}
	.st284{fill:#7E7E7E;}
	.st285{clip-path:url(#SVGID_699_);}
	.st286{clip-path:url(#SVGID_703_);}
	.st287{clip-path:url(#SVGID_707_);}
	.st288{clip-path:url(#SVGID_711_);}
	.st289{clip-path:url(#SVGID_715_);}
	.st290{clip-path:url(#SVGID_719_);}
	.st291{clip-path:url(#SVGID_723_);}
	.st292{clip-path:url(#SVGID_727_);}
	.st293{clip-path:url(#SVGID_731_);}
	.st294{clip-path:url(#SVGID_735_);}
	.st295{clip-path:url(#SVGID_739_);}
	.st296{clip-path:url(#SVGID_743_);}
	.st297{clip-path:url(#SVGID_747_);}
	.st298{clip-path:url(#SVGID_751_);}
	.st299{clip-path:url(#SVGID_755_);}
	.st300{clip-path:url(#SVGID_759_);}
	.st301{clip-path:url(#SVGID_763_);}
	.st302{clip-path:url(#SVGID_767_);}
	.st303{clip-path:url(#SVGID_771_);}
	.st304{clip-path:url(#SVGID_775_);}
	.st305{clip-path:url(#SVGID_779_);}
	.st306{clip-path:url(#SVGID_783_);}
	.st307{clip-path:url(#SVGID_787_);}
	.st308{clip-path:url(#SVGID_791_);}
	.st309{clip-path:url(#SVGID_795_);}
	.st310{clip-path:url(#SVGID_799_);}
	.st311{clip-path:url(#SVGID_803_);}
	.st312{clip-path:url(#SVGID_807_);}
	.st313{clip-path:url(#SVGID_811_);}
	.st314{clip-path:url(#SVGID_815_);}
	.st315{clip-path:url(#SVGID_819_);}
	.st316{clip-path:url(#SVGID_823_);}
	.st317{clip-path:url(#SVGID_827_);}
	.st318{clip-path:url(#SVGID_831_);}
	.st319{clip-path:url(#SVGID_835_);}
	.st320{clip-path:url(#SVGID_839_);}
	.st321{clip-path:url(#SVGID_843_);}
	.st322{clip-path:url(#SVGID_847_);}
	.st323{clip-path:url(#SVGID_851_);}
	.st324{clip-path:url(#SVGID_855_);}
	.st325{clip-path:url(#SVGID_859_);}
	.st326{opacity:0.2;fill:#5D5D5D;}
	.st327{clip-path:url(#SVGID_863_);}
	.st328{clip-path:url(#SVGID_867_);}
	.st329{clip-path:url(#SVGID_871_);}
	.st330{fill:none;stroke:#9AC8E2;stroke-width:0.75;stroke-miterlimit:10;}
	.st331{fill:#FFFFFF;stroke:#9AC8E2;stroke-width:0.75;stroke-miterlimit:10;}
	.st332{opacity:0.7;fill:#FFFFFF;stroke:#9AC8E2;stroke-width:0.75;stroke-miterlimit:10;enable-background:new    ;}
	.st333{fill:none;stroke:#9AC8E2;stroke-width:0.75;stroke-linecap:round;stroke-miterlimit:10;}
	.st334{fill:#92C2DD;stroke:#9AC8E2;stroke-width:0.75;stroke-miterlimit:10;}
	.st335{fill:#FB635E;stroke:#9AC8E2;stroke-width:0.75;stroke-miterlimit:10;}
	.st336{fill:#EEA126;stroke:#9AC8E2;stroke-width:0.75;stroke-miterlimit:10;}
	.st337{fill:#35CA4A;stroke:#9AC8E2;stroke-width:0.75;stroke-miterlimit:10;}
	.st338{fill:#E1F6FF;stroke:#9AC8E2;stroke-width:0.75;stroke-miterlimit:10;}
	.st339{fill:#E9F8FF;stroke:#9AC8E2;stroke-width:0.75;stroke-miterlimit:10;}
	.st340{fill:none;stroke:#9AC8E2;stroke-width:0.75;stroke-linecap:round;stroke-linejoin:round;stroke-miterlimit:10;}
	.st341{fill:none;stroke:#9AC8E2;stroke-width:0.5;stroke-miterlimit:10;}
	.st342{fill:#9AC8E2;}
	.st343{opacity:0.75;fill:url(#SVGID_874_);}
	.st344{opacity:0.7;clip-path:url(#SVGID_876_);fill:url(#SVGID_877_);}
	.st345{clip-path:url(#SVGID_879_);}
	.st346{clip-path:url(#SVGID_881_);}
	.st347{clip-path:url(#SVGID_883_);fill:url(#SVGID_884_);}
	.st348{opacity:8.000180e-02;clip-path:url(#SVGID_886_);}
	.st349{clip-path:url(#SVGID_888_);}
	.st350{clip-path:url(#SVGID_890_);fill:url(#SVGID_891_);}
	.st351{clip-path:url(#SVGID_893_);fill:url(#SVGID_894_);}
	.st352{clip-path:url(#SVGID_896_);fill:url(#SVGID_897_);}
	.st353{clip-path:url(#SVGID_888_);fill:url(#SVGID_898_);}
	.st354{clip-path:url(#SVGID_900_);fill:url(#SVGID_901_);}
	.st355{clip-path:url(#SVGID_903_);fill:url(#SVGID_904_);}
	.st356{clip-path:url(#SVGID_888_);fill:url(#SVGID_905_);}
	.st357{clip-path:url(#SVGID_888_);fill:url(#SVGID_906_);}
	.st358{clip-path:url(#SVGID_888_);fill:url(#SVGID_907_);}
	.st359{clip-path:url(#SVGID_909_);fill:url(#SVGID_910_);}
	.st360{clip-path:url(#SVGID_912_);fill:url(#SVGID_913_);}
	.st361{clip-path:url(#SVGID_915_);fill:url(#SVGID_916_);}
	.st362{clip-path:url(#SVGID_918_);fill:url(#SVGID_919_);}
	.st363{clip-path:url(#SVGID_921_);fill:url(#SVGID_922_);}
	.st364{clip-path:url(#SVGID_924_);fill:url(#SVGID_925_);}
	.st365{clip-path:url(#SVGID_927_);fill:url(#SVGID_928_);}
	.st366{clip-path:url(#SVGID_888_);fill:url(#SVGID_929_);}
	.st367{clip-path:url(#SVGID_931_);fill:url(#SVGID_932_);}
	.st368{clip-path:url(#SVGID_934_);fill:url(#SVGID_935_);}
	.st369{clip-path:url(#SVGID_937_);fill:url(#SVGID_938_);}
	.st370{clip-path:url(#SVGID_940_);fill:url(#SVGID_941_);}
	.st371{clip-path:url(#SVGID_943_);fill:url(#SVGID_944_);}
	.st372{clip-path:url(#SVGID_888_);fill:url(#SVGID_945_);}
	.st373{clip-path:url(#SVGID_888_);fill:url(#SVGID_946_);}
	.st374{clip-path:url(#SVGID_888_);fill:url(#SVGID_947_);}
	.st375{clip-path:url(#SVGID_888_);fill:url(#SVGID_948_);}
	.st376{clip-path:url(#SVGID_888_);fill:url(#SVGID_949_);}
	.st377{clip-path:url(#SVGID_951_);fill:url(#SVGID_952_);}
	.st378{clip-path:url(#SVGID_888_);fill:url(#SVGID_953_);}
	.st379{clip-path:url(#SVGID_888_);fill:url(#SVGID_954_);}
	.st380{clip-path:url(#SVGID_888_);fill:url(#SVGID_955_);}
	.st381{clip-path:url(#SVGID_888_);fill:url(#SVGID_956_);}
	.st382{clip-path:url(#SVGID_888_);fill:url(#SVGID_957_);}
	.st383{clip-path:url(#SVGID_888_);fill:url(#SVGID_958_);}
	.st384{clip-path:url(#SVGID_888_);fill:url(#SVGID_959_);}
	.st385{clip-path:url(#SVGID_888_);fill:url(#SVGID_960_);}
	.st386{opacity:0.25;clip-path:url(#SVGID_886_);}
	.st387{clip-path:url(#SVGID_962_);}
	.st388{clip-path:url(#SVGID_964_);fill:url(#SVGID_965_);}
	.st389{clip-path:url(#SVGID_967_);fill:url(#SVGID_968_);}
	.st390{clip-path:url(#SVGID_970_);fill:url(#SVGID_971_);}
	.st391{clip-path:url(#SVGID_973_);fill:url(#SVGID_974_);}
	.st392{clip-path:url(#SVGID_976_);fill:url(#SVGID_977_);}
	.st393{clip-path:url(#SVGID_979_);fill:url(#SVGID_980_);}
	.st394{clip-path:url(#SVGID_982_);fill:url(#SVGID_983_);}
	.st395{clip-path:url(#SVGID_985_);fill:url(#SVGID_986_);}
	.st396{clip-path:url(#SVGID_988_);fill:url(#SVGID_989_);}
	.st397{clip-path:url(#SVGID_991_);fill:url(#SVGID_992_);}
	.st398{clip-path:url(#SVGID_994_);fill:url(#SVGID_995_);}
	.st399{clip-path:url(#SVGID_997_);fill:url(#SVGID_998_);}
	.st400{filter:url(#Adobe_OpacityMaskFilter);}
	.st401{opacity:0.75;clip-path:url(#SVGID_962_);mask:url(#SVGID_999_);}
	.st402{clip-path:url(#SVGID_1003_);fill:#D5D5D5;}
	.st403{opacity:0.4;clip-path:url(#SVGID_886_);}
	.st404{clip-path:url(#SVGID_1005_);fill:url(#SVGID_1006_);}
	.st405{clip-path:url(#SVGID_1008_);fill:url(#SVGID_1009_);}
	.st406{clip-path:url(#SVGID_1011_);fill:url(#SVGID_1012_);}
	.st407{clip-path:url(#SVGID_1014_);fill:url(#SVGID_1015_);}
	.st408{clip-path:url(#SVGID_1017_);fill:url(#SVGID_1018_);}
	.st409{fill:#EECD6E;}
	.st410{clip-path:url(#SVGID_1020_);fill:#FFFFFF;}
	.st411{clip-path:url(#SVGID_1020_);fill:#F4F6F9;}
	.st412{clip-path:url(#SVGID_1020_);fill:#252225;}
	.st413{clip-path:url(#SVGID_1020_);fill:#E1C16A;}
	.st414{clip-path:url(#SVGID_1020_);fill:#55925E;}
	.st415{clip-path:url(#SVGID_1020_);fill:#D6AE7D;}
	.st416{clip-path:url(#SVGID_1020_);fill:#5183A9;}
	.st417{clip-path:url(#SVGID_1020_);fill:#AD422D;}
	.st418{opacity:0.5;clip-path:url(#SVGID_1020_);}
	.st419{clip-path:url(#SVGID_1022_);fill:url(#SVGID_1023_);}
	.st420{clip-path:url(#SVGID_1025_);}
	.st421{fill:url(#SVGID_1026_);}
	.st422{opacity:0.7;clip-path:url(#SVGID_1028_);fill:url(#SVGID_1029_);}
	.st423{clip-path:url(#SVGID_1031_);}
	.st424{fill:none;stroke:#BCDBED;stroke-miterlimit:10;}
	.st425{fill:#8BDEF7;stroke:#9AC8E2;stroke-width:0.7588;stroke-miterlimit:10;}
	.st426{fill:#B7E7F9;stroke:#9AC8E2;stroke-width:0.7588;stroke-miterlimit:10;}
	.st427{fill:none;stroke:url(#SVGID_1032_);stroke-miterlimit:10;}
	.st428{fill:none;stroke:url(#SVGID_1033_);stroke-miterlimit:10;}
	.st429{fill:#FFFFFF;stroke:#9AC8E2;stroke-width:0.4598;stroke-miterlimit:10;}
	.st430{fill:#FB635E;stroke:#9AC8E2;stroke-width:0.4598;stroke-miterlimit:10;}
	.st431{fill:#EEA126;stroke:#9AC8E2;stroke-width:0.4598;stroke-miterlimit:10;}
	.st432{fill:#35CA4A;stroke:#9AC8E2;stroke-width:0.4598;stroke-miterlimit:10;}
	.st433{opacity:0.75;fill:url(#SVGID_1034_);}
	.st434{fill:#073F69;}
	.st435{opacity:0.7;}
	.st436{fill:none;stroke:#777777;stroke-width:10.7802;stroke-miterlimit:10;}
	.st437{fill:#CEE3ED;}
	.st438{fill:#BCDBED;}
	.st439{fill:#8CC6ED;}
	.st440{fill:#DFEAEF;}
	.st441{fill:none;stroke:#056696;stroke-width:3.1706;stroke-miterlimit:10;}
	.st442{fill:#056696;}
	.st443{fill:none;stroke:#056696;stroke-width:3.1706;stroke-miterlimit:10;stroke-dasharray:7.5807,7.5807;}
	.st444{fill:none;stroke:#056696;stroke-width:3.1706;stroke-miterlimit:10;stroke-dasharray:7.2932,7.2932;}
	.st445{fill:none;stroke:#056696;stroke-width:3.1706;stroke-miterlimit:10;stroke-dasharray:7.4095,7.4095;}
	.st446{fill:#FFFFFF;stroke:#056696;stroke-width:3.1706;stroke-miterlimit:10;}
	.st447{fill:#FFFFFF;stroke:#87BCCC;stroke-width:3.1706;stroke-miterlimit:10;}
	.st448{fill:none;stroke:#BCDBED;stroke-width:3.8048;stroke-miterlimit:10;}
	.st449{fill:#D8D8D8;}
	.st450{fill:#87BCCC;}
	.st451{fill:url(#SVGID_1035_);}
	.st452{fill:url(#SVGID_1036_);}
	.st453{fill:url(#SVGID_1037_);}
	.st454{fill:url(#SVGID_1038_);}
	.st455{fill:url(#SVGID_1039_);}
	.st456{fill:url(#SVGID_1040_);}
	.st457{fill:url(#SVGID_1041_);}
	.st458{fill:url(#SVGID_1042_);}
	.st459{fill:url(#SVGID_1043_);}
	.st460{fill:url(#SVGID_1044_);}
	.st461{fill:url(#SVGID_1045_);}
	.st462{fill:url(#SVGID_1046_);}
	.st463{fill:url(#SVGID_1047_);}
	.st464{fill:url(#SVGID_1048_);}
	.st465{fill:url(#SVGID_1049_);}
	.st466{fill:url(#SVGID_1050_);}
	.st467{fill:url(#SVGID_1051_);}
	.st468{fill:url(#SVGID_1052_);}
	.st469{fill:none;stroke:url(#SVGID_1053_);stroke-miterlimit:10;}
	.st470{fill:none;stroke:url(#SVGID_1054_);stroke-miterlimit:10;}
	.st471{fill:none;stroke:url(#SVGID_1055_);stroke-miterlimit:10;}
	.st472{fill:none;stroke:url(#SVGID_1056_);stroke-miterlimit:10;}
	.st473{fill:none;stroke:url(#SVGID_1057_);stroke-miterlimit:10;}
	.st474{fill:none;stroke:url(#SVGID_1058_);stroke-miterlimit:10;}
	.st475{fill:none;stroke:url(#SVGID_1059_);stroke-miterlimit:10;}
	.st476{fill:none;stroke:url(#SVGID_1060_);stroke-miterlimit:10;}
	.st477{fill:none;stroke:url(#SVGID_1061_);stroke-miterlimit:10;}
	.st478{fill:none;stroke:url(#SVGID_1062_);stroke-miterlimit:10;}
	.st479{fill:#1D62A8;}
	.st480{fill:none;stroke:#BCDBED;stroke-width:0.9098;stroke-miterlimit:10;}
	.st481{fill:#3F8ECE;}
	.st482{fill:#222220;}
	.st483{fill:#EDC015;}
	.st484{fill:#5D9942;}
	.st485{fill:#C5351A;}
	.st486{fill:#EABF83;}
	.st487{fill:none;stroke:url(#SVGID_1063_);stroke-miterlimit:10;}
	.st488{fill:none;stroke:url(#SVGID_1064_);stroke-miterlimit:10;}
	.st489{fill:none;stroke:url(#SVGID_1065_);stroke-miterlimit:10;}
	.st490{fill:none;stroke:url(#SVGID_1066_);stroke-miterlimit:10;}
	.st491{fill:none;stroke:url(#SVGID_1067_);stroke-miterlimit:10;}
	.st492{fill:none;stroke:url(#SVGID_1068_);stroke-miterlimit:10;}
	.st493{fill:none;stroke:url(#SVGID_1069_);stroke-miterlimit:10;}
	.st494{fill:none;stroke:url(#SVGID_1070_);stroke-miterlimit:10;}
	.st495{fill:none;stroke:url(#SVGID_1071_);stroke-miterlimit:10;}
	.st496{fill:none;stroke:url(#SVGID_1072_);stroke-miterlimit:10;}
	.st497{fill:none;stroke:url(#SVGID_1073_);stroke-miterlimit:10;}
	.st498{fill:none;stroke:url(#SVGID_1074_);stroke-miterlimit:10;}
	.st499{fill:none;stroke:url(#SVGID_1075_);stroke-miterlimit:10;}
	.st500{fill:none;stroke:url(#SVGID_1076_);stroke-miterlimit:10;}
	.st501{fill:none;stroke:url(#SVGID_1077_);stroke-miterlimit:10;}
	.st502{fill:none;stroke:url(#SVGID_1078_);stroke-miterlimit:10;}
	.st503{clip-path:url(#SVGID_1080_);}
	.st504{opacity:0.25;fill:#8CC6ED;}
	.st505{opacity:0.6;fill:#056696;}
	.st506{opacity:0.8;fill:#8CC6ED;}
	.st507{opacity:0.5;fill:#8CC6ED;}
	.st508{opacity:0.4;fill:#87BCCC;}
</style>
<g>
	<defs>
		<rect id="SVGID_34_" x="387.1" y="-675.6" width="1216" height="768"/>
	</defs>
	<clipPath id="SVGID_2_">
		<use xlink:href="#SVGID_34_"  style="overflow:visible;"/>
	</clipPath>
	<g class="st1">
		
			<image style="overflow:visible;" width="4663" height="2060" xlink:href="../../../Diseño/Portal Andino/Landing de Producto Portal Andino/Depositphotos_14422693_original.jpg"  transform="matrix(0.4068 0 0 0.4068 -134.8506 -747.6215)">
		</image>
	</g>
</g>
<g>
	<g>
		<g>
			<path class="st481" d="M0,67.6h1.7c1,0,1.6,0.6,1.6,1.4v0c0,1-0.8,1.5-1.7,1.5H0.8v1.4H0V67.6z M1.6,69.8c0.6,0,0.9-0.3,0.9-0.8
				v0c0-0.5-0.4-0.8-0.9-0.8H0.8v1.5H1.6z"/>
			<path class="st481" d="M4,68.7h0.7v0.7c0.2-0.5,0.6-0.8,1.1-0.8v0.8h0c-0.7,0-1.1,0.4-1.1,1.3v1.2H4V68.7z"/>
			<path class="st481" d="M6.3,70.3L6.3,70.3c0-0.9,0.7-1.7,1.6-1.7c1,0,1.6,0.8,1.6,1.7c0,0.1,0,0.1,0,0.2H7
				c0.1,0.5,0.5,0.8,0.9,0.8c0.4,0,0.6-0.1,0.9-0.4l0.4,0.4C9,71.7,8.5,72,7.9,72C7,72,6.3,71.3,6.3,70.3z M8.7,70.1
				c0-0.5-0.3-0.9-0.8-0.9c-0.5,0-0.8,0.4-0.8,0.9H8.7z"/>
			<path class="st481" d="M9.8,71.5l0.3-0.5c0.4,0.3,0.7,0.4,1.1,0.4c0.3,0,0.5-0.1,0.5-0.3v0c0-0.3-0.3-0.3-0.7-0.5
				c-0.5-0.1-1-0.3-1-1v0c0-0.6,0.5-1,1.2-1c0.4,0,0.8,0.1,1.2,0.4l-0.3,0.5c-0.3-0.2-0.6-0.3-0.9-0.3c-0.3,0-0.5,0.1-0.5,0.3v0
				c0,0.2,0.4,0.3,0.7,0.5c0.5,0.1,1,0.4,1,0.9v0c0,0.7-0.5,1-1.2,1C10.8,72,10.2,71.8,9.8,71.5z"/>
			<path class="st481" d="M13.1,67.5h0.8v0.7h-0.8V67.5z M13.2,68.7h0.7v3.2h-0.7V68.7z"/>
			<path class="st481" d="M14.7,70.3L14.7,70.3c0-1.1,0.7-1.7,1.5-1.7c0.5,0,0.9,0.3,1.1,0.6v-1.7H18v4.5h-0.7v-0.5
				C17,71.7,16.7,72,16.2,72C15.4,72,14.7,71.4,14.7,70.3z M17.3,70.3L17.3,70.3c0-0.6-0.4-1.1-0.9-1.1c-0.5,0-0.9,0.4-0.9,1v0
				c0,0.6,0.4,1,0.9,1C16.8,71.3,17.3,70.9,17.3,70.3z"/>
			<path class="st481" d="M18.7,70.3L18.7,70.3c0-0.9,0.7-1.7,1.6-1.7c1,0,1.6,0.8,1.6,1.7c0,0.1,0,0.1,0,0.2h-2.4
				c0.1,0.5,0.5,0.8,0.9,0.8c0.4,0,0.6-0.1,0.9-0.4l0.4,0.4C21.4,71.7,21,72,20.4,72C19.4,72,18.7,71.3,18.7,70.3z M21.1,70.1
				c0-0.5-0.3-0.9-0.8-0.9c-0.5,0-0.8,0.4-0.8,0.9H21.1z"/>
			<path class="st481" d="M22.5,68.7h0.7v0.5c0.2-0.3,0.5-0.6,1-0.6c0.7,0,1.2,0.5,1.2,1.2v2.1h-0.7v-1.8c0-0.5-0.3-0.8-0.7-0.8
				c-0.4,0-0.7,0.3-0.7,0.8v1.8h-0.7V68.7z"/>
			<path class="st481" d="M26.1,70.3L26.1,70.3c0-0.9,0.7-1.7,1.7-1.7c0.6,0,1,0.2,1.3,0.6l-0.5,0.5c-0.2-0.2-0.5-0.4-0.8-0.4
				c-0.5,0-0.9,0.5-0.9,1v0c0,0.6,0.4,1,1,1c0.4,0,0.6-0.2,0.8-0.4l0.4,0.4c-0.3,0.4-0.7,0.6-1.3,0.6C26.8,72,26.1,71.2,26.1,70.3z"
				/>
			<path class="st481" d="M29.8,67.5h0.8v0.7h-0.8V67.5z M29.8,68.7h0.7v3.2h-0.7V68.7z"/>
			<path class="st481" d="M31.2,71L31.2,71c0-0.7,0.5-1.1,1.3-1.1c0.4,0,0.6,0.1,0.9,0.1V70c0-0.5-0.3-0.7-0.8-0.7
				c-0.4,0-0.6,0.1-0.9,0.2l-0.2-0.6c0.4-0.2,0.7-0.3,1.2-0.3c0.5,0,0.8,0.1,1.1,0.4c0.2,0.2,0.4,0.6,0.4,1v1.9h-0.7v-0.4
				c-0.2,0.3-0.6,0.5-1.1,0.5C31.8,72,31.2,71.6,31.2,71z M33.5,70.7v-0.2c-0.2-0.1-0.4-0.1-0.7-0.1c-0.5,0-0.8,0.2-0.8,0.5v0
				c0,0.3,0.3,0.5,0.6,0.5C33.1,71.4,33.5,71.2,33.5,70.7z"/>
			<path class="st481" d="M36.6,70.3L36.6,70.3c0-1.1,0.7-1.7,1.5-1.7c0.5,0,0.9,0.3,1.1,0.6v-1.7H40v4.5h-0.7v-0.5
				C39,71.7,38.7,72,38.1,72C37.4,72,36.6,71.4,36.6,70.3z M39.3,70.3L39.3,70.3c0-0.6-0.4-1.1-0.9-1.1c-0.5,0-0.9,0.4-0.9,1v0
				c0,0.6,0.4,1,0.9,1C38.8,71.3,39.3,70.9,39.3,70.3z"/>
			<path class="st481" d="M40.7,70.3L40.7,70.3c0-0.9,0.7-1.7,1.6-1.7c1,0,1.6,0.8,1.6,1.7c0,0.1,0,0.1,0,0.2h-2.4
				c0.1,0.5,0.5,0.8,0.9,0.8c0.4,0,0.6-0.1,0.9-0.4l0.4,0.4c-0.3,0.4-0.7,0.6-1.3,0.6C41.4,72,40.7,71.3,40.7,70.3z M43.1,70.1
				c0-0.5-0.3-0.9-0.8-0.9c-0.5,0-0.8,0.4-0.8,0.9H43.1z"/>
			<path class="st481" d="M46.3,67.4h0.7v4.5h-0.7V67.4z"/>
			<path class="st481" d="M47.8,71L47.8,71c0-0.7,0.5-1.1,1.3-1.1c0.4,0,0.6,0.1,0.9,0.1V70c0-0.5-0.3-0.7-0.8-0.7
				c-0.4,0-0.6,0.1-0.9,0.2l-0.2-0.6c0.4-0.2,0.7-0.3,1.2-0.3c0.5,0,0.8,0.1,1.1,0.4c0.2,0.2,0.4,0.6,0.4,1v1.9H50v-0.4
				c-0.2,0.3-0.6,0.5-1.1,0.5C48.3,72,47.8,71.6,47.8,71z M50,70.7v-0.2c-0.2-0.1-0.4-0.1-0.7-0.1c-0.5,0-0.8,0.2-0.8,0.5v0
				c0,0.3,0.3,0.5,0.6,0.5C49.6,71.4,50,71.2,50,70.7z"/>
			<path class="st481" d="M53.4,67.6h0.7l2.3,3v-3h0.7v4.3h-0.6l-2.4-3.1v3.1h-0.7V67.6z"/>
			<path class="st481" d="M57.9,71L57.9,71c0-0.7,0.5-1.1,1.3-1.1c0.4,0,0.6,0.1,0.9,0.1V70c0-0.5-0.3-0.7-0.8-0.7
				c-0.4,0-0.6,0.1-0.9,0.2l-0.2-0.6c0.4-0.2,0.7-0.3,1.2-0.3c0.5,0,0.8,0.1,1.1,0.4c0.2,0.2,0.4,0.6,0.4,1v1.9h-0.7v-0.4
				c-0.2,0.3-0.6,0.5-1.1,0.5C58.5,72,57.9,71.6,57.9,71z M60.1,70.7v-0.2c-0.2-0.1-0.4-0.1-0.7-0.1c-0.5,0-0.8,0.2-0.8,0.5v0
				c0,0.3,0.3,0.5,0.6,0.5C59.8,71.4,60.1,71.2,60.1,70.7z"/>
			<path class="st481" d="M61.5,70.3L61.5,70.3c0-0.9,0.7-1.7,1.7-1.7c0.6,0,1,0.2,1.3,0.6L64,69.7c-0.2-0.2-0.5-0.4-0.8-0.4
				c-0.5,0-0.9,0.5-0.9,1v0c0,0.6,0.4,1,1,1c0.4,0,0.6-0.2,0.8-0.4l0.4,0.4c-0.3,0.4-0.7,0.6-1.3,0.6C62.2,72,61.5,71.2,61.5,70.3z"
				/>
			<path class="st481" d="M65.2,67.5H66v0.7h-0.8V67.5z M65.2,68.7h0.7v3.2h-0.7V68.7z"/>
			<path class="st481" d="M66.7,70.3L66.7,70.3c0-0.9,0.7-1.7,1.7-1.7c1,0,1.7,0.8,1.7,1.7v0c0,0.9-0.7,1.7-1.7,1.7
				C67.4,72,66.7,71.2,66.7,70.3z M69.4,70.3L69.4,70.3c0-0.6-0.4-1.1-1-1.1c-0.6,0-1,0.5-1,1v0c0,0.6,0.4,1,1,1
				C69,71.3,69.4,70.9,69.4,70.3z M68.7,67.2l0.7,0.3l-0.8,0.7h-0.6L68.7,67.2z"/>
			<path class="st481" d="M70.8,68.7h0.7v0.5c0.2-0.3,0.5-0.6,1-0.6c0.7,0,1.2,0.5,1.2,1.2v2.1H73v-1.8c0-0.5-0.3-0.8-0.7-0.8
				c-0.4,0-0.7,0.3-0.7,0.8v1.8h-0.7V68.7z"/>
		</g>
		<g>
			<g>
				<path class="st481" d="M4.7,46.2h1.4l2.2,3.5l2.2-3.5H12v7.4h-1.3v-5.3l-2.3,3.5h0L6,48.3v5.3H4.7V46.2z"/>
				<path class="st481" d="M13.5,45.9h1.4v1.2h-1.4V45.9z M13.6,48h1.3v5.6h-1.3V48z"/>
				<path class="st481" d="M16.3,48h1.3v0.9c0.4-0.5,0.9-1,1.7-1c1.3,0,2,0.8,2,2.1v3.5H20v-3.2c0-0.9-0.4-1.4-1.2-1.4
					c-0.7,0-1.3,0.5-1.3,1.4v3.1h-1.3V48z"/>
				<path class="st481" d="M22.6,45.9H24v1.2h-1.4V45.9z M22.7,48H24v5.6h-1.3V48z"/>
				<path class="st481" d="M25,52.8l0.6-0.9c0.6,0.5,1.3,0.7,1.8,0.7c0.5,0,0.9-0.2,0.9-0.6v0c0-0.4-0.6-0.6-1.2-0.8
					c-0.8-0.2-1.7-0.6-1.7-1.6v0c0-1.1,0.9-1.7,2-1.7c0.7,0,1.5,0.2,2,0.6l-0.5,0.9c-0.5-0.3-1.1-0.5-1.6-0.5
					c-0.5,0-0.8,0.2-0.8,0.5v0c0,0.4,0.6,0.6,1.3,0.8c0.8,0.3,1.7,0.6,1.7,1.6v0c0,1.2-0.9,1.7-2.1,1.7C26.5,53.6,25.7,53.4,25,52.8
					z"/>
				<path class="st481" d="M30.7,52v-2.9H30V48h0.7v-1.5H32V48h1.5v1.1H32v2.7c0,0.5,0.3,0.7,0.7,0.7c0.3,0,0.5-0.1,0.8-0.2v1
					c-0.3,0.2-0.7,0.3-1.1,0.3C31.4,53.6,30.7,53.2,30.7,52z"/>
				<path class="st481" d="M34.3,50.8L34.3,50.8c0-1.6,1.1-2.9,2.7-2.9c1.8,0,2.7,1.4,2.7,3c0,0.1,0,0.2,0,0.4h-4.1
					c0.1,0.9,0.8,1.4,1.6,1.4c0.6,0,1.1-0.2,1.5-0.7l0.7,0.7c-0.5,0.6-1.3,1-2.3,1C35.5,53.7,34.3,52.5,34.3,50.8z M38.4,50.4
					c-0.1-0.8-0.6-1.5-1.4-1.5c-0.8,0-1.3,0.6-1.4,1.5H38.4z"/>
				<path class="st481" d="M40.7,48H42v1.3c0.3-0.8,1-1.4,2-1.4v1.3h-0.1c-1.1,0-1.9,0.7-1.9,2.2v2.1h-1.3V48z"/>
				<path class="st481" d="M44.9,45.9h1.4v1.2h-1.4V45.9z M44.9,48h1.3v5.6h-1.3V48z"/>
				<path class="st481" d="M47.4,50.8L47.4,50.8c0-1.6,1.3-2.9,3-2.9s3,1.3,3,2.9v0c0,1.6-1.3,2.9-3,2.9
					C48.6,53.7,47.4,52.4,47.4,50.8z M52,50.8L52,50.8c0-1-0.7-1.8-1.7-1.8c-1,0-1.7,0.8-1.7,1.8v0c0,1,0.7,1.8,1.7,1.8
					C51.4,52.5,52,51.7,52,50.8z"/>
				<path class="st481" d="M57,50.8L57,50.8c0-1.9,1.3-2.9,2.6-2.9c0.9,0,1.5,0.5,1.9,1v-3h1.3v7.7h-1.3v-0.9c-0.4,0.6-1,1-1.9,1
					C58.3,53.6,57,52.6,57,50.8z M61.5,50.8L61.5,50.8c0-1.1-0.8-1.8-1.6-1.8c-0.9,0-1.6,0.7-1.6,1.8v0c0,1.1,0.7,1.8,1.6,1.8
					C60.8,52.5,61.5,51.8,61.5,50.8z"/>
				<path class="st481" d="M63.9,50.8L63.9,50.8c0-1.6,1.1-2.9,2.7-2.9c1.8,0,2.7,1.4,2.7,3c0,0.1,0,0.2,0,0.4h-4.1
					c0.1,0.9,0.8,1.4,1.6,1.4c0.6,0,1.1-0.2,1.5-0.7l0.7,0.7c-0.5,0.6-1.3,1-2.3,1C65.1,53.7,63.9,52.5,63.9,50.8z M68,50.4
					c-0.1-0.8-0.6-1.5-1.4-1.5c-0.8,0-1.3,0.6-1.4,1.5H68z"/>
				<path class="st481" d="M0,56.7h1.4l2.2,3.5l2.2-3.5h1.4V64H6v-5.3l-2.3,3.5h0l-2.3-3.4V64H0V56.7z"/>
				<path class="st481" d="M8.5,61.3L8.5,61.3c0-1.6,1.3-2.9,3-2.9s3,1.3,3,2.9v0c0,1.6-1.3,2.9-3,2.9C9.8,64.2,8.5,62.9,8.5,61.3z
					 M13.1,61.3L13.1,61.3c0-1-0.7-1.8-1.7-1.8c-1,0-1.7,0.8-1.7,1.8v0c0,1,0.7,1.8,1.7,1.8C12.5,63.1,13.1,62.3,13.1,61.3z"/>
				<path class="st481" d="M15.2,61.3L15.2,61.3c0-1.9,1.3-2.9,2.6-2.9c0.9,0,1.5,0.5,1.9,1v-3H21V64h-1.3v-0.9c-0.4,0.6-1,1-1.9,1
					C16.5,64.2,15.2,63.1,15.2,61.3z M19.7,61.3L19.7,61.3c0-1.1-0.8-1.8-1.6-1.8c-0.9,0-1.6,0.7-1.6,1.8v0c0,1.1,0.7,1.8,1.6,1.8
					C19,63.1,19.7,62.3,19.7,61.3z"/>
				<path class="st481" d="M22.1,61.3L22.1,61.3c0-1.6,1.1-2.9,2.7-2.9c1.8,0,2.7,1.4,2.7,3c0,0.1,0,0.2,0,0.4h-4.1
					c0.1,0.9,0.8,1.4,1.6,1.4c0.6,0,1.1-0.2,1.5-0.7l0.7,0.7c-0.5,0.6-1.3,1-2.3,1C23.3,64.2,22.1,63,22.1,61.3z M26.2,60.9
					c-0.1-0.8-0.6-1.5-1.4-1.5c-0.8,0-1.3,0.6-1.4,1.5H26.2z"/>
				<path class="st481" d="M28.5,58.5h1.3v1.3c0.3-0.8,1-1.4,2-1.4v1.3h-0.1c-1.1,0-1.9,0.7-1.9,2.2V64h-1.3V58.5z"/>
				<path class="st481" d="M32.6,58.5h1.3v0.9c0.4-0.5,0.9-1,1.7-1c1.3,0,2,0.8,2,2.1V64h-1.3v-3.2c0-0.9-0.4-1.4-1.2-1.4
					c-0.7,0-1.3,0.5-1.3,1.4V64h-1.3V58.5z"/>
				<path class="st481" d="M39,56.4h1.4v1.2H39V56.4z M39,58.5h1.3V64H39V58.5z"/>
				<path class="st481" d="M41.5,63.2l3.2-3.6h-3.1v-1h4.7v0.9L43.1,63h3.2v1h-4.8V63.2z"/>
				<path class="st481" d="M47.1,62.4L47.1,62.4c0-1.2,0.9-1.8,2.3-1.8c0.6,0,1.1,0.1,1.5,0.2v-0.1c0-0.8-0.5-1.2-1.4-1.2
					c-0.6,0-1.1,0.1-1.6,0.3l-0.3-1c0.6-0.3,1.2-0.5,2.1-0.5c0.8,0,1.5,0.2,1.8,0.6c0.4,0.4,0.6,1,0.6,1.7V64h-1.2v-0.7
					c-0.4,0.5-1,0.8-1.8,0.8C48,64.2,47.1,63.6,47.1,62.4z M50.9,62v-0.4c-0.3-0.1-0.8-0.2-1.3-0.2c-0.8,0-1.3,0.3-1.3,0.9v0
					c0,0.5,0.5,0.8,1.1,0.8C50.2,63.2,50.9,62.8,50.9,62z"/>
				<path class="st481" d="M53.1,61.3L53.1,61.3c0-1.6,1.2-2.9,2.9-2.9c1,0,1.7,0.4,2.2,1l-0.8,0.9c-0.4-0.4-0.8-0.7-1.4-0.7
					c-0.9,0-1.6,0.8-1.6,1.8v0c0,1,0.7,1.8,1.7,1.8c0.6,0,1-0.3,1.4-0.7l0.8,0.8c-0.5,0.6-1.2,1-2.3,1
					C54.3,64.2,53.1,62.9,53.1,61.3z"/>
				<path class="st481" d="M59.2,56.4h1.4v1.2h-1.4V56.4z M59.3,58.5h1.3V64h-1.3V58.5z"/>
				<path class="st481" d="M61.7,61.3L61.7,61.3c0-1.6,1.3-2.9,3-2.9s3,1.3,3,2.9v0c0,1.6-1.3,2.9-3,2.9
					C62.9,64.2,61.7,62.9,61.7,61.3z M66.3,61.3L66.3,61.3c0-1-0.7-1.8-1.7-1.8c-1,0-1.7,0.8-1.7,1.8v0c0,1,0.7,1.8,1.7,1.8
					C65.7,63.1,66.3,62.3,66.3,61.3z M65.2,56.1l1.2,0.5l-1.3,1.2h-1L65.2,56.1z"/>
				<path class="st481" d="M68.7,58.5H70v0.9c0.4-0.5,0.9-1,1.7-1c1.3,0,2,0.8,2,2.1V64h-1.3v-3.2c0-0.9-0.4-1.4-1.2-1.4
					c-0.7,0-1.3,0.5-1.3,1.4V64h-1.3V58.5z"/>
			</g>
		</g>
	</g>
	<g>
		<g>
			<path class="st481" d="M36.1,19.4h-2.2c-0.5,0-0.8-0.2-0.9-0.4c-0.1-0.1-0.2-0.3-0.2-0.6c0,0,0,0,0-0.1c0-0.2,0-0.4,0-0.7
				c0.3-1.5,0.9-2.4,1.4-3c-0.1,0-0.1,0-0.2-0.1c-0.3-0.2-0.5-0.5-0.4-0.9c0.1-0.5,0.5-1,0.6-1.1c0.8-0.9,1.9-0.9,2-0.9
				c0.2,0,1.7-0.1,2.5,1.5c1,1.9,1.2,3.4,1.4,4.7l0,0.1c0,0.2,0,0.4,0,0.6c0,0,0,0,0,0.1c-0.1,0.2-0.1,0.3-0.2,0.4
				c-0.2,0.2-0.5,0.4-0.9,0.4c-0.2,0-0.3,0-0.4,0c0,0-0.1,0-0.1,0h-0.6c0,0,0,0,0,0c0,0,0,0,0,0h-1.1v3.1h9.9c0-1.8-0.3-3.6-0.8-5.3
				c-0.5-1.6-1.3-3.1-2.2-4.3c-0.9-1.2-2-2.2-3.3-2.9c-1.3-0.7-2.6-1.1-4-1.1c-1.4,0-2.7,0.4-4,1.1c-1.2,0.7-2.3,1.7-3.3,2.9
				c-0.9,1.3-1.7,2.7-2.2,4.3c-0.5,1.7-0.8,3.5-0.8,5.3h9.9V19.4z"/>
		</g>
		<g>
			<path class="st36" d="M26.2,22.5c0,1.4,0.2,2.8,0.5,4.1c4.4-0.5,7.1-1,7.9-1.6c0.6-0.4,1-0.6,1.6-0.6v-1.9H26.2z"/>
			<path class="st36" d="M36.8,24.5c0.4,0.1,0.7,0.2,1,0.3c0,0,0.1,0,0.1,0c0.6,0,1.1,0.2,1.7,0.4c0.2,0.1,0.4,0.1,0.6,0.2
				c0.1,0,3.3,1,6,1.2c0.3-1.3,0.5-2.7,0.5-4.1h-9.9V24.5z"/>
		</g>
		<path class="st36" d="M40.8,28.9c0,0.1-0.1,0.2-0.2,0.3c-0.2,0.2-0.4,0.2-0.7,0.3c0,0.1-0.1,0.2-0.2,0.3c-0.2,0.2-0.4,0.4-0.9,0.3
			c0,0.1-0.1,0.2-0.2,0.2c-0.2,0.2-0.5,0.3-0.8,0.3c-0.1,0.1-0.2,0.1-0.3,0.2c-0.2,0.1-0.5,0.1-0.8,0.1v2.6c0,0.2-0.1,0.3-0.3,0.3
			c-0.2,0-0.3-0.1-0.3-0.3v-2.5c-0.1,0.1-0.3,0.1-0.4,0.1c-0.1,0-0.1,0-0.2,0c-0.2,0-0.3-0.1-0.5-0.3c-0.2,0-0.6,0.1-0.9-0.1
			c-0.1-0.1-0.2-0.2-0.2-0.3c-0.1,0-0.2,0-0.3-0.1c-0.3-0.1-0.5-0.3-0.6-0.5c-0.1,0-0.1,0-0.2,0c-0.2,0-0.6-0.1-0.7-0.4
			c0-0.1,0-0.1,0-0.2c-1.4,0.7-3,1.5-3.8,1.8c0.3,0.5,0.6,0.9,0.9,1.4c0.9,1.2,2,2.2,3.3,2.9c0.6,0.3,1.2,0.6,1.8,0.7
			c0.1-0.1,0.1-0.2,0.3-0.3c0.6-0.4,1.7-0.1,2,0c0.3-0.1,1.4-0.4,2,0c0.1,0.1,0.2,0.2,0.3,0.3c0.6-0.2,1.2-0.4,1.8-0.7
			c1.2-0.7,2.3-1.7,3.3-2.9c0.3-0.4,0.6-0.8,0.9-1.3C43.8,30.5,42,29.7,40.8,28.9z"/>
		<g>
			<path class="st481" d="M37.4,37.9c0-0.1,0-0.2,0-0.2c0-0.1,0-0.1,0-0.2c0.3-0.1,0.9-0.2,1.2-0.6c0.2-0.2,0.2-0.5,0.2-0.7
				c0-0.2-0.1-0.4-0.4-0.6c-0.6-0.4-1.7-0.1-2,0c-0.3-0.1-1.4-0.4-2,0c-0.2,0.1-0.3,0.3-0.4,0.6c0,0.3,0,0.5,0.2,0.7
				c0.3,0.4,0.9,0.5,1.2,0.6c0,0.1,0,0.1,0,0.2c0,0.1,0,0.1,0,0.2c-0.2,0.2-1,0.9-2.2,1.1l0,0c0,0.1,0.1,0.2,0.3,0.4
				c1-0.2,1.7-0.7,2.1-1c0,0,0.1,0.1,0.1,0.1c-0.1,0.3-0.4,1-1.6,1.3c0.2,0.1,0.4,0.2,0.7,0.2c0.9-0.4,1.2-1,1.3-1.3
				c0.1,0,0.1,0,0.2,0c0.1,0,0.1,0,0.2,0c0.1,0.3,0.4,0.9,1.3,1.3c0.3,0,0.5-0.1,0.7-0.2c-1.2-0.3-1.5-1-1.6-1.3
				c0,0,0.1-0.1,0.1-0.1c0.3,0.3,1,0.9,2,1c0.2-0.2,0.3-0.3,0.3-0.4C38.4,38.8,37.6,38.1,37.4,37.9z"/>
			<g>
				<g>
					<path class="st36" d="M38.2,35.9c0.1,0.1,0.1,0.1,0.2,0.3c0,0.2,0,0.3-0.1,0.4c-0.1,0.2-0.4,0.3-0.6,0.3c0.1-0.2,0.1-0.4,0-0.7
						c-0.1-0.2-0.2-0.4-0.4-0.5C37.7,35.8,38,35.8,38.2,35.9z"/>
					<path class="st36" d="M35.6,36.4c0.2-0.4,0.8-0.5,0.8-0.5h0c0,0,0.2,0,0.4,0.1c0.2,0.1,0.4,0.2,0.5,0.4
						c0.1,0.2-0.1,0.4-0.2,0.5c-0.2-0.1-0.4-0.2-0.6-0.2c-0.2,0-0.5,0.1-0.6,0.2C35.7,36.8,35.6,36.6,35.6,36.4z"/>
					<path class="st36" d="M35.3,36.9c-0.2-0.1-0.4-0.2-0.6-0.3c-0.1-0.1-0.1-0.3-0.1-0.4c0-0.1,0.1-0.2,0.2-0.3
						c0.1-0.1,0.3-0.1,0.6-0.1c0.1,0,0.2,0,0.3,0c-0.1,0.1-0.3,0.3-0.4,0.5C35.1,36.5,35.2,36.7,35.3,36.9z"/>
					<circle class="st36" cx="36.4" cy="37.7" r="0.5"/>
				</g>
				<path class="st36" d="M39.2,39.3c-1-0.2-1.7-0.7-2-1c0,0-0.1,0.1-0.1,0.1c0.1,0.3,0.4,1,1.6,1.3C38.9,39.6,39,39.4,39.2,39.3z"
					/>
				<path class="st36" d="M35.8,38.3c-0.3,0.3-1,0.9-2.1,1c0.1,0.1,0.3,0.2,0.6,0.4c1.2-0.3,1.5-1,1.6-1.3
					C35.8,38.4,35.8,38.3,35.8,38.3z"/>
			</g>
		</g>
		<path class="st482" d="M48.9,25.2c0-0.1,0-0.1-0.1-0.2c0,0-0.1-0.1-0.1-0.1c0-0.1,0.1-0.2,0.1-0.3c0.2-0.4,0.2-0.9,0.2-1.4
			c0-0.1,0-0.1-0.1-0.2c0,0-0.1,0-0.1,0c0-0.1,0.1-0.2,0.1-0.3c0.1-0.4,0.1-0.9,0.1-1.5c0-0.1,0-0.1-0.1-0.2c0,0-0.1,0-0.2,0
			c0-0.1,0-0.2,0.1-0.3c0.1-0.4,0.1-0.9,0-1.5c0-0.1-0.1-0.1-0.1-0.2c0,0-0.1,0-0.1,0c0-0.1,0-0.2,0-0.2c0-0.4,0-0.9-0.1-1.5
			c0-0.1-0.1-0.1-0.1-0.2c-0.1,0-0.1,0-0.2,0l0,0c0-0.1,0-0.2,0-0.4c0-0.4-0.1-0.9-0.3-1.4c0-0.1-0.1-0.1-0.2-0.1
			c-0.1,0-0.1,0-0.2,0c0-0.1,0-0.2,0-0.3c-0.1-0.4-0.2-0.9-0.5-1.4c0-0.1-0.1-0.1-0.2-0.1c-0.1,0-0.1,0-0.2,0c0-0.1,0-0.2-0.1-0.3
			c-0.1-0.4-0.3-0.9-0.6-1.3c0-0.1-0.1-0.1-0.2-0.1c-0.1,0-0.1,0-0.2,0.1c0-0.1-0.1-0.2-0.1-0.4c-0.2-0.4-0.5-0.8-0.8-1.2
			c-0.1-0.1-0.1-0.1-0.2-0.1c-0.1,0-0.1,0-0.1,0.1c-0.1-0.1-0.1-0.2-0.2-0.3c-0.2-0.4-0.6-0.7-1-1.1C43,9,43,9,42.9,9
			c-0.1,0-0.1,0.1-0.1,0.1c-0.3-0.4-0.7-0.6-1.2-0.8c0.1,0,0.2,0,0.3,0c0.6,0,1-0.1,1-0.1c0.1,0,0.2-0.2,0.2-0.3
			c0-0.1-0.1-0.2-0.3-0.2c-0.6,0-0.9-0.2-1.2-0.3c-0.1,0-0.1-0.1-0.2-0.1L43,7c0.1,0,0.2-0.1,0.2-0.3c0-0.1-0.1-0.2-0.2-0.3
			l-1.5-0.2c0.2,0,0.4-0.1,0.6-0.2C42.6,5.9,43,5.6,43,5.6c0.1-0.1,0.1-0.2,0.1-0.3c-0.1-0.1-0.2-0.2-0.3-0.1
			c-0.6,0.2-0.9,0.2-1.2,0.2c-0.1,0-0.1,0-0.2,0l1.3-0.8c0.1-0.1,0.2-0.2,0.1-0.3C42.6,4.1,42.5,4,42.4,4l-1.5,0.4
			C41,4.3,41.2,4.1,41.4,4C41.8,3.6,42,3.2,42,3.2c0.1-0.1,0-0.3-0.1-0.3c-0.1-0.1-0.2-0.1-0.3,0c-0.5,0.4-0.7,0.5-1.1,0.6
			c-0.1,0-0.1,0-0.2,0.1l0.9-1.2c0.1-0.1,0.1-0.3,0-0.4c-0.1-0.1-0.2-0.1-0.3,0l-1.2,0.9c0.1-0.2,0.2-0.3,0.3-0.6
			c0.3-0.5,0.3-1,0.3-1c0-0.1-0.1-0.3-0.2-0.3c-0.1,0-0.3,0-0.3,0.1c-0.3,0.6-0.5,0.8-0.8,1c-0.1,0-0.1,0.1-0.2,0.1l0.4-1.5
			c0-0.1,0-0.3-0.2-0.3c-0.1-0.1-0.3,0-0.3,0.1l-0.8,1.3c0-0.2,0-0.4,0.1-0.6c0-0.6-0.1-1-0.1-1c0-0.1-0.2-0.2-0.3-0.2
			c-0.1,0-0.2,0.1-0.2,0.3c0,0.6-0.2,0.9-0.3,1.2c0,0.1-0.1,0.1-0.1,0.2l-0.2-1.5c0-0.1-0.1-0.2-0.3-0.2l0,0c-0.1,0-0.2,0.1-0.3,0.2
			L36,1.7c0-0.2-0.1-0.4-0.2-0.6c-0.2-0.6-0.5-0.9-0.5-0.9c-0.1-0.1-0.2-0.1-0.3-0.1c-0.1,0.1-0.2,0.2-0.1,0.3
			C35.1,1.1,35,1.4,35,1.7c0,0.1,0,0.1,0,0.2l-0.8-1.3c-0.1-0.1-0.2-0.2-0.3-0.1c-0.1,0.1-0.2,0.2-0.2,0.3l0.4,1.5
			C34,2.2,33.8,2,33.7,1.8c-0.4-0.4-0.8-0.6-0.8-0.7c-0.1-0.1-0.3,0-0.3,0.1c-0.1,0.1-0.1,0.3,0,0.3c0.4,0.5,0.5,0.7,0.6,1.1
			c0,0.1,0,0.1,0.1,0.2L32,2c-0.1-0.1-0.3-0.1-0.4,0c-0.1,0.1-0.1,0.2,0,0.4l0.9,1.2c-0.2-0.1-0.3-0.2-0.5-0.3C31.5,3,31,3,31,3
			c-0.1,0-0.3,0.1-0.3,0.2c0,0.1,0,0.3,0.1,0.3c0.6,0.3,0.8,0.5,1,0.8c0,0.1,0.1,0.1,0.1,0.2L30.5,4c-0.1,0-0.3,0-0.3,0.2
			c-0.1,0.1,0,0.3,0.1,0.3l1.3,0.8c-0.2,0-0.4-0.1-0.6-0.1c-0.6,0-1,0.1-1,0.1c-0.1,0-0.2,0.2-0.2,0.3c0,0.1,0.1,0.2,0.3,0.2
			c0.6,0,0.9,0.2,1.2,0.3c0.1,0,0.1,0.1,0.2,0.1l-1.5,0.2c-0.1,0-0.2,0.1-0.2,0.3c0,0.1,0.1,0.2,0.2,0.3l1.5,0.2
			c-0.2,0-0.4,0.1-0.6,0.2c-0.6,0.2-0.9,0.5-0.9,0.5c-0.1,0.1-0.1,0.2-0.1,0.3c0.1,0.1,0.2,0.2,0.3,0.1c0.4-0.1,0.6-0.2,0.8-0.2
			c-0.3,0.3-0.6,0.5-0.7,0.7c-0.1,0.1-0.1,0.2-0.2,0.2c0,0-0.1-0.1-0.1-0.1c-0.1,0-0.1,0-0.2,0c-0.4,0.3-0.8,0.7-1,1.1
			c-0.1,0.1-0.1,0.2-0.2,0.3c0-0.1-0.1-0.1-0.1-0.1c-0.1,0-0.1,0-0.2,0.1c-0.4,0.4-0.6,0.8-0.8,1.2c0,0.1-0.1,0.2-0.1,0.3
			c0,0-0.1-0.1-0.1-0.1c-0.1,0-0.1,0-0.2,0.1c-0.3,0.4-0.5,0.9-0.7,1.3c0,0.1-0.1,0.2-0.1,0.3c0,0-0.1-0.1-0.2-0.1
			c-0.1,0-0.1,0.1-0.2,0.1c-0.3,0.5-0.4,0.9-0.5,1.4c0,0.1,0,0.2,0,0.3c-0.1,0-0.1-0.1-0.2,0c-0.1,0-0.1,0.1-0.2,0.1
			c-0.2,0.5-0.3,1-0.3,1.4c0,0.1,0,0.2,0,0.3c-0.1,0-0.1,0-0.2,0c-0.1,0-0.1,0.1-0.1,0.2c-0.1,0.5-0.2,1-0.1,1.5c0,0.1,0,0.2,0,0.2
			c0,0-0.1,0-0.1,0c-0.1,0-0.1,0.1-0.1,0.2c-0.1,0.5-0.1,1,0,1.5c0,0.1,0,0.2,0.1,0.3c0,0-0.1,0-0.1,0c-0.1,0-0.1,0.1-0.1,0.2
			c-0.1,0.5-0.1,1,0,1.5c0,0.1,0,0.2,0.1,0.3c-0.1,0-0.1,0-0.1,0c-0.1,0-0.1,0.1-0.1,0.2c0,0.5,0.1,1,0.2,1.5c0,0.1,0.1,0.2,0.1,0.4
			c0,0,0,0,0,0c-0.1,0-0.1,0-0.2,0.1c-0.1,0-0.1,0.1-0.1,0.2c0.1,0.5,0.2,1,0.5,1.4c0,0.1,0.1,0.1,0.1,0.2c0,0-0.1,0-0.1,0.1
			c-0.1,0.1-0.1,0.1-0.1,0.2c0.1,0.5,0.3,1,0.6,1.4c0.1,0.1,0.1,0.2,0.2,0.3c-0.1,0-0.1,0-0.1,0.1c0,0.1-0.1,0.1,0,0.2
			c0.2,0.5,0.4,0.9,0.7,1.3c0.1,0.1,0.1,0.2,0.2,0.2c-0.1,0-0.1,0-0.1,0.1c0,0.1,0,0.1,0,0.2c0.2,0.5,0.5,0.9,0.9,1.2
			c0.1,0.1,0.1,0.1,0.2,0.2c0,0-0.1,0.1-0.1,0.1c0,0.1,0,0.1,0,0.2c0.3,0.5,0.6,0.8,1,1.1c0.1,0.1,0.2,0.2,0.3,0.2c0,0,0,0,0,0
			c-0.1,0-0.1,0.1-0.1,0.2c0,0.1,0,0.1,0.1,0.2c0.4,0.4,0.8,0.7,1.1,0.9c0.3,0.2,0.6,0.3,0.9,0.4c0.3,0.1,0.5,0.1,0.8,0c0,0,0,0,0,0
			c0.7,0.5,1.4,0.9,2.1,1.2c0.6,0.3,1.2,0.5,1.9,0.6c0.1,0,0.3,0.1,0.4,0.1c-0.3-0.1-0.5-0.2-0.7-0.5c0,0-0.1-0.1-0.1-0.1
			c-0.4-0.1-0.9-0.3-1.3-0.4c-0.7-0.3-1.4-0.7-2-1.1c0,0,0,0,0,0c0-0.2,0-0.4-0.1-0.6c0.5,0.4,0.9,0.7,1.3,0.9
			c0.6,0.3,1.2,0.6,1.9,0.8c0,0,0-0.1,0-0.1c0-0.1,0-0.2,0.1-0.3c-0.6-0.2-1.2-0.4-1.8-0.7c-1.2-0.7-2.3-1.7-3.3-2.9
			c-0.3-0.4-0.6-0.9-0.9-1.4c0.7-0.3,2.3-1,3.8-1.8c0,0.1,0,0.1,0,0.2c0.1,0.3,0.4,0.4,0.7,0.4c0.1,0,0.2,0,0.2,0
			c0.1,0.2,0.3,0.4,0.6,0.5c0.1,0,0.2,0.1,0.3,0.1c0.1,0.1,0.1,0.2,0.2,0.3c0.3,0.2,0.7,0.2,0.9,0.1c0.1,0.2,0.3,0.3,0.5,0.3
			c0.1,0,0.1,0,0.2,0c0.2,0,0.3,0,0.4-0.1v2.5c0,0.2,0.1,0.3,0.3,0.3c0.2,0,0.3-0.1,0.3-0.3v-2.6c0.3,0.1,0.6,0,0.8-0.1
			c0.2-0.1,0.3-0.1,0.3-0.2c0.3,0.1,0.6,0,0.8-0.3c0.1-0.1,0.1-0.2,0.2-0.2c0.5,0,0.7-0.2,0.9-0.3c0.1-0.1,0.1-0.2,0.2-0.3
			c0.3,0,0.5-0.1,0.7-0.3c0.1-0.1,0.1-0.2,0.2-0.3c1.1,0.9,2.9,1.7,3.7,2c-0.3,0.5-0.6,0.9-0.9,1.3c-0.9,1.2-2,2.2-3.3,2.9
			c-0.6,0.3-1.2,0.6-1.8,0.7c0,0.1,0.1,0.2,0.1,0.3c0,0,0,0.1,0,0.1c0.6-0.2,1.3-0.4,1.9-0.8c0.5-0.3,0.9-0.6,1.3-0.9
			c-0.1,0.2-0.1,0.4-0.1,0.7c0,0,0,0,0,0c-0.2,0.2-0.7,0.5-1.5,0.9c-0.6,0.3-1.2,0.5-1.8,0.7c0,0-0.1,0-0.1,0c0,0,0,0.1-0.1,0.1
			c-0.2,0.2-0.5,0.4-0.7,0.5c0.3-0.1,0.7-0.1,1-0.2c0.6-0.2,1.2-0.4,1.8-0.7c0.8-0.4,1.3-0.8,1.5-0.9c0,0,0,0,0,0c0.2,0,0.5,0,0.8,0
			c0.3-0.1,0.6-0.2,0.9-0.4c0.4-0.2,0.8-0.5,1.1-0.9c0.1-0.1,0.1-0.1,0.1-0.2c0-0.1-0.1-0.1-0.1-0.2c0,0,0,0,0,0
			c0.1-0.1,0.2-0.1,0.3-0.2c0.4-0.3,0.7-0.6,1-1.1c0-0.1,0-0.1,0-0.2c0-0.1-0.1-0.1-0.1-0.1c0.1-0.1,0.1-0.1,0.2-0.2
			c0.3-0.3,0.6-0.7,0.9-1.2c0-0.1,0-0.1,0-0.2c0-0.1-0.1-0.1-0.2-0.1c0.1-0.1,0.1-0.2,0.2-0.2c0.3-0.3,0.5-0.8,0.7-1.3
			c0-0.1,0-0.1,0-0.2c0-0.1-0.1-0.1-0.2-0.1l0,0c0.1-0.1,0.1-0.2,0.2-0.2c0.3-0.4,0.4-0.8,0.6-1.4c0-0.1,0-0.1-0.1-0.2
			c0,0-0.1-0.1-0.2-0.1c0.1-0.1,0.1-0.2,0.2-0.3C48.7,26.2,48.8,25.7,48.9,25.2z M48.6,23.5C48.6,23.5,48.6,23.5,48.6,23.5
			c0,0.4-0.1,0.7-0.2,1c-0.1,0.3-0.3,0.6-0.4,0.8c-0.2,0.3-0.4,0.4-0.5,0.4h0c0,0,0,0,0,0c-0.3-0.4-0.4-0.9-0.4-1.5
			c0-0.2,0-0.4,0.1-0.5c0,0,0,0,0,0c0,0,0,0,0,0c0.3,0.3,0.4,0.8,0.4,0.8c0,0.1,0.1,0.1,0.1,0.1c0.1,0,0.1,0,0.2-0.1
			C48,24,48.4,23.7,48.6,23.5C48.6,23.5,48.6,23.5,48.6,23.5z M48.6,21.6C48.6,21.6,48.6,21.6,48.6,21.6
			C48.6,21.6,48.6,21.6,48.6,21.6c0,0.4,0,0.7-0.1,1c-0.1,0.3-0.2,0.6-0.4,0.8c-0.2,0.3-0.4,0.4-0.5,0.5c0,0,0,0,0,0c0,0,0,0,0,0
			c-0.5-0.6-0.6-1.5-0.6-1.9c0,0,0,0,0,0c0,0,0,0,0,0c0.3,0.3,0.5,0.7,0.5,0.7c0,0.1,0.1,0.1,0.1,0.1c0.1,0,0.1,0,0.1-0.1
			C48.1,22.1,48.4,21.8,48.6,21.6z M48.4,19.6C48.4,19.6,48.4,19.6,48.4,19.6C48.4,19.6,48.4,19.6,48.4,19.6c0.1,0.4,0.1,0.7,0,1
			c0,0.3-0.1,0.6-0.3,0.9c-0.2,0.3-0.4,0.5-0.4,0.5c0,0,0,0,0,0c0,0,0,0,0,0c-0.5-0.4-0.7-1.3-0.7-1.9c0,0,0,0,0,0c0,0,0,0,0,0
			c0.3,0.3,0.5,0.6,0.5,0.6c0,0.1,0.1,0.1,0.2,0.1c0.1,0,0.1-0.1,0.1-0.1C47.9,20.2,48.2,19.8,48.4,19.6z M48.1,17.8
			C48.1,17.8,48.1,17.8,48.1,17.8C48.1,17.8,48.1,17.8,48.1,17.8c0.1,0.4,0.1,0.7,0.1,1c0,0.3-0.1,0.6-0.2,0.9
			c-0.2,0.3-0.3,0.5-0.4,0.6c0,0,0,0,0,0c0,0,0,0,0,0c-0.4-0.4-0.6-0.9-0.7-1.3c0-0.2-0.1-0.4-0.1-0.5c0,0,0,0,0,0c0,0,0,0,0,0
			c0.3,0.3,0.6,0.6,0.6,0.6c0,0.1,0.1,0.1,0.2,0.1c0.1,0,0.1-0.1,0.1-0.1C47.6,18.4,47.9,18,48.1,17.8z M33.3,17.9
			C33.3,17.9,33.3,17.9,33.3,17.9c0.3-1.3,0.8-2.2,1.1-2.7c0.3-0.4,0.5-0.6,0.7-0.7c0,0,0.1-0.1,0.1-0.1c0.1-0.1,0.1-0.3,0-0.4
			c-0.1-0.1-0.3-0.2-0.4-0.1c0,0-0.1,0-0.1,0.1c-0.3,0.2-0.4,0.1-0.5,0.1c-0.1-0.1-0.1-0.2-0.1-0.3c0-0.3,0.4-0.6,0.5-0.8
			c0,0,0,0,0,0c0.6-0.7,1.6-0.8,1.6-0.8c0,0,0,0,0,0c0,0,0.3,0,0.7,0.1c0.5,0.2,0.9,0.5,1.2,1.1c0.4,0.8,0.7,1.5,0.9,2.3
			c-0.6-0.2-1-0.6-1-0.6c-0.1-0.1-0.3-0.1-0.4,0c-0.1,0.1-0.1,0.1-0.1,0.2c0,0.1,0,0.2,0.1,0.2c0,0,0.7,0.6,1.5,0.8
			c0.1,0.3,0.1,0.6,0.2,0.9c-0.3-0.1-0.6-0.2-0.8-0.3c-0.2,0-0.3-0.1-0.5-0.1c-0.6-0.2-1.1-0.6-1.1-0.6c-0.1-0.1-0.3-0.1-0.4,0.1
			c-0.1,0.1-0.1,0.3,0,0.4c0,0,0.6,0.4,1.2,0.7c0.2,0.1,0.3,0.1,0.5,0.2c0.7,0.2,1,0.3,1.1,0.7c0,0.1-0.1,0.1-0.1,0.1
			c-0.2,0.2-0.7,0.3-0.9,0.3c0,0,0,0,0,0h-0.7c-0.1,0-0.8,0-1.4-0.4C34.9,17.4,34.2,17.5,33.3,17.9z M35.9,18.8h-2.1
			c-0.2,0-0.4-0.1-0.4-0.2c0,0,0,0-0.1-0.1C34.3,18.2,34.7,18,35.9,18.8z M36.8,22.5v-3.1h1.1c0,0,0,0,0,0c0,0,0,0,0,0h0.6
			c0,0,0,0,0.1,0c0.1,0,0.2,0,0.4,0c0.4-0.1,0.7-0.2,0.9-0.4c0.1-0.1,0.2-0.2,0.2-0.4c0,0,0,0,0-0.1c0-0.1,0.1-0.3,0-0.6l0-0.1
			c-0.2-1.2-0.4-2.8-1.4-4.7c-0.8-1.6-2.3-1.5-2.5-1.5c-0.1,0-1.3,0.1-2,0.9c-0.1,0.1-0.5,0.6-0.6,1.1c-0.1,0.4,0.1,0.8,0.4,0.9
			c0.1,0,0.1,0.1,0.2,0.1c-0.5,0.6-1.1,1.6-1.4,3c0,0.2-0.1,0.5,0,0.7c0,0,0,0,0,0.1c0,0.2,0.1,0.4,0.2,0.6c0.1,0.2,0.4,0.4,0.9,0.4
			h2.2v3.1v1.9c-0.6,0-1,0.2-1.6,0.6c-0.8,0.5-3.4,1.1-7.9,1.6c-0.3-1.3-0.5-2.7-0.5-4.1c0-1.8,0.3-3.6,0.8-5.3
			c0.5-1.6,1.3-3.1,2.2-4.3c0.9-1.2,2-2.2,3.3-2.9c1.3-0.7,2.6-1.1,4-1.1c1.4,0,2.7,0.4,4,1.1c1.2,0.7,2.3,1.7,3.3,2.9
			c0.9,1.3,1.7,2.7,2.2,4.3c0.5,1.7,0.8,3.5,0.8,5.3c0,1.4-0.2,2.8-0.5,4.1c-2.7-0.2-5.9-1.2-6-1.2c-0.2-0.1-0.4-0.2-0.6-0.2
			c-0.7-0.2-1.2-0.4-1.7-0.4c0,0-0.1,0-0.1,0c-0.3-0.2-0.6-0.3-1-0.3V22.5z M41,8.3c-0.2,0.1-0.4,0.2-0.7,0.2c-0.2,0-0.4,0-0.5,0
			c-0.4,0-0.7-0.1-1-0.3c0,0,0,0,0,0c0,0,0,0,0,0c0.1-0.1,0.3-0.2,0.6-0.2c0.3-0.1,0.6-0.1,0.8,0C40.5,8,40.7,8.1,41,8.3
			C41,8.3,41,8.3,41,8.3C41,8.3,41,8.3,41,8.3z M41.4,9.4C41.4,9.4,41.4,9.4,41.4,9.4C41.4,9.4,41.4,9.4,41.4,9.4
			c-0.1,0.1-0.3,0.1-0.5,0.1c0,0-0.1,0-0.1,0c-0.5,0-0.9-0.2-1.3-0.5c0,0,0,0,0,0c0,0,0,0,0,0c0.2-0.1,0.4-0.1,0.6-0.1
			C40.6,8.8,41,9,41.4,9.4z M39.2,7.7c-0.2,0.1-0.5,0.2-1,0.3c-0.1,0-0.1,0.1-0.1,0.1c0,0.1,0,0.1,0.1,0.2c0,0,0.4,0.3,0.6,0.6
			c0,0,0,0,0,0c0,0,0,0,0,0l0,0c-0.4,0-1.3-0.1-1.9-0.9c0,0,0,0,0,0c0.1-0.1,0.3-0.2,0.5-0.3C37.9,7.5,38.6,7.5,39.2,7.7
			C39.2,7.7,39.2,7.7,39.2,7.7C39.2,7.7,39.2,7.7,39.2,7.7z M37.3,7.4c-0.2,0.1-0.4,0.3-0.9,0.4c-0.1,0-0.1,0.1-0.1,0.1
			c0,0.1,0,0.1,0.1,0.2c0,0,0.4,0.2,0.7,0.4c0,0,0,0,0,0c0,0,0,0,0,0c-0.1,0-0.2,0-0.4,0c-0.5,0-1.1-0.1-1.6-0.5c0,0,0,0,0,0
			c0.1-0.1,0.2-0.3,0.4-0.4C35.9,7.4,36.5,7.3,37.3,7.4C37.3,7.3,37.3,7.3,37.3,7.4C37.3,7.3,37.3,7.3,37.3,7.4z M35.2,7.4
			c-0.1,0.2-0.4,0.4-0.8,0.6c-0.1,0-0.1,0.1-0.1,0.2c0,0.1,0.1,0.1,0.1,0.1c0,0,0.4,0.1,0.8,0.3c0,0,0,0,0,0c0,0,0,0,0,0
			c-0.2,0.1-0.4,0.1-0.5,0.1c-0.2,0-0.3,0-0.5,0c-0.3,0-0.6,0-1-0.2c0,0,0,0,0,0c0-0.1,0.1-0.3,0.3-0.5C33.9,7.7,34.5,7.5,35.2,7.4
			C35.2,7.4,35.2,7.4,35.2,7.4C35.2,7.4,35.2,7.4,35.2,7.4z M32.6,8.6c-0.1,0-0.1,0.1,0,0.2c0,0.1,0.1,0.1,0.1,0.1l0,0
			c0,0,0.2,0,0.4,0C33.3,9,33.4,9,33.5,9c0,0,0,0,0,0c0,0,0,0,0,0c-0.2,0.1-0.3,0.2-0.5,0.2c-0.4,0.1-0.7,0.2-1,0.2
			c-0.2,0-0.4,0-0.6-0.1c0,0,0,0,0,0c0.1-0.3,0.4-1.2,1.8-1.6c0,0,0,0,0,0c0,0,0,0,0,0C33.2,7.9,33,8.3,32.6,8.6z M47.1,17.1
			c0-0.6,0.2-1,0.4-1.2c0,0,0,0,0,0c0,0,0,0,0,0c0.1,0.3,0.2,0.7,0.2,1c0,0.3,0,0.6-0.1,0.9c-0.1,0.3-0.3,0.5-0.3,0.6c0,0,0,0,0,0
			c0,0,0,0,0,0c-0.4-0.2-0.7-0.7-0.9-1.2c-0.1-0.2-0.1-0.3-0.2-0.5c0,0,0,0,0,0c0,0,0,0,0,0c0.4,0.2,0.6,0.5,0.7,0.5
			c0,0,0.1,0.1,0.2,0C47.1,17.3,47.1,17.2,47.1,17.1z M46.5,15.4c0-0.6,0.1-1,0.3-1.3c0,0,0,0,0,0c0,0,0,0,0,0
			c0.1,0.3,0.2,0.7,0.3,1c0,0.3,0,0.6,0,0.9c-0.1,0.3-0.2,0.6-0.3,0.6c0,0,0,0,0,0h0c-0.4-0.2-0.8-0.6-1-1.1
			c-0.1-0.2-0.2-0.3-0.2-0.5c0,0,0,0,0,0c0,0,0,0,0,0c0.4,0.2,0.7,0.5,0.7,0.5c0,0,0.1,0.1,0.2,0l0,0C46.4,15.5,46.5,15.4,46.5,15.4
			z M45.6,13.9L45.6,13.9c0.1,0,0.1-0.1,0.1-0.2c-0.1-0.6,0-1,0.1-1.3c0,0,0,0,0,0c0,0,0,0,0,0c0.2,0.3,0.3,0.6,0.4,0.9
			c0.1,0.3,0.1,0.6,0.1,0.9c0,0.3-0.1,0.6-0.2,0.7c0,0,0,0,0,0h0c-0.5-0.2-0.9-0.5-1.2-1c-0.1-0.2-0.2-0.3-0.3-0.5c0,0,0,0,0,0
			c0,0,0,0,0,0c0.4,0.1,0.8,0.4,0.8,0.4C45.4,13.9,45.5,13.9,45.6,13.9z M44.4,12.4c0.1,0,0.1,0,0.2,0c0.1,0,0.1-0.1,0.1-0.2
			c-0.2-0.5-0.1-1-0.1-1.3c0,0,0,0,0,0c0,0,0,0,0,0c0.2,0.3,0.4,0.6,0.5,0.9c0.1,0.3,0.2,0.6,0.2,0.9c0,0.3,0,0.6-0.1,0.7
			c0,0,0,0,0,0c0,0,0,0,0,0c-0.5-0.1-0.9-0.3-1.3-0.8c-0.1-0.1-0.3-0.3-0.4-0.5c0,0,0,0,0,0c0,0,0,0,0,0
			C44,12.1,44.4,12.4,44.4,12.4z M43.2,11c0.1,0,0.1,0,0.2,0c0,0,0.1-0.1,0-0.2c-0.3-0.5-0.3-1-0.3-1.2c0,0,0,0,0,0c0,0,0,0,0,0
			c0.3,0.2,0.5,0.5,0.7,0.8c0.2,0.3,0.3,0.5,0.4,0.8c0.1,0.3,0.1,0.6,0,0.7c0,0,0,0,0,0c0,0,0,0,0,0c-0.5,0-1-0.3-1.3-0.5
			c-0.2-0.1-0.3-0.3-0.5-0.4c0,0,0,0,0,0c0,0,0,0,0,0c0,0,0,0,0.1,0C42.8,10.9,43.2,11,43.2,11z M42.7,9.8c0.1,0.3,0.1,0.6,0.1,0.8
			c0,0,0,0,0,0c0,0-0.1,0-0.1,0c-0.7,0-1.4-0.4-1.8-0.7c0,0,0,0,0,0c0,0,0,0,0,0c0.4-0.1,0.8,0,0.8,0c0.1,0,0.1,0,0.2-0.1
			c0-0.1,0-0.1,0-0.2c-0.3-0.3-0.4-0.7-0.5-1c0,0,0,0,0,0c0,0,0,0,0,0C42.1,8.8,42.5,9.2,42.7,9.8z M30.9,7.8
			C30.9,7.8,30.9,7.8,30.9,7.8c0.5-0.2,0.8-0.3,1-0.3c0.4-0.1,0.7-0.3,0.7-0.3c0,0,0.1-0.1,0-0.1c0,0,0-0.1-0.1-0.1l-1.9-0.3
			l1.9-0.3c0.1,0,0.1-0.1,0.1-0.1c0-0.1,0-0.1-0.1-0.1c0,0-0.4-0.1-0.8-0.3c-0.1-0.1-0.2-0.1-0.3-0.2c-0.2-0.1-0.3-0.2-0.5-0.2
			c0,0,0.1,0,0.1,0c0.4,0,0.8,0.1,1,0.1c0.4,0.1,0.8,0,0.8,0c0,0,0.1,0,0.1-0.1c0,0,0-0.1-0.1-0.1l-1.6-1L33,5C33,5,33.1,5,33.1,5
			c0-0.1,0-0.1,0-0.1c0,0-0.4-0.2-0.7-0.6c-0.1-0.1-0.2-0.2-0.2-0.3c-0.1-0.1-0.2-0.3-0.4-0.4c0,0,0.1,0,0.1,0
			c0.4,0.2,0.7,0.4,0.8,0.5c0.4,0.2,0.7,0.3,0.7,0.3c0,0,0.1,0,0.1,0c0,0,0-0.1,0-0.1l-1.1-1.5l1.5,1.1c0,0,0.1,0,0.1,0
			c0,0,0-0.1,0-0.1c0,0-0.3-0.4-0.4-0.8c0-0.1-0.1-0.2-0.1-0.4c-0.1-0.2-0.1-0.4-0.2-0.6c0,0,0,0.1,0.1,0.1c0.3,0.3,0.5,0.6,0.6,0.8
			c0.2,0.3,0.5,0.5,0.6,0.6c0,0,0.1,0,0.1,0c0,0,0.1-0.1,0-0.1l-0.5-1.8l1,1.6c0,0,0.1,0.1,0.1,0c0,0,0.1-0.1,0.1-0.1
			c0,0-0.1-0.4-0.1-0.9c0-0.1,0-0.3,0-0.4c0-0.2,0-0.4,0-0.6c0,0,0,0.1,0,0.1c0.1,0.4,0.2,0.7,0.3,0.9C35.8,2.6,36,2.9,36,2.9
			c0,0,0.1,0.1,0.1,0c0,0,0.1,0,0.1-0.1L36.4,1l0.3,1.9C36.7,3,36.8,3,36.8,3c0.1,0,0.1,0,0.1-0.1c0,0,0.1-0.4,0.3-0.8
			c0.1-0.1,0.1-0.2,0.2-0.3c0.1-0.2,0.2-0.3,0.2-0.5c0,0,0,0.1,0,0.1c0,0.4-0.1,0.8-0.1,1c-0.1,0.4,0,0.8,0,0.8c0,0,0,0.1,0.1,0.1
			c0,0,0.1,0,0.1-0.1l1-1.6l-0.5,1.8c0,0.1,0,0.1,0.1,0.1c0.1,0,0.1,0,0.1,0c0,0,0.2-0.4,0.6-0.7c0.1-0.1,0.2-0.2,0.3-0.2
			c0.1-0.1,0.3-0.2,0.4-0.4c0,0,0,0.1,0,0.1c-0.2,0.4-0.4,0.7-0.5,0.8c-0.2,0.4-0.3,0.7-0.3,0.7c0,0,0,0.1,0,0.1c0,0,0.1,0,0.1,0
			l1.5-1.1l-1.1,1.5c0,0,0,0.1,0,0.1c0,0,0.1,0,0.1,0c0,0,0.3-0.2,0.8-0.4c0.1,0,0.2-0.1,0.4-0.1c0.2-0.1,0.4-0.1,0.6-0.2
			c0,0-0.1,0-0.1,0.1c-0.3,0.3-0.6,0.5-0.8,0.6c-0.4,0.2-0.6,0.5-0.6,0.5c0,0,0,0.1,0,0.1c0,0,0.1,0.1,0.1,0l1.8-0.5l-1.6,1
			c0,0-0.1,0.1,0,0.1c0,0.1,0.1,0.1,0.1,0.1c0,0,0.4-0.1,0.9-0.1c0.1,0,0.3,0,0.4,0c0.2,0,0.4,0,0.6,0c0,0-0.1,0-0.1,0
			C41.6,5.9,41.2,6,41,6c-0.4,0.1-0.7,0.3-0.7,0.3c0,0-0.1,0.1,0,0.1c0,0,0,0.1,0.1,0.1l1.9,0.3L40.3,7c-0.1,0-0.1,0.1-0.1,0.1
			c0,0.1,0,0.1,0.1,0.1c0,0,0.4,0.1,0.8,0.3c0.1,0.1,0.2,0.1,0.3,0.2c0.2,0.1,0.3,0.2,0.5,0.2c0,0-0.1,0-0.1,0c-0.4,0-0.8-0.1-1-0.1
			l-0.1,0c-0.3-0.1-0.7-0.2-1-0.2c0,0,0,0,0,0c0-0.1-0.1-0.1-0.1-0.2c-0.5-0.2-1-0.3-1.4-0.3c-0.2,0-0.3,0-0.5,0c0,0,0,0,0-0.1
			C37.8,7,37.7,7,37.6,7c-0.5-0.1-1-0.1-1.5,0c-0.2,0-0.3,0.1-0.5,0.1c0,0,0-0.1-0.1-0.1c0,0-0.1-0.1-0.2-0.1c-0.5,0-1,0.2-1.4,0.3
			c-0.1,0-0.2,0.1-0.3,0.2c0-0.1,0-0.1-0.1-0.1c-0.1,0-0.1-0.1-0.2,0c-0.5,0.1-1,0.3-1.3,0.6l0,0c-0.1,0-0.2,0-0.3,0
			c-0.1,0-0.3,0-0.4,0C31.3,7.8,31.1,7.8,30.9,7.8z M31.4,8.4C31.4,8.4,31.4,8.4,31.4,8.4C31.4,8.4,31.4,8.4,31.4,8.4
			c0,0.3-0.1,0.7-0.4,1.2c0,0.1,0,0.1,0,0.2c0,0.1,0.1,0.1,0.2,0.1c0,0,0.4-0.1,0.8-0.1c0,0,0,0,0,0c0,0,0,0,0,0
			c-0.4,0.3-1,0.7-1.8,0.7c0,0-0.1,0-0.1,0c0,0,0,0,0,0C30.1,10.2,30.1,9.3,31.4,8.4z M28.8,11.1c0.1-0.3,0.2-0.6,0.4-0.8
			c0.2-0.3,0.4-0.5,0.7-0.8c0,0,0,0,0,0c0,0,0,0,0,0c0,0.3,0,0.7-0.3,1.2c0,0.1,0,0.1,0,0.2c0,0.1,0.1,0.1,0.2,0
			c0,0,0.4-0.1,0.8-0.1c0,0,0,0,0,0c0,0,0,0,0,0c-0.2,0.2-0.3,0.3-0.5,0.4c-0.3,0.2-0.8,0.5-1.3,0.5c0,0,0,0-0.1,0c0,0,0,0,0,0
			C28.7,11.7,28.7,11.5,28.8,11.1z M28.4,10.9C28.4,10.9,28.4,10.9,28.4,10.9C28.4,10.9,28.4,10.9,28.4,10.9
			c0.1,0.3,0.1,0.7-0.1,1.3c0,0.1,0,0.1,0.1,0.2c0.1,0,0.1,0,0.2,0c0,0,0.4-0.2,0.8-0.3c0,0,0,0,0,0c0,0,0,0,0,0
			c-0.3,0.4-0.9,1.1-1.7,1.2h0c0,0,0,0,0,0C27.6,13,27.4,12.1,28.4,10.9z M26.7,13.4c0.1-0.3,0.2-0.6,0.4-0.9c0,0,0,0,0,0
			c0,0,0,0,0,0c0.1,0.3,0.2,0.7,0.1,1.3c0,0.1,0,0.1,0.1,0.2c0.1,0,0.1,0,0.2,0c0,0,0.3-0.3,0.8-0.4c0,0,0,0,0,0c0,0,0,0,0,0
			c-0.1,0.1-0.2,0.3-0.3,0.5c-0.3,0.5-0.7,0.8-1.2,0.9h0c0,0,0,0,0,0c0-0.1-0.1-0.3-0.2-0.7C26.6,14,26.6,13.7,26.7,13.4z
			 M25.8,15.1c0-0.3,0.1-0.6,0.3-1c0,0,0,0,0,0l0,0c0,0,0,0,0,0c0.1,0.3,0.3,0.7,0.3,1.3c0,0.1,0,0.1,0.1,0.2c0.1,0,0.1,0,0.2,0
			c0,0,0.4-0.3,0.7-0.5c0,0,0,0,0,0c0,0,0,0,0,0c0,0.2-0.1,0.3-0.2,0.5c-0.2,0.5-0.6,0.9-1.1,1.1c0,0,0,0,0,0c0,0,0,0,0,0
			c-0.1-0.1-0.2-0.3-0.3-0.6C25.8,15.7,25.8,15.4,25.8,15.1z M25.3,15.9C25.3,15.9,25.3,15.9,25.3,15.9
			C25.3,15.9,25.3,15.9,25.3,15.9c0.2,0.2,0.4,0.6,0.4,1.2c0,0.1,0,0.1,0.1,0.1c0.1,0,0.1,0,0.2,0c0,0,0.3-0.3,0.7-0.6c0,0,0,0,0,0
			c0,0,0,0,0,0c0,0.2-0.1,0.3-0.1,0.5c-0.2,0.5-0.5,1-1,1.3c0,0,0,0,0,0c0,0,0,0,0,0c-0.1-0.1-0.2-0.3-0.3-0.6
			c-0.1-0.3-0.1-0.6-0.1-0.9C25.2,16.6,25.2,16.3,25.3,15.9z M24.8,17.8C24.8,17.8,24.8,17.8,24.8,17.8
			C24.8,17.8,24.8,17.8,24.8,17.8c0.2,0.2,0.5,0.6,0.6,1.2c0,0.1,0.1,0.1,0.1,0.1c0.1,0,0.1,0,0.2-0.1c0,0,0.3-0.4,0.6-0.6
			c0,0,0,0,0,0c0,0,0,0,0,0c0,0.2,0,0.3-0.1,0.5c-0.1,0.5-0.4,1-0.8,1.4c0,0,0,0,0,0c0,0,0,0,0,0c-0.1-0.1-0.3-0.3-0.4-0.5
			c-0.1-0.3-0.2-0.6-0.2-0.9C24.7,18.5,24.7,18.1,24.8,17.8z M24.5,19.6C24.5,19.6,24.5,19.6,24.5,19.6
			C24.5,19.6,24.5,19.6,24.5,19.6c0.2,0.2,0.5,0.6,0.6,1.1c0,0.1,0.1,0.1,0.1,0.1c0.1,0,0.1,0,0.2-0.1c0,0,0.2-0.4,0.5-0.7
			c0,0,0,0,0,0c0,0,0,0,0,0c0,0.2,0,0.4,0,0.6c-0.1,0.6-0.3,1-0.7,1.3c0,0,0,0,0,0c0,0,0,0,0,0c-0.1-0.1-0.3-0.2-0.4-0.5
			c-0.1-0.3-0.2-0.5-0.3-0.9C24.4,20.4,24.4,20,24.5,19.6z M24.3,21.6C24.3,21.6,24.3,21.6,24.3,21.6C24.3,21.6,24.4,21.6,24.3,21.6
			c0.1,0,0.1,0.1,0.1,0.1c0.2,0.2,0.4,0.5,0.6,1c0,0.1,0.1,0.1,0.2,0.1c0.1,0,0.1-0.1,0.1-0.1l0,0c0,0,0.1-0.4,0.4-0.7c0,0,0,0,0,0
			c0,0,0,0,0,0c0,0.2,0.1,0.6,0,0.9c-0.1,0.4-0.3,0.8-0.5,1.1c0,0,0,0,0,0c0,0,0,0,0,0C24.9,23.8,24.2,23.1,24.3,21.6z M24.3,23.5
			C24.3,23.5,24.3,23.5,24.3,23.5c0.1,0,0.1,0.1,0.1,0.1c0.2,0.2,0.5,0.5,0.7,0.9c0,0.1,0.1,0.1,0.1,0.1c0,0,0,0,0,0l0,0
			c0.1,0,0.1,0,0.1-0.1c0,0,0.2-0.4,0.5-0.8c0,0,0,0,0,0c0,0,0,0,0,0c0.1,0.4,0.1,1.2-0.5,2c0,0,0,0,0,0h0
			C25.1,25.6,24.3,25,24.3,23.5C24.3,23.5,24.3,23.5,24.3,23.5z M24.4,25.5C24.4,25.5,24.4,25.5,24.4,25.5
			C24.4,25.5,24.4,25.5,24.4,25.5c0.3,0.1,0.7,0.4,1,0.8c0,0.1,0.1,0.1,0.2,0.1c0.1,0,0.1-0.1,0.1-0.1l0,0l0,0l0,0
			c0,0,0.1-0.5,0.3-0.8c0,0,0,0,0,0c0,0,0,0,0,0c0.1,0.2,0.1,0.3,0.2,0.5c0.1,0.5,0,1.1-0.3,1.6c0,0,0,0,0,0c0,0,0,0,0,0
			c-0.1,0-0.3-0.1-0.6-0.4c-0.2-0.2-0.4-0.4-0.6-0.7C24.6,26.2,24.4,25.9,24.4,25.5z M24.8,27.3C24.8,27.3,24.8,27.3,24.8,27.3
			C24.8,27.3,24.8,27.3,24.8,27.3c0.1,0,0.1,0,0.2,0.1c0.2,0.1,0.6,0.3,0.9,0.7c0,0,0.1,0.1,0.2,0.1c0.1,0,0.1-0.1,0.1-0.1
			c0,0,0.1-0.4,0.2-0.8c0,0,0,0,0,0l0,0c0,0,0,0,0,0c0.2,0.4,0.4,1.2,0.1,2c0,0,0,0,0,0h0C26.1,29.2,25.2,28.8,24.8,27.3z
			 M25.9,30.1c-0.2-0.2-0.4-0.5-0.5-0.9c0,0,0,0,0,0c0,0,0,0,0,0c0.1,0,0.1,0,0.2,0.1c0.2,0.1,0.6,0.3,0.9,0.6c0,0,0.1,0.1,0.2,0
			c0.1,0,0.1-0.1,0.1-0.1c0,0,0-0.4,0.1-0.8c0,0,0,0,0,0c0,0,0,0,0,0c0.1,0.2,0.2,0.3,0.2,0.5c0.2,0.5,0.2,1,0.1,1.5c0,0,0,0,0,0h0
			c-0.1,0-0.4-0.1-0.6-0.2C26.3,30.5,26.1,30.3,25.9,30.1z M26.2,30.9C26.2,30.9,26.2,30.9,26.2,30.9C26.2,30.9,26.2,30.9,26.2,30.9
			c0.3,0,0.7,0.2,1.2,0.5c0.1,0,0.1,0,0.2,0c0.1,0,0.1-0.1,0.1-0.2c0,0,0-0.4,0-0.8c0,0,0,0,0,0c0,0,0,0,0,0
			c0.1,0.2,0.2,0.3,0.3,0.5c0.2,0.4,0.4,0.9,0.3,1.5c0,0,0,0,0,0l0,0c-0.1,0-0.4,0-0.7-0.2c-0.3-0.1-0.5-0.3-0.7-0.5
			C26.6,31.5,26.4,31.3,26.2,30.9z M29.8,34.1c0,0-0.2-0.4-0.2-0.8c0,0,0,0,0,0c0,0,0,0,0,0c0.4,0.3,1,1,0.9,1.8c0,0,0,0,0,0
			c0,0-0.1,0-0.3,0c-0.1,0-0.2,0-0.4,0c-0.5-0.1-1.1-0.4-1.6-0.9c0,0,0,0,0,0c0,0,0,0,0,0c0.3,0,0.7,0,1.3,0.2c0.1,0,0.1,0,0.2,0
			C29.9,34.3,29.9,34.2,29.8,34.1z M28.4,33c0.1,0,0.1,0,0.2,0c0.1,0,0.1-0.1,0.1-0.2c0,0-0.1-0.4-0.1-0.8c0,0,0,0,0,0c0,0,0,0,0,0
			c0.3,0.4,0.8,1.1,0.8,1.9c0,0,0,0,0,0c0,0,0,0-0.1,0c-0.1,0-0.4,0-0.6-0.1c-0.3-0.1-0.5-0.2-0.8-0.4c-0.2-0.2-0.5-0.4-0.7-0.7
			c0,0,0,0,0,0c0,0,0,0,0,0C27.5,32.6,27.9,32.7,28.4,33z M34.6,28.8c-0.1,0-0.1,0.1-0.1,0.1c-0.3,0.2-0.6,0.5-0.6,0.8
			c0,0-0.1,0-0.1,0c-0.3-0.1-0.3-0.2-0.3-0.3c0-0.1,0.1-0.3,0.3-0.4c0.2-0.2,0.4-0.3,0.6-0.3c0.1,0,0.1,0,0.2,0
			C34.6,28.7,34.6,28.7,34.6,28.8C34.6,28.8,34.6,28.8,34.6,28.8z M35,30.1c-0.1,0-0.4,0-0.5,0c0,0-0.1-0.1-0.1-0.2
			c0-0.2,0.3-0.5,0.4-0.6c0.3-0.2,0.5-0.3,0.6-0.3c0.1,0,0.1,0,0.2,0.1c0.1,0,0.1,0.1,0.1,0.1c0,0.1-0.1,0.2-0.2,0.2
			C35.2,29.7,35.1,29.9,35,30.1z M36.3,30.2c-0.1,0.1-0.5,0.3-0.7,0.2c0,0-0.1,0-0.2-0.1c0.1-0.2,0.4-0.4,0.6-0.5
			c0.3-0.2,0.4-0.1,0.4-0.1c0.1,0.1,0.1,0.1,0.1,0.1C36.5,30,36.4,30.1,36.3,30.2C36.3,30.2,36.3,30.2,36.3,30.2z M33.5,28.4
			c0,0-0.1,0.1-0.1,0.1c-0.2,0.2-0.3,0.3-0.4,0.6c0,0-0.1,0-0.1,0c-0.2,0-0.3-0.1-0.3-0.1c0,0,0-0.1,0.1-0.2
			c0.1-0.2,0.5-0.3,0.7-0.3c0,0,0,0,0.1,0C33.4,28.4,33.4,28.4,33.5,28.4C33.4,28.4,33.4,28.4,33.5,28.4z M40.3,28.8
			c-0.1,0.1-0.2,0.1-0.4,0.1c-0.2-0.3-0.8-1-1.5-1.4c-0.1,0-0.1,0-0.2,0c-0.1,0-0.1,0.1-0.2,0.1c0,0.1,0,0.1,0,0.2
			c0,0.1,0.1,0.1,0.1,0.2c0.6,0.3,1.1,0.9,1.3,1.2c0,0,0,0.1-0.1,0.1c-0.1,0.1-0.2,0.2-0.4,0.2c-0.1-0.1-0.2-0.3-0.4-0.5
			c-0.2-0.3-0.7-0.6-0.7-0.6c-0.1,0-0.1-0.1-0.2,0c-0.1,0-0.1,0-0.2,0.1c0,0.1-0.1,0.1,0,0.2c0,0.1,0,0.1,0.1,0.2
			c0.1,0.1,0.5,0.3,0.6,0.5c0.2,0.2,0.2,0.3,0.3,0.4c0,0.1-0.1,0.1-0.1,0.2C38.3,30,38.2,30,38,30c-0.1-0.1-0.2-0.4-0.5-0.7
			c-0.1-0.1-0.3-0.1-0.4,0c-0.1,0-0.1,0.1-0.1,0.2c0,0.1,0,0.1,0.1,0.2c0.2,0.2,0.3,0.4,0.4,0.5c0,0-0.1,0.1-0.1,0.1
			c-0.1,0.1-0.3,0.1-0.4,0.1c0.1-0.1,0.1-0.2,0.1-0.3c0-0.1,0-0.4-0.2-0.6c-0.1-0.1-0.3-0.2-0.6-0.2c0-0.2-0.1-0.3-0.3-0.4
			c-0.2-0.2-0.5-0.3-0.8-0.2l0,0c-0.1-0.1-0.2-0.3-0.4-0.4C34.5,28,34.2,28,34,28.1c-0.2-0.2-0.5-0.2-0.6-0.2
			c-0.3,0-0.8,0.1-1.1,0.4c-1.5,0.8-3.5,1.7-4.3,2c-0.4-0.8-0.8-1.6-1.1-2.5c-0.1-0.2-0.1-0.5-0.2-0.7c2.2-0.3,4-0.5,5.3-0.8
			c1.4-0.3,2.3-0.6,2.7-0.9c0.5-0.4,0.9-0.5,1.4-0.5c0.1,0,0.2,0,0.3,0c-0.1,0-0.2,0.1-0.3,0.2c-0.2,0.1-0.3,0.2-0.5,0.3
			c-0.1,0.1-0.2,0.2-0.3,0.3c-0.1,0.1-0.2,0.1-0.4,0.2c-0.3,0.2-0.6,0.3-0.6,0.5c-0.1,0.2-0.1,0.4,0.1,0.6c0.2,0.3,0.6,0.3,0.9,0.3
			c0.3,0,0.8-0.1,1.1-0.3c0.1-0.1,0.2-0.1,0.3-0.2c0.1-0.1,0.2-0.2,0.3-0.2c0,0,0,0,0,0c0.3-0.1,0.6,0,0.9,0.1
			c0.3,0.1,0.6,0.3,0.9,0.5c0.7,0.5,1.2,1.1,1.4,1.3C40.4,28.6,40.4,28.7,40.3,28.8z M41.3,28.6c-0.2-0.2-0.4-0.3-0.5-0.4
			c0,0,0,0,0,0l0,0c0,0,0,0,0-0.1c-0.2-0.3-0.7-0.8-1.4-1.3c-0.5-0.3-1.4-0.9-2.3-0.7c-0.2,0-0.3,0.1-0.5,0.3
			c-0.1,0.1-0.2,0.1-0.3,0.2c-0.3,0.2-0.6,0.2-0.8,0.3c-0.3,0-0.4,0-0.5-0.1c-0.1-0.1-0.1-0.1,0-0.1c0.1-0.1,0.3-0.2,0.4-0.2
			c0.1-0.1,0.3-0.1,0.4-0.2c0.2-0.1,0.3-0.2,0.4-0.3c0.1-0.1,0.2-0.2,0.4-0.3c0.3-0.2,0.6-0.2,1-0.2h0c0.1,0,0.1,0,0.2,0
			c0.1,0,0.1,0,0.2,0c0.5,0,0.9,0.1,1.5,0.4c0.2,0.1,0.4,0.1,0.6,0.2c0,0,0.9,0.3,2.1,0.6c1,0.2,2.5,0.5,3.9,0.6
			c-0.1,0.2-0.1,0.5-0.2,0.7c-0.3,0.9-0.7,1.8-1.1,2.6C44.1,30.1,42.4,29.4,41.3,28.6z M44.5,34.2c-0.7,0.6-1.3,0.9-1.6,0.9
			c-0.1,0-0.3,0-0.4,0c-0.1,0-0.2,0-0.2,0c0,0,0,0,0,0c0-0.5,0.2-1,0.5-1.4c0.1-0.1,0.3-0.3,0.4-0.4c0,0,0,0,0,0c0,0,0,0,0,0
			c0,0.4-0.2,0.8-0.2,0.8c0,0.1,0,0.1,0,0.2c0,0,0.1,0.1,0.2,0C43.8,34.1,44.2,34.1,44.5,34.2C44.5,34.2,44.5,34.2,44.5,34.2
			C44.5,34.2,44.5,34.2,44.5,34.2z M45.7,32.6c-0.2,0.3-0.5,0.5-0.7,0.7c-0.3,0.2-0.5,0.3-0.8,0.4c-0.3,0.1-0.5,0.1-0.6,0.1
			c0,0-0.1,0-0.1,0c0,0,0,0,0,0c0-0.5,0.1-1,0.4-1.4c0.1-0.1,0.2-0.3,0.3-0.4c0,0,0,0,0,0c0,0,0,0,0,0c0,0.4,0,0.8,0,0.8
			c0,0.1,0,0.1,0.1,0.2c0.1,0,0.1,0,0.2,0C45,32.7,45.4,32.6,45.7,32.6C45.7,32.6,45.7,32.6,45.7,32.6
			C45.7,32.6,45.7,32.6,45.7,32.6z M46.1,31.8c-0.2,0.2-0.5,0.4-0.7,0.5c-0.3,0.1-0.6,0.2-0.7,0.2l0,0c0,0,0,0,0,0
			c-0.1-0.5,0-1,0.3-1.5c0.1-0.2,0.2-0.3,0.3-0.5c0,0,0,0,0,0c0,0,0,0,0,0c0.1,0.4,0,0.8,0,0.8c0,0.1,0,0.1,0.1,0.2
			c0.1,0,0.1,0,0.2,0c0.4-0.4,0.9-0.5,1.2-0.5c0,0,0,0,0,0c0,0,0,0,0,0C46.5,31.3,46.3,31.5,46.1,31.8z M47,30
			c-0.2,0.2-0.4,0.4-0.7,0.6c-0.3,0.2-0.5,0.2-0.6,0.2c0,0,0,0,0,0c0,0,0,0,0,0c-0.1-0.5-0.1-1,0.1-1.5c0.1-0.2,0.1-0.3,0.2-0.5
			c0,0,0,0,0,0c0,0,0,0,0,0c0.1,0.4,0.1,0.8,0.1,0.8c0,0.1,0,0.1,0.1,0.1c0.1,0,0.1,0,0.2,0l0,0c0.4-0.4,0.7-0.6,0.9-0.6
			c0.1,0,0.1,0,0.2,0c0,0,0,0,0,0c0,0,0,0,0,0C47.4,29.5,47.2,29.8,47,30z M47.7,28.3c-0.2,0.3-0.4,0.5-0.6,0.7
			c-0.3,0.2-0.5,0.3-0.6,0.3l0,0c0,0,0,0,0,0c-0.2-0.5-0.2-1.1-0.1-1.5c0-0.2,0.1-0.4,0.2-0.5c0,0,0,0,0,0l0,0c0,0,0,0,0,0
			c0.2,0.4,0.2,0.8,0.2,0.8c0,0.1,0.1,0.1,0.1,0.1c0.1,0,0.1,0,0.2-0.1c0.4-0.4,0.8-0.7,1-0.8c0,0,0,0,0,0c0,0,0,0,0,0
			C48,27.7,47.8,28,47.7,28.3z M48.2,26.4c-0.1,0.3-0.3,0.5-0.5,0.7c-0.2,0.2-0.5,0.3-0.6,0.4h0c0,0,0,0,0,0
			c-0.2-0.4-0.3-0.9-0.3-1.5c0-0.2,0.1-0.4,0.1-0.5c0,0,0,0,0,0c0,0,0,0,0,0c0.2,0.4,0.3,0.8,0.3,0.8c0,0.1,0.1,0.1,0.1,0.1
			c0.1,0,0.1,0,0.2-0.1c0.3-0.5,0.7-0.8,0.9-0.9c0,0,0,0,0,0c0,0,0,0,0,0C48.4,25.8,48.3,26.1,48.2,26.4z"/>
		<path class="st483" d="M39.9,7.6c0.3,0,0.7,0.1,1,0.2l0.1,0c0.2,0,0.6,0.1,1,0.1c0,0,0.1,0,0.1,0c-0.2-0.1-0.4-0.2-0.5-0.2
			c-0.1-0.1-0.2-0.1-0.3-0.2c-0.4-0.2-0.8-0.2-0.8-0.3c-0.1,0-0.1-0.1-0.1-0.1c0-0.1,0-0.1,0.1-0.1l1.9-0.3l-1.9-0.3
			c0,0-0.1,0-0.1-0.1c0,0,0-0.1,0-0.1c0,0,0.3-0.2,0.7-0.3c0.2,0,0.5-0.1,0.9-0.3c0,0,0.1,0,0.1,0c-0.2,0-0.4,0-0.6,0
			c-0.1,0-0.2,0-0.4,0c-0.4,0-0.8,0.1-0.9,0.1c-0.1,0-0.1,0-0.1-0.1c0,0,0-0.1,0-0.1l1.6-1L39.9,5c0,0-0.1,0-0.1,0c0,0,0-0.1,0-0.1
			c0,0,0.2-0.3,0.6-0.5c0.2-0.1,0.5-0.3,0.8-0.6c0,0,0.1,0,0.1-0.1c-0.2,0.1-0.4,0.2-0.6,0.2c-0.1,0-0.2,0.1-0.4,0.1
			c-0.4,0.2-0.8,0.4-0.8,0.4c0,0-0.1,0-0.1,0c0,0,0-0.1,0-0.1l1.1-1.5L39,3.8c0,0-0.1,0-0.1,0c0,0-0.1-0.1,0-0.1
			c0,0,0.1-0.4,0.3-0.7c0.1-0.2,0.3-0.5,0.5-0.8c0,0,0-0.1,0-0.1c-0.1,0.2-0.3,0.3-0.4,0.4c-0.1,0.1-0.2,0.2-0.3,0.2
			c-0.3,0.3-0.5,0.6-0.6,0.7c0,0-0.1,0.1-0.1,0c0,0-0.1-0.1-0.1-0.1l0.5-1.8l-1,1.6c0,0-0.1,0.1-0.1,0.1c0,0-0.1,0-0.1-0.1
			c0,0-0.1-0.4,0-0.8c0-0.2,0.1-0.6,0.1-1c0,0,0-0.1,0-0.1c-0.1,0.2-0.2,0.4-0.2,0.5c-0.1,0.1-0.1,0.2-0.2,0.3
			c-0.2,0.4-0.2,0.8-0.3,0.8C36.9,3,36.9,3,36.8,3c-0.1,0-0.1,0-0.1-0.1L36.4,1l-0.3,1.9c0,0,0,0.1-0.1,0.1c0,0-0.1,0-0.1,0
			c0,0-0.2-0.3-0.3-0.7c0-0.2-0.1-0.6-0.3-0.9c0,0,0-0.1,0-0.1c0,0.2,0,0.4,0,0.6c0,0.1,0,0.2,0,0.4c0,0.5,0.1,0.8,0.1,0.9
			c0,0.1,0,0.1-0.1,0.1c-0.1,0-0.1,0-0.1,0l-1-1.6l0.5,1.8c0,0,0,0.1,0,0.1c0,0-0.1,0-0.1,0c0,0-0.3-0.2-0.6-0.6
			c-0.1-0.2-0.3-0.5-0.6-0.8c0,0,0-0.1-0.1-0.1c0.1,0.2,0.2,0.4,0.2,0.6c0,0.1,0.1,0.2,0.1,0.4c0.2,0.4,0.4,0.7,0.4,0.8
			c0,0,0,0.1,0,0.1c0,0-0.1,0-0.1,0l-1.5-1.1l1.1,1.5c0,0,0,0.1,0,0.1c0,0-0.1,0.1-0.1,0c0,0-0.4-0.1-0.7-0.3
			c-0.2-0.1-0.5-0.3-0.8-0.5c0,0-0.1,0-0.1,0C31.9,3.7,32,3.8,32.2,4c0.1,0.1,0.1,0.2,0.2,0.3c0.3,0.3,0.7,0.6,0.7,0.6
			c0,0,0.1,0.1,0,0.1C33.1,5,33,5,33,5l-1.8-0.5l1.6,1c0,0,0.1,0.1,0.1,0.1c0,0,0,0.1-0.1,0.1c0,0-0.4,0.1-0.8,0
			c-0.2,0-0.6-0.1-1-0.1c0,0-0.1,0-0.1,0c0.2,0.1,0.4,0.2,0.5,0.2C31.5,5.9,31.6,6,31.8,6c0.4,0.2,0.8,0.3,0.8,0.3
			c0.1,0,0.1,0.1,0.1,0.1c0,0.1,0,0.1-0.1,0.1l-1.9,0.3L32.6,7c0,0,0.1,0,0.1,0.1c0,0,0,0.1,0,0.1c0,0-0.3,0.2-0.7,0.3
			c-0.2,0-0.5,0.1-0.9,0.3c0,0-0.1,0-0.1,0c0.2,0,0.4,0,0.6,0c0,0,0.3,0,0.4,0c0.1,0,0.2,0,0.3,0l0,0c0.4-0.3,0.8-0.5,1.3-0.6
			c0.1,0,0.1,0,0.2,0c0,0,0.1,0.1,0.1,0.1c0.1-0.1,0.2-0.1,0.3-0.2C34.5,7.1,34.9,7,35.5,7c0.1,0,0.1,0,0.2,0.1c0,0,0.1,0.1,0.1,0.1
			C35.9,7.1,36,7,36.2,7c0.4-0.1,0.9-0.1,1.5,0c0.1,0,0.1,0.1,0.2,0.1c0,0,0,0,0,0.1c0.1,0,0.3,0,0.5,0c0.4,0,0.9,0.1,1.4,0.3
			C39.8,7.4,39.8,7.5,39.9,7.6C39.9,7.6,39.9,7.6,39.9,7.6z"/>
		<g>
			<path class="st482" d="M37.1,5.2c1.8-0.3,2,0.2,2,0.2s0,0.1,0.2,0.1c0,0,0.1,0,0.1-0.2c0,0-0.2-0.6-1.2-0.7c0,0-0.5-0.1-1.1,0
				C37,4.7,37,5.1,37,5.1C36.9,5.2,37.1,5.2,37.1,5.2z"/>
			<path class="st482" d="M35.6,5.5c-0.2-0.1-0.7-0.1-0.7-0.1c-0.8,0-1,0.5-1,0.5c-0.1,0.2,0.1,0.2,0.1,0.2c0.2,0,0.2-0.1,0.2-0.1
				s0-0.1,0.4-0.2c0,0,0,0.1,0,0.2c0,0.2,0.2,0.4,0.4,0.4c0.2,0,0.4-0.2,0.4-0.4c0-0.1,0-0.1,0-0.2c0.1,0,0.2,0.1,0.3,0.3
				c0,0.1,0.1,0.1,0.2,0.1c0.2,0,0.1-0.1,0.1-0.1C35.8,5.7,35.6,5.5,35.6,5.5z"/>
			<path class="st482" d="M37.1,6.2c0.2,0,0.2,0,0.3-0.1c0.1-0.1,0.2-0.2,0.3-0.3c0,0,0,0.1,0,0.2c0,0.2,0.2,0.4,0.4,0.4
				c0.2,0,0.4-0.2,0.4-0.4c0-0.1,0-0.1,0-0.2c0.3,0.1,0.4,0.2,0.4,0.2s0.1,0.1,0.2,0.1c0,0,0.1,0,0.1-0.2c0,0-0.2-0.5-1-0.5
				c0,0-0.5,0-0.7,0.1c0,0-0.3,0.1-0.4,0.6C36.9,6.1,36.9,6.2,37.1,6.2z"/>
			<path class="st482" d="M33.5,5.5c0.1,0,0.2-0.1,0.2-0.1s0.2-0.5,2-0.2c0,0,0.2,0,0.1-0.1c0,0,0-0.4-0.2-0.4c-0.6-0.1-1.1,0-1.1,0
				c-1,0.1-1.2,0.7-1.2,0.7C33.4,5.5,33.5,5.5,33.5,5.5z"/>
		</g>
		<g>
			<path class="st484" d="M44.5,34.2c-0.3,0-0.8,0-1.3,0.2c-0.1,0-0.1,0-0.2,0c0,0-0.1-0.1,0-0.2c0,0,0.2-0.4,0.2-0.8c0,0,0,0,0,0
				c0,0,0,0,0,0c-0.1,0.1-0.3,0.3-0.4,0.4c-0.4,0.5-0.6,0.9-0.5,1.4c0,0,0,0,0,0c0.1,0,0.1,0,0.2,0c0.1,0,0.2,0,0.4,0
				C43.3,35,43.9,34.8,44.5,34.2C44.5,34.2,44.5,34.2,44.5,34.2C44.5,34.2,44.5,34.2,44.5,34.2z"/>
			<path class="st484" d="M29.7,33.3C29.7,33.3,29.7,33.3,29.7,33.3C29.7,33.3,29.7,33.3,29.7,33.3c0,0.4,0.2,0.8,0.2,0.8
				c0,0.1,0,0.1,0,0.2c0,0-0.1,0.1-0.2,0c-0.5-0.2-1-0.2-1.3-0.2c0,0,0,0,0,0c0,0,0,0,0,0c0.5,0.5,1.1,0.8,1.6,0.9
				c0.1,0,0.3,0,0.4,0c0.1,0,0.2,0,0.3,0c0,0,0,0,0,0C30.7,34.3,30,33.6,29.7,33.3z"/>
			<path class="st484" d="M45.7,32.6c-0.3,0-0.7,0.1-1.2,0.4c-0.1,0-0.1,0-0.2,0c0,0-0.1-0.1-0.1-0.2c0,0,0.1-0.4,0-0.8c0,0,0,0,0,0
				c0,0,0,0,0,0c-0.1,0.1-0.2,0.3-0.3,0.4c-0.3,0.5-0.5,1-0.4,1.4c0,0,0,0,0,0c0,0,0,0,0.1,0c0.1,0,0.4,0,0.6-0.1
				c0.3-0.1,0.5-0.2,0.8-0.4C45.3,33.1,45.5,32.9,45.7,32.6C45.7,32.6,45.7,32.6,45.7,32.6C45.7,32.6,45.7,32.6,45.7,32.6z"/>
			<path class="st484" d="M46.7,30.9c-0.3,0-0.7,0.2-1.2,0.5c0,0-0.1,0-0.2,0c-0.1,0-0.1-0.1-0.1-0.2c0,0,0-0.4,0-0.8c0,0,0,0,0,0
				c0,0,0,0,0,0c-0.1,0.2-0.2,0.3-0.3,0.5c-0.3,0.5-0.3,1-0.3,1.5c0,0,0,0,0,0l0,0c0.1,0,0.4,0,0.7-0.2c0.3-0.1,0.5-0.3,0.7-0.5
				C46.3,31.5,46.5,31.3,46.7,30.9C46.7,30.9,46.7,30.9,46.7,30.9C46.7,30.9,46.7,30.9,46.7,30.9z"/>
			<path class="st484" d="M47.5,29.1c-0.1,0-0.1,0-0.2,0c-0.2,0.1-0.6,0.3-0.9,0.6l0,0c0,0-0.1,0.1-0.2,0c-0.1,0-0.1-0.1-0.1-0.1
				c0,0,0-0.4-0.1-0.8c0,0,0,0,0,0c0,0,0,0,0,0c-0.1,0.2-0.2,0.3-0.2,0.5c-0.2,0.5-0.2,1-0.1,1.5c0,0,0,0,0,0c0,0,0,0,0,0
				c0.1,0,0.4-0.1,0.6-0.2c0.2-0.1,0.5-0.3,0.7-0.6C47.2,29.8,47.4,29.5,47.5,29.1C47.5,29.1,47.5,29.1,47.5,29.1
				C47.5,29.1,47.5,29.1,47.5,29.1z"/>
			<path class="st484" d="M48.1,27.3c-0.3,0.1-0.7,0.3-1,0.8c0,0-0.1,0.1-0.2,0.1c-0.1,0-0.1-0.1-0.1-0.1c0,0-0.1-0.5-0.2-0.8
				c0,0,0,0,0,0l0,0c0,0,0,0,0,0c-0.1,0.2-0.1,0.4-0.2,0.5c-0.1,0.4-0.2,1,0.1,1.5c0,0,0,0,0,0l0,0c0.1,0,0.3-0.1,0.6-0.3
				c0.2-0.2,0.4-0.4,0.6-0.7C47.8,28,48,27.7,48.1,27.3C48.1,27.3,48.1,27.3,48.1,27.3C48.1,27.3,48.1,27.3,48.1,27.3z"/>
			<path class="st484" d="M48.5,25.4c-0.3,0.1-0.6,0.4-0.9,0.9c0,0.1-0.1,0.1-0.2,0.1c-0.1,0-0.1-0.1-0.1-0.1c0,0-0.1-0.5-0.3-0.8
				c0,0,0,0,0,0c0,0,0,0,0,0c-0.1,0.2-0.1,0.4-0.1,0.5c-0.1,0.6,0,1.1,0.3,1.5c0,0,0,0,0,0h0c0.1,0,0.3-0.2,0.6-0.4
				c0.2-0.2,0.4-0.4,0.5-0.7C48.3,26.1,48.4,25.8,48.5,25.4C48.5,25.4,48.5,25.4,48.5,25.4C48.5,25.4,48.5,25.4,48.5,25.4z"/>
			<path class="st484" d="M47.8,24.5c0,0.1-0.1,0.1-0.2,0.1c-0.1,0-0.1,0-0.1-0.1c0,0-0.1-0.4-0.4-0.8c0,0,0,0,0,0c0,0,0,0,0,0
				c0,0.2-0.1,0.4-0.1,0.5c0,0.6,0.1,1.1,0.4,1.5c0,0,0,0,0,0h0c0.1,0,0.3-0.2,0.5-0.4c0.2-0.2,0.3-0.5,0.4-0.8
				c0.1-0.3,0.2-0.6,0.2-1c0,0,0,0,0,0c0,0,0,0,0,0C48.4,23.7,48,24,47.8,24.5z"/>
			<path class="st484" d="M47.7,22.7c-0.1,0-0.1,0-0.1-0.1c0,0-0.2-0.4-0.5-0.7c0,0,0,0,0,0c0,0,0,0,0,0c0,0.5,0,1.3,0.6,1.9
				c0,0,0,0,0,0c0,0,0,0,0,0c0.1-0.1,0.3-0.2,0.5-0.5c0.2-0.2,0.3-0.5,0.4-0.8c0.1-0.3,0.1-0.6,0.1-1c0,0,0,0,0,0c0,0,0,0,0,0
				c-0.2,0.2-0.5,0.5-0.7,1.1C47.8,22.7,47.8,22.7,47.7,22.7z"/>
			<path class="st484" d="M47.6,20.9c-0.1,0-0.1,0-0.2-0.1c0,0-0.2-0.3-0.5-0.6c0,0,0,0,0,0c0,0,0,0,0,0c0,0.5,0.2,1.4,0.7,1.9
				c0,0,0,0,0,0c0,0,0,0,0,0c0.1-0.1,0.3-0.2,0.4-0.5c0.1-0.3,0.2-0.5,0.3-0.9c0-0.3,0-0.7,0-1c0,0,0,0,0,0c0,0,0,0,0,0
				c-0.2,0.2-0.5,0.6-0.6,1.1C47.8,20.8,47.7,20.9,47.6,20.9z"/>
			<path class="st484" d="M47.4,19.1c-0.1,0-0.1,0-0.2-0.1c0,0-0.2-0.3-0.6-0.6c0,0,0,0,0,0c0,0,0,0,0,0c0,0.2,0.1,0.4,0.1,0.5
				c0.1,0.4,0.3,0.9,0.7,1.3c0,0,0,0,0,0c0,0,0,0,0,0c0.1-0.1,0.3-0.3,0.4-0.6c0.1-0.3,0.2-0.5,0.2-0.9c0-0.3,0-0.7,0-1c0,0,0,0,0,0
				c0,0,0,0,0,0c-0.2,0.2-0.4,0.6-0.6,1.2C47.5,19,47.5,19.1,47.4,19.1z"/>
			<path class="st484" d="M47,17.3c-0.1,0-0.1,0-0.2,0c0,0-0.3-0.3-0.7-0.5c0,0,0,0,0,0c0,0,0,0,0,0c0,0.2,0.1,0.4,0.2,0.5
				c0.2,0.5,0.5,0.9,0.9,1.2c0,0,0,0,0,0c0,0,0,0,0,0c0.1-0.1,0.2-0.3,0.3-0.6c0.1-0.3,0.1-0.6,0.1-0.9c0-0.3-0.1-0.7-0.2-1
				c0,0,0,0,0,0c0,0,0,0,0,0c-0.2,0.2-0.4,0.7-0.4,1.2C47.1,17.2,47.1,17.3,47,17.3z"/>
			<path class="st484" d="M46.2,15.5c0,0-0.3-0.3-0.7-0.5c0,0,0,0,0,0c0,0,0,0,0,0c0.1,0.2,0.1,0.3,0.2,0.5c0.3,0.5,0.6,0.9,1,1.1h0
				c0,0,0,0,0,0c0.1-0.1,0.2-0.3,0.3-0.6c0.1-0.3,0.1-0.6,0-0.9c0-0.3-0.1-0.6-0.3-1c0,0,0,0,0,0c0,0,0,0,0,0
				c-0.1,0.3-0.3,0.7-0.3,1.3c0,0.1,0,0.1-0.1,0.2l0,0C46.3,15.6,46.2,15.5,46.2,15.5z"/>
			<path class="st484" d="M44.6,13.5C44.6,13.5,44.6,13.5,44.6,13.5c0.1,0.2,0.2,0.3,0.3,0.5c0.3,0.5,0.7,0.8,1.2,1h0c0,0,0,0,0,0
				c0-0.1,0.2-0.3,0.2-0.7c0-0.3,0-0.6-0.1-0.9c-0.1-0.3-0.2-0.6-0.4-0.9c0,0,0,0,0,0c0,0,0,0,0,0c-0.1,0.3-0.2,0.7-0.1,1.3
				c0,0.1,0,0.1-0.1,0.2l0,0c-0.1,0-0.1,0-0.2,0C45.4,13.9,45,13.6,44.6,13.5C44.6,13.5,44.6,13.5,44.6,13.5z"/>
			<path class="st484" d="M43.6,12.1C43.6,12.1,43.6,12.1,43.6,12.1c0.1,0.2,0.2,0.3,0.4,0.5c0.4,0.4,0.8,0.7,1.3,0.8c0,0,0,0,0,0
				c0,0,0,0,0,0c0-0.1,0.1-0.4,0.1-0.7c0-0.3-0.1-0.6-0.2-0.9c-0.1-0.3-0.3-0.6-0.5-0.9c0,0,0,0,0,0c0,0,0,0,0,0
				c-0.1,0.3-0.1,0.8,0.1,1.3c0,0.1,0,0.1-0.1,0.2c-0.1,0-0.1,0-0.2,0C44.4,12.4,44,12.1,43.6,12.1C43.6,12.1,43.6,12.1,43.6,12.1z"
				/>
			<path class="st484" d="M43.4,11c0,0.1-0.1,0.1-0.2,0c0,0-0.4-0.1-0.8-0.1c0,0,0,0-0.1,0c0,0,0,0,0,0c0,0,0,0,0,0
				c0.1,0.1,0.3,0.3,0.5,0.4c0.3,0.2,0.8,0.5,1.3,0.5c0,0,0,0,0,0c0,0,0,0,0,0c0-0.1,0-0.4,0-0.7c-0.1-0.3-0.2-0.6-0.4-0.8
				c-0.2-0.3-0.4-0.5-0.7-0.8c0,0,0,0,0,0c0,0,0,0,0,0c0,0.3,0,0.7,0.3,1.2C43.4,10.8,43.4,10.9,43.4,11z"/>
			<path class="st484" d="M29.3,33.9C29.3,33.9,29.3,33.9,29.3,33.9C29.4,33.9,29.4,33.9,29.3,33.9c0.1-0.8-0.4-1.5-0.7-1.9
				c0,0,0,0,0,0c0,0,0,0,0,0c0,0.4,0.1,0.8,0.1,0.8c0,0.1,0,0.1-0.1,0.2c0,0-0.1,0-0.2,0c-0.5-0.3-0.9-0.4-1.2-0.4c0,0,0,0,0,0
				c0,0,0,0,0,0c0.2,0.3,0.5,0.5,0.7,0.7c0.3,0.2,0.5,0.3,0.8,0.4C28.9,33.9,29.2,33.9,29.3,33.9z"/>
			<path class="st484" d="M28.2,32.4L28.2,32.4C28.2,32.4,28.2,32.4,28.2,32.4c0.1-0.6-0.1-1.1-0.3-1.5c-0.1-0.2-0.2-0.3-0.3-0.5
				c0,0,0,0,0,0c0,0,0,0,0,0c-0.1,0.4,0,0.8,0,0.8c0,0.1,0,0.1-0.1,0.2c-0.1,0-0.1,0-0.2,0c-0.4-0.4-0.9-0.5-1.2-0.5c0,0,0,0,0,0
				c0,0,0,0,0,0c0.2,0.3,0.4,0.6,0.6,0.8c0.2,0.2,0.5,0.4,0.7,0.5C27.9,32.4,28.1,32.4,28.2,32.4z"/>
			<path class="st484" d="M27.2,30.9L27.2,30.9C27.3,30.9,27.3,30.9,27.2,30.9c0.2-0.5,0.1-1-0.1-1.5c-0.1-0.2-0.1-0.3-0.2-0.5
				c0,0,0,0,0,0c0,0,0,0,0,0c-0.1,0.4-0.1,0.8-0.1,0.8c0,0.1,0,0.1-0.1,0.1c-0.1,0-0.1,0-0.2,0c-0.3-0.3-0.7-0.5-0.9-0.6
				c-0.1,0-0.1,0-0.2-0.1c0,0,0,0,0,0c0,0,0,0,0,0c0.1,0.3,0.3,0.6,0.5,0.9c0.2,0.2,0.4,0.4,0.7,0.6C26.9,30.8,27.1,30.9,27.2,30.9z
				"/>
			<path class="st484" d="M26.5,29.3L26.5,29.3C26.5,29.3,26.5,29.3,26.5,29.3c0.4-0.8,0.1-1.6-0.1-2c0,0,0,0,0,0l0,0c0,0,0,0,0,0
				c-0.2,0.4-0.2,0.8-0.2,0.8c0,0.1-0.1,0.1-0.1,0.1c-0.1,0-0.1,0-0.2-0.1c-0.3-0.4-0.6-0.6-0.9-0.7c0,0-0.1-0.1-0.2-0.1
				c0,0,0,0,0,0c0,0,0,0,0,0C25.2,28.8,26.1,29.2,26.5,29.3z"/>
			<path class="st484" d="M25.3,27.2c0.3,0.2,0.5,0.3,0.6,0.4c0,0,0,0,0,0c0,0,0,0,0,0c0.3-0.5,0.4-1,0.3-1.6c0-0.2-0.1-0.3-0.2-0.5
				c0,0,0,0,0,0c0,0,0,0,0,0c-0.2,0.4-0.3,0.8-0.3,0.8l0,0l0,0l0,0l0,0l0,0l0,0c0,0.1-0.1,0.1-0.1,0.1c-0.1,0-0.1,0-0.2-0.1
				c-0.3-0.5-0.7-0.7-1-0.9c0,0,0,0,0,0c0,0,0,0,0,0c0.1,0.4,0.2,0.7,0.3,1C24.9,26.7,25,27,25.3,27.2z"/>
			<path class="st484" d="M25.4,25.8L25.4,25.8C25.4,25.8,25.4,25.8,25.4,25.8c0.6-0.8,0.6-1.6,0.5-2c0,0,0,0,0,0c0,0,0,0,0,0
				c-0.3,0.3-0.5,0.7-0.5,0.8c0,0.1-0.1,0.1-0.1,0.1l0,0c0,0,0,0,0,0c-0.1,0-0.1,0-0.1-0.1c-0.2-0.4-0.5-0.7-0.7-0.9
				c0,0-0.1-0.1-0.1-0.1c0,0,0,0,0,0c0,0,0,0,0,0C24.3,25,25.1,25.6,25.4,25.8z"/>
			<path class="st484" d="M25.2,24C25.2,24,25.2,24,25.2,24C25.2,24,25.2,24,25.2,24c0.3-0.3,0.5-0.6,0.6-1.1c0.1-0.4,0-0.7,0-0.9
				c0,0,0,0,0,0c0,0,0,0,0,0c-0.3,0.3-0.4,0.7-0.4,0.7l0,0c0,0.1-0.1,0.1-0.1,0.1c-0.1,0-0.1,0-0.2-0.1c-0.1-0.5-0.4-0.8-0.6-1
				c0,0-0.1-0.1-0.1-0.1c0,0,0,0,0,0c0,0,0,0,0,0C24.2,23.1,24.9,23.8,25.2,24z"/>
			<path class="st484" d="M24.8,21.5c0.2,0.3,0.4,0.5,0.4,0.5c0,0,0,0,0,0c0,0,0,0,0,0c0.3-0.3,0.6-0.8,0.7-1.3c0-0.2,0-0.4,0-0.6
				c0,0,0,0,0,0c0,0,0,0,0,0c-0.3,0.3-0.5,0.6-0.5,0.7c0,0.1-0.1,0.1-0.2,0.1c-0.1,0-0.1-0.1-0.1-0.1c-0.1-0.5-0.4-0.9-0.6-1.1
				c0,0,0,0,0,0c0,0,0,0,0,0c0,0.4,0,0.7,0,1C24.5,21,24.6,21.3,24.8,21.5z"/>
			<path class="st484" d="M25,19.7c0.1,0.3,0.3,0.5,0.4,0.5c0,0,0,0,0,0c0,0,0,0,0,0c0.4-0.4,0.7-0.8,0.8-1.4c0-0.2,0.1-0.3,0.1-0.5
				c0,0,0,0,0,0c0,0,0,0,0,0c-0.3,0.3-0.6,0.6-0.6,0.6c0,0-0.1,0.1-0.2,0.1c-0.1,0-0.1-0.1-0.1-0.1c-0.1-0.6-0.4-0.9-0.6-1.2
				c0,0,0,0,0,0c0,0,0,0,0,0c-0.1,0.4-0.1,0.7,0,1C24.8,19.1,24.8,19.4,25,19.7z"/>
			<path class="st484" d="M25.6,18.4C25.6,18.4,25.6,18.4,25.6,18.4C25.6,18.4,25.6,18.4,25.6,18.4c0.5-0.3,0.8-0.7,1-1.3
				c0.1-0.2,0.1-0.3,0.1-0.5c0,0,0,0,0,0c0,0,0,0,0,0c-0.4,0.2-0.7,0.6-0.7,0.6c0,0-0.1,0.1-0.2,0c-0.1,0-0.1-0.1-0.1-0.1
				c0-0.6-0.2-1-0.4-1.2c0,0,0,0,0,0c0,0,0,0,0,0c-0.1,0.4-0.2,0.7-0.2,1c0,0.3,0,0.6,0.1,0.9C25.4,18.1,25.6,18.3,25.6,18.4z"/>
			<path class="st484" d="M26.1,16.6C26.1,16.6,26.1,16.6,26.1,16.6C26.1,16.6,26.1,16.6,26.1,16.6c0.5-0.2,0.9-0.6,1.1-1.1
				c0.1-0.1,0.1-0.3,0.2-0.5c0,0,0,0,0,0c0,0,0,0,0,0c-0.4,0.2-0.7,0.5-0.7,0.5c0,0-0.1,0.1-0.2,0c-0.1,0-0.1-0.1-0.1-0.2
				c0-0.6-0.1-1-0.3-1.3c0,0,0,0,0,0l0,0c0,0,0,0,0,0c-0.1,0.3-0.3,0.7-0.3,1c0,0.3,0,0.6,0,0.9C25.9,16.3,26,16.5,26.1,16.6z"/>
			<path class="st484" d="M26.7,14.9C26.7,15,26.8,15,26.7,14.9L26.7,14.9c0.5-0.1,0.9-0.4,1.2-0.9c0.1-0.2,0.3-0.4,0.3-0.5
				c0,0,0,0,0,0c0,0,0,0,0,0c-0.5,0.1-0.8,0.4-0.8,0.4c-0.1,0.1-0.1,0.1-0.2,0c-0.1,0-0.1-0.1-0.1-0.2c0.1-0.6,0-1-0.1-1.3
				c0,0,0,0,0,0c0,0,0,0,0,0c-0.2,0.3-0.3,0.6-0.4,0.9c-0.1,0.3-0.1,0.6-0.1,0.9C26.6,14.6,26.7,14.9,26.7,14.9z"/>
			<path class="st484" d="M27.7,13.3L27.7,13.3c0.8-0.1,1.4-0.8,1.7-1.2c0,0,0,0,0,0c0,0,0,0,0,0c-0.4,0-0.8,0.3-0.8,0.3
				c-0.1,0-0.1,0-0.2,0c-0.1,0-0.1-0.1-0.1-0.2c0.2-0.5,0.2-1,0.1-1.3c0,0,0,0,0,0c0,0,0,0,0,0C27.4,12.1,27.6,13,27.7,13.3
				C27.7,13.3,27.7,13.3,27.7,13.3z"/>
			<path class="st484" d="M28.8,11.8C28.8,11.8,28.8,11.8,28.8,11.8c0.5,0,1-0.3,1.3-0.5c0.2-0.1,0.3-0.3,0.5-0.4c0,0,0,0,0,0
				c0,0,0,0,0,0c-0.4,0-0.8,0.1-0.8,0.1c-0.1,0-0.1,0-0.2,0c0-0.1-0.1-0.1,0-0.2c0.3-0.5,0.3-1,0.3-1.2c0,0,0,0,0,0c0,0,0,0,0,0
				c-0.3,0.2-0.5,0.5-0.7,0.8c-0.2,0.3-0.3,0.5-0.4,0.8C28.7,11.5,28.7,11.7,28.8,11.8C28.8,11.8,28.8,11.8,28.8,11.8z"/>
			<path class="st484" d="M32,9.8c-0.4,0-0.8,0.1-0.8,0.1c-0.1,0-0.1,0-0.2-0.1c0-0.1,0-0.1,0-0.2c0.3-0.5,0.4-0.9,0.4-1.2
				c0,0,0,0,0,0c0,0,0,0,0,0c-1.2,0.9-1.3,1.8-1.3,2.2c0,0,0,0,0,0c0,0,0.1,0,0.1,0C30.9,10.6,31.6,10.1,32,9.8
				C32,9.8,32,9.8,32,9.8C32,9.8,32,9.8,32,9.8z"/>
			<path class="st484" d="M33.5,9c-0.1,0-0.3-0.1-0.4-0.1c-0.2,0-0.4,0-0.4,0l0,0c-0.1,0-0.1,0-0.1-0.1c0-0.1,0-0.1,0-0.2
				c0.4-0.4,0.6-0.7,0.7-0.9c0,0,0,0,0,0c0,0,0,0,0,0c-1.4,0.5-1.7,1.3-1.8,1.6c0,0,0,0,0,0c0.1,0,0.3,0.1,0.6,0.1
				c0.3,0,0.6,0,1-0.2C33.2,9.2,33.4,9.1,33.5,9C33.5,9.1,33.5,9.1,33.5,9C33.5,9,33.5,9,33.5,9z"/>
			<path class="st484" d="M35.2,8.6c-0.4-0.2-0.8-0.3-0.8-0.3c-0.1,0-0.1-0.1-0.1-0.1c0-0.1,0-0.1,0.1-0.2c0.5-0.2,0.7-0.5,0.8-0.6
				c0,0,0,0,0,0c0,0,0,0,0,0c-0.7,0.1-1.3,0.3-1.7,0.7c-0.2,0.2-0.3,0.4-0.3,0.5c0,0,0,0,0,0c0.3,0.1,0.6,0.2,1,0.2
				c0.2,0,0.4,0,0.5,0C34.9,8.7,35.1,8.7,35.2,8.6C35.2,8.6,35.2,8.6,35.2,8.6C35.2,8.6,35.2,8.6,35.2,8.6z"/>
			<path class="st484" d="M36.3,8.1c-0.1,0-0.1-0.1-0.1-0.2c0-0.1,0-0.1,0.1-0.1c0.5-0.1,0.8-0.3,0.9-0.4c0,0,0,0,0,0c0,0,0,0,0,0
				c-0.7,0-1.3,0.1-1.8,0.3c-0.2,0.1-0.4,0.3-0.4,0.4c0,0,0,0,0,0c0.5,0.4,1.1,0.5,1.6,0.5c0.1,0,0.3,0,0.4,0c0,0,0,0,0,0
				c0,0,0,0,0,0C36.7,8.2,36.3,8.1,36.3,8.1z"/>
			<path class="st484" d="M38.2,8.2c-0.1,0-0.1-0.1-0.1-0.2c0-0.1,0.1-0.1,0.1-0.1c0.5-0.1,0.8-0.2,1-0.3c0,0,0,0,0,0c0,0,0,0,0,0
				c-0.7-0.2-1.3-0.2-1.8,0C37.2,7.7,37.1,7.9,37,8c0,0,0,0,0,0c0.6,0.7,1.4,0.8,1.9,0.9l0,0c0,0,0,0,0,0c0,0,0,0,0,0
				C38.6,8.5,38.2,8.2,38.2,8.2z"/>
			<path class="st484" d="M42.8,10.5C42.9,10.5,42.9,10.5,42.8,10.5c0-0.2,0-0.5-0.1-0.8c-0.2-0.5-0.6-0.9-1.3-1.1c0,0,0,0,0,0
				c0,0,0,0,0,0c0.1,0.3,0.2,0.6,0.5,1c0,0.1,0,0.1,0,0.2c0,0.1-0.1,0.1-0.2,0.1c0,0-0.4-0.1-0.8,0c0,0,0,0,0,0c0,0,0,0,0,0
				C41.4,10.1,42.1,10.5,42.8,10.5C42.8,10.5,42.8,10.5,42.8,10.5z"/>
			<path class="st484" d="M41.4,9.4C41.4,9.4,41.4,9.4,41.4,9.4C41,9,40.6,8.8,40,8.9c-0.2,0-0.4,0-0.6,0.1c0,0,0,0,0,0c0,0,0,0,0,0
				c0.4,0.3,0.9,0.5,1.3,0.5c0,0,0.1,0,0.1,0C41.1,9.5,41.3,9.4,41.4,9.4C41.4,9.4,41.4,9.4,41.4,9.4z"/>
			<path class="st484" d="M38.8,8.2C38.8,8.2,38.8,8.3,38.8,8.2c0.3,0.2,0.6,0.3,1,0.3c0.2,0,0.3,0,0.5,0c0.3-0.1,0.5-0.1,0.7-0.2
				c0,0,0,0,0,0c0,0,0,0,0,0C40.7,8.1,40.5,8,40.2,8c-0.3,0-0.6,0-0.8,0C39.1,8.1,38.9,8.2,38.8,8.2C38.8,8.2,38.8,8.2,38.8,8.2z"/>
		</g>
		<g>
			<path class="st485" d="M33.4,18.6c0.1,0.1,0.2,0.2,0.4,0.2h2.1C34.7,18,34.3,18.2,33.4,18.6C33.4,18.6,33.4,18.6,33.4,18.6z"/>
			<path class="st485" d="M38.5,17.7c-0.2-0.1-0.4-0.1-0.5-0.2c-0.6-0.3-1.2-0.7-1.2-0.7c-0.1-0.1-0.2-0.3,0-0.4
				c0.1-0.1,0.3-0.2,0.4-0.1c0,0,0.5,0.4,1.1,0.6c0.1,0,0.3,0.1,0.5,0.1c0.3,0.1,0.6,0.2,0.8,0.3c-0.1-0.3-0.1-0.6-0.2-0.9
				c-0.8-0.2-1.5-0.7-1.5-0.8c-0.1,0-0.1-0.1-0.1-0.2c0-0.1,0-0.2,0.1-0.2c0.1-0.1,0.3-0.1,0.4,0c0,0,0.4,0.4,1,0.6
				c-0.2-0.8-0.5-1.6-0.9-2.3c-0.3-0.5-0.7-0.9-1.2-1.1c-0.4-0.1-0.7-0.1-0.7-0.1c0,0,0,0,0,0c0,0-1,0-1.6,0.8c0,0,0,0,0,0
				c-0.1,0.1-0.4,0.5-0.5,0.8c0,0.2,0,0.3,0.1,0.3c0,0,0.2,0.1,0.5-0.1c0.1-0.1,0.1-0.1,0.1-0.1c0.1-0.1,0.3-0.1,0.4,0.1
				c0.1,0.1,0.1,0.3,0,0.4c0,0-0.1,0.1-0.1,0.1c-0.1,0.1-0.4,0.3-0.7,0.7c-0.4,0.5-0.9,1.4-1.1,2.6c0,0,0,0,0,0.1
				c0.9-0.4,1.6-0.5,3.1,0.5c0.6,0.4,1.3,0.4,1.4,0.4h0.7c0,0,0,0,0,0c0.2,0,0.7,0,0.9-0.3c0,0,0.1-0.1,0.1-0.1
				C39.5,18,39.2,17.9,38.5,17.7z"/>
		</g>
		<g>
			<path class="st486" d="M35.5,29.5c0.1-0.1,0.2-0.2,0.2-0.2c0,0,0-0.1-0.1-0.1c-0.1-0.1-0.1-0.1-0.2-0.1c-0.2,0-0.3,0.1-0.6,0.3
				c-0.2,0.1-0.5,0.4-0.4,0.6c0,0.1,0,0.1,0.1,0.2c0.1,0.1,0.4,0.1,0.5,0C35.1,29.9,35.2,29.7,35.5,29.5z"/>
			<path class="st486" d="M36.6,29.9c0,0,0-0.1-0.1-0.1c0,0-0.1-0.1-0.4,0.1c-0.2,0.1-0.5,0.3-0.6,0.5c0.1,0.1,0.1,0.1,0.2,0.1
				c0.2,0,0.6-0.2,0.7-0.2c0,0,0,0,0,0C36.4,30.1,36.5,30,36.6,29.9z"/>
			<path class="st486" d="M33.4,28.4C33.3,28.4,33.3,28.4,33.4,28.4c-0.3,0-0.6,0.1-0.7,0.3c-0.1,0.1-0.1,0.2-0.1,0.2
				c0,0,0.1,0.1,0.3,0.1c0,0,0.1,0,0.1,0c0.1-0.2,0.2-0.4,0.4-0.6c0,0,0.1-0.1,0.1-0.1C33.4,28.4,33.4,28.4,33.4,28.4
				C33.4,28.4,33.4,28.4,33.4,28.4z"/>
			<path class="st486" d="M33.4,29.4c0,0,0,0.2,0.3,0.3c0,0,0.1,0,0.1,0c0.1-0.3,0.3-0.5,0.6-0.8c0,0,0.1-0.1,0.1-0.1c0,0,0,0,0,0
				c0,0-0.1-0.1-0.1-0.1c-0.1,0-0.1,0-0.2,0c-0.2,0-0.4,0.1-0.6,0.3C33.5,29.1,33.4,29.2,33.4,29.4z"/>
			<path class="st486" d="M39.9,28.9c0.2,0,0.3,0,0.4-0.1c0.1-0.1,0.1-0.2,0.1-0.2c-0.2-0.2-0.7-0.8-1.4-1.3
				c-0.3-0.2-0.6-0.4-0.9-0.5c-0.4-0.1-0.7-0.2-0.9-0.1c0,0,0,0,0,0c-0.1,0-0.2,0.1-0.3,0.2c-0.1,0.1-0.2,0.1-0.3,0.2
				c-0.3,0.2-0.7,0.3-1.1,0.3c-0.3,0-0.7,0-0.9-0.3c-0.2-0.2-0.2-0.4-0.1-0.6c0.1-0.2,0.3-0.3,0.6-0.5c0.1-0.1,0.3-0.1,0.4-0.2
				c0.1-0.1,0.2-0.2,0.3-0.3c0.1-0.1,0.2-0.2,0.5-0.3c0.1-0.1,0.2-0.1,0.3-0.2c-0.1,0-0.2,0-0.3,0c-0.5,0-0.9,0.1-1.4,0.5
				c-0.5,0.3-1.3,0.6-2.7,0.9c-1.3,0.3-3.1,0.5-5.3,0.8c0.1,0.3,0.1,0.5,0.2,0.7c0.3,0.9,0.6,1.7,1.1,2.5c0.8-0.3,2.7-1.2,4.3-2
				c0.3-0.3,0.8-0.5,1.1-0.4c0.1,0,0.4,0,0.6,0.2c0.2-0.1,0.5-0.1,0.7,0.1c0.2,0.1,0.4,0.3,0.4,0.4l0,0c0.3-0.1,0.6,0,0.8,0.2
				c0.1,0.1,0.2,0.3,0.3,0.4c0.3,0,0.5,0.1,0.6,0.2c0.2,0.2,0.3,0.4,0.2,0.6c0,0.1-0.1,0.2-0.1,0.3c0.2,0,0.3,0,0.4-0.1
				c0,0,0.1,0,0.1-0.1c-0.1-0.1-0.2-0.3-0.4-0.5c0-0.1-0.1-0.1-0.1-0.2c0-0.1,0-0.1,0.1-0.2c0.1-0.1,0.3-0.1,0.4,0
				c0.3,0.3,0.4,0.6,0.5,0.7c0.1,0,0.3,0,0.4-0.1c0.1-0.1,0.1-0.1,0.1-0.2c0-0.1-0.1-0.2-0.3-0.4c-0.1-0.2-0.5-0.4-0.6-0.5
				c-0.1,0-0.1-0.1-0.1-0.2c0-0.1,0-0.1,0-0.2c0-0.1,0.1-0.1,0.2-0.1c0.1,0,0.1,0,0.2,0c0,0,0.5,0.3,0.7,0.6
				c0.2,0.2,0.3,0.4,0.4,0.5c0.2,0,0.3-0.1,0.4-0.2c0,0,0.1-0.1,0.1-0.1c-0.2-0.3-0.7-0.9-1.3-1.2c-0.1,0-0.1-0.1-0.1-0.2
				c0-0.1,0-0.1,0-0.2c0-0.1,0.1-0.1,0.2-0.1c0.1,0,0.1,0,0.2,0C39.1,27.9,39.7,28.6,39.9,28.9z"/>
			<path class="st486" d="M36.6,26.4c0.2-0.1,0.3-0.2,0.5-0.3c0.9-0.2,1.8,0.4,2.3,0.7c0.7,0.4,1.2,1,1.4,1.3c0,0,0,0,0,0.1l0,0
				c0,0,0,0,0,0c0.1,0.1,0.2,0.3,0.5,0.4c1.1,0.8,2.8,1.6,3.5,1.9c0.4-0.8,0.8-1.7,1.1-2.6c0.1-0.2,0.1-0.4,0.2-0.7
				c-1.4-0.1-2.9-0.4-3.9-0.6c-1.2-0.3-2-0.6-2.1-0.6c-0.2-0.1-0.4-0.2-0.6-0.2c-0.6-0.2-1.1-0.4-1.5-0.4c-0.1,0-0.1,0-0.2,0
				c-0.1,0-0.1,0-0.2,0h0c-0.4,0-0.7,0-1,0.2c-0.2,0.1-0.3,0.2-0.4,0.3c-0.1,0.1-0.2,0.2-0.4,0.3c-0.1,0.1-0.3,0.2-0.4,0.2
				c-0.1,0.1-0.3,0.2-0.4,0.2c0,0,0,0.1,0,0.1c0.1,0.1,0.2,0.1,0.5,0.1c0.2,0,0.6-0.1,0.8-0.3C36.4,26.5,36.5,26.5,36.6,26.4z"/>
		</g>
	</g>
</g>
</svg>
