<?xml version="1.0" encoding="utf-8"?>
<!-- Generator: Adobe Illustrator 23.0.2, SVG Export Plug-In . SVG Version: 6.00 Build 0)  -->
<svg version="1.1" id="Layer_1" xmlns="http://www.w3.org/2000/svg" xmlns:xlink="http://www.w3.org/1999/xlink" x="0px" y="0px"
	 viewBox="0 0 112.3 19.5" style="enable-background:new 0 0 112.3 19.5;" xml:space="preserve">
<style type="text/css">
	.st0{fill:#003D6B;}
</style>
<g>
	<g>
		<g>
			<g>
				<g>
					<g>
						<g>
							<path class="st0" d="M20.2,10.5c0-0.1,0-0.1-0.1-0.1L16,5.4c0.6-1.1,0.5-2.5-0.3-3.6c-1.2-1.4-3.3-1.5-4.6-0.3
								C9.9,2.7,9.8,4.7,10.9,6c0.9,1,2.2,1.3,3.4,0.9l3.1,3.7l-2.1,2.6c-1.2-0.4-2.6-0.1-3.4,1c-1.1,1.4-0.9,3.5,0.6,4.6
								c1.4,1,3.3,0.7,4.3-0.7c0.8-1,0.8-2.4,0.2-3.5l3.1-3.9C20.2,10.6,20.2,10.5,20.2,10.5z M14.3,5.1c-0.7,0.6-1.7,0.5-2.3-0.2
								c-0.6-0.7-0.5-1.7,0.2-2.3c0.7-0.6,1.7-0.5,2.3,0.2C15.1,3.5,15,4.6,14.3,5.1z M15.6,17.2C15,17.9,14,18,13.3,17.4
								c-0.7-0.6-0.8-1.6-0.2-2.3c0.6-0.7,1.6-0.8,2.3-0.2C16.1,15.5,16.2,16.5,15.6,17.2z"/>
						</g>
					</g>
					<g>
						<g>
							<path class="st0" d="M11.4,7.7c-0.7-0.3-1.3-0.8-1.7-1.5l-5.5,6.9c-1.2-0.4-2.6-0.1-3.4,1c-1.1,1.4-0.9,3.5,0.6,4.6
								c1.4,1,3.3,0.7,4.3-0.7c0.8-1,0.8-2.4,0.2-3.5L11.4,7.7C11.4,7.7,11.4,7.7,11.4,7.7z M4.5,17.2c-0.6,0.7-1.6,0.8-2.3,0.2
								c-0.7-0.6-0.8-1.6-0.2-2.3c0.6-0.7,1.6-0.8,2.3-0.2C5,15.5,5.1,16.5,4.5,17.2z"/>
						</g>
					</g>
					<g>
						<g>
							<path class="st0" d="M30.1,13.9L30.1,13.9l-4.3-5c0.6-1.1,0.6-2.5-0.3-3.6c-1.2-1.4-3.3-1.5-4.6-0.3
								c-1.2,1.2-1.3,3.1-0.2,4.4c0.9,1,2.2,1.3,3.4,0.9l4.2,5c0,0,0,0,0,0c0,0,0,0,0,0C29.1,15,29.7,14.5,30.1,13.9z M24.2,8.6
								c-0.7,0.6-1.7,0.5-2.3-0.2c-0.6-0.7-0.5-1.7,0.2-2.3c0.7-0.6,1.7-0.5,2.3,0.2C25,7,24.9,8,24.2,8.6z M28.4,15.3
								c0.4-0.6,1-1.1,1.7-1.4C29.4,14.2,28.9,14.7,28.4,15.3z"/>
						</g>
					</g>
				</g>
			</g>
		</g>
	</g>
	<g>
		<path class="st0" d="M41.4,3.4h2.5L50.8,19h-2.9l-1.6-3.7H39L37.4,19h-2.8L41.4,3.4z M45.3,12.8l-2.7-6.2L40,12.8H45.3z"/>
		<path class="st0" d="M53.1,7.3h2.7v1.8c0.8-1.1,1.8-2,3.6-2c2.6,0,4.2,1.8,4.2,4.5V19h-2.7v-6.6c0-1.8-0.9-2.9-2.5-2.9
			c-1.5,0-2.6,1.1-2.6,2.9V19h-2.7V7.3z"/>
		<path class="st0" d="M65.5,13.2L65.5,13.2c0-3.9,2.6-6.1,5.4-6.1c1.9,0,3.1,1,4,2.1V2.8h2.7V19h-2.7V17c-0.9,1.2-2.1,2.2-4,2.2
			C68.2,19.2,65.5,17,65.5,13.2z M75,13.2L75,13.2c0-2.3-1.6-3.8-3.4-3.8c-1.8,0-3.4,1.4-3.4,3.7v0c0,2.3,1.5,3.7,3.4,3.7
			C73.4,16.9,75,15.4,75,13.2z"/>
		<path class="st0" d="M81,3h2.9v2.5H81V3z M81.1,7.3h2.7V19h-2.7V7.3z"/>
		<path class="st0" d="M87.3,7.3H90v1.8c0.8-1.1,1.8-2,3.6-2c2.6,0,4.2,1.8,4.2,4.5V19h-2.7v-6.6c0-1.8-0.9-2.9-2.5-2.9
			c-1.5,0-2.6,1.1-2.6,2.9V19h-2.7V7.3z"/>
		<path class="st0" d="M99.7,13.2L99.7,13.2c0-3.4,2.7-6.1,6.2-6.1c3.6,0,6.2,2.7,6.2,6.1v0c0,3.3-2.7,6.1-6.3,6.1
			C102.3,19.2,99.7,16.5,99.7,13.2z M109.5,13.2L109.5,13.2c0-2.1-1.5-3.8-3.6-3.8c-2.1,0-3.5,1.7-3.5,3.7v0c0,2,1.5,3.7,3.6,3.7
			C108.1,16.9,109.5,15.2,109.5,13.2z"/>
	</g>
</g>
</svg>
