<?xml version="1.0" encoding="utf-8"?>
<!-- Generator: Adobe Illustrator 21.1.0, SVG Export Plug-In . SVG Version: 6.00 Build 0)  -->
<svg version="1.1" id="Layer_1" xmlns="http://www.w3.org/2000/svg" xmlns:xlink="http://www.w3.org/1999/xlink" x="0px" y="0px"
	 viewBox="0 0 42.8 31.1" style="enable-background:new 0 0 42.8 31.1;" xml:space="preserve">
<style type="text/css">
	.st0{fill:#FFFFFF;}
</style>
<g>
	<path class="st0" d="M35.5,9.1c0,0.3,0,0.6,0,0.9c0,9-6.9,19.5-19.5,19.5c-3.9,0-7.5-1.1-10.5-3.1c0.5,0.1,1.1,0.1,1.6,0.1
		c3.2,0,6.2-1.1,8.5-2.9c-3-0.1-5.5-2-6.4-4.7C9.6,19,10,19,10.5,19c0.6,0,1.2-0.1,1.8-0.2C9.2,18,6.9,15.3,6.9,12v-0.1
		c0.9,0.5,2,0.8,3.1,0.9c-1.8-1.2-3-3.3-3-5.7c0-1.3,0.3-2.4,0.9-3.4c3.4,4.1,8.4,6.9,14.1,7.1c-0.1-0.5-0.2-1-0.2-1.6
		c0-3.8,3.1-6.8,6.8-6.8c2,0,3.7,0.8,5,2.2c1.6-0.3,3-0.9,4.3-1.7c-0.5,1.6-1.6,2.9-3,3.8c1.4-0.2,2.7-0.5,3.9-1.1
		C38,6.9,36.8,8.1,35.5,9.1z"/>
</g>
</svg>
